<?xml version="1.0" encoding="UTF-8" standalone="no"?>
<!DOCTYPE svg PUBLIC "-//W3C//DTD SVG 1.1//EN"
 "http://www.w3.org/Graphics/SVG/1.1/DTD/svg11.dtd">
<!-- Generated by graphviz version 2.43.0 (0)
 -->
<!-- Title: interleavings Pages: 1 -->
<svg width="704pt" height="799pt"
 viewBox="0.00 0.00 704.23 798.87" xmlns="http://www.w3.org/2000/svg" xmlns:xlink="http://www.w3.org/1999/xlink">
<g id="graph0" class="graph" transform="scale(1 1) rotate(0) translate(4 794.87)">
<title>interleavings</title>
<polygon fill="white" stroke="transparent" points="-4,4 -4,-794.87 700.23,-794.87 700.23,4 -4,4"/>
<!-- 93a9f068&#45;be9e&#45;46dc&#45;b087&#45;80b1d30fa28b -->
<g id="node1" class="node">
<title>93a9f068&#45;be9e&#45;46dc&#45;b087&#45;80b1d30fa28b</title>
<polygon fill="#9b9bff" stroke="black" points="344.23,-673.4 162.23,-673.4 162.23,-635.4 344.23,-635.4 344.23,-673.4"/>
<text text-anchor="middle" x="253.23" y="-658.2" font-family="Times,serif" font-size="14.00">Confirmation of receipt</text>
<text text-anchor="middle" x="253.23" y="-643.2" font-family="Times,serif" font-size="14.00">1434</text>
</g>
<!-- bb9851bb&#45;5837&#45;4464&#45;9f6d&#45;ec0aa4c45345 -->
<g id="node2" class="node">
<title>bb9851bb&#45;5837&#45;4464&#45;9f6d&#45;ec0aa4c45345</title>
<polygon fill="#efefff" stroke="black" points="507.73,-584.4 216.73,-584.4 216.73,-546.4 507.73,-546.4 507.73,-584.4"/>
<text text-anchor="middle" x="362.23" y="-569.2" font-family="Times,serif" font-size="14.00">T04 Determine confirmation of receipt</text>
<text text-anchor="middle" x="362.23" y="-554.2" font-family="Times,serif" font-size="14.00">1307</text>
</g>
<!-- 93a9f068&#45;be9e&#45;46dc&#45;b087&#45;80b1d30fa28b&#45;&gt;bb9851bb&#45;5837&#45;4464&#45;9f6d&#45;ec0aa4c45345 -->
<g id="edge1" class="edge">
<title>93a9f068&#45;be9e&#45;46dc&#45;b087&#45;80b1d30fa28b&#45;&gt;bb9851bb&#45;5837&#45;4464&#45;9f6d&#45;ec0aa4c45345</title>
<path fill="none" stroke="black" stroke-width="1.94" d="M275.82,-635.38C292.04,-622.43 314.09,-604.83 331.85,-590.65"/>
<polygon fill="black" stroke="black" stroke-width="1.94" points="334.05,-593.38 339.68,-584.41 329.68,-587.91 334.05,-593.38"/>
<text text-anchor="middle" x="328.23" y="-606.2" font-family="Times,serif" font-size="14.00">888</text>
</g>
<!-- 0b1bfdd2&#45;1111&#45;489f&#45;a137&#45;f87a9054c53f -->
<g id="node3" class="node">
<title>0b1bfdd2&#45;1111&#45;489f&#45;a137&#45;f87a9054c53f</title>
<polygon fill="#a6a6ff" stroke="black" points="382.73,-481.17 83.73,-481.17 83.73,-443.17 382.73,-443.17 382.73,-481.17"/>
<text text-anchor="middle" x="233.23" y="-465.97" font-family="Times,serif" font-size="14.00">T06 Determine necessity of stop advice</text>
<text text-anchor="middle" x="233.23" y="-450.97" font-family="Times,serif" font-size="14.00">1416</text>
</g>
<!-- 93a9f068&#45;be9e&#45;46dc&#45;b087&#45;80b1d30fa28b&#45;&gt;0b1bfdd2&#45;1111&#45;489f&#45;a137&#45;f87a9054c53f -->
<g id="edge2" class="edge">
<title>93a9f068&#45;be9e&#45;46dc&#45;b087&#45;80b1d30fa28b&#45;&gt;0b1bfdd2&#45;1111&#45;489f&#45;a137&#45;f87a9054c53f</title>
<path fill="none" stroke="black" stroke-width="1.37" d="M224.85,-635.4C208.47,-623.23 189.34,-605.55 180.23,-584.4 166.03,-551.42 188.93,-513.51 208.93,-488.99"/>
<polygon fill="black" stroke="black" stroke-width="1.37" points="211.73,-491.1 215.54,-481.22 206.39,-486.57 211.73,-491.1"/>
<text text-anchor="middle" x="194.23" y="-561.7" font-family="Times,serif" font-size="14.00">418</text>
</g>
<!-- @@endnode1 -->
<g id="node5" class="node">
<title>@@endnode1</title>
<ellipse fill="none" stroke="black" cx="37.23" cy="-340.7" rx="33.44" ry="33.44"/>
<ellipse fill="none" stroke="black" cx="37.23" cy="-340.7" rx="37.47" ry="37.47"/>
<text text-anchor="start" x="21.73" y="-332.6" font-family="Times,serif" font-size="32.00">■</text>
</g>
<!-- 93a9f068&#45;be9e&#45;46dc&#45;b087&#45;80b1d30fa28b&#45;&gt;@@endnode1 -->
<g id="edge7" class="edge">
<title>93a9f068&#45;be9e&#45;46dc&#45;b087&#45;80b1d30fa28b&#45;&gt;@@endnode1</title>
<path fill="none" stroke="black" d="M200.71,-635.37C144.04,-612.7 56.97,-567.74 20.23,-495.4 2.83,-461.13 10.21,-417.11 20.1,-384.97"/>
<polygon fill="black" stroke="black" points="23.45,-386 23.22,-375.4 16.79,-383.82 23.45,-386"/>
<text text-anchor="middle" x="55.23" y="-517.2" font-family="Times,serif" font-size="14.00">116</text>
</g>
<!-- 6255379e&#45;df40&#45;4bed&#45;ba6b&#45;4a16a3cc6b0b -->
<g id="node6" class="node">
<title>6255379e&#45;df40&#45;4bed&#45;ba6b&#45;4a16a3cc6b0b</title>
<polygon fill="#c6c6ff" stroke="gray" points="530.73,-359.7 271.73,-359.7 271.73,-321.7 530.73,-321.7 530.73,-359.7"/>
<text text-anchor="middle" x="401.23" y="-344.5" font-family="Times,serif" font-size="14.00" fill="gray">T02 Check confirmation of receipt</text>
<text text-anchor="middle" x="401.23" y="-329.5" font-family="Times,serif" font-size="14.00" fill="gray">1368</text>
</g>
<!-- 93a9f068&#45;be9e&#45;46dc&#45;b087&#45;80b1d30fa28b&#45;&gt;6255379e&#45;df40&#45;4bed&#45;ba6b&#45;4a16a3cc6b0b -->
<g id="edge14" class="edge">
<title>93a9f068&#45;be9e&#45;46dc&#45;b087&#45;80b1d30fa28b&#45;&gt;6255379e&#45;df40&#45;4bed&#45;ba6b&#45;4a16a3cc6b0b</title>
<path fill="none" stroke="violet" stroke-width="2.17" stroke-dasharray="5,2" d="M344.35,-636.15C443.12,-615.22 590.54,-576.67 619.23,-528.4 642.45,-489.36 717.66,-529.79 580.23,-395.94 565.54,-381.63 547.2,-371.08 527.91,-363.3"/>
<polygon fill="violet" stroke="violet" stroke-width="2.17" points="528.97,-359.96 518.37,-359.7 526.49,-366.51 528.97,-359.96"/>
<text text-anchor="middle" x="652.73" y="-517.2" font-family="Times,serif" font-size="14.00" fill="violet">1078</text>
</g>
<!-- bb9851bb&#45;5837&#45;4464&#45;9f6d&#45;ec0aa4c45345&#45;&gt;0b1bfdd2&#45;1111&#45;489f&#45;a137&#45;f87a9054c53f -->
<g id="edge3" class="edge">
<title>bb9851bb&#45;5837&#45;4464&#45;9f6d&#45;ec0aa4c45345&#45;&gt;0b1bfdd2&#45;1111&#45;489f&#45;a137&#45;f87a9054c53f</title>
<path fill="none" stroke="black" stroke-width="1.94" d="M339.17,-546.31C318.39,-530 287.65,-505.87 264.63,-487.81"/>
<polygon fill="black" stroke="black" stroke-width="1.94" points="266.56,-484.87 256.53,-481.45 262.24,-490.38 266.56,-484.87"/>
<text text-anchor="middle" x="326.23" y="-517.2" font-family="Times,serif" font-size="14.00">892</text>
</g>
<!-- bb9851bb&#45;5837&#45;4464&#45;9f6d&#45;ec0aa4c45345&#45;&gt;@@endnode1 -->
<g id="edge6" class="edge">
<title>bb9851bb&#45;5837&#45;4464&#45;9f6d&#45;ec0aa4c45345&#45;&gt;@@endnode1</title>
<path fill="none" stroke="black" stroke-width="1.33" d="M248.17,-546.36C163.24,-531.79 59.73,-511.2 46.23,-495.4 21.13,-466.03 21.51,-420.83 26.59,-387.03"/>
<polygon fill="black" stroke="black" stroke-width="1.33" points="30.08,-387.38 28.3,-376.94 23.18,-386.22 30.08,-387.38"/>
<text text-anchor="middle" x="60.23" y="-458.47" font-family="Times,serif" font-size="14.00">387</text>
</g>
<!-- 842055db&#45;5d4a&#45;45e0&#45;a2a9&#45;f70d6a539eb1 -->
<g id="node7" class="node">
<title>842055db&#45;5d4a&#45;45e0&#45;a2a9&#45;f70d6a539eb1</title>
<polygon fill="#f3f3ff" stroke="gray" points="498.23,-252.47 178.23,-252.47 178.23,-214.47 498.23,-214.47 498.23,-252.47"/>
<text text-anchor="middle" x="338.23" y="-237.27" font-family="Times,serif" font-size="14.00" fill="gray">T05 Print and send confirmation of receipt</text>
<text text-anchor="middle" x="338.23" y="-222.27" font-family="Times,serif" font-size="14.00" fill="gray">1300</text>
</g>
<!-- bb9851bb&#45;5837&#45;4464&#45;9f6d&#45;ec0aa4c45345&#45;&gt;842055db&#45;5d4a&#45;45e0&#45;a2a9&#45;f70d6a539eb1 -->
<g id="edge15" class="edge">
<title>bb9851bb&#45;5837&#45;4464&#45;9f6d&#45;ec0aa4c45345&#45;&gt;842055db&#45;5d4a&#45;45e0&#45;a2a9&#45;f70d6a539eb1</title>
<path fill="none" stroke="violet" stroke-width="1.84" stroke-dasharray="5,2" d="M447.72,-546.39C475.19,-536.15 502.75,-520.2 519.23,-495.4 542.99,-459.67 565.19,-338.37 540.23,-303.47 524.56,-281.55 501.49,-266.52 476.5,-256.22"/>
<polygon fill="violet" stroke="violet" stroke-width="1.84" points="477.43,-252.83 466.84,-252.51 474.91,-259.36 477.43,-252.83"/>
<text text-anchor="middle" x="562.23" y="-399.74" font-family="Times,serif" font-size="14.00" fill="violet">805</text>
</g>
<!-- 0b1bfdd2&#45;1111&#45;489f&#45;a137&#45;f87a9054c53f&#45;&gt;@@endnode1 -->
<g id="edge5" class="edge">
<title>0b1bfdd2&#45;1111&#45;489f&#45;a137&#45;f87a9054c53f&#45;&gt;@@endnode1</title>
<path fill="none" stroke="black" stroke-width="1.91" d="M174.92,-443.12C153.06,-434.99 128.61,-424.21 108.23,-410.94 93.78,-401.52 79.76,-388.87 68.06,-376.95"/>
<polygon fill="black" stroke="black" stroke-width="1.91" points="70.52,-374.47 61.08,-369.67 65.47,-379.31 70.52,-374.47"/>
<text text-anchor="middle" x="122.23" y="-399.74" font-family="Times,serif" font-size="14.00">863</text>
</g>
<!-- 0b1bfdd2&#45;1111&#45;489f&#45;a137&#45;f87a9054c53f&#45;&gt;6255379e&#45;df40&#45;4bed&#45;ba6b&#45;4a16a3cc6b0b -->
<g id="edge16" class="edge">
<title>0b1bfdd2&#45;1111&#45;489f&#45;a137&#45;f87a9054c53f&#45;&gt;6255379e&#45;df40&#45;4bed&#45;ba6b&#45;4a16a3cc6b0b</title>
<path fill="none" stroke="violet" stroke-width="1.12" stroke-dasharray="5,2" d="M261.66,-442.97C276.06,-433.6 293.73,-421.88 309.23,-410.94 329.73,-396.47 352.23,-379.56 369.85,-366.07"/>
<polygon fill="violet" stroke="violet" stroke-width="1.12" points="372.28,-368.61 378.08,-359.74 368.02,-363.06 372.28,-368.61"/>
<text text-anchor="middle" x="343.23" y="-399.74" font-family="Times,serif" font-size="14.00" fill="violet">211</text>
</g>
<!-- 394c23ae&#45;f4d5&#45;4ae9&#45;b434&#45;e03fec4d703e -->
<g id="node8" class="node">
<title>394c23ae&#45;f4d5&#45;4ae9&#45;b434&#45;e03fec4d703e</title>
<polygon fill="#ffffff" stroke="gray" points="696.23,-163.47 372.23,-163.47 372.23,-125.47 696.23,-125.47 696.23,-163.47"/>
<text text-anchor="middle" x="534.23" y="-148.27" font-family="Times,serif" font-size="14.00" fill="gray">T10 Determine necessity to stop indication</text>
<text text-anchor="middle" x="534.23" y="-133.27" font-family="Times,serif" font-size="14.00" fill="gray">1283</text>
</g>
<!-- 0b1bfdd2&#45;1111&#45;489f&#45;a137&#45;f87a9054c53f&#45;&gt;394c23ae&#45;f4d5&#45;4ae9&#45;b434&#45;e03fec4d703e -->
<g id="edge17" class="edge">
<title>0b1bfdd2&#45;1111&#45;489f&#45;a137&#45;f87a9054c53f&#45;&gt;394c23ae&#45;f4d5&#45;4ae9&#45;b434&#45;e03fec4d703e</title>
<path fill="none" stroke="violet" stroke-width="1.09" stroke-dasharray="5,2" d="M219.01,-443.05C186.11,-398.8 111.78,-283.8 169.23,-214.47 183.47,-197.29 288.92,-178.53 382.85,-164.91"/>
<polygon fill="violet" stroke="violet" stroke-width="1.09" points="383.37,-168.37 392.77,-163.48 382.37,-161.44 383.37,-168.37"/>
<text text-anchor="middle" x="163.23" y="-274.27" font-family="Times,serif" font-size="14.00" fill="violet">193</text>
</g>
<!-- @@startnode1 -->
<g id="node4" class="node">
<title>@@startnode1</title>
<ellipse fill="none" stroke="black" cx="253.23" cy="-757.64" rx="33.47" ry="33.47"/>
<text text-anchor="start" x="237.73" y="-748.94" font-family="Times,serif" font-size="34.00">●</text>
</g>
<!-- @@startnode1&#45;&gt;93a9f068&#45;be9e&#45;46dc&#45;b087&#45;80b1d30fa28b -->
<g id="edge4" class="edge">
<title>@@startnode1&#45;&gt;93a9f068&#45;be9e&#45;46dc&#45;b087&#45;80b1d30fa28b</title>
<path fill="none" stroke="black" stroke-width="2.6" d="M253.23,-724.33C253.23,-711.35 253.23,-696.51 253.23,-683.94"/>
<polygon fill="black" stroke="black" stroke-width="2.6" points="256.73,-683.58 253.23,-673.58 249.73,-683.58 256.73,-683.58"/>
<text text-anchor="middle" x="271.73" y="-695.2" font-family="Times,serif" font-size="14.00">1434</text>
</g>
<!-- 6255379e&#45;df40&#45;4bed&#45;ba6b&#45;4a16a3cc6b0b&#45;&gt;bb9851bb&#45;5837&#45;4464&#45;9f6d&#45;ec0aa4c45345 -->
<g id="edge18" class="edge">
<title>6255379e&#45;df40&#45;4bed&#45;ba6b&#45;4a16a3cc6b0b&#45;&gt;bb9851bb&#45;5837&#45;4464&#45;9f6d&#45;ec0aa4c45345</title>
<path fill="none" stroke="violet" stroke-width="2.06" stroke-dasharray="5,2" d="M424.77,-359.77C436.46,-369.57 450.19,-382.43 460.23,-395.94 486.95,-431.87 498.22,-456.4 476.23,-495.4 464.66,-515.94 444.23,-531.07 423.83,-541.83"/>
<polygon fill="violet" stroke="violet" stroke-width="2.06" points="422.2,-538.73 414.81,-546.32 425.32,-545 422.2,-538.73"/>
<text text-anchor="middle" x="501.23" y="-458.47" font-family="Times,serif" font-size="14.00" fill="violet">989</text>
</g>
<!-- 6255379e&#45;df40&#45;4bed&#45;ba6b&#45;4a16a3cc6b0b&#45;&gt;0b1bfdd2&#45;1111&#45;489f&#45;a137&#45;f87a9054c53f -->
<g id="edge21" class="edge">
<title>6255379e&#45;df40&#45;4bed&#45;ba6b&#45;4a16a3cc6b0b&#45;&gt;0b1bfdd2&#45;1111&#45;489f&#45;a137&#45;f87a9054c53f</title>
<path fill="none" stroke="violet" stroke-width="1.08" stroke-dasharray="5,2" d="M341.85,-359.81C319.99,-368.41 296.01,-380.29 277.23,-395.94 264.74,-406.35 254.34,-421.2 246.8,-434.09"/>
<polygon fill="violet" stroke="violet" stroke-width="1.08" points="243.63,-432.61 241.83,-443.05 249.74,-436.01 243.63,-432.61"/>
<text text-anchor="middle" x="291.23" y="-399.74" font-family="Times,serif" font-size="14.00" fill="violet">180</text>
</g>
<!-- 6255379e&#45;df40&#45;4bed&#45;ba6b&#45;4a16a3cc6b0b&#45;&gt;842055db&#45;5d4a&#45;45e0&#45;a2a9&#45;f70d6a539eb1 -->
<g id="edge8" class="edge">
<title>6255379e&#45;df40&#45;4bed&#45;ba6b&#45;4a16a3cc6b0b&#45;&gt;842055db&#45;5d4a&#45;45e0&#45;a2a9&#45;f70d6a539eb1</title>
<path fill="none" stroke="gray" stroke-width="2.14" d="M390.26,-321.37C380.32,-304.77 365.56,-280.11 354.29,-261.29"/>
<polygon fill="gray" stroke="gray" stroke-width="2.14" points="357.22,-259.37 349.08,-252.59 351.22,-262.97 357.22,-259.37"/>
<text text-anchor="middle" x="385.73" y="-274.27" font-family="Times,serif" font-size="14.00" fill="gray">1053</text>
</g>
<!-- 6255379e&#45;df40&#45;4bed&#45;ba6b&#45;4a16a3cc6b0b&#45;&gt;394c23ae&#45;f4d5&#45;4ae9&#45;b434&#45;e03fec4d703e -->
<g id="edge9" class="edge">
<title>6255379e&#45;df40&#45;4bed&#45;ba6b&#45;4a16a3cc6b0b&#45;&gt;394c23ae&#45;f4d5&#45;4ae9&#45;b434&#45;e03fec4d703e</title>
<path fill="none" stroke="gray" stroke-width="1.15" d="M432.81,-321.51C456.75,-306.1 488.61,-281.86 507.23,-252.47 522.46,-228.44 529.1,-196.29 532,-173.52"/>
<polygon fill="gray" stroke="gray" stroke-width="1.15" points="535.49,-173.8 533.12,-163.48 528.54,-173.03 535.49,-173.8"/>
<text text-anchor="middle" x="537.23" y="-229.77" font-family="Times,serif" font-size="14.00" fill="gray">241</text>
</g>
<!-- 842055db&#45;5d4a&#45;45e0&#45;a2a9&#45;f70d6a539eb1&#45;&gt;0b1bfdd2&#45;1111&#45;489f&#45;a137&#45;f87a9054c53f -->
<g id="edge19" class="edge">
<title>842055db&#45;5d4a&#45;45e0&#45;a2a9&#45;f70d6a539eb1&#45;&gt;0b1bfdd2&#45;1111&#45;489f&#45;a137&#45;f87a9054c53f</title>
<path fill="none" stroke="violet" stroke-width="1.82" stroke-dasharray="5,2" d="M292.38,-252.55C270.62,-263.73 246.7,-280.41 234.23,-303.47 212.26,-344.11 218.82,-399.69 225.84,-432.86"/>
<polygon fill="violet" stroke="violet" stroke-width="1.82" points="222.47,-433.82 228.11,-442.79 229.3,-432.26 222.47,-433.82"/>
<text text-anchor="middle" x="248.23" y="-337" font-family="Times,serif" font-size="14.00" fill="violet">790</text>
</g>
<!-- 842055db&#45;5d4a&#45;45e0&#45;a2a9&#45;f70d6a539eb1&#45;&gt;394c23ae&#45;f4d5&#45;4ae9&#45;b434&#45;e03fec4d703e -->
<g id="edge10" class="edge">
<title>842055db&#45;5d4a&#45;45e0&#45;a2a9&#45;f70d6a539eb1&#45;&gt;394c23ae&#45;f4d5&#45;4ae9&#45;b434&#45;e03fec4d703e</title>
<path fill="none" stroke="gray" stroke-width="1.9" d="M378.85,-214.44C409.46,-200.85 451.62,-182.14 484.29,-167.64"/>
<polygon fill="gray" stroke="gray" stroke-width="1.9" points="485.95,-170.73 493.67,-163.47 483.11,-164.33 485.95,-170.73"/>
<text text-anchor="middle" x="461.23" y="-185.27" font-family="Times,serif" font-size="14.00" fill="gray">860</text>
</g>
<!-- @@endnode2 -->
<g id="node10" class="node">
<title>@@endnode2</title>
<ellipse fill="none" stroke="gray" cx="342.23" cy="-37.23" rx="33.44" ry="33.44"/>
<ellipse fill="none" stroke="gray" cx="342.23" cy="-37.23" rx="37.47" ry="37.47"/>
<text text-anchor="start" x="326.73" y="-29.13" font-family="Times,serif" font-size="32.00" fill="gray">■</text>
</g>
<!-- 842055db&#45;5d4a&#45;45e0&#45;a2a9&#45;f70d6a539eb1&#45;&gt;@@endnode2 -->
<g id="edge13" class="edge">
<title>842055db&#45;5d4a&#45;45e0&#45;a2a9&#45;f70d6a539eb1&#45;&gt;@@endnode2</title>
<path fill="none" stroke="gray" stroke-width="1.37" d="M337.23,-214.32C336.51,-200.4 335.61,-180.73 335.23,-163.47 334.87,-146.58 334.56,-142.34 335.23,-125.47 335.76,-112.29 336.74,-98.02 337.79,-84.91"/>
<polygon fill="gray" stroke="gray" stroke-width="1.37" points="341.3,-84.95 338.65,-74.7 334.33,-84.37 341.3,-84.95"/>
<text text-anchor="middle" x="349.23" y="-140.77" font-family="Times,serif" font-size="14.00">417</text>
</g>
<!-- 394c23ae&#45;f4d5&#45;4ae9&#45;b434&#45;e03fec4d703e&#45;&gt;bb9851bb&#45;5837&#45;4464&#45;9f6d&#45;ec0aa4c45345 -->
<g id="edge20" class="edge">
<title>394c23ae&#45;f4d5&#45;4ae9&#45;b434&#45;e03fec4d703e&#45;&gt;bb9851bb&#45;5837&#45;4464&#45;9f6d&#45;ec0aa4c45345</title>
<path fill="none" stroke="violet" stroke-width="1.18" stroke-dasharray="5,2" d="M561.89,-163.77C581.82,-179.38 605.23,-203.81 605.23,-232.47 605.23,-463.17 605.23,-463.17 605.23,-463.17 605.23,-515.12 555.74,-507.37 508.23,-528.4 495.05,-534.24 480.75,-539.24 466.44,-543.49"/>
<polygon fill="violet" stroke="violet" stroke-width="1.18" points="465.2,-540.2 456.54,-546.31 467.12,-546.93 465.2,-540.2"/>
<text text-anchor="middle" x="619.23" y="-337" font-family="Times,serif" font-size="14.00" fill="violet">268</text>
</g>
<!-- 394c23ae&#45;f4d5&#45;4ae9&#45;b434&#45;e03fec4d703e&#45;&gt;@@endnode2 -->
<g id="edge12" class="edge">
<title>394c23ae&#45;f4d5&#45;4ae9&#45;b434&#45;e03fec4d703e&#45;&gt;@@endnode2</title>
<path fill="none" stroke="gray" stroke-width="1.87" d="M501.23,-125.38C468.65,-107.52 418.74,-80.17 383.55,-60.88"/>
<polygon fill="gray" stroke="gray" stroke-width="1.87" points="384.94,-57.65 374.49,-55.91 381.58,-63.79 384.94,-57.65"/>
<text text-anchor="middle" x="480.23" y="-96.27" font-family="Times,serif" font-size="14.00">829</text>
</g>
<!-- @@startnode2 -->
<g id="node9" class="node">
<title>@@startnode2</title>
<ellipse fill="none" stroke="gray" cx="434.23" cy="-462.17" rx="33.47" ry="33.47"/>
<text text-anchor="start" x="418.73" y="-453.47" font-family="Times,serif" font-size="34.00" fill="gray">●</text>
</g>
<!-- @@startnode2&#45;&gt;6255379e&#45;df40&#45;4bed&#45;ba6b&#45;4a16a3cc6b0b -->
<g id="edge11" class="edge">
<title>@@startnode2&#45;&gt;6255379e&#45;df40&#45;4bed&#45;ba6b&#45;4a16a3cc6b0b</title>
<path fill="none" stroke="gray" stroke-width="2.26" d="M425.56,-429.78C420.4,-411.09 413.9,-387.57 408.92,-369.54"/>
<polygon fill="gray" stroke="gray" stroke-width="2.26" points="412.29,-368.6 406.26,-359.89 405.55,-370.46 412.29,-368.6"/>
<text text-anchor="middle" x="437.73" y="-399.74" font-family="Times,serif" font-size="14.00">1154</text>
</g>
</g>
</svg>
