<?xml version="1.0" encoding="UTF-8" standalone="no"?>
<!DOCTYPE svg PUBLIC "-//W3C//DTD SVG 1.1//EN"
 "http://www.w3.org/Graphics/SVG/1.1/DTD/svg11.dtd">
<!-- Generated by graphviz version 2.43.0 (0)
 -->
<!-- Title: interleavings Pages: 1 -->
<svg width="674pt" height="799pt"
 viewBox="0.00 0.00 674.23 798.87" xmlns="http://www.w3.org/2000/svg" xmlns:xlink="http://www.w3.org/1999/xlink">
<g id="graph0" class="graph" transform="scale(1 1) rotate(0) translate(4 794.87)">
<title>interleavings</title>
<polygon fill="white" stroke="transparent" points="-4,4 -4,-794.87 670.23,-794.87 670.23,4 -4,4"/>
<!-- 541c9efa&#45;2849&#45;429e&#45;aa8d&#45;6ffb33a366f6 -->
<g id="node1" class="node">
<title>541c9efa&#45;2849&#45;429e&#45;aa8d&#45;6ffb33a366f6</title>
<polygon fill="#9b9bff" stroke="black" points="335.23,-673.4 153.23,-673.4 153.23,-635.4 335.23,-635.4 335.23,-673.4"/>
<text text-anchor="middle" x="244.23" y="-658.2" font-family="Times,serif" font-size="14.00">Confirmation of receipt</text>
<text text-anchor="middle" x="244.23" y="-643.2" font-family="Times,serif" font-size="14.00">1434</text>
</g>
<!-- 394a33f0&#45;f614&#45;406e&#45;b188&#45;0333825eaeee -->
<g id="node2" class="node">
<title>394a33f0&#45;f614&#45;406e&#45;b188&#45;0333825eaeee</title>
<polygon fill="#efefff" stroke="black" points="493.73,-584.4 202.73,-584.4 202.73,-546.4 493.73,-546.4 493.73,-584.4"/>
<text text-anchor="middle" x="348.23" y="-569.2" font-family="Times,serif" font-size="14.00">T04 Determine confirmation of receipt</text>
<text text-anchor="middle" x="348.23" y="-554.2" font-family="Times,serif" font-size="14.00">1307</text>
</g>
<!-- 541c9efa&#45;2849&#45;429e&#45;aa8d&#45;6ffb33a366f6&#45;&gt;394a33f0&#45;f614&#45;406e&#45;b188&#45;0333825eaeee -->
<g id="edge1" class="edge">
<title>541c9efa&#45;2849&#45;429e&#45;aa8d&#45;6ffb33a366f6&#45;&gt;394a33f0&#45;f614&#45;406e&#45;b188&#45;0333825eaeee</title>
<path fill="none" stroke="black" stroke-width="1" d="M265.78,-635.38C281.12,-622.55 301.92,-605.15 318.79,-591.04"/>
<polygon fill="black" stroke="black" stroke-width="1" points="321.29,-593.51 326.71,-584.41 316.8,-588.14 321.29,-593.51"/>
<text text-anchor="middle" x="313.73" y="-606.2" font-family="Times,serif" font-size="14.00">1m</text>
</g>
<!-- dabebe32&#45;31ff&#45;45d8&#45;a971&#45;b342c72def36 -->
<g id="node3" class="node">
<title>dabebe32&#45;31ff&#45;45d8&#45;a971&#45;b342c72def36</title>
<polygon fill="#a6a6ff" stroke="black" points="359.73,-481.17 60.73,-481.17 60.73,-443.17 359.73,-443.17 359.73,-481.17"/>
<text text-anchor="middle" x="210.23" y="-465.97" font-family="Times,serif" font-size="14.00">T06 Determine necessity of stop advice</text>
<text text-anchor="middle" x="210.23" y="-450.97" font-family="Times,serif" font-size="14.00">1416</text>
</g>
<!-- 541c9efa&#45;2849&#45;429e&#45;aa8d&#45;6ffb33a366f6&#45;&gt;dabebe32&#45;31ff&#45;45d8&#45;a971&#45;b342c72def36 -->
<g id="edge2" class="edge">
<title>541c9efa&#45;2849&#45;429e&#45;aa8d&#45;6ffb33a366f6&#45;&gt;dabebe32&#45;31ff&#45;45d8&#45;a971&#45;b342c72def36</title>
<path fill="none" stroke="black" stroke-width="1" d="M215.85,-635.4C199.47,-623.23 180.34,-605.55 171.23,-584.4 157.6,-552.76 175.02,-514.71 190.74,-489.78"/>
<polygon fill="black" stroke="black" stroke-width="1" points="193.8,-491.5 196.39,-481.23 187.96,-487.64 193.8,-491.5"/>
<text text-anchor="middle" x="182.73" y="-561.7" font-family="Times,serif" font-size="14.00">1m</text>
</g>
<!-- @@endnode1 -->
<g id="node5" class="node">
<title>@@endnode1</title>
<ellipse fill="none" stroke="black" cx="37.23" cy="-340.7" rx="33.44" ry="33.44"/>
<ellipse fill="none" stroke="black" cx="37.23" cy="-340.7" rx="37.47" ry="37.47"/>
<text text-anchor="start" x="21.73" y="-332.6" font-family="Times,serif" font-size="32.00">■</text>
</g>
<!-- 541c9efa&#45;2849&#45;429e&#45;aa8d&#45;6ffb33a366f6&#45;&gt;@@endnode1 -->
<g id="edge7" class="edge">
<title>541c9efa&#45;2849&#45;429e&#45;aa8d&#45;6ffb33a366f6&#45;&gt;@@endnode1</title>
<path fill="none" stroke="black" d="M194.54,-635.26C139.92,-612.24 55.28,-566.74 20.23,-495.4 3.28,-460.9 10.61,-416.91 20.36,-384.84"/>
<polygon fill="black" stroke="black" points="23.71,-385.88 23.44,-375.29 17.04,-383.73 23.71,-385.88"/>
<text text-anchor="middle" x="42.73" y="-517.2" font-family="Times,serif" font-size="14.00"> </text>
</g>
<!-- 91993c25&#45;10b4&#45;4d37&#45;b338&#45;0a3cd3a089c3 -->
<g id="node6" class="node">
<title>91993c25&#45;10b4&#45;4d37&#45;b338&#45;0a3cd3a089c3</title>
<polygon fill="#c6c6ff" stroke="gray" points="511.73,-359.7 252.73,-359.7 252.73,-321.7 511.73,-321.7 511.73,-359.7"/>
<text text-anchor="middle" x="382.23" y="-344.5" font-family="Times,serif" font-size="14.00" fill="gray">T02 Check confirmation of receipt</text>
<text text-anchor="middle" x="382.23" y="-329.5" font-family="Times,serif" font-size="14.00" fill="gray">1368</text>
</g>
<!-- 541c9efa&#45;2849&#45;429e&#45;aa8d&#45;6ffb33a366f6&#45;&gt;91993c25&#45;10b4&#45;4d37&#45;b338&#45;0a3cd3a089c3 -->
<g id="edge14" class="edge">
<title>541c9efa&#45;2849&#45;429e&#45;aa8d&#45;6ffb33a366f6&#45;&gt;91993c25&#45;10b4&#45;4d37&#45;b338&#45;0a3cd3a089c3</title>
<path fill="none" stroke="violet" stroke-width="1" stroke-dasharray="5,2" d="M335.5,-652.03C422.5,-645.05 547.79,-618.77 600.23,-528.4 623.58,-488.18 694.14,-525.93 558.23,-395.94 543.34,-381.69 524.79,-371.18 505.37,-363.43"/>
<polygon fill="violet" stroke="violet" stroke-width="1" points="506.37,-360.07 495.78,-359.84 503.92,-366.62 506.37,-360.07"/>
<text text-anchor="middle" x="627.23" y="-517.2" font-family="Times,serif" font-size="14.00" fill="violet">35s</text>
</g>
<!-- 394a33f0&#45;f614&#45;406e&#45;b188&#45;0333825eaeee&#45;&gt;dabebe32&#45;31ff&#45;45d8&#45;a971&#45;b342c72def36 -->
<g id="edge3" class="edge">
<title>394a33f0&#45;f614&#45;406e&#45;b188&#45;0333825eaeee&#45;&gt;dabebe32&#45;31ff&#45;45d8&#45;a971&#45;b342c72def36</title>
<path fill="none" stroke="black" stroke-width="1" d="M323.56,-546.31C301.23,-529.92 268.16,-505.66 243.5,-487.57"/>
<polygon fill="black" stroke="black" stroke-width="1" points="245.29,-484.55 235.16,-481.45 241.15,-490.19 245.29,-484.55"/>
<text text-anchor="middle" x="306.73" y="-517.2" font-family="Times,serif" font-size="14.00">1m</text>
</g>
<!-- 394a33f0&#45;f614&#45;406e&#45;b188&#45;0333825eaeee&#45;&gt;@@endnode1 -->
<g id="edge6" class="edge">
<title>394a33f0&#45;f614&#45;406e&#45;b188&#45;0333825eaeee&#45;&gt;@@endnode1</title>
<path fill="none" stroke="black" stroke-width="1.33" d="M240.84,-546.33C159.36,-531.56 59.18,-510.7 46.23,-495.4 21.27,-465.91 21.63,-420.72 26.67,-386.96"/>
<polygon fill="black" stroke="black" stroke-width="1.33" points="30.16,-387.33 28.37,-376.88 23.26,-386.17 30.16,-387.33"/>
<text text-anchor="middle" x="48.73" y="-458.47" font-family="Times,serif" font-size="14.00"> </text>
</g>
<!-- 2bbf9982&#45;3a1c&#45;4646&#45;bfe3&#45;1feb9861effd -->
<g id="node7" class="node">
<title>2bbf9982&#45;3a1c&#45;4646&#45;bfe3&#45;1feb9861effd</title>
<polygon fill="#f3f3ff" stroke="gray" points="479.23,-252.47 159.23,-252.47 159.23,-214.47 479.23,-214.47 479.23,-252.47"/>
<text text-anchor="middle" x="319.23" y="-237.27" font-family="Times,serif" font-size="14.00" fill="gray">T05 Print and send confirmation of receipt</text>
<text text-anchor="middle" x="319.23" y="-222.27" font-family="Times,serif" font-size="14.00" fill="gray">1300</text>
</g>
<!-- 394a33f0&#45;f614&#45;406e&#45;b188&#45;0333825eaeee&#45;&gt;2bbf9982&#45;3a1c&#45;4646&#45;bfe3&#45;1feb9861effd -->
<g id="edge15" class="edge">
<title>394a33f0&#45;f614&#45;406e&#45;b188&#45;0333825eaeee&#45;&gt;2bbf9982&#45;3a1c&#45;4646&#45;bfe3&#45;1feb9861effd</title>
<path fill="none" stroke="violet" stroke-dasharray="5,2" d="M426.3,-546.35C453.51,-536.02 481.42,-520.02 498.23,-495.4 522.47,-459.93 546.22,-338.41 521.23,-303.47 505.56,-281.55 482.49,-266.52 457.5,-256.22"/>
<polygon fill="violet" stroke="violet" points="458.43,-252.83 447.84,-252.51 455.91,-259.36 458.43,-252.83"/>
<text text-anchor="middle" x="541.23" y="-399.74" font-family="Times,serif" font-size="14.00" fill="violet">23s</text>
</g>
<!-- dabebe32&#45;31ff&#45;45d8&#45;a971&#45;b342c72def36&#45;&gt;@@endnode1 -->
<g id="edge5" class="edge">
<title>dabebe32&#45;31ff&#45;45d8&#45;a971&#45;b342c72def36&#45;&gt;@@endnode1</title>
<path fill="none" stroke="black" stroke-width="1.91" d="M168.76,-443C150.74,-434.34 129.79,-423.2 112.23,-410.94 97.43,-400.6 82.54,-387.53 69.97,-375.54"/>
<polygon fill="black" stroke="black" stroke-width="1.91" points="72.07,-372.7 62.46,-368.24 67.19,-377.72 72.07,-372.7"/>
<text text-anchor="middle" x="114.73" y="-399.74" font-family="Times,serif" font-size="14.00"> </text>
</g>
<!-- dabebe32&#45;31ff&#45;45d8&#45;a971&#45;b342c72def36&#45;&gt;91993c25&#45;10b4&#45;4d37&#45;b338&#45;0a3cd3a089c3 -->
<g id="edge16" class="edge">
<title>dabebe32&#45;31ff&#45;45d8&#45;a971&#45;b342c72def36&#45;&gt;91993c25&#45;10b4&#45;4d37&#45;b338&#45;0a3cd3a089c3</title>
<path fill="none" stroke="violet" stroke-width="1.15" stroke-dasharray="5,2" d="M236.36,-443.03C266.12,-422.35 314.88,-388.49 347.74,-365.66"/>
<polygon fill="violet" stroke="violet" stroke-width="1.15" points="349.93,-368.4 356.15,-359.82 345.94,-362.65 349.93,-368.4"/>
<text text-anchor="middle" x="317.23" y="-399.74" font-family="Times,serif" font-size="14.00" fill="violet">39m</text>
</g>
<!-- 99d5b39b&#45;9869&#45;4ccc&#45;9c1a&#45;23eeae364e76 -->
<g id="node8" class="node">
<title>99d5b39b&#45;9869&#45;4ccc&#45;9c1a&#45;23eeae364e76</title>
<polygon fill="#ffffff" stroke="gray" points="666.23,-163.47 342.23,-163.47 342.23,-125.47 666.23,-125.47 666.23,-163.47"/>
<text text-anchor="middle" x="504.23" y="-148.27" font-family="Times,serif" font-size="14.00" fill="gray">T10 Determine necessity to stop indication</text>
<text text-anchor="middle" x="504.23" y="-133.27" font-family="Times,serif" font-size="14.00" fill="gray">1283</text>
</g>
<!-- dabebe32&#45;31ff&#45;45d8&#45;a971&#45;b342c72def36&#45;&gt;99d5b39b&#45;9869&#45;4ccc&#45;9c1a&#45;23eeae364e76 -->
<g id="edge17" class="edge">
<title>dabebe32&#45;31ff&#45;45d8&#45;a971&#45;b342c72def36&#45;&gt;99d5b39b&#45;9869&#45;4ccc&#45;9c1a&#45;23eeae364e76</title>
<path fill="none" stroke="violet" stroke-width="1" stroke-dasharray="5,2" d="M196.5,-443.03C164.75,-398.75 93.2,-283.7 150.23,-214.47 164.09,-197.65 267.51,-178.73 359.02,-164.96"/>
<polygon fill="violet" stroke="violet" stroke-width="1" points="359.59,-168.41 368.97,-163.47 358.56,-161.49 359.59,-168.41"/>
<text text-anchor="middle" x="142.23" y="-274.27" font-family="Times,serif" font-size="14.00" fill="violet">34s</text>
</g>
<!-- @@startnode1 -->
<g id="node4" class="node">
<title>@@startnode1</title>
<ellipse fill="none" stroke="black" cx="244.23" cy="-757.64" rx="33.47" ry="33.47"/>
<text text-anchor="start" x="228.73" y="-748.94" font-family="Times,serif" font-size="34.00">●</text>
</g>
<!-- @@startnode1&#45;&gt;541c9efa&#45;2849&#45;429e&#45;aa8d&#45;6ffb33a366f6 -->
<g id="edge4" class="edge">
<title>@@startnode1&#45;&gt;541c9efa&#45;2849&#45;429e&#45;aa8d&#45;6ffb33a366f6</title>
<path fill="none" stroke="black" stroke-width="2.6" d="M244.23,-724.33C244.23,-711.35 244.23,-696.51 244.23,-683.94"/>
<polygon fill="black" stroke="black" stroke-width="2.6" points="247.73,-683.58 244.23,-673.58 240.73,-683.58 247.73,-683.58"/>
<text text-anchor="middle" x="246.73" y="-695.2" font-family="Times,serif" font-size="14.00"> </text>
</g>
<!-- 91993c25&#45;10b4&#45;4d37&#45;b338&#45;0a3cd3a089c3&#45;&gt;394a33f0&#45;f614&#45;406e&#45;b188&#45;0333825eaeee -->
<g id="edge18" class="edge">
<title>91993c25&#45;10b4&#45;4d37&#45;b338&#45;0a3cd3a089c3&#45;&gt;394a33f0&#45;f614&#45;406e&#45;b188&#45;0333825eaeee</title>
<path fill="none" stroke="violet" stroke-width="1.06" stroke-dasharray="5,2" d="M403.63,-359.99C420.73,-376.13 443.42,-401.34 453.23,-428.94 463.13,-456.77 467.26,-469.4 453.23,-495.4 442.46,-515.37 423.11,-530.51 403.92,-541.44"/>
<polygon fill="violet" stroke="violet" stroke-width="1.06" points="402,-538.5 394.85,-546.32 405.32,-544.66 402,-538.5"/>
<text text-anchor="middle" x="478.23" y="-458.47" font-family="Times,serif" font-size="14.00" fill="violet">16m</text>
</g>
<!-- 91993c25&#45;10b4&#45;4d37&#45;b338&#45;0a3cd3a089c3&#45;&gt;dabebe32&#45;31ff&#45;45d8&#45;a971&#45;b342c72def36 -->
<g id="edge21" class="edge">
<title>91993c25&#45;10b4&#45;4d37&#45;b338&#45;0a3cd3a089c3&#45;&gt;dabebe32&#45;31ff&#45;45d8&#45;a971&#45;b342c72def36</title>
<path fill="none" stroke="violet" stroke-width="1.01" stroke-dasharray="5,2" d="M324.44,-359.72C302.29,-368.41 277.69,-380.38 258.23,-395.94 245.03,-406.49 233.64,-421.53 225.27,-434.5"/>
<polygon fill="violet" stroke="violet" stroke-width="1.01" points="222.25,-432.73 219.98,-443.07 228.21,-436.4 222.25,-432.73"/>
<text text-anchor="middle" x="269.73" y="-399.74" font-family="Times,serif" font-size="14.00" fill="violet">3m</text>
</g>
<!-- 91993c25&#45;10b4&#45;4d37&#45;b338&#45;0a3cd3a089c3&#45;&gt;2bbf9982&#45;3a1c&#45;4646&#45;bfe3&#45;1feb9861effd -->
<g id="edge8" class="edge">
<title>91993c25&#45;10b4&#45;4d37&#45;b338&#45;0a3cd3a089c3&#45;&gt;2bbf9982&#45;3a1c&#45;4646&#45;bfe3&#45;1feb9861effd</title>
<path fill="none" stroke="gray" stroke-width="1" d="M371.26,-321.37C361.32,-304.77 346.56,-280.11 335.29,-261.29"/>
<polygon fill="gray" stroke="gray" stroke-width="1" points="338.22,-259.37 330.08,-252.59 332.22,-262.97 338.22,-259.37"/>
<text text-anchor="middle" x="359.73" y="-274.27" font-family="Times,serif" font-size="14.00" fill="gray">1m</text>
</g>
<!-- 91993c25&#45;10b4&#45;4d37&#45;b338&#45;0a3cd3a089c3&#45;&gt;99d5b39b&#45;9869&#45;4ccc&#45;9c1a&#45;23eeae364e76 -->
<g id="edge9" class="edge">
<title>91993c25&#45;10b4&#45;4d37&#45;b338&#45;0a3cd3a089c3&#45;&gt;99d5b39b&#45;9869&#45;4ccc&#45;9c1a&#45;23eeae364e76</title>
<path fill="none" stroke="gray" stroke-width="1.01" d="M415.13,-321.68C439.46,-306.53 471.2,-282.54 488.23,-252.47 501.9,-228.34 505.12,-196.46 505.41,-173.79"/>
<polygon fill="gray" stroke="gray" stroke-width="1.01" points="508.91,-173.76 505.35,-163.78 501.91,-173.8 508.91,-173.76"/>
<text text-anchor="middle" x="512.73" y="-229.77" font-family="Times,serif" font-size="14.00" fill="gray">3m</text>
</g>
<!-- 2bbf9982&#45;3a1c&#45;4646&#45;bfe3&#45;1feb9861effd&#45;&gt;dabebe32&#45;31ff&#45;45d8&#45;a971&#45;b342c72def36 -->
<g id="edge19" class="edge">
<title>2bbf9982&#45;3a1c&#45;4646&#45;bfe3&#45;1feb9861effd&#45;&gt;dabebe32&#45;31ff&#45;45d8&#45;a971&#45;b342c72def36</title>
<path fill="none" stroke="violet" stroke-width="1.05" stroke-dasharray="5,2" d="M270.82,-252.54C248.47,-263.61 224.08,-280.19 211.23,-303.47 188.91,-343.92 195.58,-399.56 202.72,-432.79"/>
<polygon fill="violet" stroke="violet" stroke-width="1.05" points="199.36,-433.79 205.02,-442.75 206.18,-432.21 199.36,-433.79"/>
<text text-anchor="middle" x="227.23" y="-337" font-family="Times,serif" font-size="14.00" fill="violet">13m</text>
</g>
<!-- 2bbf9982&#45;3a1c&#45;4646&#45;bfe3&#45;1feb9861effd&#45;&gt;99d5b39b&#45;9869&#45;4ccc&#45;9c1a&#45;23eeae364e76 -->
<g id="edge10" class="edge">
<title>2bbf9982&#45;3a1c&#45;4646&#45;bfe3&#45;1feb9861effd&#45;&gt;99d5b39b&#45;9869&#45;4ccc&#45;9c1a&#45;23eeae364e76</title>
<path fill="none" stroke="gray" stroke-width="1.01" d="M357.57,-214.44C386.34,-200.91 425.91,-182.3 456.7,-167.82"/>
<polygon fill="gray" stroke="gray" stroke-width="1.01" points="458.39,-170.89 465.95,-163.47 455.41,-164.56 458.39,-170.89"/>
<text text-anchor="middle" x="433.73" y="-185.27" font-family="Times,serif" font-size="14.00" fill="gray">1m</text>
</g>
<!-- @@endnode2 -->
<g id="node10" class="node">
<title>@@endnode2</title>
<ellipse fill="none" stroke="gray" cx="335.23" cy="-37.23" rx="33.44" ry="33.44"/>
<ellipse fill="none" stroke="gray" cx="335.23" cy="-37.23" rx="37.47" ry="37.47"/>
<text text-anchor="start" x="319.73" y="-29.13" font-family="Times,serif" font-size="32.00" fill="gray">■</text>
</g>
<!-- 2bbf9982&#45;3a1c&#45;4646&#45;bfe3&#45;1feb9861effd&#45;&gt;@@endnode2 -->
<g id="edge13" class="edge">
<title>2bbf9982&#45;3a1c&#45;4646&#45;bfe3&#45;1feb9861effd&#45;&gt;@@endnode2</title>
<path fill="none" stroke="gray" stroke-width="1.37" d="M320.74,-214.19C323.16,-184.86 327.98,-126.34 331.39,-84.85"/>
<polygon fill="gray" stroke="gray" stroke-width="1.37" points="334.9,-84.95 332.23,-74.7 327.92,-84.38 334.9,-84.95"/>
<text text-anchor="middle" x="329.73" y="-140.77" font-family="Times,serif" font-size="14.00"> </text>
</g>
<!-- 99d5b39b&#45;9869&#45;4ccc&#45;9c1a&#45;23eeae364e76&#45;&gt;394a33f0&#45;f614&#45;406e&#45;b188&#45;0333825eaeee -->
<g id="edge20" class="edge">
<title>99d5b39b&#45;9869&#45;4ccc&#45;9c1a&#45;23eeae364e76&#45;&gt;394a33f0&#45;f614&#45;406e&#45;b188&#45;0333825eaeee</title>
<path fill="none" stroke="violet" stroke-width="1.02" stroke-dasharray="5,2" d="M537.59,-163.69C560.29,-178.79 586.23,-202.58 586.23,-232.47 586.23,-463.17 586.23,-463.17 586.23,-463.17 586.23,-508.76 548.8,-534.11 503.62,-548.1"/>
<polygon fill="violet" stroke="violet" stroke-width="1.02" points="502.51,-544.78 493.88,-550.92 504.46,-551.51 502.51,-544.78"/>
<text text-anchor="middle" x="597.73" y="-337" font-family="Times,serif" font-size="14.00" fill="violet">4m</text>
</g>
<!-- 99d5b39b&#45;9869&#45;4ccc&#45;9c1a&#45;23eeae364e76&#45;&gt;@@endnode2 -->
<g id="edge12" class="edge">
<title>99d5b39b&#45;9869&#45;4ccc&#45;9c1a&#45;23eeae364e76&#45;&gt;@@endnode2</title>
<path fill="none" stroke="gray" stroke-width="1.87" d="M475.18,-125.38C447.61,-108.21 405.94,-82.26 375.23,-63.14"/>
<polygon fill="gray" stroke="gray" stroke-width="1.87" points="376.82,-60.01 366.48,-57.69 373.12,-65.95 376.82,-60.01"/>
<text text-anchor="middle" x="446.73" y="-96.27" font-family="Times,serif" font-size="14.00"> </text>
</g>
<!-- @@startnode2 -->
<g id="node9" class="node">
<title>@@startnode2</title>
<ellipse fill="none" stroke="gray" cx="411.23" cy="-462.17" rx="33.47" ry="33.47"/>
<text text-anchor="start" x="395.73" y="-453.47" font-family="Times,serif" font-size="34.00" fill="gray">●</text>
</g>
<!-- @@startnode2&#45;&gt;91993c25&#45;10b4&#45;4d37&#45;b338&#45;0a3cd3a089c3 -->
<g id="edge11" class="edge">
<title>@@startnode2&#45;&gt;91993c25&#45;10b4&#45;4d37&#45;b338&#45;0a3cd3a089c3</title>
<path fill="none" stroke="gray" stroke-width="2.26" d="M403.61,-429.78C399.1,-411.17 393.42,-387.79 389.05,-369.79"/>
<polygon fill="gray" stroke="gray" stroke-width="2.26" points="392.41,-368.78 386.65,-359.89 385.61,-370.43 392.41,-368.78"/>
<text text-anchor="middle" x="400.73" y="-399.74" font-family="Times,serif" font-size="14.00"> </text>
</g>
</g>
</svg>
