<?xml version="1.0" encoding="UTF-8" standalone="no"?>
<!DOCTYPE svg PUBLIC "-//W3C//DTD SVG 1.1//EN"
 "http://www.w3.org/Graphics/SVG/1.1/DTD/svg11.dtd">
<!-- Generated by graphviz version 2.43.0 (0)
 -->
<!-- Title: pt Pages: 1 -->
<svg width="6710pt" height="541pt"
 viewBox="0.00 0.00 6709.95 540.70" xmlns="http://www.w3.org/2000/svg" xmlns:xlink="http://www.w3.org/1999/xlink">
<g id="graph0" class="graph" transform="scale(1 1) rotate(0) translate(4 536.7)">
<title>pt</title>
<polygon fill="white" stroke="transparent" points="-4,4 -4,-536.7 6705.95,-536.7 6705.95,4 -4,4"/>
<!-- 6173c78a&#45;9f59&#45;4f56&#45;baa1&#45;7854d631f6e4 -->
<g id="node1" class="node">
<title>6173c78a&#45;9f59&#45;4f56&#45;baa1&#45;7854d631f6e4</title>
<ellipse fill="#4c4b3f" stroke="black" cx="5043.95" cy="-505.83" rx="113.27" ry="26.74"/>
<text text-anchor="middle" x="5043.95" y="-509.63" font-family="Times,serif" font-size="14.00">Group 2</text>
<text text-anchor="middle" x="5043.95" y="-494.63" font-family="Times,serif" font-size="14.00">(in=1218; out=812)</text>
</g>
<!-- 6d140af6&#45;8975&#45;41ef&#45;b1cf&#45;387d2ab6098c -->
<g id="node4" class="node">
<title>6d140af6&#45;8975&#45;41ef&#45;b1cf&#45;387d2ab6098c</title>
<ellipse fill="#4c4b3f" stroke="black" cx="2816.95" cy="-386.09" rx="119.5" ry="26.74"/>
<text text-anchor="middle" x="2816.95" y="-389.89" font-family="Times,serif" font-size="14.00">Group 1</text>
<text text-anchor="middle" x="2816.95" y="-374.89" font-family="Times,serif" font-size="14.00">(in=2818; out=2231)</text>
</g>
<!-- 6173c78a&#45;9f59&#45;4f56&#45;baa1&#45;7854d631f6e4&#45;&gt;6d140af6&#45;8975&#45;41ef&#45;b1cf&#45;387d2ab6098c -->
<g id="edge39" class="edge">
<title>6173c78a&#45;9f59&#45;4f56&#45;baa1&#45;7854d631f6e4&#45;&gt;6d140af6&#45;8975&#45;41ef&#45;b1cf&#45;387d2ab6098c</title>
<path fill="none" stroke="black" stroke-width="2.09" d="M4930.98,-503.51C4604.58,-499.46 3663.93,-485.87 3356.95,-460.96 3204.21,-448.57 3028.62,-422.29 2920.21,-404.66"/>
<polygon fill="black" stroke="black" stroke-width="2.09" points="2920.69,-401.19 2910.26,-403.03 2919.56,-408.1 2920.69,-401.19"/>
<text text-anchor="middle" x="3508.95" y="-449.76" font-family="Times,serif" font-size="14.00">T05 Print and send confirmation of receipt</text>
<text text-anchor="middle" x="3508.95" y="-434.76" font-family="Times,serif" font-size="14.00">800</text>
</g>
<!-- 73521a19&#45;f375&#45;40ec&#45;b623&#45;b7aba4acb79a -->
<g id="node6" class="node">
<title>73521a19&#45;f375&#45;40ec&#45;b623&#45;b7aba4acb79a</title>
<ellipse fill="#4c4b3f" stroke="black" cx="3386.95" cy="-146.61" rx="113.27" ry="26.74"/>
<text text-anchor="middle" x="3386.95" y="-150.41" font-family="Times,serif" font-size="14.00">EMPTY</text>
<text text-anchor="middle" x="3386.95" y="-135.41" font-family="Times,serif" font-size="14.00">(in=760; out=1753)</text>
</g>
<!-- 6173c78a&#45;9f59&#45;4f56&#45;baa1&#45;7854d631f6e4&#45;&gt;73521a19&#45;f375&#45;40ec&#45;b623&#45;b7aba4acb79a -->
<g id="edge38" class="edge">
<title>6173c78a&#45;9f59&#45;4f56&#45;baa1&#45;7854d631f6e4&#45;&gt;73521a19&#45;f375&#45;40ec&#45;b623&#45;b7aba4acb79a</title>
<path fill="none" stroke="black" stroke-width="1.02" d="M4930.7,-504.61C4292.76,-502.85 1171.3,-486.77 1033.95,-341.22 1019.48,-325.89 1004.89,-232.22 1050.95,-191.48 1092.71,-154.54 2786.96,-148.69 3263.44,-147.78"/>
<polygon fill="black" stroke="black" stroke-width="1.02" points="3263.79,-151.28 3273.79,-147.76 3263.78,-144.28 3263.79,-151.28"/>
<text text-anchor="middle" x="1185.95" y="-330.02" font-family="Times,serif" font-size="14.00">T05 Print and send confirmation of receipt</text>
<text text-anchor="middle" x="1185.95" y="-315.02" font-family="Times,serif" font-size="14.00">12</text>
</g>
<!-- 5d5e4826&#45;805a&#45;4d3f&#45;9d7b&#45;1d1a350b9bd6 -->
<g id="node2" class="node">
<title>5d5e4826&#45;805a&#45;4d3f&#45;9d7b&#45;1d1a350b9bd6</title>
<ellipse fill="#4c4b3f" stroke="black" cx="5727.95" cy="-266.35" rx="119.5" ry="26.74"/>
<text text-anchor="middle" x="5727.95" y="-270.15" font-family="Times,serif" font-size="14.00">Group 3</text>
<text text-anchor="middle" x="5727.95" y="-255.15" font-family="Times,serif" font-size="14.00">(in=1138; out=1137)</text>
</g>
<!-- 5d5e4826&#45;805a&#45;4d3f&#45;9d7b&#45;1d1a350b9bd6&#45;&gt;6173c78a&#45;9f59&#45;4f56&#45;baa1&#45;7854d631f6e4 -->
<g id="edge42" class="edge">
<title>5d5e4826&#45;805a&#45;4d3f&#45;9d7b&#45;1d1a350b9bd6&#45;&gt;6173c78a&#45;9f59&#45;4f56&#45;baa1&#45;7854d631f6e4</title>
<path fill="none" stroke="black" stroke-width="2.31" d="M5846.26,-270.61C5913.89,-275.25 5989.43,-286.11 6010.95,-311.22 6019.62,-321.34 6020.04,-331.47 6010.95,-341.22 5991.35,-362.24 5781.31,-354.63 5752.95,-359.22 5573.13,-388.29 5534.63,-425.62 5355.95,-460.96 5289.75,-474.05 5214.9,-484.72 5155.11,-492.25"/>
<polygon fill="black" stroke="black" stroke-width="2.31" points="5154.38,-488.81 5144.89,-493.52 5155.24,-495.76 5154.38,-488.81"/>
<text text-anchor="middle" x="5890.45" y="-389.89" font-family="Times,serif" font-size="14.00">T04 Determine confirmation of receipt</text>
<text text-anchor="middle" x="5890.45" y="-374.89" font-family="Times,serif" font-size="14.00">957</text>
</g>
<!-- 5d5e4826&#45;805a&#45;4d3f&#45;9d7b&#45;1d1a350b9bd6&#45;&gt;6173c78a&#45;9f59&#45;4f56&#45;baa1&#45;7854d631f6e4 -->
<g id="edge43" class="edge">
<title>5d5e4826&#45;805a&#45;4d3f&#45;9d7b&#45;1d1a350b9bd6&#45;&gt;6173c78a&#45;9f59&#45;4f56&#45;baa1&#45;7854d631f6e4</title>
<path fill="none" stroke="black" stroke-width="1.02" d="M5846.87,-269.29C5920.11,-273.3 6004.37,-283.94 6027.95,-311.22 6057.52,-345.43 6058.4,-379.53 6027.95,-412.96 5970.96,-475.51 5417.52,-496.21 5166.57,-502.42"/>
<polygon fill="black" stroke="black" stroke-width="1.02" points="5166.22,-498.93 5156.31,-502.67 5166.39,-505.92 5166.22,-498.93"/>
<text text-anchor="middle" x="6218.45" y="-389.89" font-family="Times,serif" font-size="14.00">T14 Determine document X request unlicensed</text>
<text text-anchor="middle" x="6218.45" y="-374.89" font-family="Times,serif" font-size="14.00">18</text>
</g>
<!-- 5d5e4826&#45;805a&#45;4d3f&#45;9d7b&#45;1d1a350b9bd6&#45;&gt;6173c78a&#45;9f59&#45;4f56&#45;baa1&#45;7854d631f6e4 -->
<g id="edge44" class="edge">
<title>5d5e4826&#45;805a&#45;4d3f&#45;9d7b&#45;1d1a350b9bd6&#45;&gt;6173c78a&#45;9f59&#45;4f56&#45;baa1&#45;7854d631f6e4</title>
<path fill="none" stroke="black" stroke-width="1.02" d="M5841.24,-275.02C6021.12,-288.37 6355.48,-318.4 6390.95,-359.22 6406.61,-377.25 6406.93,-395.21 6390.95,-412.96 6350.25,-458.15 5490.08,-490.45 5166.01,-501.06"/>
<polygon fill="black" stroke="black" stroke-width="1.02" points="5165.53,-497.57 5155.65,-501.4 5165.75,-504.57 5165.53,-497.57"/>
<text text-anchor="middle" x="6551.95" y="-389.89" font-family="Times,serif" font-size="14.00">T19 Determine report Y to stop indication</text>
<text text-anchor="middle" x="6551.95" y="-374.89" font-family="Times,serif" font-size="14.00">17</text>
</g>
<!-- 5d5e4826&#45;805a&#45;4d3f&#45;9d7b&#45;1d1a350b9bd6&#45;&gt;6d140af6&#45;8975&#45;41ef&#45;b1cf&#45;387d2ab6098c -->
<g id="edge41" class="edge">
<title>5d5e4826&#45;805a&#45;4d3f&#45;9d7b&#45;1d1a350b9bd6&#45;&gt;6d140af6&#45;8975&#45;41ef&#45;b1cf&#45;387d2ab6098c</title>
<path fill="none" stroke="black" stroke-width="1.11" d="M5610.95,-271.95C5352.8,-282.17 4756.42,-306.28 4746.95,-311.22 4732.05,-318.99 4738.93,-333.61 4723.95,-341.22 4644.91,-381.36 3363.7,-385.04 2946.87,-385.17"/>
<polygon fill="black" stroke="black" stroke-width="1.11" points="2946.58,-381.67 2936.58,-385.18 2946.58,-388.67 2946.58,-381.67"/>
<text text-anchor="middle" x="4884.45" y="-330.02" font-family="Times,serif" font-size="14.00">T04 Determine confirmation of receipt</text>
<text text-anchor="middle" x="4884.45" y="-315.02" font-family="Times,serif" font-size="14.00">85</text>
</g>
<!-- 5d5e4826&#45;805a&#45;4d3f&#45;9d7b&#45;1d1a350b9bd6&#45;&gt;73521a19&#45;f375&#45;40ec&#45;b623&#45;b7aba4acb79a -->
<g id="edge40" class="edge">
<title>5d5e4826&#45;805a&#45;4d3f&#45;9d7b&#45;1d1a350b9bd6&#45;&gt;73521a19&#45;f375&#45;40ec&#45;b623&#45;b7aba4acb79a</title>
<path fill="none" stroke="black" stroke-width="1.08" d="M5613.04,-258.96C5454.95,-249.79 5187.65,-232.75 5168.95,-221.48 5155.43,-213.34 5163.68,-199.26 5149.95,-191.48 5078.84,-151.19 3899.64,-147.59 3510.46,-147.51"/>
<polygon fill="black" stroke="black" stroke-width="1.08" points="3510.3,-144.01 3500.3,-147.5 3510.3,-151.01 3510.3,-144.01"/>
<text text-anchor="middle" x="5306.45" y="-210.28" font-family="Times,serif" font-size="14.00">T04 Determine confirmation of receipt</text>
<text text-anchor="middle" x="5306.45" y="-195.28" font-family="Times,serif" font-size="14.00">60</text>
</g>
<!-- 2afaa594&#45;b837&#45;4a5f&#45;911b&#45;06fd4d42606a -->
<g id="node3" class="node">
<title>2afaa594&#45;b837&#45;4a5f&#45;911b&#45;06fd4d42606a</title>
<ellipse fill="#4c4b3f" stroke="black" cx="1733.95" cy="-26.87" rx="119.5" ry="26.74"/>
<text text-anchor="middle" x="1733.95" y="-30.67" font-family="Times,serif" font-size="14.00">Group 4</text>
<text text-anchor="middle" x="1733.95" y="-15.67" font-family="Times,serif" font-size="14.00">(in=1042; out=1038)</text>
</g>
<!-- 2afaa594&#45;b837&#45;4a5f&#45;911b&#45;06fd4d42606a&#45;&gt;5d5e4826&#45;805a&#45;4d3f&#45;9d7b&#45;1d1a350b9bd6 -->
<g id="edge48" class="edge">
<title>2afaa594&#45;b837&#45;4a5f&#45;911b&#45;06fd4d42606a&#45;&gt;5d5e4826&#45;805a&#45;4d3f&#45;9d7b&#45;1d1a350b9bd6</title>
<path fill="none" stroke="black" stroke-width="2.12" d="M1853.36,-27.94C2479.44,-28.45 5369.61,-32.91 5766.95,-71.74 5883.03,-83.08 5950.4,-30.04 6024.95,-119.74 6085.01,-192.01 5946.93,-231.38 5839.48,-250.39"/>
<polygon fill="black" stroke="black" stroke-width="2.12" points="5838.77,-246.96 5829.51,-252.11 5839.96,-253.86 5838.77,-246.96"/>
<text text-anchor="middle" x="6160.45" y="-150.41" font-family="Times,serif" font-size="14.00">T02 Check confirmation of receipt</text>
<text text-anchor="middle" x="6160.45" y="-135.41" font-family="Times,serif" font-size="14.00">819</text>
</g>
<!-- 2afaa594&#45;b837&#45;4a5f&#45;911b&#45;06fd4d42606a&#45;&gt;5d5e4826&#45;805a&#45;4d3f&#45;9d7b&#45;1d1a350b9bd6 -->
<g id="edge49" class="edge">
<title>2afaa594&#45;b837&#45;4a5f&#45;911b&#45;06fd4d42606a&#45;&gt;5d5e4826&#45;805a&#45;4d3f&#45;9d7b&#45;1d1a350b9bd6</title>
<path fill="none" stroke="black" stroke-width="1.03" d="M1852.63,-30C2124.5,-35.1 2813.27,-49.29 3388.95,-71.74 3397.02,-72.06 5707.85,-186.17 5713.95,-191.48 5724.53,-200.71 5728.69,-215.23 5729.95,-228.96"/>
<polygon fill="black" stroke="black" stroke-width="1.03" points="5726.47,-229.38 5730.42,-239.21 5733.46,-229.06 5726.47,-229.38"/>
<text text-anchor="middle" x="5543.45" y="-150.41" font-family="Times,serif" font-size="14.00">T12 Check document X request unlicensed</text>
<text text-anchor="middle" x="5543.45" y="-135.41" font-family="Times,serif" font-size="14.00">22</text>
</g>
<!-- 2afaa594&#45;b837&#45;4a5f&#45;911b&#45;06fd4d42606a&#45;&gt;5d5e4826&#45;805a&#45;4d3f&#45;9d7b&#45;1d1a350b9bd6 -->
<g id="edge50" class="edge">
<title>2afaa594&#45;b837&#45;4a5f&#45;911b&#45;06fd4d42606a&#45;&gt;5d5e4826&#45;805a&#45;4d3f&#45;9d7b&#45;1d1a350b9bd6</title>
<path fill="none" stroke="black" stroke-width="1.02" d="M1853.15,-28.93C2505.51,-34.97 5616.93,-66.49 5699.95,-119.74 5740.19,-145.56 5738.72,-173.81 5734.95,-221.48 5734.74,-224.04 5734.47,-226.67 5734.16,-229.31"/>
<polygon fill="black" stroke="black" stroke-width="1.02" points="5730.66,-229.07 5732.77,-239.45 5737.6,-230.02 5730.66,-229.07"/>
<text text-anchor="middle" x="5868.95" y="-150.41" font-family="Times,serif" font-size="14.00">T17 Check report Y to stop indication</text>
<text text-anchor="middle" x="5868.95" y="-135.41" font-family="Times,serif" font-size="14.00">16</text>
</g>
<!-- 2afaa594&#45;b837&#45;4a5f&#45;911b&#45;06fd4d42606a&#45;&gt;6d140af6&#45;8975&#45;41ef&#45;b1cf&#45;387d2ab6098c -->
<g id="edge47" class="edge">
<title>2afaa594&#45;b837&#45;4a5f&#45;911b&#45;06fd4d42606a&#45;&gt;6d140af6&#45;8975&#45;41ef&#45;b1cf&#45;387d2ab6098c</title>
<path fill="none" stroke="black" stroke-width="1.2" d="M1615.04,-29.55C1364.59,-33.58 789.91,-45.43 595.95,-71.74 411.14,-96.81 94,-70.83 203.95,-221.48 306.84,-362.46 405.77,-312.6 577.95,-341.22 785.39,-375.7 2241.35,-383.23 2687.38,-384.74"/>
<polygon fill="black" stroke="black" stroke-width="1.2" points="2687.4,-388.24 2697.41,-384.77 2687.42,-381.24 2687.4,-388.24"/>
<text text-anchor="middle" x="325.45" y="-210.28" font-family="Times,serif" font-size="14.00">T02 Check confirmation of receipt</text>
<text text-anchor="middle" x="325.45" y="-195.28" font-family="Times,serif" font-size="14.00">144</text>
</g>
<!-- 2afaa594&#45;b837&#45;4a5f&#45;911b&#45;06fd4d42606a&#45;&gt;73521a19&#45;f375&#45;40ec&#45;b623&#45;b7aba4acb79a -->
<g id="edge45" class="edge">
<title>2afaa594&#45;b837&#45;4a5f&#45;911b&#45;06fd4d42606a&#45;&gt;73521a19&#45;f375&#45;40ec&#45;b623&#45;b7aba4acb79a</title>
<path fill="none" stroke="black" stroke-width="1.04" d="M1853.75,-27.41C2069.23,-27.68 2536.24,-33.17 2927.95,-71.74 3054.66,-84.22 3199.5,-109.37 3292.01,-126.83"/>
<polygon fill="black" stroke="black" stroke-width="1.04" points="3291.43,-130.29 3301.91,-128.71 3292.74,-123.41 3291.43,-130.29"/>
<text text-anchor="middle" x="3263.45" y="-90.54" font-family="Times,serif" font-size="14.00">T02 Check confirmation of receipt</text>
<text text-anchor="middle" x="3263.45" y="-75.54" font-family="Times,serif" font-size="14.00">27</text>
</g>
<!-- 2afaa594&#45;b837&#45;4a5f&#45;911b&#45;06fd4d42606a&#45;&gt;73521a19&#45;f375&#45;40ec&#45;b623&#45;b7aba4acb79a -->
<g id="edge46" class="edge">
<title>2afaa594&#45;b837&#45;4a5f&#45;911b&#45;06fd4d42606a&#45;&gt;73521a19&#45;f375&#45;40ec&#45;b623&#45;b7aba4acb79a</title>
<path fill="none" stroke="black" stroke-width="1.01" d="M1805.25,-48.46C1869.83,-66.1 1967.9,-90.4 2054.95,-101.74 2286.26,-131.88 2979.51,-141.76 3263.53,-144.59"/>
<polygon fill="black" stroke="black" stroke-width="1.01" points="3263.84,-148.1 3273.88,-144.69 3263.91,-141.1 3263.84,-148.1"/>
<text text-anchor="middle" x="2207.45" y="-90.54" font-family="Times,serif" font-size="14.00">T12 Check document X request unlicensed</text>
<text text-anchor="middle" x="2207.45" y="-75.54" font-family="Times,serif" font-size="14.00">10</text>
</g>
<!-- 6d140af6&#45;8975&#45;41ef&#45;b1cf&#45;387d2ab6098c&#45;&gt;6173c78a&#45;9f59&#45;4f56&#45;baa1&#45;7854d631f6e4 -->
<g id="edge26" class="edge">
<title>6d140af6&#45;8975&#45;41ef&#45;b1cf&#45;387d2ab6098c&#45;&gt;6173c78a&#45;9f59&#45;4f56&#45;baa1&#45;7854d631f6e4</title>
<path fill="none" stroke="black" stroke-width="1.01" d="M2932.5,-393.2C3314.71,-413.41 4535.77,-477.96 4924.13,-498.5"/>
<polygon fill="black" stroke="black" stroke-width="1.01" points="4924.1,-502 4934.27,-499.03 4924.47,-495.01 4924.1,-502"/>
<text text-anchor="middle" x="4336.45" y="-449.76" font-family="Times,serif" font-size="14.00">T06 Determine necessity of stop advice</text>
<text text-anchor="middle" x="4336.45" y="-434.76" font-family="Times,serif" font-size="14.00">11</text>
</g>
<!-- 6d140af6&#45;8975&#45;41ef&#45;b1cf&#45;387d2ab6098c&#45;&gt;6173c78a&#45;9f59&#45;4f56&#45;baa1&#45;7854d631f6e4 -->
<g id="edge27" class="edge">
<title>6d140af6&#45;8975&#45;41ef&#45;b1cf&#45;387d2ab6098c&#45;&gt;6173c78a&#45;9f59&#45;4f56&#45;baa1&#45;7854d631f6e4</title>
<path fill="none" stroke="black" stroke-width="1.13" d="M2936.01,-388.61C3264.87,-393.07 4181.24,-407.3 4481.95,-430.96 4526.21,-434.44 4787.38,-469.73 4937.63,-490.25"/>
<polygon fill="black" stroke="black" stroke-width="1.13" points="4937.42,-493.75 4947.81,-491.64 4938.37,-486.82 4937.42,-493.75"/>
<text text-anchor="middle" x="4859.95" y="-449.76" font-family="Times,serif" font-size="14.00">T10 Determine necessity to stop indication</text>
<text text-anchor="middle" x="4859.95" y="-434.76" font-family="Times,serif" font-size="14.00">94</text>
</g>
<!-- 6d140af6&#45;8975&#45;41ef&#45;b1cf&#45;387d2ab6098c&#45;&gt;5d5e4826&#45;805a&#45;4d3f&#45;9d7b&#45;1d1a350b9bd6 -->
<g id="edge28" class="edge">
<title>6d140af6&#45;8975&#45;41ef&#45;b1cf&#45;387d2ab6098c&#45;&gt;5d5e4826&#45;805a&#45;4d3f&#45;9d7b&#45;1d1a350b9bd6</title>
<path fill="none" stroke="black" stroke-width="1.04" d="M2936.44,-384.62C3296.81,-382.83 4352.3,-374.74 4417.95,-341.22 4432.91,-333.58 4425.98,-318.86 4440.95,-311.22 4473.07,-294.81 5053.9,-294.45 5089.95,-293.22 5267.39,-287.16 5472.53,-278.56 5601.25,-272.97"/>
<polygon fill="black" stroke="black" stroke-width="1.04" points="5601.7,-276.45 5611.54,-272.52 5601.4,-269.46 5601.7,-276.45"/>
<text text-anchor="middle" x="4582.45" y="-330.02" font-family="Times,serif" font-size="14.00">T06 Determine necessity of stop advice</text>
<text text-anchor="middle" x="4582.45" y="-315.02" font-family="Times,serif" font-size="14.00">30</text>
</g>
<!-- 6d140af6&#45;8975&#45;41ef&#45;b1cf&#45;387d2ab6098c&#45;&gt;5d5e4826&#45;805a&#45;4d3f&#45;9d7b&#45;1d1a350b9bd6 -->
<g id="edge29" class="edge">
<title>6d140af6&#45;8975&#45;41ef&#45;b1cf&#45;387d2ab6098c&#45;&gt;5d5e4826&#45;805a&#45;4d3f&#45;9d7b&#45;1d1a350b9bd6</title>
<path fill="none" stroke="black" stroke-width="1.11" d="M2936.66,-384.78C3471.54,-383.23 5619.02,-374.9 5679.95,-341.22 5684.29,-338.82 5696.56,-319.87 5707.61,-301.77"/>
<polygon fill="black" stroke="black" stroke-width="1.11" points="5710.72,-303.4 5712.89,-293.03 5704.73,-299.77 5710.72,-303.4"/>
<text text-anchor="middle" x="5853.95" y="-330.02" font-family="Times,serif" font-size="14.00">T10 Determine necessity to stop indication</text>
<text text-anchor="middle" x="5853.95" y="-315.02" font-family="Times,serif" font-size="14.00">85</text>
</g>
<!-- 6d140af6&#45;8975&#45;41ef&#45;b1cf&#45;387d2ab6098c&#45;&gt;2afaa594&#45;b837&#45;4a5f&#45;911b&#45;06fd4d42606a -->
<g id="edge30" class="edge">
<title>6d140af6&#45;8975&#45;41ef&#45;b1cf&#45;387d2ab6098c&#45;&gt;2afaa594&#45;b837&#45;4a5f&#45;911b&#45;06fd4d42606a</title>
<path fill="none" stroke="black" stroke-width="1.21" d="M2697.51,-385.02C2199.87,-384.46 311.52,-379.81 190.95,-341.22 101.54,-312.61 60.63,-304.57 16.95,-221.48 -37.53,-117.87 50.41,-117.62 190.95,-71.74 323.27,-28.54 1257.12,-26.56 1604.34,-27.35"/>
<polygon fill="black" stroke="black" stroke-width="1.21" points="1604.43,-30.85 1614.44,-27.38 1604.45,-23.85 1604.43,-30.85"/>
<text text-anchor="middle" x="99.95" y="-210.28" font-family="Times,serif" font-size="14.00">Confirmation of receipt</text>
<text text-anchor="middle" x="99.95" y="-195.28" font-family="Times,serif" font-size="14.00">156</text>
</g>
<!-- 6d140af6&#45;8975&#45;41ef&#45;b1cf&#45;387d2ab6098c&#45;&gt;2afaa594&#45;b837&#45;4a5f&#45;911b&#45;06fd4d42606a -->
<g id="edge31" class="edge">
<title>6d140af6&#45;8975&#45;41ef&#45;b1cf&#45;387d2ab6098c&#45;&gt;2afaa594&#45;b837&#45;4a5f&#45;911b&#45;06fd4d42606a</title>
<path fill="none" stroke="black" stroke-width="1.05" d="M2697.29,-385.5C2281.81,-386.52 916.43,-386.36 724.95,-341.22 603.86,-312.68 538.49,-326.59 471.95,-221.48 386.6,-86.66 278.02,-182.41 724.95,-71.74 887.62,-31.46 1369.95,-26.87 1603.85,-27.13"/>
<polygon fill="black" stroke="black" stroke-width="1.05" points="1604.11,-30.63 1614.11,-27.15 1604.12,-23.63 1604.11,-30.63"/>
<text text-anchor="middle" x="594.45" y="-210.28" font-family="Times,serif" font-size="14.00">T03 Adjust confirmation of receipt</text>
<text text-anchor="middle" x="594.45" y="-195.28" font-family="Times,serif" font-size="14.00">34</text>
</g>
<!-- 6d140af6&#45;8975&#45;41ef&#45;b1cf&#45;387d2ab6098c&#45;&gt;2afaa594&#45;b837&#45;4a5f&#45;911b&#45;06fd4d42606a -->
<g id="edge32" class="edge">
<title>6d140af6&#45;8975&#45;41ef&#45;b1cf&#45;387d2ab6098c&#45;&gt;2afaa594&#45;b837&#45;4a5f&#45;911b&#45;06fd4d42606a</title>
<path fill="none" stroke="black" stroke-width="1.06" d="M2697.26,-384.84C2321.1,-383.69 1177.95,-377.24 1014.95,-341.22 884.78,-312.45 813.01,-332.98 739.95,-221.48 642.84,-73.29 1314.75,-38.43 1604.98,-30.31"/>
<polygon fill="black" stroke="black" stroke-width="1.06" points="1605.24,-33.8 1615.14,-30.03 1605.05,-26.81 1605.24,-33.8"/>
<text text-anchor="middle" x="881.45" y="-210.28" font-family="Times,serif" font-size="14.00">T06 Determine necessity of stop advice</text>
<text text-anchor="middle" x="881.45" y="-195.28" font-family="Times,serif" font-size="14.00">44</text>
</g>
<!-- 6d140af6&#45;8975&#45;41ef&#45;b1cf&#45;387d2ab6098c&#45;&gt;2afaa594&#45;b837&#45;4a5f&#45;911b&#45;06fd4d42606a -->
<g id="edge33" class="edge">
<title>6d140af6&#45;8975&#45;41ef&#45;b1cf&#45;387d2ab6098c&#45;&gt;2afaa594&#45;b837&#45;4a5f&#45;911b&#45;06fd4d42606a</title>
<path fill="none" stroke="black" stroke-width="1.07" d="M2697.37,-385.19C2376.06,-384.92 1509.9,-380.52 1386.95,-341.22 1364.05,-333.9 1363.55,-321.76 1341.95,-311.22 1227.92,-255.59 1145.23,-324.33 1070.95,-221.48 957.58,-64.52 543.76,-281.64 1386.95,-71.74 1459.95,-53.57 1543.56,-42.71 1610.42,-36.34"/>
<polygon fill="black" stroke="black" stroke-width="1.07" points="1610.94,-39.81 1620.58,-35.4 1610.29,-32.84 1610.94,-39.81"/>
<text text-anchor="middle" x="1224.95" y="-210.28" font-family="Times,serif" font-size="14.00">T10 Determine necessity to stop indication</text>
<text text-anchor="middle" x="1224.95" y="-195.28" font-family="Times,serif" font-size="14.00">51</text>
</g>
<!-- 6d140af6&#45;8975&#45;41ef&#45;b1cf&#45;387d2ab6098c&#45;&gt;2afaa594&#45;b837&#45;4a5f&#45;911b&#45;06fd4d42606a -->
<g id="edge34" class="edge">
<title>6d140af6&#45;8975&#45;41ef&#45;b1cf&#45;387d2ab6098c&#45;&gt;2afaa594&#45;b837&#45;4a5f&#45;911b&#45;06fd4d42606a</title>
<path fill="none" stroke="black" stroke-width="1.04" d="M2697.39,-385.34C2368.78,-385.51 1472.96,-382.18 1424.95,-341.22 1373.72,-297.52 1366.38,-248.65 1401.95,-191.48 1452.39,-110.38 1556.19,-68.3 1634.37,-47.27"/>
<polygon fill="black" stroke="black" stroke-width="1.04" points="1635.47,-50.6 1644.26,-44.68 1633.7,-43.83 1635.47,-50.6"/>
<text text-anchor="middle" x="1556.95" y="-210.28" font-family="Times,serif" font-size="14.00">T11 Create document X request unlicensed</text>
<text text-anchor="middle" x="1556.95" y="-195.28" font-family="Times,serif" font-size="14.00">29</text>
</g>
<!-- 6d140af6&#45;8975&#45;41ef&#45;b1cf&#45;387d2ab6098c&#45;&gt;2afaa594&#45;b837&#45;4a5f&#45;911b&#45;06fd4d42606a -->
<g id="edge35" class="edge">
<title>6d140af6&#45;8975&#45;41ef&#45;b1cf&#45;387d2ab6098c&#45;&gt;2afaa594&#45;b837&#45;4a5f&#45;911b&#45;06fd4d42606a</title>
<path fill="none" stroke="black" stroke-width="1.02" d="M2697.5,-384.7C2381.31,-383.2 1543.32,-375.94 1494.95,-341.22 1457.64,-314.44 1445.74,-273.17 1476.95,-239.48 1512.54,-201.06 1674.24,-257.83 1711.95,-221.48 1733.77,-200.44 1735.82,-113.94 1735.08,-63.97"/>
<polygon fill="black" stroke="black" stroke-width="1.02" points="1738.58,-63.83 1734.89,-53.9 1731.58,-63.96 1738.58,-63.83"/>
<text text-anchor="middle" x="1852.95" y="-210.28" font-family="Times,serif" font-size="14.00">T16 Report reasons to hold request</text>
<text text-anchor="middle" x="1852.95" y="-195.28" font-family="Times,serif" font-size="14.00">18</text>
</g>
<!-- 6d140af6&#45;8975&#45;41ef&#45;b1cf&#45;387d2ab6098c&#45;&gt;6d140af6&#45;8975&#45;41ef&#45;b1cf&#45;387d2ab6098c -->
<g id="edge19" class="edge">
<title>6d140af6&#45;8975&#45;41ef&#45;b1cf&#45;387d2ab6098c&#45;&gt;6d140af6&#45;8975&#45;41ef&#45;b1cf&#45;387d2ab6098c</title>
<path fill="none" stroke="black" stroke-width="1.08" d="M2936.23,-387.83C2947.4,-387.48 2954.45,-386.89 2954.45,-386.09 2954.45,-385.58 2951.55,-385.15 2946.54,-384.82"/>
<polygon fill="black" stroke="black" stroke-width="1.08" points="2946.38,-381.31 2936.23,-384.35 2946.06,-388.3 2946.38,-381.31"/>
<text text-anchor="middle" x="3037.45" y="-389.89" font-family="Times,serif" font-size="14.00">Confirmation of receipt</text>
<text text-anchor="middle" x="3037.45" y="-374.89" font-family="Times,serif" font-size="14.00">61</text>
</g>
<!-- 6d140af6&#45;8975&#45;41ef&#45;b1cf&#45;387d2ab6098c&#45;&gt;6d140af6&#45;8975&#45;41ef&#45;b1cf&#45;387d2ab6098c -->
<g id="edge20" class="edge">
<title>6d140af6&#45;8975&#45;41ef&#45;b1cf&#45;387d2ab6098c&#45;&gt;6d140af6&#45;8975&#45;41ef&#45;b1cf&#45;387d2ab6098c</title>
<path fill="none" stroke="black" stroke-width="2.6" d="M2935.35,-390.16C3021.83,-391.08 3120.45,-389.72 3120.45,-386.09 3120.45,-382.6 3029.39,-381.21 2945.53,-381.92"/>
<polygon fill="black" stroke="black" stroke-width="2.6" points="2945.31,-378.42 2935.35,-382.02 2945.38,-385.42 2945.31,-378.42"/>
<text text-anchor="middle" x="3261.95" y="-389.89" font-family="Times,serif" font-size="14.00">T06 Determine necessity of stop advice</text>
<text text-anchor="middle" x="3261.95" y="-374.89" font-family="Times,serif" font-size="14.00">1171</text>
</g>
<!-- 6d140af6&#45;8975&#45;41ef&#45;b1cf&#45;387d2ab6098c&#45;&gt;6d140af6&#45;8975&#45;41ef&#45;b1cf&#45;387d2ab6098c -->
<g id="edge21" class="edge">
<title>6d140af6&#45;8975&#45;41ef&#45;b1cf&#45;387d2ab6098c&#45;&gt;6d140af6&#45;8975&#45;41ef&#45;b1cf&#45;387d2ab6098c</title>
<path fill="none" stroke="black" stroke-width="1.03" d="M2934.68,-391.02C3108,-394.24 3403.45,-392.59 3403.45,-386.09 3403.45,-379.71 3119.15,-378.01 2944.71,-380.99"/>
<polygon fill="black" stroke="black" stroke-width="1.03" points="2944.61,-377.49 2934.68,-381.16 2944.74,-384.49 2944.61,-377.49"/>
<text text-anchor="middle" x="3526.45" y="-389.89" font-family="Times,serif" font-size="14.00">T07&#45;5 Draft intern advice aspect 5</text>
<text text-anchor="middle" x="3526.45" y="-374.89" font-family="Times,serif" font-size="14.00">24</text>
</g>
<!-- 6d140af6&#45;8975&#45;41ef&#45;b1cf&#45;387d2ab6098c&#45;&gt;6d140af6&#45;8975&#45;41ef&#45;b1cf&#45;387d2ab6098c -->
<g id="edge22" class="edge">
<title>6d140af6&#45;8975&#45;41ef&#45;b1cf&#45;387d2ab6098c&#45;&gt;6d140af6&#45;8975&#45;41ef&#45;b1cf&#45;387d2ab6098c</title>
<path fill="none" stroke="black" stroke-width="1.02" d="M2934.15,-391.8C3166.11,-397.19 3649.45,-395.29 3649.45,-386.09 3649.45,-377.02 3179.7,-375.04 2944.15,-380.15"/>
<polygon fill="black" stroke="black" stroke-width="1.02" points="2944.07,-376.65 2934.15,-380.38 2944.22,-383.65 2944.07,-376.65"/>
<text text-anchor="middle" x="3785.95" y="-389.89" font-family="Times,serif" font-size="14.00">T08 Draft and send request for advice</text>
<text text-anchor="middle" x="3785.95" y="-374.89" font-family="Times,serif" font-size="14.00">17</text>
</g>
<!-- 6d140af6&#45;8975&#45;41ef&#45;b1cf&#45;387d2ab6098c&#45;&gt;6d140af6&#45;8975&#45;41ef&#45;b1cf&#45;387d2ab6098c -->
<g id="edge23" class="edge">
<title>6d140af6&#45;8975&#45;41ef&#45;b1cf&#45;387d2ab6098c&#45;&gt;6d140af6&#45;8975&#45;41ef&#45;b1cf&#45;387d2ab6098c</title>
<path fill="none" stroke="black" stroke-width="1.08" d="M2933.2,-392.41C3220.13,-400.14 3922.45,-398.03 3922.45,-386.09 3922.45,-374.29 3236.49,-372.09 2943.45,-379.5"/>
<polygon fill="black" stroke="black" stroke-width="1.08" points="2943.1,-376.01 2933.2,-379.77 2943.28,-383.01 2943.1,-376.01"/>
<text text-anchor="middle" x="4076.45" y="-389.89" font-family="Times,serif" font-size="14.00">T10 Determine necessity to stop indication</text>
<text text-anchor="middle" x="4076.45" y="-374.89" font-family="Times,serif" font-size="14.00">56</text>
</g>
<!-- 92817c71&#45;40e9&#45;4ddb&#45;9c2f&#45;eb99aa5182be -->
<g id="node5" class="node">
<title>92817c71&#45;40e9&#45;4ddb&#45;9c2f&#45;eb99aa5182be</title>
<ellipse fill="transparent" stroke="black" cx="1879.95" cy="-266.35" rx="94.09" ry="26.74"/>
<text text-anchor="middle" x="1879.95" y="-270.15" font-family="Times,serif" font-size="14.00">Group 13</text>
<text text-anchor="middle" x="1879.95" y="-255.15" font-family="Times,serif" font-size="14.00">(in=22; out=22)</text>
</g>
<!-- 6d140af6&#45;8975&#45;41ef&#45;b1cf&#45;387d2ab6098c&#45;&gt;92817c71&#45;40e9&#45;4ddb&#45;9c2f&#45;eb99aa5182be -->
<g id="edge24" class="edge">
<title>6d140af6&#45;8975&#45;41ef&#45;b1cf&#45;387d2ab6098c&#45;&gt;92817c71&#45;40e9&#45;4ddb&#45;9c2f&#45;eb99aa5182be</title>
<path fill="none" stroke="black" stroke-width="1.03" d="M2697.43,-385.32C2392.68,-385.32 1607.73,-381.39 1568.95,-341.22 1513.19,-283.47 1535.18,-331.86 1771.95,-293.22 1781.97,-291.58 1792.44,-289.53 1802.75,-287.29"/>
<polygon fill="black" stroke="black" stroke-width="1.03" points="1803.56,-290.69 1812.56,-285.1 1802.04,-283.86 1803.56,-290.69"/>
<text text-anchor="middle" x="1710.45" y="-330.02" font-family="Times,serif" font-size="14.00">T06 Determine necessity of stop advice</text>
<text text-anchor="middle" x="1710.45" y="-315.02" font-family="Times,serif" font-size="14.00">22</text>
</g>
<!-- 6d140af6&#45;8975&#45;41ef&#45;b1cf&#45;387d2ab6098c&#45;&gt;73521a19&#45;f375&#45;40ec&#45;b623&#45;b7aba4acb79a -->
<g id="edge14" class="edge">
<title>6d140af6&#45;8975&#45;41ef&#45;b1cf&#45;387d2ab6098c&#45;&gt;73521a19&#45;f375&#45;40ec&#45;b623&#45;b7aba4acb79a</title>
<path fill="none" stroke="black" stroke-width="1.07" d="M2936.3,-383.86C3162.96,-380.89 3671.19,-371.2 4097.95,-341.22 4101.09,-341 4546.84,-295.56 4548.95,-293.22 4736.55,-84.59 4944.12,-262.54 4196.95,-191.48 3953.61,-168.34 3667.9,-156.41 3509.13,-151.13"/>
<polygon fill="black" stroke="black" stroke-width="1.07" points="3508.97,-147.62 3498.86,-150.79 3508.74,-154.62 3508.97,-147.62"/>
<text text-anchor="middle" x="4686.95" y="-270.15" font-family="Times,serif" font-size="14.00">Confirmation of receipt</text>
<text text-anchor="middle" x="4686.95" y="-255.15" font-family="Times,serif" font-size="14.00">51</text>
</g>
<!-- 6d140af6&#45;8975&#45;41ef&#45;b1cf&#45;387d2ab6098c&#45;&gt;73521a19&#45;f375&#45;40ec&#45;b623&#45;b7aba4acb79a -->
<g id="edge15" class="edge">
<title>6d140af6&#45;8975&#45;41ef&#45;b1cf&#45;387d2ab6098c&#45;&gt;73521a19&#45;f375&#45;40ec&#45;b623&#45;b7aba4acb79a</title>
<path fill="none" stroke="black" stroke-width="1.02" d="M2936.11,-383.71C3232.96,-379.92 3999.81,-367.78 4253.95,-341.22 4328.95,-333.38 4346.03,-319.82 4420.95,-311.22 4440.45,-308.98 4760.42,-307.45 4773.95,-293.22 4950.3,-107.64 5049.18,-248.82 4471.95,-191.48 4124.42,-156.96 3711.71,-149.43 3510.13,-147.9"/>
<polygon fill="black" stroke="black" stroke-width="1.02" points="3510.13,-144.4 3500.1,-147.83 3510.08,-151.4 3510.13,-144.4"/>
<text text-anchor="middle" x="4951.45" y="-270.15" font-family="Times,serif" font-size="14.00">T03 Adjust confirmation of receipt</text>
<text text-anchor="middle" x="4951.45" y="-255.15" font-family="Times,serif" font-size="14.00">17</text>
</g>
<!-- 6d140af6&#45;8975&#45;41ef&#45;b1cf&#45;387d2ab6098c&#45;&gt;73521a19&#45;f375&#45;40ec&#45;b623&#45;b7aba4acb79a -->
<g id="edge16" class="edge">
<title>6d140af6&#45;8975&#45;41ef&#45;b1cf&#45;387d2ab6098c&#45;&gt;73521a19&#45;f375&#45;40ec&#45;b623&#45;b7aba4acb79a</title>
<path fill="none" stroke="black" stroke-width="1.09" d="M2697.76,-383.42C2390.58,-378.8 1592.2,-364.59 1539.95,-341.22 1494.64,-320.96 1459.5,-275.2 1493.95,-239.48 1532.15,-199.86 1938.88,-244.33 1988.95,-221.48 2005.54,-213.91 2000.34,-199.02 2016.95,-191.48 2073.12,-165.99 2937.26,-153.01 3263.51,-149"/>
<polygon fill="black" stroke="black" stroke-width="1.09" points="3263.99,-152.49 3273.95,-148.87 3263.91,-145.49 3263.99,-152.49"/>
<text text-anchor="middle" x="1635.45" y="-270.15" font-family="Times,serif" font-size="14.00">T06 Determine necessity of stop advice</text>
<text text-anchor="middle" x="1635.45" y="-255.15" font-family="Times,serif" font-size="14.00">68</text>
</g>
<!-- 6d140af6&#45;8975&#45;41ef&#45;b1cf&#45;387d2ab6098c&#45;&gt;73521a19&#45;f375&#45;40ec&#45;b623&#45;b7aba4acb79a -->
<g id="edge17" class="edge">
<title>6d140af6&#45;8975&#45;41ef&#45;b1cf&#45;387d2ab6098c&#45;&gt;73521a19&#45;f375&#45;40ec&#45;b623&#45;b7aba4acb79a</title>
<path fill="none" stroke="black" stroke-width="1.23" d="M2697.36,-384.37C2536.9,-382.14 2261.06,-373.55 2165.95,-341.22 2143.19,-333.48 2143.26,-320.17 2120.95,-311.22 2078.22,-294.09 2048.53,-328.49 2018.95,-293.22 2003.59,-274.92 2002.84,-257.12 2018.95,-239.48 2060.66,-193.79 2937.09,-161.71 3264.77,-151.28"/>
<polygon fill="black" stroke="black" stroke-width="1.23" points="3265.36,-154.76 3275.25,-150.95 3265.14,-147.77 3265.36,-154.76"/>
<text text-anchor="middle" x="2172.95" y="-270.15" font-family="Times,serif" font-size="14.00">T10 Determine necessity to stop indication</text>
<text text-anchor="middle" x="2172.95" y="-255.15" font-family="Times,serif" font-size="14.00">168</text>
</g>
<!-- 6d140af6&#45;8975&#45;41ef&#45;b1cf&#45;387d2ab6098c&#45;&gt;73521a19&#45;f375&#45;40ec&#45;b623&#45;b7aba4acb79a -->
<g id="edge18" class="edge">
<title>6d140af6&#45;8975&#45;41ef&#45;b1cf&#45;387d2ab6098c&#45;&gt;73521a19&#45;f375&#45;40ec&#45;b623&#45;b7aba4acb79a</title>
<path fill="none" stroke="black" stroke-width="1.01" d="M2792.1,-359.77C2774.02,-343.01 2748.05,-322.17 2720.95,-311.22 2687.77,-297.82 2584.79,-319.9 2560.95,-293.22 2545.03,-275.41 2545.11,-257.36 2560.95,-239.48 2606.78,-187.7 3047.18,-161.95 3265.49,-152.29"/>
<polygon fill="black" stroke="black" stroke-width="1.01" points="3265.88,-155.77 3275.72,-151.84 3265.57,-148.78 3265.88,-155.77"/>
<text text-anchor="middle" x="2715.95" y="-270.15" font-family="Times,serif" font-size="14.00">T11 Create document X request unlicensed</text>
<text text-anchor="middle" x="2715.95" y="-255.15" font-family="Times,serif" font-size="14.00">10</text>
</g>
<!-- e71912cb&#45;d76f&#45;462f&#45;85ab&#45;95a4299aa143 -->
<g id="node7" class="node">
<title>e71912cb&#45;d76f&#45;462f&#45;85ab&#45;95a4299aa143</title>
<ellipse fill="transparent" stroke="black" cx="2429.95" cy="-266.35" rx="94.09" ry="26.74"/>
<text text-anchor="middle" x="2429.95" y="-270.15" font-family="Times,serif" font-size="14.00">Group 15</text>
<text text-anchor="middle" x="2429.95" y="-255.15" font-family="Times,serif" font-size="14.00">(in=14; out=19)</text>
</g>
<!-- 6d140af6&#45;8975&#45;41ef&#45;b1cf&#45;387d2ab6098c&#45;&gt;e71912cb&#45;d76f&#45;462f&#45;85ab&#45;95a4299aa143 -->
<g id="edge25" class="edge">
<title>6d140af6&#45;8975&#45;41ef&#45;b1cf&#45;387d2ab6098c&#45;&gt;e71912cb&#45;d76f&#45;462f&#45;85ab&#45;95a4299aa143</title>
<path fill="none" stroke="black" stroke-width="1.02" d="M2701.45,-378.92C2596.87,-372.19 2456.41,-359.82 2437.95,-341.22 2428.24,-331.44 2425.24,-316.97 2425.04,-303.42"/>
<polygon fill="black" stroke="black" stroke-width="1.02" points="2428.54,-303.44 2425.37,-293.33 2421.54,-303.21 2428.54,-303.44"/>
<text text-anchor="middle" x="2579.45" y="-330.02" font-family="Times,serif" font-size="14.00">T06 Determine necessity of stop advice</text>
<text text-anchor="middle" x="2579.45" y="-315.02" font-family="Times,serif" font-size="14.00">14</text>
</g>
<!-- 92817c71&#45;40e9&#45;4ddb&#45;9c2f&#45;eb99aa5182be&#45;&gt;6d140af6&#45;8975&#45;41ef&#45;b1cf&#45;387d2ab6098c -->
<g id="edge36" class="edge">
<title>92817c71&#45;40e9&#45;4ddb&#45;9c2f&#45;eb99aa5182be&#45;&gt;6d140af6&#45;8975&#45;41ef&#45;b1cf&#45;387d2ab6098c</title>
<path fill="none" stroke="black" stroke-width="1.03" d="M1869.52,-293.2C1864.98,-309.11 1863.05,-328.76 1874.95,-341.22 1902.52,-370.11 2435.57,-380.45 2687.33,-383.73"/>
<polygon fill="black" stroke="black" stroke-width="1.03" points="2687.59,-387.23 2697.64,-383.86 2687.68,-380.23 2687.59,-387.23"/>
<text text-anchor="middle" x="1997.95" y="-330.02" font-family="Times,serif" font-size="14.00">T07&#45;1 Draft intern advice aspect 1</text>
<text text-anchor="middle" x="1997.95" y="-315.02" font-family="Times,serif" font-size="14.00">22</text>
</g>
<!-- 73521a19&#45;f375&#45;40ec&#45;b623&#45;b7aba4acb79a&#45;&gt;6173c78a&#45;9f59&#45;4f56&#45;baa1&#45;7854d631f6e4 -->
<g id="edge10" class="edge">
<title>73521a19&#45;f375&#45;40ec&#45;b623&#45;b7aba4acb79a&#45;&gt;6173c78a&#45;9f59&#45;4f56&#45;baa1&#45;7854d631f6e4</title>
<path fill="none" stroke="black" stroke-width="1.15" d="M3499.43,-149.98C3773.87,-155.99 4472.25,-172.68 4704.95,-191.48 4788.25,-198.21 5022.75,-176.73 5077.95,-239.48 5093.72,-257.41 5090.14,-272.68 5077.95,-293.22 5069.42,-307.59 5053.51,-296.88 5044.95,-311.22 5016.03,-359.64 5024.59,-427.76 5033.92,-468.95"/>
<polygon fill="black" stroke="black" stroke-width="1.15" points="5030.55,-469.91 5036.29,-478.82 5037.36,-468.28 5030.55,-469.91"/>
<text text-anchor="middle" x="5182.45" y="-330.02" font-family="Times,serif" font-size="14.00">T04 Determine confirmation of receipt</text>
<text text-anchor="middle" x="5182.45" y="-315.02" font-family="Times,serif" font-size="14.00">111</text>
</g>
<!-- 73521a19&#45;f375&#45;40ec&#45;b623&#45;b7aba4acb79a&#45;&gt;6173c78a&#45;9f59&#45;4f56&#45;baa1&#45;7854d631f6e4 -->
<g id="edge11" class="edge">
<title>73521a19&#45;f375&#45;40ec&#45;b623&#45;b7aba4acb79a&#45;&gt;6173c78a&#45;9f59&#45;4f56&#45;baa1&#45;7854d631f6e4</title>
<path fill="none" stroke="black" stroke-width="1.01" d="M3498.95,-150.58C3842.06,-159.7 4857.5,-186.99 4891.95,-191.48 4989.88,-204.24 5261.78,-231.4 5319.95,-311.22 5379.81,-393.36 5231.47,-453.15 5129.84,-483.11"/>
<polygon fill="black" stroke="black" stroke-width="1.01" points="5128.79,-479.78 5120.16,-485.92 5130.73,-486.5 5128.79,-479.78"/>
<text text-anchor="middle" x="5501.45" y="-330.02" font-family="Times,serif" font-size="14.00">T14 Determine document X request unlicensed</text>
<text text-anchor="middle" x="5501.45" y="-315.02" font-family="Times,serif" font-size="14.00">10</text>
</g>
<!-- 73521a19&#45;f375&#45;40ec&#45;b623&#45;b7aba4acb79a&#45;&gt;5d5e4826&#45;805a&#45;4d3f&#45;9d7b&#45;1d1a350b9bd6 -->
<g id="edge12" class="edge">
<title>73521a19&#45;f375&#45;40ec&#45;b623&#45;b7aba4acb79a&#45;&gt;5d5e4826&#45;805a&#45;4d3f&#45;9d7b&#45;1d1a350b9bd6</title>
<path fill="none" stroke="black" stroke-width="1.23" d="M3500.33,-147.32C3919.34,-146.58 5360.7,-147.27 5447.95,-191.48 5462.93,-199.07 5456.56,-212.8 5470.95,-221.48 5494.57,-235.74 5553.99,-246.36 5609.75,-253.59"/>
<polygon fill="black" stroke="black" stroke-width="1.23" points="5609.39,-257.07 5619.75,-254.85 5610.26,-250.12 5609.39,-257.07"/>
<text text-anchor="middle" x="5592.45" y="-210.28" font-family="Times,serif" font-size="14.00">T02 Check confirmation of receipt</text>
<text text-anchor="middle" x="5592.45" y="-195.28" font-family="Times,serif" font-size="14.00">166</text>
</g>
<!-- 73521a19&#45;f375&#45;40ec&#45;b623&#45;b7aba4acb79a&#45;&gt;2afaa594&#45;b837&#45;4a5f&#45;911b&#45;06fd4d42606a -->
<g id="edge13" class="edge">
<title>73521a19&#45;f375&#45;40ec&#45;b623&#45;b7aba4acb79a&#45;&gt;2afaa594&#45;b837&#45;4a5f&#45;911b&#45;06fd4d42606a</title>
<path fill="none" stroke="black" stroke-width="1.97" d="M3279.76,-137.98C2985.93,-117.05 2168.81,-58.84 1857.01,-36.64"/>
<polygon fill="black" stroke="black" stroke-width="1.97" points="1856.8,-33.11 1846.58,-35.89 1856.3,-40.09 1856.8,-33.11"/>
<text text-anchor="middle" x="2840.95" y="-90.54" font-family="Times,serif" font-size="14.00">Confirmation of receipt</text>
<text text-anchor="middle" x="2840.95" y="-75.54" font-family="Times,serif" font-size="14.00">710</text>
</g>
<!-- 73521a19&#45;f375&#45;40ec&#45;b623&#45;b7aba4acb79a&#45;&gt;6d140af6&#45;8975&#45;41ef&#45;b1cf&#45;387d2ab6098c -->
<g id="edge4" class="edge">
<title>73521a19&#45;f375&#45;40ec&#45;b623&#45;b7aba4acb79a&#45;&gt;6d140af6&#45;8975&#45;41ef&#45;b1cf&#45;387d2ab6098c</title>
<path fill="none" stroke="black" stroke-width="1.24" d="M3284.23,-158.02C3165.05,-171.77 2977.51,-199.06 2919.95,-239.48 2898.65,-254.43 2860.94,-312.49 2837.53,-350.62"/>
<polygon fill="black" stroke="black" stroke-width="1.24" points="2834.41,-349.01 2832.19,-359.38 2840.39,-352.66 2834.41,-349.01"/>
<text text-anchor="middle" x="3002.95" y="-270.15" font-family="Times,serif" font-size="14.00">Confirmation of receipt</text>
<text text-anchor="middle" x="3002.95" y="-255.15" font-family="Times,serif" font-size="14.00">178</text>
</g>
<!-- 73521a19&#45;f375&#45;40ec&#45;b623&#45;b7aba4acb79a&#45;&gt;6d140af6&#45;8975&#45;41ef&#45;b1cf&#45;387d2ab6098c -->
<g id="edge5" class="edge">
<title>73521a19&#45;f375&#45;40ec&#45;b623&#45;b7aba4acb79a&#45;&gt;6d140af6&#45;8975&#45;41ef&#45;b1cf&#45;387d2ab6098c</title>
<path fill="none" stroke="black" stroke-width="1.12" d="M3298.03,-163.38C3243.01,-176.58 3173.32,-199.85 3121.95,-239.48 3099.18,-257.04 3108.75,-275.71 3085.95,-293.22 3037.58,-330.36 2973.24,-353.05 2919.61,-366.58"/>
<polygon fill="black" stroke="black" stroke-width="1.12" points="2918.6,-363.23 2909.73,-369.01 2920.27,-370.03 2918.6,-363.23"/>
<text text-anchor="middle" x="3243.45" y="-270.15" font-family="Times,serif" font-size="14.00">T02 Check confirmation of receipt</text>
<text text-anchor="middle" x="3243.45" y="-255.15" font-family="Times,serif" font-size="14.00">92</text>
</g>
<!-- 73521a19&#45;f375&#45;40ec&#45;b623&#45;b7aba4acb79a&#45;&gt;6d140af6&#45;8975&#45;41ef&#45;b1cf&#45;387d2ab6098c -->
<g id="edge6" class="edge">
<title>73521a19&#45;f375&#45;40ec&#45;b623&#45;b7aba4acb79a&#45;&gt;6d140af6&#45;8975&#45;41ef&#45;b1cf&#45;387d2ab6098c</title>
<path fill="none" stroke="black" stroke-width="1.03" d="M3391.29,-173.66C3395.11,-206.28 3395.97,-261.69 3364.95,-293.22 3307.87,-351.22 3088.04,-372.67 2944.75,-380.56"/>
<polygon fill="black" stroke="black" stroke-width="1.03" points="2944.37,-377.08 2934.57,-381.11 2944.74,-384.07 2944.37,-377.08"/>
<text text-anchor="middle" x="3526.45" y="-270.15" font-family="Times,serif" font-size="14.00">T04 Determine confirmation of receipt</text>
<text text-anchor="middle" x="3526.45" y="-255.15" font-family="Times,serif" font-size="14.00">24</text>
</g>
<!-- 73521a19&#45;f375&#45;40ec&#45;b623&#45;b7aba4acb79a&#45;&gt;6d140af6&#45;8975&#45;41ef&#45;b1cf&#45;387d2ab6098c -->
<g id="edge7" class="edge">
<title>73521a19&#45;f375&#45;40ec&#45;b623&#45;b7aba4acb79a&#45;&gt;6d140af6&#45;8975&#45;41ef&#45;b1cf&#45;387d2ab6098c</title>
<path fill="none" stroke="black" stroke-width="1.11" d="M3480.67,-161.88C3584.48,-181.51 3729.59,-222.68 3667.95,-293.22 3621.27,-346.63 3170.8,-371.48 2944.85,-380.65"/>
<polygon fill="black" stroke="black" stroke-width="1.11" points="2944.45,-377.17 2934.6,-381.07 2944.73,-384.16 2944.45,-377.17"/>
<text text-anchor="middle" x="3833.95" y="-270.15" font-family="Times,serif" font-size="14.00">T05 Print and send confirmation of receipt</text>
<text text-anchor="middle" x="3833.95" y="-255.15" font-family="Times,serif" font-size="14.00">80</text>
</g>
<!-- 73521a19&#45;f375&#45;40ec&#45;b623&#45;b7aba4acb79a&#45;&gt;6d140af6&#45;8975&#45;41ef&#45;b1cf&#45;387d2ab6098c -->
<g id="edge8" class="edge">
<title>73521a19&#45;f375&#45;40ec&#45;b623&#45;b7aba4acb79a&#45;&gt;6d140af6&#45;8975&#45;41ef&#45;b1cf&#45;387d2ab6098c</title>
<path fill="none" stroke="black" stroke-width="1.04" d="M3500.04,-148.01C3656.85,-151.25 3928.05,-167.44 3989.95,-239.48 4005.51,-257.6 4005.84,-275.39 3989.95,-293.22 3921.65,-369.85 3237.54,-382.78 2946.69,-384.8"/>
<polygon fill="black" stroke="black" stroke-width="1.04" points="2946.49,-381.3 2936.51,-384.87 2946.53,-388.3 2946.49,-381.3"/>
<text text-anchor="middle" x="4142.45" y="-270.15" font-family="Times,serif" font-size="14.00">T06 Determine necessity of stop advice</text>
<text text-anchor="middle" x="4142.45" y="-255.15" font-family="Times,serif" font-size="14.00">29</text>
</g>
<!-- 73521a19&#45;f375&#45;40ec&#45;b623&#45;b7aba4acb79a&#45;&gt;6d140af6&#45;8975&#45;41ef&#45;b1cf&#45;387d2ab6098c -->
<g id="edge9" class="edge">
<title>73521a19&#45;f375&#45;40ec&#45;b623&#45;b7aba4acb79a&#45;&gt;6d140af6&#45;8975&#45;41ef&#45;b1cf&#45;387d2ab6098c</title>
<path fill="none" stroke="black" stroke-width="1.02" d="M3499.05,-150.64C3729.05,-158.05 4237.05,-180.92 4287.95,-239.48 4303.61,-257.51 4303.73,-275.3 4287.95,-293.22 4243.87,-343.27 3295.77,-372.73 2945.5,-381.95"/>
<polygon fill="black" stroke="black" stroke-width="1.02" points="2945.22,-378.45 2935.31,-382.21 2945.4,-385.45 2945.22,-378.45"/>
<text text-anchor="middle" x="4421.95" y="-270.15" font-family="Times,serif" font-size="14.00">T07&#45;1 Draft intern advice aspect 1</text>
<text text-anchor="middle" x="4421.95" y="-255.15" font-family="Times,serif" font-size="14.00">16</text>
</g>
<!-- 73521a19&#45;f375&#45;40ec&#45;b623&#45;b7aba4acb79a&#45;&gt;73521a19&#45;f375&#45;40ec&#45;b623&#45;b7aba4acb79a -->
<g id="edge1" class="edge">
<title>73521a19&#45;f375&#45;40ec&#45;b623&#45;b7aba4acb79a&#45;&gt;73521a19&#45;f375&#45;40ec&#45;b623&#45;b7aba4acb79a</title>
<path fill="none" stroke="black" stroke-width="1.22" d="M3499.8,-149.57C3510.97,-148.97 3518.08,-147.99 3518.08,-146.61 3518.08,-145.73 3515.16,-145.01 3510.13,-144.45"/>
<polygon fill="black" stroke="black" stroke-width="1.22" points="3510.03,-140.93 3499.8,-143.65 3509.5,-147.91 3510.03,-140.93"/>
<text text-anchor="middle" x="3601.08" y="-150.41" font-family="Times,serif" font-size="14.00">Confirmation of receipt</text>
<text text-anchor="middle" x="3601.08" y="-135.41" font-family="Times,serif" font-size="14.00">162</text>
</g>
<!-- 73521a19&#45;f375&#45;40ec&#45;b623&#45;b7aba4acb79a&#45;&gt;73521a19&#45;f375&#45;40ec&#45;b623&#45;b7aba4acb79a -->
<g id="edge2" class="edge">
<title>73521a19&#45;f375&#45;40ec&#45;b623&#45;b7aba4acb79a&#45;&gt;73521a19&#45;f375&#45;40ec&#45;b623&#45;b7aba4acb79a</title>
<path fill="none" stroke="black" stroke-width="1.15" d="M3496.88,-153.29C3582.85,-155.02 3684.08,-152.79 3684.08,-146.61 3684.08,-140.67 3590.6,-138.38 3507.02,-139.74"/>
<polygon fill="black" stroke="black" stroke-width="1.15" points="3506.81,-136.24 3496.88,-139.93 3506.94,-143.24 3506.81,-136.24"/>
<text text-anchor="middle" x="3805.58" y="-150.41" font-family="Times,serif" font-size="14.00">T02 Check confirmation of receipt</text>
<text text-anchor="middle" x="3805.58" y="-135.41" font-family="Times,serif" font-size="14.00">108</text>
</g>
<!-- 73521a19&#45;f375&#45;40ec&#45;b623&#45;b7aba4acb79a&#45;&gt;73521a19&#45;f375&#45;40ec&#45;b623&#45;b7aba4acb79a -->
<g id="edge3" class="edge">
<title>73521a19&#45;f375&#45;40ec&#45;b623&#45;b7aba4acb79a&#45;&gt;73521a19&#45;f375&#45;40ec&#45;b623&#45;b7aba4acb79a</title>
<path fill="none" stroke="black" stroke-width="1.09" d="M3494.85,-154.77C3654.59,-160.2 3927.08,-157.49 3927.08,-146.61 3927.08,-135.97 3666.18,-133.14 3505.29,-138.11"/>
<polygon fill="black" stroke="black" stroke-width="1.09" points="3504.73,-134.63 3494.85,-138.45 3504.95,-141.63 3504.73,-134.63"/>
<text text-anchor="middle" x="4064.58" y="-150.41" font-family="Times,serif" font-size="14.00">T04 Determine confirmation of receipt</text>
<text text-anchor="middle" x="4064.58" y="-135.41" font-family="Times,serif" font-size="14.00">67</text>
</g>
<!-- e71912cb&#45;d76f&#45;462f&#45;85ab&#45;95a4299aa143&#45;&gt;6d140af6&#45;8975&#45;41ef&#45;b1cf&#45;387d2ab6098c -->
<g id="edge37" class="edge">
<title>e71912cb&#45;d76f&#45;462f&#45;85ab&#45;95a4299aa143&#45;&gt;6d140af6&#45;8975&#45;41ef&#45;b1cf&#45;387d2ab6098c</title>
<path fill="none" stroke="black" stroke-width="1.02" d="M2361.63,-284.94C2348.51,-287.97 2334.85,-290.89 2321.95,-293.22 2289.78,-299.04 2197.6,-286.73 2175.95,-311.22 2167.11,-321.21 2166.84,-331.48 2175.95,-341.22 2210.02,-377.71 2509.91,-384.62 2687.18,-385.47"/>
<polygon fill="black" stroke="black" stroke-width="1.02" points="2687.35,-388.97 2697.36,-385.52 2687.37,-381.97 2687.35,-388.97"/>
<text text-anchor="middle" x="2298.95" y="-330.02" font-family="Times,serif" font-size="14.00">T07&#45;2 Draft intern advice aspect 2</text>
<text text-anchor="middle" x="2298.95" y="-315.02" font-family="Times,serif" font-size="14.00">19</text>
</g>
</g>
</svg>
