<?xml version="1.0" encoding="UTF-8" standalone="no"?>
<!DOCTYPE svg PUBLIC "-//W3C//DTD SVG 1.1//EN"
 "http://www.w3.org/Graphics/SVG/1.1/DTD/svg11.dtd">
<!-- Generated by graphviz version 2.43.0 (0)
 -->
<!-- Title: pt Pages: 1 -->
<svg width="5103pt" height="541pt"
 viewBox="0.00 0.00 5102.97 540.70" xmlns="http://www.w3.org/2000/svg" xmlns:xlink="http://www.w3.org/1999/xlink">
<g id="graph0" class="graph" transform="scale(1 1) rotate(0) translate(4 536.7)">
<title>pt</title>
<polygon fill="white" stroke="transparent" points="-4,4 -4,-536.7 5098.97,-536.7 5098.97,4 -4,4"/>
<!-- 13a2a8d5&#45;2e99&#45;4db5&#45;9dd6&#45;4147f2845977 -->
<g id="node1" class="node">
<title>13a2a8d5&#45;2e99&#45;4db5&#45;9dd6&#45;4147f2845977</title>
<ellipse fill="#4c4b3f" stroke="black" cx="3213.97" cy="-505.83" rx="113.27" ry="26.74"/>
<text text-anchor="middle" x="3213.97" y="-509.63" font-family="Times,serif" font-size="14.00">Group 2</text>
<text text-anchor="middle" x="3213.97" y="-494.63" font-family="Times,serif" font-size="14.00">(in=1218; out=812)</text>
</g>
<!-- b2ffe0b6&#45;bfbe&#45;4ba6&#45;ae07&#45;fda199aff696 -->
<g id="node3" class="node">
<title>b2ffe0b6&#45;bfbe&#45;4ba6&#45;ae07&#45;fda199aff696</title>
<ellipse fill="#4c4b3f" stroke="black" cx="2616.97" cy="-386.09" rx="113.27" ry="26.74"/>
<text text-anchor="middle" x="2616.97" y="-389.89" font-family="Times,serif" font-size="14.00">EMPTY</text>
<text text-anchor="middle" x="2616.97" y="-374.89" font-family="Times,serif" font-size="14.00">(in=760; out=1753)</text>
</g>
<!-- 13a2a8d5&#45;2e99&#45;4db5&#45;9dd6&#45;4147f2845977&#45;&gt;b2ffe0b6&#45;bfbe&#45;4ba6&#45;ae07&#45;fda199aff696 -->
<g id="edge38" class="edge">
<title>13a2a8d5&#45;2e99&#45;4db5&#45;9dd6&#45;4147f2845977&#45;&gt;b2ffe0b6&#45;bfbe&#45;4ba6&#45;ae07&#45;fda199aff696</title>
<path fill="none" stroke="black" stroke-width="1.02" d="M3103.23,-500.09C3021.85,-494.77 2919.51,-483.7 2883.97,-460.96 2870.68,-452.45 2878.08,-439.75 2864.97,-430.96 2842.7,-416.03 2784.87,-405.34 2730.65,-398.25"/>
<polygon fill="black" stroke="black" stroke-width="1.02" points="2730.94,-394.76 2720.58,-396.97 2730.06,-401.7 2730.94,-394.76"/>
<text text-anchor="middle" x="3035.97" y="-449.76" font-family="Times,serif" font-size="14.00">T05 Print and send confirmation of receipt</text>
<text text-anchor="middle" x="3035.97" y="-434.76" font-family="Times,serif" font-size="14.00">12</text>
</g>
<!-- 0d96656e&#45;d2d4&#45;4625&#45;ba60&#45;2bd8dbb4aef6 -->
<g id="node7" class="node">
<title>0d96656e&#45;d2d4&#45;4625&#45;ba60&#45;2bd8dbb4aef6</title>
<ellipse fill="#4c4b3f" stroke="black" cx="1596.97" cy="-266.35" rx="119.5" ry="26.74"/>
<text text-anchor="middle" x="1596.97" y="-270.15" font-family="Times,serif" font-size="14.00">Group 1</text>
<text text-anchor="middle" x="1596.97" y="-255.15" font-family="Times,serif" font-size="14.00">(in=2818; out=2231)</text>
</g>
<!-- 13a2a8d5&#45;2e99&#45;4db5&#45;9dd6&#45;4147f2845977&#45;&gt;0d96656e&#45;d2d4&#45;4625&#45;ba60&#45;2bd8dbb4aef6 -->
<g id="edge39" class="edge">
<title>13a2a8d5&#45;2e99&#45;4db5&#45;9dd6&#45;4147f2845977&#45;&gt;0d96656e&#45;d2d4&#45;4625&#45;ba60&#45;2bd8dbb4aef6</title>
<path fill="none" stroke="black" stroke-width="2.09" d="M3101.34,-502.5C2590.78,-491.42 514.47,-440.35 420.97,-341.22 411.82,-331.52 411.72,-320.82 420.97,-311.22 456.77,-274.06 1168.56,-268.23 1467.03,-267.42"/>
<polygon fill="black" stroke="black" stroke-width="2.09" points="1467.48,-270.92 1477.47,-267.4 1467.46,-263.92 1467.48,-270.92"/>
<text text-anchor="middle" x="1002.97" y="-389.89" font-family="Times,serif" font-size="14.00">T05 Print and send confirmation of receipt</text>
<text text-anchor="middle" x="1002.97" y="-374.89" font-family="Times,serif" font-size="14.00">800</text>
</g>
<!-- d187363b&#45;48cf&#45;4800&#45;a297&#45;23e389edff7c -->
<g id="node2" class="node">
<title>d187363b&#45;48cf&#45;4800&#45;a297&#45;23e389edff7c</title>
<ellipse fill="transparent" stroke="black" cx="778.97" cy="-146.61" rx="94.09" ry="26.74"/>
<text text-anchor="middle" x="778.97" y="-150.41" font-family="Times,serif" font-size="14.00">Group 15</text>
<text text-anchor="middle" x="778.97" y="-135.41" font-family="Times,serif" font-size="14.00">(in=14; out=19)</text>
</g>
<!-- d187363b&#45;48cf&#45;4800&#45;a297&#45;23e389edff7c&#45;&gt;0d96656e&#45;d2d4&#45;4625&#45;ba60&#45;2bd8dbb4aef6 -->
<g id="edge37" class="edge">
<title>d187363b&#45;48cf&#45;4800&#45;a297&#45;23e389edff7c&#45;&gt;0d96656e&#45;d2d4&#45;4625&#45;ba60&#45;2bd8dbb4aef6</title>
<path fill="none" stroke="black" stroke-width="1.02" d="M730.2,-169.64C722.08,-175.54 714.75,-182.77 709.97,-191.48 703.55,-203.17 700.78,-211.82 709.97,-221.48 735.64,-248.46 1227.88,-259.7 1467.75,-263.6"/>
<polygon fill="black" stroke="black" stroke-width="1.02" points="1467.87,-267.1 1477.93,-263.76 1467.98,-260.1 1467.87,-267.1"/>
<text text-anchor="middle" x="832.97" y="-210.28" font-family="Times,serif" font-size="14.00">T07&#45;2 Draft intern advice aspect 2</text>
<text text-anchor="middle" x="832.97" y="-195.28" font-family="Times,serif" font-size="14.00">19</text>
</g>
<!-- b2ffe0b6&#45;bfbe&#45;4ba6&#45;ae07&#45;fda199aff696&#45;&gt;13a2a8d5&#45;2e99&#45;4db5&#45;9dd6&#45;4147f2845977 -->
<g id="edge10" class="edge">
<title>b2ffe0b6&#45;bfbe&#45;4ba6&#45;ae07&#45;fda199aff696&#45;&gt;13a2a8d5&#45;2e99&#45;4db5&#45;9dd6&#45;4147f2845977</title>
<path fill="none" stroke="black" stroke-width="1.15" d="M2729.64,-388.92C2886.88,-392.48 3156.9,-402.68 3191.97,-430.96 3203.37,-440.15 3209.04,-454.99 3211.8,-468.96"/>
<polygon fill="black" stroke="black" stroke-width="1.15" points="3208.35,-469.54 3213.34,-478.89 3215.27,-468.47 3208.35,-469.54"/>
<text text-anchor="middle" x="3347.47" y="-449.76" font-family="Times,serif" font-size="14.00">T04 Determine confirmation of receipt</text>
<text text-anchor="middle" x="3347.47" y="-434.76" font-family="Times,serif" font-size="14.00">111</text>
</g>
<!-- b2ffe0b6&#45;bfbe&#45;4ba6&#45;ae07&#45;fda199aff696&#45;&gt;13a2a8d5&#45;2e99&#45;4db5&#45;9dd6&#45;4147f2845977 -->
<g id="edge11" class="edge">
<title>b2ffe0b6&#45;bfbe&#45;4ba6&#45;ae07&#45;fda199aff696&#45;&gt;13a2a8d5&#45;2e99&#45;4db5&#45;9dd6&#45;4147f2845977</title>
<path fill="none" stroke="black" stroke-width="1.01" d="M2551.7,-408.31C2542.27,-414.18 2533.79,-421.6 2527.97,-430.96 2520.93,-442.28 2518.85,-451.24 2527.97,-460.96 2546.93,-481.18 2899.73,-495.16 3091.79,-501.3"/>
<polygon fill="black" stroke="black" stroke-width="1.01" points="3091.83,-504.81 3101.94,-501.63 3092.05,-497.81 3091.83,-504.81"/>
<text text-anchor="middle" x="2696.47" y="-449.76" font-family="Times,serif" font-size="14.00">T14 Determine document X request unlicensed</text>
<text text-anchor="middle" x="2696.47" y="-434.76" font-family="Times,serif" font-size="14.00">10</text>
</g>
<!-- b2ffe0b6&#45;bfbe&#45;4ba6&#45;ae07&#45;fda199aff696&#45;&gt;b2ffe0b6&#45;bfbe&#45;4ba6&#45;ae07&#45;fda199aff696 -->
<g id="edge1" class="edge">
<title>b2ffe0b6&#45;bfbe&#45;4ba6&#45;ae07&#45;fda199aff696&#45;&gt;b2ffe0b6&#45;bfbe&#45;4ba6&#45;ae07&#45;fda199aff696</title>
<path fill="none" stroke="black" stroke-width="1.22" d="M2729.82,-389.05C2741,-388.45 2748.11,-387.47 2748.11,-386.09 2748.11,-385.21 2745.19,-384.49 2740.15,-383.93"/>
<polygon fill="black" stroke="black" stroke-width="1.22" points="2740.06,-380.41 2729.82,-383.13 2739.52,-387.39 2740.06,-380.41"/>
<text text-anchor="middle" x="2831.11" y="-389.89" font-family="Times,serif" font-size="14.00">Confirmation of receipt</text>
<text text-anchor="middle" x="2831.11" y="-374.89" font-family="Times,serif" font-size="14.00">162</text>
</g>
<!-- b2ffe0b6&#45;bfbe&#45;4ba6&#45;ae07&#45;fda199aff696&#45;&gt;b2ffe0b6&#45;bfbe&#45;4ba6&#45;ae07&#45;fda199aff696 -->
<g id="edge2" class="edge">
<title>b2ffe0b6&#45;bfbe&#45;4ba6&#45;ae07&#45;fda199aff696&#45;&gt;b2ffe0b6&#45;bfbe&#45;4ba6&#45;ae07&#45;fda199aff696</title>
<path fill="none" stroke="black" stroke-width="1.15" d="M2726.9,-392.77C2812.87,-394.5 2914.11,-392.27 2914.11,-386.09 2914.11,-380.15 2820.63,-377.86 2737.04,-379.22"/>
<polygon fill="black" stroke="black" stroke-width="1.15" points="2736.84,-375.72 2726.9,-379.41 2736.96,-382.72 2736.84,-375.72"/>
<text text-anchor="middle" x="3035.61" y="-389.89" font-family="Times,serif" font-size="14.00">T02 Check confirmation of receipt</text>
<text text-anchor="middle" x="3035.61" y="-374.89" font-family="Times,serif" font-size="14.00">108</text>
</g>
<!-- b2ffe0b6&#45;bfbe&#45;4ba6&#45;ae07&#45;fda199aff696&#45;&gt;b2ffe0b6&#45;bfbe&#45;4ba6&#45;ae07&#45;fda199aff696 -->
<g id="edge3" class="edge">
<title>b2ffe0b6&#45;bfbe&#45;4ba6&#45;ae07&#45;fda199aff696&#45;&gt;b2ffe0b6&#45;bfbe&#45;4ba6&#45;ae07&#45;fda199aff696</title>
<path fill="none" stroke="black" stroke-width="1.09" d="M2724.87,-394.25C2884.62,-399.68 3157.11,-396.97 3157.11,-386.09 3157.11,-375.45 2896.2,-372.62 2735.32,-377.59"/>
<polygon fill="black" stroke="black" stroke-width="1.09" points="2734.75,-374.11 2724.87,-377.93 2734.98,-381.11 2734.75,-374.11"/>
<text text-anchor="middle" x="3294.61" y="-389.89" font-family="Times,serif" font-size="14.00">T04 Determine confirmation of receipt</text>
<text text-anchor="middle" x="3294.61" y="-374.89" font-family="Times,serif" font-size="14.00">67</text>
</g>
<!-- 39de6fe6&#45;2212&#45;4d97&#45;83fd&#45;6331f0adf8a5 -->
<g id="node5" class="node">
<title>39de6fe6&#45;2212&#45;4d97&#45;83fd&#45;6331f0adf8a5</title>
<ellipse fill="#4c4b3f" stroke="black" cx="3079.97" cy="-146.61" rx="119.5" ry="26.74"/>
<text text-anchor="middle" x="3079.97" y="-150.41" font-family="Times,serif" font-size="14.00">Group 4</text>
<text text-anchor="middle" x="3079.97" y="-135.41" font-family="Times,serif" font-size="14.00">(in=1042; out=1038)</text>
</g>
<!-- b2ffe0b6&#45;bfbe&#45;4ba6&#45;ae07&#45;fda199aff696&#45;&gt;39de6fe6&#45;2212&#45;4d97&#45;83fd&#45;6331f0adf8a5 -->
<g id="edge13" class="edge">
<title>b2ffe0b6&#45;bfbe&#45;4ba6&#45;ae07&#45;fda199aff696&#45;&gt;39de6fe6&#45;2212&#45;4d97&#45;83fd&#45;6331f0adf8a5</title>
<path fill="none" stroke="black" stroke-width="1.97" d="M2730.18,-385.6C2908.9,-385.12 3267.03,-378.92 3567.97,-341.22 3672.88,-328.08 3734.17,-375.18 3800.97,-293.22 3816.06,-274.71 3816.06,-257.99 3800.97,-239.48 3792.62,-229.24 3581.04,-193.41 3567.97,-191.48 3445.12,-173.36 3303.68,-161.64 3204.81,-154.91"/>
<polygon fill="black" stroke="black" stroke-width="1.97" points="3204.99,-151.42 3194.78,-154.24 3204.52,-158.4 3204.99,-151.42"/>
<text text-anchor="middle" x="3894.97" y="-270.15" font-family="Times,serif" font-size="14.00">Confirmation of receipt</text>
<text text-anchor="middle" x="3894.97" y="-255.15" font-family="Times,serif" font-size="14.00">710</text>
</g>
<!-- 22ec0b5d&#45;904a&#45;41cc&#45;b7ff&#45;1f1a8087b4d3 -->
<g id="node6" class="node">
<title>22ec0b5d&#45;904a&#45;41cc&#45;b7ff&#45;1f1a8087b4d3</title>
<ellipse fill="#4c4b3f" stroke="black" cx="3483.97" cy="-26.87" rx="119.5" ry="26.74"/>
<text text-anchor="middle" x="3483.97" y="-30.67" font-family="Times,serif" font-size="14.00">Group 3</text>
<text text-anchor="middle" x="3483.97" y="-15.67" font-family="Times,serif" font-size="14.00">(in=1138; out=1137)</text>
</g>
<!-- b2ffe0b6&#45;bfbe&#45;4ba6&#45;ae07&#45;fda199aff696&#45;&gt;22ec0b5d&#45;904a&#45;41cc&#45;b7ff&#45;1f1a8087b4d3 -->
<g id="edge12" class="edge">
<title>b2ffe0b6&#45;bfbe&#45;4ba6&#45;ae07&#45;fda199aff696&#45;&gt;22ec0b5d&#45;904a&#45;41cc&#45;b7ff&#45;1f1a8087b4d3</title>
<path fill="none" stroke="black" stroke-width="1.23" d="M2728.75,-381.9C3063.99,-372.29 4038.09,-344.14 4040.97,-341.22 4087.7,-293.83 4078.95,-247.48 4042.97,-191.48 3973.77,-83.77 3903.74,-108.06 3780.97,-71.74 3724.39,-55 3659.77,-44.49 3605.29,-37.97"/>
<polygon fill="black" stroke="black" stroke-width="1.23" points="3605.58,-34.48 3595.24,-36.79 3604.77,-41.43 3605.58,-34.48"/>
<text text-anchor="middle" x="4180.47" y="-210.28" font-family="Times,serif" font-size="14.00">T02 Check confirmation of receipt</text>
<text text-anchor="middle" x="4180.47" y="-195.28" font-family="Times,serif" font-size="14.00">166</text>
</g>
<!-- b2ffe0b6&#45;bfbe&#45;4ba6&#45;ae07&#45;fda199aff696&#45;&gt;0d96656e&#45;d2d4&#45;4625&#45;ba60&#45;2bd8dbb4aef6 -->
<g id="edge4" class="edge">
<title>b2ffe0b6&#45;bfbe&#45;4ba6&#45;ae07&#45;fda199aff696&#45;&gt;0d96656e&#45;d2d4&#45;4625&#45;ba60&#45;2bd8dbb4aef6</title>
<path fill="none" stroke="black" stroke-width="1.24" d="M2729.05,-381.86C2918.08,-375.87 3281.74,-361.73 3300.97,-341.22 3310.09,-331.5 3310.28,-320.77 3300.97,-311.22 3273.56,-283.1 2119.66,-271.45 1726.56,-268.29"/>
<polygon fill="black" stroke="black" stroke-width="1.24" points="1726.31,-264.79 1716.28,-268.21 1726.25,-271.79 1726.31,-264.79"/>
<text text-anchor="middle" x="3389.97" y="-330.02" font-family="Times,serif" font-size="14.00">Confirmation of receipt</text>
<text text-anchor="middle" x="3389.97" y="-315.02" font-family="Times,serif" font-size="14.00">178</text>
</g>
<!-- b2ffe0b6&#45;bfbe&#45;4ba6&#45;ae07&#45;fda199aff696&#45;&gt;0d96656e&#45;d2d4&#45;4625&#45;ba60&#45;2bd8dbb4aef6 -->
<g id="edge5" class="edge">
<title>b2ffe0b6&#45;bfbe&#45;4ba6&#45;ae07&#45;fda199aff696&#45;&gt;0d96656e&#45;d2d4&#45;4625&#45;ba60&#45;2bd8dbb4aef6</title>
<path fill="none" stroke="black" stroke-width="1.12" d="M2503.95,-383.88C2058.72,-378.96 449.28,-359.91 430.97,-341.22 421.64,-331.7 421.72,-320.82 430.97,-311.22 466.42,-274.42 1170.48,-268.38 1467.05,-267.47"/>
<polygon fill="black" stroke="black" stroke-width="1.12" points="1467.43,-270.97 1477.42,-267.44 1467.41,-263.97 1467.43,-270.97"/>
<text text-anchor="middle" x="552.47" y="-330.02" font-family="Times,serif" font-size="14.00">T02 Check confirmation of receipt</text>
<text text-anchor="middle" x="552.47" y="-315.02" font-family="Times,serif" font-size="14.00">92</text>
</g>
<!-- b2ffe0b6&#45;bfbe&#45;4ba6&#45;ae07&#45;fda199aff696&#45;&gt;0d96656e&#45;d2d4&#45;4625&#45;ba60&#45;2bd8dbb4aef6 -->
<g id="edge6" class="edge">
<title>b2ffe0b6&#45;bfbe&#45;4ba6&#45;ae07&#45;fda199aff696&#45;&gt;0d96656e&#45;d2d4&#45;4625&#45;ba60&#45;2bd8dbb4aef6</title>
<path fill="none" stroke="black" stroke-width="1.03" d="M2503.66,-384.62C2096.35,-382.66 728.7,-373.68 696.97,-341.22 687.65,-331.69 687.77,-320.88 696.97,-311.22 723.08,-283.81 1224.39,-272.77 1467.25,-269.01"/>
<polygon fill="black" stroke="black" stroke-width="1.03" points="1467.61,-272.51 1477.55,-268.86 1467.5,-265.51 1467.61,-272.51"/>
<text text-anchor="middle" x="834.47" y="-330.02" font-family="Times,serif" font-size="14.00">T04 Determine confirmation of receipt</text>
<text text-anchor="middle" x="834.47" y="-315.02" font-family="Times,serif" font-size="14.00">24</text>
</g>
<!-- b2ffe0b6&#45;bfbe&#45;4ba6&#45;ae07&#45;fda199aff696&#45;&gt;0d96656e&#45;d2d4&#45;4625&#45;ba60&#45;2bd8dbb4aef6 -->
<g id="edge7" class="edge">
<title>b2ffe0b6&#45;bfbe&#45;4ba6&#45;ae07&#45;fda199aff696&#45;&gt;0d96656e&#45;d2d4&#45;4625&#45;ba60&#45;2bd8dbb4aef6</title>
<path fill="none" stroke="black" stroke-width="1.11" d="M2504.04,-384.13C2140.29,-380.77 1021.29,-368.26 994.97,-341.22 985.67,-331.67 985.89,-320.99 994.97,-311.22 1026.41,-277.4 1299.98,-269.36 1467.32,-267.62"/>
<polygon fill="black" stroke="black" stroke-width="1.11" points="1467.48,-271.12 1477.44,-267.53 1467.41,-264.12 1467.48,-271.12"/>
<text text-anchor="middle" x="1146.97" y="-330.02" font-family="Times,serif" font-size="14.00">T05 Print and send confirmation of receipt</text>
<text text-anchor="middle" x="1146.97" y="-315.02" font-family="Times,serif" font-size="14.00">80</text>
</g>
<!-- b2ffe0b6&#45;bfbe&#45;4ba6&#45;ae07&#45;fda199aff696&#45;&gt;0d96656e&#45;d2d4&#45;4625&#45;ba60&#45;2bd8dbb4aef6 -->
<g id="edge8" class="edge">
<title>b2ffe0b6&#45;bfbe&#45;4ba6&#45;ae07&#45;fda199aff696&#45;&gt;0d96656e&#45;d2d4&#45;4625&#45;ba60&#45;2bd8dbb4aef6</title>
<path fill="none" stroke="black" stroke-width="1.04" d="M2503.69,-385.47C2195.61,-385.96 1362.71,-383.36 1321.97,-341.22 1312.7,-331.63 1313.32,-321.36 1321.97,-311.22 1341.48,-288.36 1406.9,-277.35 1469.04,-272.08"/>
<polygon fill="black" stroke="black" stroke-width="1.04" points="1469.69,-275.54 1479.37,-271.25 1469.13,-268.56 1469.69,-275.54"/>
<text text-anchor="middle" x="1463.47" y="-330.02" font-family="Times,serif" font-size="14.00">T06 Determine necessity of stop advice</text>
<text text-anchor="middle" x="1463.47" y="-315.02" font-family="Times,serif" font-size="14.00">29</text>
</g>
<!-- b2ffe0b6&#45;bfbe&#45;4ba6&#45;ae07&#45;fda199aff696&#45;&gt;0d96656e&#45;d2d4&#45;4625&#45;ba60&#45;2bd8dbb4aef6 -->
<g id="edge9" class="edge">
<title>b2ffe0b6&#45;bfbe&#45;4ba6&#45;ae07&#45;fda199aff696&#45;&gt;0d96656e&#45;d2d4&#45;4625&#45;ba60&#45;2bd8dbb4aef6</title>
<path fill="none" stroke="black" stroke-width="1.02" d="M2504.07,-383.3C2252.15,-378.86 1663.37,-365.9 1627.97,-341.22 1615.39,-332.45 1607.9,-317.54 1603.44,-303.39"/>
<polygon fill="black" stroke="black" stroke-width="1.02" points="1606.71,-302.06 1600.71,-293.33 1599.95,-303.9 1606.71,-302.06"/>
<text text-anchor="middle" x="1750.97" y="-330.02" font-family="Times,serif" font-size="14.00">T07&#45;1 Draft intern advice aspect 1</text>
<text text-anchor="middle" x="1750.97" y="-315.02" font-family="Times,serif" font-size="14.00">16</text>
</g>
<!-- d6d95efe&#45;2e30&#45;46d8&#45;bb4c&#45;158d2d571998 -->
<g id="node4" class="node">
<title>d6d95efe&#45;2e30&#45;46d8&#45;bb4c&#45;158d2d571998</title>
<ellipse fill="transparent" stroke="black" cx="1128.97" cy="-146.61" rx="94.09" ry="26.74"/>
<text text-anchor="middle" x="1128.97" y="-150.41" font-family="Times,serif" font-size="14.00">Group 13</text>
<text text-anchor="middle" x="1128.97" y="-135.41" font-family="Times,serif" font-size="14.00">(in=22; out=22)</text>
</g>
<!-- d6d95efe&#45;2e30&#45;46d8&#45;bb4c&#45;158d2d571998&#45;&gt;0d96656e&#45;d2d4&#45;4625&#45;ba60&#45;2bd8dbb4aef6 -->
<g id="edge36" class="edge">
<title>d6d95efe&#45;2e30&#45;46d8&#45;bb4c&#45;158d2d571998&#45;&gt;0d96656e&#45;d2d4&#45;4625&#45;ba60&#45;2bd8dbb4aef6</title>
<path fill="none" stroke="black" stroke-width="1.03" d="M1198.24,-164.85C1216.44,-171.36 1235.34,-180.06 1250.97,-191.48 1264.54,-201.39 1259.44,-213.05 1273.97,-221.48 1307.11,-240.71 1395.57,-251.87 1471.55,-258.12"/>
<polygon fill="black" stroke="black" stroke-width="1.03" points="1471.46,-261.63 1481.71,-258.93 1472.02,-254.65 1471.46,-261.63"/>
<text text-anchor="middle" x="1396.97" y="-210.28" font-family="Times,serif" font-size="14.00">T07&#45;1 Draft intern advice aspect 1</text>
<text text-anchor="middle" x="1396.97" y="-195.28" font-family="Times,serif" font-size="14.00">22</text>
</g>
<!-- 39de6fe6&#45;2212&#45;4d97&#45;83fd&#45;6331f0adf8a5&#45;&gt;b2ffe0b6&#45;bfbe&#45;4ba6&#45;ae07&#45;fda199aff696 -->
<g id="edge45" class="edge">
<title>39de6fe6&#45;2212&#45;4d97&#45;83fd&#45;6331f0adf8a5&#45;&gt;b2ffe0b6&#45;bfbe&#45;4ba6&#45;ae07&#45;fda199aff696</title>
<path fill="none" stroke="black" stroke-width="1.04" d="M3198.21,-150.78C3326.85,-155.48 3517.34,-166.59 3539.97,-191.48 3551.16,-203.79 3551.45,-329.18 3539.97,-341.22 3512.81,-369.7 2984.71,-380.3 2739.79,-383.69"/>
<polygon fill="black" stroke="black" stroke-width="1.04" points="2739.72,-380.19 2729.77,-383.83 2739.82,-387.19 2739.72,-380.19"/>
<text text-anchor="middle" x="3669.47" y="-270.15" font-family="Times,serif" font-size="14.00">T02 Check confirmation of receipt</text>
<text text-anchor="middle" x="3669.47" y="-255.15" font-family="Times,serif" font-size="14.00">27</text>
</g>
<!-- 39de6fe6&#45;2212&#45;4d97&#45;83fd&#45;6331f0adf8a5&#45;&gt;b2ffe0b6&#45;bfbe&#45;4ba6&#45;ae07&#45;fda199aff696 -->
<g id="edge46" class="edge">
<title>39de6fe6&#45;2212&#45;4d97&#45;83fd&#45;6331f0adf8a5&#45;&gt;b2ffe0b6&#45;bfbe&#45;4ba6&#45;ae07&#45;fda199aff696</title>
<path fill="none" stroke="black" stroke-width="1.01" d="M3197.29,-151.82C3315.61,-157.3 3483.66,-168.97 3503.97,-191.48 3512.9,-201.38 3513.07,-211.74 3503.97,-221.48 3463.51,-264.76 3278.42,-196.2 3237.97,-239.48 3221.66,-256.93 3221.73,-275.71 3237.97,-293.22 3274.19,-332.27 3440.75,-272.17 3476.97,-311.22 3486.04,-321 3486.15,-331.56 3476.97,-341.22 3452.01,-367.48 2971.65,-379.13 2739.94,-383.23"/>
<polygon fill="black" stroke="black" stroke-width="1.01" points="2739.71,-379.74 2729.78,-383.41 2739.84,-386.74 2739.71,-379.74"/>
<text text-anchor="middle" x="3390.47" y="-270.15" font-family="Times,serif" font-size="14.00">T12 Check document X request unlicensed</text>
<text text-anchor="middle" x="3390.47" y="-255.15" font-family="Times,serif" font-size="14.00">10</text>
</g>
<!-- 39de6fe6&#45;2212&#45;4d97&#45;83fd&#45;6331f0adf8a5&#45;&gt;22ec0b5d&#45;904a&#45;41cc&#45;b7ff&#45;1f1a8087b4d3 -->
<g id="edge48" class="edge">
<title>39de6fe6&#45;2212&#45;4d97&#45;83fd&#45;6331f0adf8a5&#45;&gt;22ec0b5d&#45;904a&#45;41cc&#45;b7ff&#45;1f1a8087b4d3</title>
<path fill="none" stroke="black" stroke-width="2.12" d="M2971.85,-135.11C2913.13,-125.29 2858.54,-106.65 2890.97,-71.74 2921.81,-38.54 3189.27,-30.24 3354.29,-28.31"/>
<polygon fill="black" stroke="black" stroke-width="2.12" points="3354.56,-31.81 3364.52,-28.19 3354.48,-24.81 3354.56,-31.81"/>
<text text-anchor="middle" x="3012.47" y="-90.54" font-family="Times,serif" font-size="14.00">T02 Check confirmation of receipt</text>
<text text-anchor="middle" x="3012.47" y="-75.54" font-family="Times,serif" font-size="14.00">819</text>
</g>
<!-- 39de6fe6&#45;2212&#45;4d97&#45;83fd&#45;6331f0adf8a5&#45;&gt;22ec0b5d&#45;904a&#45;41cc&#45;b7ff&#45;1f1a8087b4d3 -->
<g id="edge49" class="edge">
<title>39de6fe6&#45;2212&#45;4d97&#45;83fd&#45;6331f0adf8a5&#45;&gt;22ec0b5d&#45;904a&#45;41cc&#45;b7ff&#45;1f1a8087b4d3</title>
<path fill="none" stroke="black" stroke-width="1.03" d="M3113.31,-120.57C3120.4,-114.69 3127.65,-108.24 3133.97,-101.74 3145.68,-89.69 3142.43,-80.16 3156.97,-71.74 3190.71,-52.2 3281.04,-41.03 3358.23,-34.86"/>
<polygon fill="black" stroke="black" stroke-width="1.03" points="3358.84,-38.33 3368.54,-34.06 3358.3,-31.35 3358.84,-38.33"/>
<text text-anchor="middle" x="3309.47" y="-90.54" font-family="Times,serif" font-size="14.00">T12 Check document X request unlicensed</text>
<text text-anchor="middle" x="3309.47" y="-75.54" font-family="Times,serif" font-size="14.00">22</text>
</g>
<!-- 39de6fe6&#45;2212&#45;4d97&#45;83fd&#45;6331f0adf8a5&#45;&gt;22ec0b5d&#45;904a&#45;41cc&#45;b7ff&#45;1f1a8087b4d3 -->
<g id="edge50" class="edge">
<title>39de6fe6&#45;2212&#45;4d97&#45;83fd&#45;6331f0adf8a5&#45;&gt;22ec0b5d&#45;904a&#45;41cc&#45;b7ff&#45;1f1a8087b4d3</title>
<path fill="none" stroke="black" stroke-width="1.02" d="M3199.59,-145.89C3296.55,-143.63 3423.22,-134.23 3461.97,-101.74 3473,-92.49 3478.64,-77.97 3481.48,-64.24"/>
<polygon fill="black" stroke="black" stroke-width="1.02" points="3485,-64.43 3483.15,-54 3478.09,-63.31 3485,-64.43"/>
<text text-anchor="middle" x="3612.97" y="-90.54" font-family="Times,serif" font-size="14.00">T17 Check report Y to stop indication</text>
<text text-anchor="middle" x="3612.97" y="-75.54" font-family="Times,serif" font-size="14.00">16</text>
</g>
<!-- 39de6fe6&#45;2212&#45;4d97&#45;83fd&#45;6331f0adf8a5&#45;&gt;0d96656e&#45;d2d4&#45;4625&#45;ba60&#45;2bd8dbb4aef6 -->
<g id="edge47" class="edge">
<title>39de6fe6&#45;2212&#45;4d97&#45;83fd&#45;6331f0adf8a5&#45;&gt;0d96656e&#45;d2d4&#45;4625&#45;ba60&#45;2bd8dbb4aef6</title>
<path fill="none" stroke="black" stroke-width="1.2" d="M2968.69,-156.55C2906.66,-163.31 2836.83,-174.39 2810.97,-191.48 2797.8,-200.18 2805.65,-213.62 2791.97,-221.48 2746.43,-247.64 2026,-259.86 1726.25,-263.83"/>
<polygon fill="black" stroke="black" stroke-width="1.2" points="1726.16,-260.33 1716.2,-263.96 1726.25,-267.33 1726.16,-260.33"/>
<text text-anchor="middle" x="2932.47" y="-210.28" font-family="Times,serif" font-size="14.00">T02 Check confirmation of receipt</text>
<text text-anchor="middle" x="2932.47" y="-195.28" font-family="Times,serif" font-size="14.00">144</text>
</g>
<!-- 22ec0b5d&#45;904a&#45;41cc&#45;b7ff&#45;1f1a8087b4d3&#45;&gt;13a2a8d5&#45;2e99&#45;4db5&#45;9dd6&#45;4147f2845977 -->
<g id="edge42" class="edge">
<title>22ec0b5d&#45;904a&#45;41cc&#45;b7ff&#45;1f1a8087b4d3&#45;&gt;13a2a8d5&#45;2e99&#45;4db5&#45;9dd6&#45;4147f2845977</title>
<path fill="none" stroke="black" stroke-width="2.31" d="M3597.03,-35.86C3844.52,-55.48 4404.62,-112.53 4305.97,-221.48 4278.84,-251.44 4158.95,-217.59 4124.97,-239.48 4081.02,-267.78 4106.78,-308.55 4065.97,-341.22 3870.33,-497.83 3762.9,-424.47 3514.97,-460.96 3449.91,-470.54 3376.93,-481.18 3319.12,-489.58"/>
<polygon fill="black" stroke="black" stroke-width="2.31" points="3318.27,-486.17 3308.88,-491.07 3319.27,-493.09 3318.27,-486.17"/>
<text text-anchor="middle" x="4262.47" y="-270.15" font-family="Times,serif" font-size="14.00">T04 Determine confirmation of receipt</text>
<text text-anchor="middle" x="4262.47" y="-255.15" font-family="Times,serif" font-size="14.00">957</text>
</g>
<!-- 22ec0b5d&#45;904a&#45;41cc&#45;b7ff&#45;1f1a8087b4d3&#45;&gt;13a2a8d5&#45;2e99&#45;4db5&#45;9dd6&#45;4147f2845977 -->
<g id="edge43" class="edge">
<title>22ec0b5d&#45;904a&#45;41cc&#45;b7ff&#45;1f1a8087b4d3&#45;&gt;13a2a8d5&#45;2e99&#45;4db5&#45;9dd6&#45;4147f2845977</title>
<path fill="none" stroke="black" stroke-width="1.02" d="M3602.77,-30.64C3855.17,-38.1 4421.97,-63.96 4421.97,-145.61 4421.97,-387.09 4421.97,-387.09 4421.97,-387.09 4421.97,-495.2 3645.59,-505.64 3337.65,-505.53"/>
<polygon fill="black" stroke="black" stroke-width="1.02" points="3337.35,-502.03 3327.34,-505.52 3337.34,-509.03 3337.35,-502.03"/>
<text text-anchor="middle" x="4590.47" y="-270.15" font-family="Times,serif" font-size="14.00">T14 Determine document X request unlicensed</text>
<text text-anchor="middle" x="4590.47" y="-255.15" font-family="Times,serif" font-size="14.00">18</text>
</g>
<!-- 22ec0b5d&#45;904a&#45;41cc&#45;b7ff&#45;1f1a8087b4d3&#45;&gt;13a2a8d5&#45;2e99&#45;4db5&#45;9dd6&#45;4147f2845977 -->
<g id="edge44" class="edge">
<title>22ec0b5d&#45;904a&#45;41cc&#45;b7ff&#45;1f1a8087b4d3&#45;&gt;13a2a8d5&#45;2e99&#45;4db5&#45;9dd6&#45;4147f2845977</title>
<path fill="none" stroke="black" stroke-width="1.02" d="M3601.18,-32.32C3922.73,-45.29 4794.97,-85.96 4794.97,-145.61 4794.97,-387.09 4794.97,-387.09 4794.97,-387.09 4794.97,-460.12 3708.05,-492.99 3336.65,-502.09"/>
<polygon fill="black" stroke="black" stroke-width="1.02" points="3336.32,-498.6 3326.4,-502.34 3336.49,-505.59 3336.32,-498.6"/>
<text text-anchor="middle" x="4944.97" y="-270.15" font-family="Times,serif" font-size="14.00">T19 Determine report Y to stop indication</text>
<text text-anchor="middle" x="4944.97" y="-255.15" font-family="Times,serif" font-size="14.00">17</text>
</g>
<!-- 22ec0b5d&#45;904a&#45;41cc&#45;b7ff&#45;1f1a8087b4d3&#45;&gt;b2ffe0b6&#45;bfbe&#45;4ba6&#45;ae07&#45;fda199aff696 -->
<g id="edge40" class="edge">
<title>22ec0b5d&#45;904a&#45;41cc&#45;b7ff&#45;1f1a8087b4d3&#45;&gt;b2ffe0b6&#45;bfbe&#45;4ba6&#45;ae07&#45;fda199aff696</title>
<path fill="none" stroke="black" stroke-width="1.08" d="M3600.34,-33.11C3662.48,-38.51 3730.34,-49.47 3750.97,-71.74 3796.37,-120.74 3716.63,-174.34 3763.97,-221.48 3798.41,-255.78 3949.04,-203.72 3981.97,-239.48 3998.15,-257.05 3997.43,-275.02 3981.97,-293.22 3896.54,-393.79 3820.25,-327.83 3688.97,-341.22 3346.78,-376.12 2940.46,-383.5 2740.58,-384.9"/>
<polygon fill="black" stroke="black" stroke-width="1.08" points="2740.32,-381.4 2730.35,-384.97 2740.37,-388.4 2740.32,-381.4"/>
<text text-anchor="middle" x="3901.47" y="-210.28" font-family="Times,serif" font-size="14.00">T04 Determine confirmation of receipt</text>
<text text-anchor="middle" x="3901.47" y="-195.28" font-family="Times,serif" font-size="14.00">60</text>
</g>
<!-- 22ec0b5d&#45;904a&#45;41cc&#45;b7ff&#45;1f1a8087b4d3&#45;&gt;0d96656e&#45;d2d4&#45;4625&#45;ba60&#45;2bd8dbb4aef6 -->
<g id="edge41" class="edge">
<title>22ec0b5d&#45;904a&#45;41cc&#45;b7ff&#45;1f1a8087b4d3&#45;&gt;0d96656e&#45;d2d4&#45;4625&#45;ba60&#45;2bd8dbb4aef6</title>
<path fill="none" stroke="black" stroke-width="1.11" d="M3364.23,-28.02C2879.45,-28.86 1061.1,-34.51 486.97,-71.74 301.24,-83.78 194.8,19.2 70.97,-119.74 -17.96,-219.52 221,-207.92 353.97,-221.48 566.72,-243.18 1194.4,-257.56 1467.54,-262.96"/>
<polygon fill="black" stroke="black" stroke-width="1.11" points="1467.83,-266.47 1477.9,-263.17 1467.97,-259.47 1467.83,-266.47"/>
<text text-anchor="middle" x="208.47" y="-150.41" font-family="Times,serif" font-size="14.00">T04 Determine confirmation of receipt</text>
<text text-anchor="middle" x="208.47" y="-135.41" font-family="Times,serif" font-size="14.00">85</text>
</g>
<!-- 0d96656e&#45;d2d4&#45;4625&#45;ba60&#45;2bd8dbb4aef6&#45;&gt;13a2a8d5&#45;2e99&#45;4db5&#45;9dd6&#45;4147f2845977 -->
<g id="edge26" class="edge">
<title>0d96656e&#45;d2d4&#45;4625&#45;ba60&#45;2bd8dbb4aef6&#45;&gt;13a2a8d5&#45;2e99&#45;4db5&#45;9dd6&#45;4147f2845977</title>
<path fill="none" stroke="black" stroke-width="1.01" d="M1477.3,-266.63C1259.16,-266.45 782.48,-271.22 382.97,-311.22 -54.8,-355.05 -62.79,-230.58 91.97,-412.96 176.78,-512.91 252.41,-449.25 382.97,-460.96 654.5,-485.32 2581.46,-500.41 3090.76,-504"/>
<polygon fill="black" stroke="black" stroke-width="1.01" points="3091.05,-507.5 3101.07,-504.07 3091.1,-500.5 3091.05,-507.5"/>
<text text-anchor="middle" x="233.47" y="-389.89" font-family="Times,serif" font-size="14.00">T06 Determine necessity of stop advice</text>
<text text-anchor="middle" x="233.47" y="-374.89" font-family="Times,serif" font-size="14.00">11</text>
</g>
<!-- 0d96656e&#45;d2d4&#45;4625&#45;ba60&#45;2bd8dbb4aef6&#45;&gt;13a2a8d5&#45;2e99&#45;4db5&#45;9dd6&#45;4147f2845977 -->
<g id="edge27" class="edge">
<title>0d96656e&#45;d2d4&#45;4625&#45;ba60&#45;2bd8dbb4aef6&#45;&gt;13a2a8d5&#45;2e99&#45;4db5&#45;9dd6&#45;4147f2845977</title>
<path fill="none" stroke="black" stroke-width="1.13" d="M1715.92,-269.08C2126.6,-275.2 3460.76,-296.21 3476.97,-311.22 3563.59,-391.45 3514.88,-430.58 3488.97,-460.96 3468.83,-484.57 3399.73,-495.53 3335.84,-500.6"/>
<polygon fill="black" stroke="black" stroke-width="1.13" points="3335.35,-497.12 3325.64,-501.36 3335.87,-504.1 3335.35,-497.12"/>
<text text-anchor="middle" x="3679.97" y="-389.89" font-family="Times,serif" font-size="14.00">T10 Determine necessity to stop indication</text>
<text text-anchor="middle" x="3679.97" y="-374.89" font-family="Times,serif" font-size="14.00">94</text>
</g>
<!-- 0d96656e&#45;d2d4&#45;4625&#45;ba60&#45;2bd8dbb4aef6&#45;&gt;d187363b&#45;48cf&#45;4800&#45;a297&#45;23e389edff7c -->
<g id="edge25" class="edge">
<title>0d96656e&#45;d2d4&#45;4625&#45;ba60&#45;2bd8dbb4aef6&#45;&gt;d187363b&#45;48cf&#45;4800&#45;a297&#45;23e389edff7c</title>
<path fill="none" stroke="black" stroke-width="1.02" d="M1477.36,-265.42C1180.32,-264.99 430.18,-260.08 392.97,-221.48 383.71,-211.88 383.85,-201.21 392.97,-191.48 414.14,-168.9 640.36,-178.1 670.97,-173.48 681.08,-171.95 691.64,-169.95 702.03,-167.73"/>
<polygon fill="black" stroke="black" stroke-width="1.02" points="702.9,-171.12 711.91,-165.54 701.39,-164.28 702.9,-171.12"/>
<text text-anchor="middle" x="534.47" y="-210.28" font-family="Times,serif" font-size="14.00">T06 Determine necessity of stop advice</text>
<text text-anchor="middle" x="534.47" y="-195.28" font-family="Times,serif" font-size="14.00">14</text>
</g>
<!-- 0d96656e&#45;d2d4&#45;4625&#45;ba60&#45;2bd8dbb4aef6&#45;&gt;b2ffe0b6&#45;bfbe&#45;4ba6&#45;ae07&#45;fda199aff696 -->
<g id="edge14" class="edge">
<title>0d96656e&#45;d2d4&#45;4625&#45;ba60&#45;2bd8dbb4aef6&#45;&gt;b2ffe0b6&#45;bfbe&#45;4ba6&#45;ae07&#45;fda199aff696</title>
<path fill="none" stroke="black" stroke-width="1.07" d="M1707.73,-276.49C1772.19,-283.42 1846.09,-294.63 1873.97,-311.22 1888.41,-319.81 1882.14,-333.33 1896.97,-341.22 1948.16,-368.44 2302.05,-379.24 2493.92,-383.13"/>
<polygon fill="black" stroke="black" stroke-width="1.07" points="2494,-386.63 2504.06,-383.33 2494.14,-379.63 2494,-386.63"/>
<text text-anchor="middle" x="1979.97" y="-330.02" font-family="Times,serif" font-size="14.00">Confirmation of receipt</text>
<text text-anchor="middle" x="1979.97" y="-315.02" font-family="Times,serif" font-size="14.00">51</text>
</g>
<!-- 0d96656e&#45;d2d4&#45;4625&#45;ba60&#45;2bd8dbb4aef6&#45;&gt;b2ffe0b6&#45;bfbe&#45;4ba6&#45;ae07&#45;fda199aff696 -->
<g id="edge15" class="edge">
<title>0d96656e&#45;d2d4&#45;4625&#45;ba60&#45;2bd8dbb4aef6&#45;&gt;b2ffe0b6&#45;bfbe&#45;4ba6&#45;ae07&#45;fda199aff696</title>
<path fill="none" stroke="black" stroke-width="1.02" d="M1716.29,-267.87C1834.33,-270.27 2005.42,-279.38 2062.97,-311.22 2077.67,-319.35 2071.22,-333.17 2085.97,-341.22 2120.98,-360.33 2349.87,-373.6 2495.48,-380.23"/>
<polygon fill="black" stroke="black" stroke-width="1.02" points="2495.67,-383.74 2505.82,-380.7 2495.99,-376.75 2495.67,-383.74"/>
<text text-anchor="middle" x="2208.47" y="-330.02" font-family="Times,serif" font-size="14.00">T03 Adjust confirmation of receipt</text>
<text text-anchor="middle" x="2208.47" y="-315.02" font-family="Times,serif" font-size="14.00">17</text>
</g>
<!-- 0d96656e&#45;d2d4&#45;4625&#45;ba60&#45;2bd8dbb4aef6&#45;&gt;b2ffe0b6&#45;bfbe&#45;4ba6&#45;ae07&#45;fda199aff696 -->
<g id="edge16" class="edge">
<title>0d96656e&#45;d2d4&#45;4625&#45;ba60&#45;2bd8dbb4aef6&#45;&gt;b2ffe0b6&#45;bfbe&#45;4ba6&#45;ae07&#45;fda199aff696</title>
<path fill="none" stroke="black" stroke-width="1.09" d="M1715.93,-269.08C1909.92,-272.69 2278.19,-283.19 2330.97,-311.22 2345.81,-319.1 2339.57,-332.57 2353.97,-341.22 2379.1,-356.32 2443.75,-367.22 2502.66,-374.37"/>
<polygon fill="black" stroke="black" stroke-width="1.09" points="2502.48,-377.88 2512.82,-375.58 2503.3,-370.93 2502.48,-377.88"/>
<text text-anchor="middle" x="2495.47" y="-330.02" font-family="Times,serif" font-size="14.00">T06 Determine necessity of stop advice</text>
<text text-anchor="middle" x="2495.47" y="-315.02" font-family="Times,serif" font-size="14.00">68</text>
</g>
<!-- 0d96656e&#45;d2d4&#45;4625&#45;ba60&#45;2bd8dbb4aef6&#45;&gt;b2ffe0b6&#45;bfbe&#45;4ba6&#45;ae07&#45;fda199aff696 -->
<g id="edge17" class="edge">
<title>0d96656e&#45;d2d4&#45;4625&#45;ba60&#45;2bd8dbb4aef6&#45;&gt;b2ffe0b6&#45;bfbe&#45;4ba6&#45;ae07&#45;fda199aff696</title>
<path fill="none" stroke="black" stroke-width="1.23" d="M1716.5,-268.02C1983.11,-270.1 2605.57,-278.47 2636.97,-311.22 2646.98,-321.66 2644.86,-336.58 2639.11,-350.29"/>
<polygon fill="black" stroke="black" stroke-width="1.23" points="2635.86,-348.98 2634.66,-359.51 2642.16,-352.02 2635.86,-348.98"/>
<text text-anchor="middle" x="2797.97" y="-330.02" font-family="Times,serif" font-size="14.00">T10 Determine necessity to stop indication</text>
<text text-anchor="middle" x="2797.97" y="-315.02" font-family="Times,serif" font-size="14.00">168</text>
</g>
<!-- 0d96656e&#45;d2d4&#45;4625&#45;ba60&#45;2bd8dbb4aef6&#45;&gt;b2ffe0b6&#45;bfbe&#45;4ba6&#45;ae07&#45;fda199aff696 -->
<g id="edge18" class="edge">
<title>0d96656e&#45;d2d4&#45;4625&#45;ba60&#45;2bd8dbb4aef6&#45;&gt;b2ffe0b6&#45;bfbe&#45;4ba6&#45;ae07&#45;fda199aff696</title>
<path fill="none" stroke="black" stroke-width="1.01" d="M1716.71,-266.75C2040.71,-265.72 2913.22,-267.07 2955.97,-311.22 2965.24,-320.8 2964.77,-331.21 2955.97,-341.22 2941.27,-357.95 2827.23,-370.14 2735.42,-377.37"/>
<polygon fill="black" stroke="black" stroke-width="1.01" points="2734.89,-373.9 2725.19,-378.16 2735.43,-380.88 2734.89,-373.9"/>
<text text-anchor="middle" x="3117.97" y="-330.02" font-family="Times,serif" font-size="14.00">T11 Create document X request unlicensed</text>
<text text-anchor="middle" x="3117.97" y="-315.02" font-family="Times,serif" font-size="14.00">10</text>
</g>
<!-- 0d96656e&#45;d2d4&#45;4625&#45;ba60&#45;2bd8dbb4aef6&#45;&gt;d6d95efe&#45;2e30&#45;46d8&#45;bb4c&#45;158d2d571998 -->
<g id="edge24" class="edge">
<title>0d96656e&#45;d2d4&#45;4625&#45;ba60&#45;2bd8dbb4aef6&#45;&gt;d6d95efe&#45;2e30&#45;46d8&#45;bb4c&#45;158d2d571998</title>
<path fill="none" stroke="black" stroke-width="1.03" d="M1477.49,-265.6C1304.69,-264.69 1001.89,-257.85 967.97,-221.48 939.75,-191.22 985.65,-172.37 1035.57,-161.29"/>
<polygon fill="black" stroke="black" stroke-width="1.03" points="1036.52,-164.66 1045.58,-159.17 1035.07,-157.81 1036.52,-164.66"/>
<text text-anchor="middle" x="1109.47" y="-210.28" font-family="Times,serif" font-size="14.00">T06 Determine necessity of stop advice</text>
<text text-anchor="middle" x="1109.47" y="-195.28" font-family="Times,serif" font-size="14.00">22</text>
</g>
<!-- 0d96656e&#45;d2d4&#45;4625&#45;ba60&#45;2bd8dbb4aef6&#45;&gt;39de6fe6&#45;2212&#45;4d97&#45;83fd&#45;6331f0adf8a5 -->
<g id="edge30" class="edge">
<title>0d96656e&#45;d2d4&#45;4625&#45;ba60&#45;2bd8dbb4aef6&#45;&gt;39de6fe6&#45;2212&#45;4d97&#45;83fd&#45;6331f0adf8a5</title>
<path fill="none" stroke="black" stroke-width="1.21" d="M1716.42,-265.54C2055.87,-265.6 3005.17,-262.09 3057.97,-221.48 3069.58,-212.55 3075.28,-197.76 3078.01,-183.74"/>
<polygon fill="black" stroke="black" stroke-width="1.21" points="3081.48,-184.18 3079.51,-173.77 3074.56,-183.14 3081.48,-184.18"/>
<text text-anchor="middle" x="3158.97" y="-210.28" font-family="Times,serif" font-size="14.00">Confirmation of receipt</text>
<text text-anchor="middle" x="3158.97" y="-195.28" font-family="Times,serif" font-size="14.00">156</text>
</g>
<!-- 0d96656e&#45;d2d4&#45;4625&#45;ba60&#45;2bd8dbb4aef6&#45;&gt;39de6fe6&#45;2212&#45;4d97&#45;83fd&#45;6331f0adf8a5 -->
<g id="edge31" class="edge">
<title>0d96656e&#45;d2d4&#45;4625&#45;ba60&#45;2bd8dbb4aef6&#45;&gt;39de6fe6&#45;2212&#45;4d97&#45;83fd&#45;6331f0adf8a5</title>
<path fill="none" stroke="black" stroke-width="1.05" d="M1716.35,-264.39C2090.85,-261.08 3219.32,-248.85 3245.97,-221.48 3273.19,-193.52 3235.35,-175.34 3188.96,-164.01"/>
<polygon fill="black" stroke="black" stroke-width="1.05" points="3189.48,-160.53 3178.95,-161.69 3187.91,-167.35 3189.48,-160.53"/>
<text text-anchor="middle" x="3377.47" y="-210.28" font-family="Times,serif" font-size="14.00">T03 Adjust confirmation of receipt</text>
<text text-anchor="middle" x="3377.47" y="-195.28" font-family="Times,serif" font-size="14.00">34</text>
</g>
<!-- 0d96656e&#45;d2d4&#45;4625&#45;ba60&#45;2bd8dbb4aef6&#45;&gt;39de6fe6&#45;2212&#45;4d97&#45;83fd&#45;6331f0adf8a5 -->
<g id="edge32" class="edge">
<title>0d96656e&#45;d2d4&#45;4625&#45;ba60&#45;2bd8dbb4aef6&#45;&gt;39de6fe6&#45;2212&#45;4d97&#45;83fd&#45;6331f0adf8a5</title>
<path fill="none" stroke="black" stroke-width="1.06" d="M1574.48,-239.68C1563.53,-224.05 1555.2,-204.62 1567.97,-191.48 1579.97,-179.13 2587.67,-157.56 2951.11,-150.18"/>
<polygon fill="black" stroke="black" stroke-width="1.06" points="2951.22,-153.67 2961.15,-149.97 2951.08,-146.68 2951.22,-153.67"/>
<text text-anchor="middle" x="1709.47" y="-210.28" font-family="Times,serif" font-size="14.00">T06 Determine necessity of stop advice</text>
<text text-anchor="middle" x="1709.47" y="-195.28" font-family="Times,serif" font-size="14.00">44</text>
</g>
<!-- 0d96656e&#45;d2d4&#45;4625&#45;ba60&#45;2bd8dbb4aef6&#45;&gt;39de6fe6&#45;2212&#45;4d97&#45;83fd&#45;6331f0adf8a5 -->
<g id="edge33" class="edge">
<title>0d96656e&#45;d2d4&#45;4625&#45;ba60&#45;2bd8dbb4aef6&#45;&gt;39de6fe6&#45;2212&#45;4d97&#45;83fd&#45;6331f0adf8a5</title>
<path fill="none" stroke="black" stroke-width="1.07" d="M1704.58,-254.66C1762.22,-247.4 1826.32,-236.39 1850.97,-221.48 1865.35,-212.79 1859.04,-199.19 1873.97,-191.48 1921.13,-167.14 2649.24,-153.84 2950.75,-149.36"/>
<polygon fill="black" stroke="black" stroke-width="1.07" points="2950.91,-152.86 2960.86,-149.21 2950.81,-145.86 2950.91,-152.86"/>
<text text-anchor="middle" x="2027.97" y="-210.28" font-family="Times,serif" font-size="14.00">T10 Determine necessity to stop indication</text>
<text text-anchor="middle" x="2027.97" y="-195.28" font-family="Times,serif" font-size="14.00">51</text>
</g>
<!-- 0d96656e&#45;d2d4&#45;4625&#45;ba60&#45;2bd8dbb4aef6&#45;&gt;39de6fe6&#45;2212&#45;4d97&#45;83fd&#45;6331f0adf8a5 -->
<g id="edge34" class="edge">
<title>0d96656e&#45;d2d4&#45;4625&#45;ba60&#45;2bd8dbb4aef6&#45;&gt;39de6fe6&#45;2212&#45;4d97&#45;83fd&#45;6331f0adf8a5</title>
<path fill="none" stroke="black" stroke-width="1.04" d="M1716.69,-264.79C1938.12,-262.96 2395.01,-255.09 2458.97,-221.48 2473.84,-213.67 2467.18,-199.46 2481.97,-191.48 2522.18,-169.78 2788.52,-157.21 2951.89,-151.45"/>
<polygon fill="black" stroke="black" stroke-width="1.04" points="2952.15,-154.95 2962.02,-151.1 2951.9,-147.95 2952.15,-154.95"/>
<text text-anchor="middle" x="2636.97" y="-210.28" font-family="Times,serif" font-size="14.00">T11 Create document X request unlicensed</text>
<text text-anchor="middle" x="2636.97" y="-195.28" font-family="Times,serif" font-size="14.00">29</text>
</g>
<!-- 0d96656e&#45;d2d4&#45;4625&#45;ba60&#45;2bd8dbb4aef6&#45;&gt;39de6fe6&#45;2212&#45;4d97&#45;83fd&#45;6331f0adf8a5 -->
<g id="edge35" class="edge">
<title>0d96656e&#45;d2d4&#45;4625&#45;ba60&#45;2bd8dbb4aef6&#45;&gt;39de6fe6&#45;2212&#45;4d97&#45;83fd&#45;6331f0adf8a5</title>
<path fill="none" stroke="black" stroke-width="1.02" d="M1715.31,-262.13C1874.71,-256.94 2143.05,-244.84 2181.97,-221.48 2195.5,-213.36 2187.34,-199.43 2200.97,-191.48 2263.92,-154.76 2721.26,-148.41 2950.17,-147.55"/>
<polygon fill="black" stroke="black" stroke-width="1.02" points="2950.24,-151.05 2960.23,-147.52 2950.22,-144.05 2950.24,-151.05"/>
<text text-anchor="middle" x="2327.97" y="-210.28" font-family="Times,serif" font-size="14.00">T16 Report reasons to hold request</text>
<text text-anchor="middle" x="2327.97" y="-195.28" font-family="Times,serif" font-size="14.00">18</text>
</g>
<!-- 0d96656e&#45;d2d4&#45;4625&#45;ba60&#45;2bd8dbb4aef6&#45;&gt;22ec0b5d&#45;904a&#45;41cc&#45;b7ff&#45;1f1a8087b4d3 -->
<g id="edge28" class="edge">
<title>0d96656e&#45;d2d4&#45;4625&#45;ba60&#45;2bd8dbb4aef6&#45;&gt;22ec0b5d&#45;904a&#45;41cc&#45;b7ff&#45;1f1a8087b4d3</title>
<path fill="none" stroke="black" stroke-width="1.04" d="M1569.3,-240.09C1555.83,-224.81 1545.06,-205.61 1557.97,-191.48 1756.61,25.99 2584.41,-95.68 2877.97,-71.74 3044.91,-58.13 3237.9,-44.52 3360.4,-36.15"/>
<polygon fill="black" stroke="black" stroke-width="1.04" points="3360.82,-39.63 3370.56,-35.46 3360.34,-32.65 3360.82,-39.63"/>
<text text-anchor="middle" x="1810.47" y="-150.41" font-family="Times,serif" font-size="14.00">T06 Determine necessity of stop advice</text>
<text text-anchor="middle" x="1810.47" y="-135.41" font-family="Times,serif" font-size="14.00">30</text>
</g>
<!-- 0d96656e&#45;d2d4&#45;4625&#45;ba60&#45;2bd8dbb4aef6&#45;&gt;22ec0b5d&#45;904a&#45;41cc&#45;b7ff&#45;1f1a8087b4d3 -->
<g id="edge29" class="edge">
<title>0d96656e&#45;d2d4&#45;4625&#45;ba60&#45;2bd8dbb4aef6&#45;&gt;22ec0b5d&#45;904a&#45;41cc&#45;b7ff&#45;1f1a8087b4d3</title>
<path fill="none" stroke="black" stroke-width="1.11" d="M1477.55,-264.73C1179.94,-262.69 425.97,-254.3 382.97,-221.48 346.64,-193.75 336.23,-152.63 367.97,-119.74 420.65,-65.17 2771.86,-35.71 3354.43,-29.24"/>
<polygon fill="black" stroke="black" stroke-width="1.11" points="3354.58,-32.74 3364.54,-29.13 3354.51,-25.74 3354.58,-32.74"/>
<text text-anchor="middle" x="521.97" y="-150.41" font-family="Times,serif" font-size="14.00">T10 Determine necessity to stop indication</text>
<text text-anchor="middle" x="521.97" y="-135.41" font-family="Times,serif" font-size="14.00">85</text>
</g>
<!-- 0d96656e&#45;d2d4&#45;4625&#45;ba60&#45;2bd8dbb4aef6&#45;&gt;0d96656e&#45;d2d4&#45;4625&#45;ba60&#45;2bd8dbb4aef6 -->
<g id="edge19" class="edge">
<title>0d96656e&#45;d2d4&#45;4625&#45;ba60&#45;2bd8dbb4aef6&#45;&gt;0d96656e&#45;d2d4&#45;4625&#45;ba60&#45;2bd8dbb4aef6</title>
<path fill="none" stroke="black" stroke-width="1.08" d="M1716.25,-268.09C1727.42,-267.74 1734.47,-267.15 1734.47,-266.35 1734.47,-265.84 1731.58,-265.41 1726.56,-265.08"/>
<polygon fill="black" stroke="black" stroke-width="1.08" points="1726.4,-261.57 1716.25,-264.61 1726.08,-268.56 1726.4,-261.57"/>
<text text-anchor="middle" x="1817.47" y="-270.15" font-family="Times,serif" font-size="14.00">Confirmation of receipt</text>
<text text-anchor="middle" x="1817.47" y="-255.15" font-family="Times,serif" font-size="14.00">61</text>
</g>
<!-- 0d96656e&#45;d2d4&#45;4625&#45;ba60&#45;2bd8dbb4aef6&#45;&gt;0d96656e&#45;d2d4&#45;4625&#45;ba60&#45;2bd8dbb4aef6 -->
<g id="edge20" class="edge">
<title>0d96656e&#45;d2d4&#45;4625&#45;ba60&#45;2bd8dbb4aef6&#45;&gt;0d96656e&#45;d2d4&#45;4625&#45;ba60&#45;2bd8dbb4aef6</title>
<path fill="none" stroke="black" stroke-width="2.6" d="M1715.37,-270.42C1801.86,-271.34 1900.47,-269.98 1900.47,-266.35 1900.47,-262.86 1809.41,-261.47 1725.56,-262.18"/>
<polygon fill="black" stroke="black" stroke-width="2.6" points="1725.34,-258.68 1715.37,-262.28 1725.41,-265.68 1725.34,-258.68"/>
<text text-anchor="middle" x="2041.97" y="-270.15" font-family="Times,serif" font-size="14.00">T06 Determine necessity of stop advice</text>
<text text-anchor="middle" x="2041.97" y="-255.15" font-family="Times,serif" font-size="14.00">1171</text>
</g>
<!-- 0d96656e&#45;d2d4&#45;4625&#45;ba60&#45;2bd8dbb4aef6&#45;&gt;0d96656e&#45;d2d4&#45;4625&#45;ba60&#45;2bd8dbb4aef6 -->
<g id="edge21" class="edge">
<title>0d96656e&#45;d2d4&#45;4625&#45;ba60&#45;2bd8dbb4aef6&#45;&gt;0d96656e&#45;d2d4&#45;4625&#45;ba60&#45;2bd8dbb4aef6</title>
<path fill="none" stroke="black" stroke-width="1.03" d="M1714.7,-271.28C1888.03,-274.5 2183.47,-272.85 2183.47,-266.35 2183.47,-259.97 1899.17,-258.27 1724.73,-261.25"/>
<polygon fill="black" stroke="black" stroke-width="1.03" points="1724.64,-257.75 1714.7,-261.42 1724.76,-264.75 1724.64,-257.75"/>
<text text-anchor="middle" x="2306.47" y="-270.15" font-family="Times,serif" font-size="14.00">T07&#45;5 Draft intern advice aspect 5</text>
<text text-anchor="middle" x="2306.47" y="-255.15" font-family="Times,serif" font-size="14.00">24</text>
</g>
<!-- 0d96656e&#45;d2d4&#45;4625&#45;ba60&#45;2bd8dbb4aef6&#45;&gt;0d96656e&#45;d2d4&#45;4625&#45;ba60&#45;2bd8dbb4aef6 -->
<g id="edge22" class="edge">
<title>0d96656e&#45;d2d4&#45;4625&#45;ba60&#45;2bd8dbb4aef6&#45;&gt;0d96656e&#45;d2d4&#45;4625&#45;ba60&#45;2bd8dbb4aef6</title>
<path fill="none" stroke="black" stroke-width="1.02" d="M1714.17,-272.06C1946.13,-277.45 2429.47,-275.55 2429.47,-266.35 2429.47,-257.28 1959.72,-255.3 1724.18,-260.41"/>
<polygon fill="black" stroke="black" stroke-width="1.02" points="1724.09,-256.91 1714.17,-260.64 1724.25,-263.91 1724.09,-256.91"/>
<text text-anchor="middle" x="2565.97" y="-270.15" font-family="Times,serif" font-size="14.00">T08 Draft and send request for advice</text>
<text text-anchor="middle" x="2565.97" y="-255.15" font-family="Times,serif" font-size="14.00">17</text>
</g>
<!-- 0d96656e&#45;d2d4&#45;4625&#45;ba60&#45;2bd8dbb4aef6&#45;&gt;0d96656e&#45;d2d4&#45;4625&#45;ba60&#45;2bd8dbb4aef6 -->
<g id="edge23" class="edge">
<title>0d96656e&#45;d2d4&#45;4625&#45;ba60&#45;2bd8dbb4aef6&#45;&gt;0d96656e&#45;d2d4&#45;4625&#45;ba60&#45;2bd8dbb4aef6</title>
<path fill="none" stroke="black" stroke-width="1.08" d="M1713.22,-272.67C2000.15,-280.4 2702.47,-278.29 2702.47,-266.35 2702.47,-254.55 2016.52,-252.35 1723.48,-259.76"/>
<polygon fill="black" stroke="black" stroke-width="1.08" points="1723.12,-256.27 1713.22,-260.03 1723.31,-263.27 1723.12,-256.27"/>
<text text-anchor="middle" x="2856.47" y="-270.15" font-family="Times,serif" font-size="14.00">T10 Determine necessity to stop indication</text>
<text text-anchor="middle" x="2856.47" y="-255.15" font-family="Times,serif" font-size="14.00">56</text>
</g>
</g>
</svg>
