<?xml version="1.0" encoding="UTF-8" standalone="no"?>
<!DOCTYPE svg PUBLIC "-//W3C//DTD SVG 1.1//EN"
 "http://www.w3.org/Graphics/SVG/1.1/DTD/svg11.dtd">
<!-- Generated by graphviz version 2.43.0 (0)
 -->
<!-- Title: pt Pages: 1 -->
<svg width="5690pt" height="541pt"
 viewBox="0.00 0.00 5690.25 540.70" xmlns="http://www.w3.org/2000/svg" xmlns:xlink="http://www.w3.org/1999/xlink">
<g id="graph0" class="graph" transform="scale(1 1) rotate(0) translate(4 536.7)">
<title>pt</title>
<polygon fill="white" stroke="transparent" points="-4,4 -4,-536.7 5686.25,-536.7 5686.25,4 -4,4"/>
<!-- 377316dd&#45;f702&#45;4325&#45;a92e&#45;0d3661167d8c -->
<g id="node1" class="node">
<title>377316dd&#45;f702&#45;4325&#45;a92e&#45;0d3661167d8c</title>
<ellipse fill="#4c4b3f" stroke="black" cx="2637.25" cy="-505.83" rx="113.27" ry="26.74"/>
<text text-anchor="middle" x="2637.25" y="-509.63" font-family="Times,serif" font-size="14.00">EMPTY</text>
<text text-anchor="middle" x="2637.25" y="-494.63" font-family="Times,serif" font-size="14.00">(in=760; out=1753)</text>
</g>
<!-- 377316dd&#45;f702&#45;4325&#45;a92e&#45;0d3661167d8c&#45;&gt;377316dd&#45;f702&#45;4325&#45;a92e&#45;0d3661167d8c -->
<g id="edge1" class="edge">
<title>377316dd&#45;f702&#45;4325&#45;a92e&#45;0d3661167d8c&#45;&gt;377316dd&#45;f702&#45;4325&#45;a92e&#45;0d3661167d8c</title>
<path fill="none" stroke="black" stroke-width="1.22" d="M2750.1,-508.79C2761.27,-508.19 2768.38,-507.21 2768.38,-505.83 2768.38,-504.95 2765.47,-504.23 2760.43,-503.67"/>
<polygon fill="black" stroke="black" stroke-width="1.22" points="2760.34,-500.15 2750.1,-502.87 2759.8,-507.13 2760.34,-500.15"/>
<text text-anchor="middle" x="2851.38" y="-509.63" font-family="Times,serif" font-size="14.00">Confirmation of receipt</text>
<text text-anchor="middle" x="2851.38" y="-494.63" font-family="Times,serif" font-size="14.00">162</text>
</g>
<!-- 377316dd&#45;f702&#45;4325&#45;a92e&#45;0d3661167d8c&#45;&gt;377316dd&#45;f702&#45;4325&#45;a92e&#45;0d3661167d8c -->
<g id="edge2" class="edge">
<title>377316dd&#45;f702&#45;4325&#45;a92e&#45;0d3661167d8c&#45;&gt;377316dd&#45;f702&#45;4325&#45;a92e&#45;0d3661167d8c</title>
<path fill="none" stroke="black" stroke-width="1.15" d="M2747.18,-512.51C2833.15,-514.24 2934.38,-512.01 2934.38,-505.83 2934.38,-499.89 2840.9,-497.6 2757.32,-498.96"/>
<polygon fill="black" stroke="black" stroke-width="1.15" points="2757.11,-495.46 2747.18,-499.15 2757.24,-502.46 2757.11,-495.46"/>
<text text-anchor="middle" x="3055.88" y="-509.63" font-family="Times,serif" font-size="14.00">T02 Check confirmation of receipt</text>
<text text-anchor="middle" x="3055.88" y="-494.63" font-family="Times,serif" font-size="14.00">108</text>
</g>
<!-- 377316dd&#45;f702&#45;4325&#45;a92e&#45;0d3661167d8c&#45;&gt;377316dd&#45;f702&#45;4325&#45;a92e&#45;0d3661167d8c -->
<g id="edge3" class="edge">
<title>377316dd&#45;f702&#45;4325&#45;a92e&#45;0d3661167d8c&#45;&gt;377316dd&#45;f702&#45;4325&#45;a92e&#45;0d3661167d8c</title>
<path fill="none" stroke="black" stroke-width="1.09" d="M2745.15,-513.99C2904.89,-519.42 3177.38,-516.71 3177.38,-505.83 3177.38,-495.19 2916.48,-492.36 2755.6,-497.34"/>
<polygon fill="black" stroke="black" stroke-width="1.09" points="2755.03,-493.85 2745.15,-497.67 2755.25,-500.85 2755.03,-493.85"/>
<text text-anchor="middle" x="3314.88" y="-509.63" font-family="Times,serif" font-size="14.00">T04 Determine confirmation of receipt</text>
<text text-anchor="middle" x="3314.88" y="-494.63" font-family="Times,serif" font-size="14.00">67</text>
</g>
<!-- 38eae437&#45;6edf&#45;4bdd&#45;96ee&#45;d8a98a384a34 -->
<g id="node2" class="node">
<title>38eae437&#45;6edf&#45;4bdd&#45;96ee&#45;d8a98a384a34</title>
<ellipse fill="#4c4b3f" stroke="black" cx="3633.25" cy="-386.09" rx="119.5" ry="26.74"/>
<text text-anchor="middle" x="3633.25" y="-389.89" font-family="Times,serif" font-size="14.00">Group 3</text>
<text text-anchor="middle" x="3633.25" y="-374.89" font-family="Times,serif" font-size="14.00">(in=1138; out=1137)</text>
</g>
<!-- 377316dd&#45;f702&#45;4325&#45;a92e&#45;0d3661167d8c&#45;&gt;38eae437&#45;6edf&#45;4bdd&#45;96ee&#45;d8a98a384a34 -->
<g id="edge12" class="edge">
<title>377316dd&#45;f702&#45;4325&#45;a92e&#45;0d3661167d8c&#45;&gt;38eae437&#45;6edf&#45;4bdd&#45;96ee&#45;d8a98a384a34</title>
<path fill="none" stroke="black" stroke-width="1.23" d="M2749.92,-503.29C2976.12,-499.62 3470.11,-488.54 3542.25,-460.96 3565.11,-452.22 3586.59,-435.38 3602.93,-419.98"/>
<polygon fill="black" stroke="black" stroke-width="1.23" points="3605.8,-422.07 3610.52,-412.58 3600.91,-417.05 3605.8,-422.07"/>
<text text-anchor="middle" x="3710.75" y="-449.76" font-family="Times,serif" font-size="14.00">T02 Check confirmation of receipt</text>
<text text-anchor="middle" x="3710.75" y="-434.76" font-family="Times,serif" font-size="14.00">166</text>
</g>
<!-- 43e2e4d3&#45;c6f5&#45;4a75&#45;98cb&#45;b397665b51f6 -->
<g id="node5" class="node">
<title>43e2e4d3&#45;c6f5&#45;4a75&#45;98cb&#45;b397665b51f6</title>
<ellipse fill="#4c4b3f" stroke="black" cx="2442.25" cy="-146.61" rx="119.5" ry="26.74"/>
<text text-anchor="middle" x="2442.25" y="-150.41" font-family="Times,serif" font-size="14.00">Group 1</text>
<text text-anchor="middle" x="2442.25" y="-135.41" font-family="Times,serif" font-size="14.00">(in=2818; out=2231)</text>
</g>
<!-- 377316dd&#45;f702&#45;4325&#45;a92e&#45;0d3661167d8c&#45;&gt;43e2e4d3&#45;c6f5&#45;4a75&#45;98cb&#45;b397665b51f6 -->
<g id="edge4" class="edge">
<title>377316dd&#45;f702&#45;4325&#45;a92e&#45;0d3661167d8c&#45;&gt;43e2e4d3&#45;c6f5&#45;4a75&#45;98cb&#45;b397665b51f6</title>
<path fill="none" stroke="black" stroke-width="1.24" d="M2718.63,-487.13C2835.36,-458.31 3027.93,-395.83 2948.25,-311.22 2925.35,-286.91 2676.47,-311.07 2648.25,-293.22 2604.62,-265.64 2632.51,-223.78 2592.25,-191.48 2578.89,-180.76 2563,-172.67 2546.64,-166.55"/>
<polygon fill="black" stroke="black" stroke-width="1.24" points="2547.57,-163.16 2536.97,-163.17 2545.26,-169.77 2547.57,-163.16"/>
<text text-anchor="middle" x="3049.25" y="-330.02" font-family="Times,serif" font-size="14.00">Confirmation of receipt</text>
<text text-anchor="middle" x="3049.25" y="-315.02" font-family="Times,serif" font-size="14.00">178</text>
</g>
<!-- 377316dd&#45;f702&#45;4325&#45;a92e&#45;0d3661167d8c&#45;&gt;43e2e4d3&#45;c6f5&#45;4a75&#45;98cb&#45;b397665b51f6 -->
<g id="edge5" class="edge">
<title>377316dd&#45;f702&#45;4325&#45;a92e&#45;0d3661167d8c&#45;&gt;43e2e4d3&#45;c6f5&#45;4a75&#45;98cb&#45;b397665b51f6</title>
<path fill="none" stroke="black" stroke-width="1.12" d="M2523.93,-504.7C2163.78,-503.92 1059.74,-498.46 903.25,-460.96 783.05,-432.16 718.2,-445.75 652.25,-341.22 567.5,-206.89 464.32,-297.41 903.25,-191.48 1038.13,-158.93 1966.67,-150.32 2312.67,-148.23"/>
<polygon fill="black" stroke="black" stroke-width="1.12" points="2312.76,-151.73 2322.74,-148.17 2312.72,-144.73 2312.76,-151.73"/>
<text text-anchor="middle" x="773.75" y="-330.02" font-family="Times,serif" font-size="14.00">T02 Check confirmation of receipt</text>
<text text-anchor="middle" x="773.75" y="-315.02" font-family="Times,serif" font-size="14.00">92</text>
</g>
<!-- 377316dd&#45;f702&#45;4325&#45;a92e&#45;0d3661167d8c&#45;&gt;43e2e4d3&#45;c6f5&#45;4a75&#45;98cb&#45;b397665b51f6 -->
<g id="edge6" class="edge">
<title>377316dd&#45;f702&#45;4325&#45;a92e&#45;0d3661167d8c&#45;&gt;43e2e4d3&#45;c6f5&#45;4a75&#45;98cb&#45;b397665b51f6</title>
<path fill="none" stroke="black" stroke-width="1.03" d="M2524.39,-503.77C2208.26,-500.47 1328.79,-488.87 1201.25,-460.96 1067.83,-431.77 993.69,-455.06 918.25,-341.22 869.44,-267.57 896.12,-259.01 1201.25,-191.48 1307.4,-167.99 2016.88,-154.28 2312.9,-149.52"/>
<polygon fill="black" stroke="black" stroke-width="1.03" points="2313.32,-153.02 2323.26,-149.36 2313.2,-146.02 2313.32,-153.02"/>
<text text-anchor="middle" x="1055.75" y="-330.02" font-family="Times,serif" font-size="14.00">T04 Determine confirmation of receipt</text>
<text text-anchor="middle" x="1055.75" y="-315.02" font-family="Times,serif" font-size="14.00">24</text>
</g>
<!-- 377316dd&#45;f702&#45;4325&#45;a92e&#45;0d3661167d8c&#45;&gt;43e2e4d3&#45;c6f5&#45;4a75&#45;98cb&#45;b397665b51f6 -->
<g id="edge7" class="edge">
<title>377316dd&#45;f702&#45;4325&#45;a92e&#45;0d3661167d8c&#45;&gt;43e2e4d3&#45;c6f5&#45;4a75&#45;98cb&#45;b397665b51f6</title>
<path fill="none" stroke="black" stroke-width="1.11" d="M2524.14,-503.92C2313.32,-501.48 1868.06,-492.64 1717.25,-460.96 1571.89,-430.43 1489.38,-463.62 1405.25,-341.22 1300.04,-188.16 2012.46,-156.1 2312.97,-149.39"/>
<polygon fill="black" stroke="black" stroke-width="1.11" points="2313.13,-152.89 2323.05,-149.17 2312.98,-145.89 2313.13,-152.89"/>
<text text-anchor="middle" x="1557.25" y="-330.02" font-family="Times,serif" font-size="14.00">T05 Print and send confirmation of receipt</text>
<text text-anchor="middle" x="1557.25" y="-315.02" font-family="Times,serif" font-size="14.00">80</text>
</g>
<!-- 377316dd&#45;f702&#45;4325&#45;a92e&#45;0d3661167d8c&#45;&gt;43e2e4d3&#45;c6f5&#45;4a75&#45;98cb&#45;b397665b51f6 -->
<g id="edge8" class="edge">
<title>377316dd&#45;f702&#45;4325&#45;a92e&#45;0d3661167d8c&#45;&gt;43e2e4d3&#45;c6f5&#45;4a75&#45;98cb&#45;b397665b51f6</title>
<path fill="none" stroke="black" stroke-width="1.04" d="M2525.82,-501.12C2375.42,-495.38 2115.64,-482.68 2023.25,-460.96 1887.1,-428.96 1810.08,-457.41 1732.25,-341.22 1682.46,-266.9 1701.2,-272.8 2023.25,-191.48 2118.99,-167.3 2230.29,-156.43 2314.1,-151.54"/>
<polygon fill="black" stroke="black" stroke-width="1.04" points="2314.39,-155.03 2324.18,-150.98 2314,-148.04 2314.39,-155.03"/>
<text text-anchor="middle" x="1873.75" y="-330.02" font-family="Times,serif" font-size="14.00">T06 Determine necessity of stop advice</text>
<text text-anchor="middle" x="1873.75" y="-315.02" font-family="Times,serif" font-size="14.00">29</text>
</g>
<!-- 377316dd&#45;f702&#45;4325&#45;a92e&#45;0d3661167d8c&#45;&gt;43e2e4d3&#45;c6f5&#45;4a75&#45;98cb&#45;b397665b51f6 -->
<g id="edge9" class="edge">
<title>377316dd&#45;f702&#45;4325&#45;a92e&#45;0d3661167d8c&#45;&gt;43e2e4d3&#45;c6f5&#45;4a75&#45;98cb&#45;b397665b51f6</title>
<path fill="none" stroke="black" stroke-width="1.02" d="M2527.08,-499.65C2458.44,-494.26 2368.91,-483.3 2292.25,-460.96 2172.42,-426.05 2105.08,-446.62 2038.25,-341.22 1965.59,-226.64 2179.53,-178.32 2323.23,-159.15"/>
<polygon fill="black" stroke="black" stroke-width="1.02" points="2323.98,-162.59 2333.45,-157.82 2323.08,-155.64 2323.98,-162.59"/>
<text text-anchor="middle" x="2161.25" y="-330.02" font-family="Times,serif" font-size="14.00">T07&#45;1 Draft intern advice aspect 1</text>
<text text-anchor="middle" x="2161.25" y="-315.02" font-family="Times,serif" font-size="14.00">16</text>
</g>
<!-- b27140e8&#45;0a84&#45;4e8f&#45;a20c&#45;df30228ebcec -->
<g id="node6" class="node">
<title>b27140e8&#45;0a84&#45;4e8f&#45;a20c&#45;df30228ebcec</title>
<ellipse fill="#4c4b3f" stroke="black" cx="3731.25" cy="-266.35" rx="113.27" ry="26.74"/>
<text text-anchor="middle" x="3731.25" y="-270.15" font-family="Times,serif" font-size="14.00">Group 2</text>
<text text-anchor="middle" x="3731.25" y="-255.15" font-family="Times,serif" font-size="14.00">(in=1218; out=812)</text>
</g>
<!-- 377316dd&#45;f702&#45;4325&#45;a92e&#45;0d3661167d8c&#45;&gt;b27140e8&#45;0a84&#45;4e8f&#45;a20c&#45;df30228ebcec -->
<g id="edge10" class="edge">
<title>377316dd&#45;f702&#45;4325&#45;a92e&#45;0d3661167d8c&#45;&gt;b27140e8&#45;0a84&#45;4e8f&#45;a20c&#45;df30228ebcec</title>
<path fill="none" stroke="black" stroke-width="1.15" d="M2750.46,-504.59C3007.7,-503.41 3629.87,-496.82 3836.25,-460.96 4009.45,-430.86 4109.44,-483.11 4213.25,-341.22 4221.12,-330.46 4222.24,-321.07 4213.25,-311.22 4189.42,-285.12 3988.73,-274.38 3853.94,-270.08"/>
<polygon fill="black" stroke="black" stroke-width="1.15" points="3853.64,-266.57 3843.54,-269.76 3853.43,-273.57 3853.64,-266.57"/>
<text text-anchor="middle" x="4332.75" y="-389.89" font-family="Times,serif" font-size="14.00">T04 Determine confirmation of receipt</text>
<text text-anchor="middle" x="4332.75" y="-374.89" font-family="Times,serif" font-size="14.00">111</text>
</g>
<!-- 377316dd&#45;f702&#45;4325&#45;a92e&#45;0d3661167d8c&#45;&gt;b27140e8&#45;0a84&#45;4e8f&#45;a20c&#45;df30228ebcec -->
<g id="edge11" class="edge">
<title>377316dd&#45;f702&#45;4325&#45;a92e&#45;0d3661167d8c&#45;&gt;b27140e8&#45;0a84&#45;4e8f&#45;a20c&#45;df30228ebcec</title>
<path fill="none" stroke="black" stroke-width="1.01" d="M2749,-501.49C2818.2,-496.8 2908.08,-485.91 2984.25,-460.96 3118.73,-416.9 3128.28,-346.81 3265.25,-311.22 3411.28,-273.27 3454.58,-312.33 3604.25,-293.22 3616.4,-291.67 3629.13,-289.61 3641.64,-287.32"/>
<polygon fill="black" stroke="black" stroke-width="1.01" points="3642.42,-290.74 3651.6,-285.45 3641.13,-283.86 3642.42,-290.74"/>
<text text-anchor="middle" x="3324.75" y="-389.89" font-family="Times,serif" font-size="14.00">T14 Determine document X request unlicensed</text>
<text text-anchor="middle" x="3324.75" y="-374.89" font-family="Times,serif" font-size="14.00">10</text>
</g>
<!-- 1a48c036&#45;bc11&#45;4383&#45;98ec&#45;b9b5e4b4fe8d -->
<g id="node7" class="node">
<title>1a48c036&#45;bc11&#45;4383&#45;98ec&#45;b9b5e4b4fe8d</title>
<ellipse fill="#4c4b3f" stroke="black" cx="3940.25" cy="-26.87" rx="119.5" ry="26.74"/>
<text text-anchor="middle" x="3940.25" y="-30.67" font-family="Times,serif" font-size="14.00">Group 4</text>
<text text-anchor="middle" x="3940.25" y="-15.67" font-family="Times,serif" font-size="14.00">(in=1042; out=1038)</text>
</g>
<!-- 377316dd&#45;f702&#45;4325&#45;a92e&#45;0d3661167d8c&#45;&gt;1a48c036&#45;bc11&#45;4383&#45;98ec&#45;b9b5e4b4fe8d -->
<g id="edge13" class="edge">
<title>377316dd&#45;f702&#45;4325&#45;a92e&#45;0d3661167d8c&#45;&gt;1a48c036&#45;bc11&#45;4383&#45;98ec&#45;b9b5e4b4fe8d</title>
<path fill="none" stroke="black" stroke-width="1.97" d="M2750.34,-503.83C3187.85,-499.47 4749.13,-479.3 4830.25,-412.96 4869.59,-380.79 4918.95,-231.2 4887.25,-191.48 4787.37,-66.37 4305.11,-36.89 4069.86,-29.97"/>
<polygon fill="black" stroke="black" stroke-width="1.97" points="4069.63,-26.47 4059.53,-29.68 4069.43,-33.46 4069.63,-26.47"/>
<text text-anchor="middle" x="4979.25" y="-270.15" font-family="Times,serif" font-size="14.00">Confirmation of receipt</text>
<text text-anchor="middle" x="4979.25" y="-255.15" font-family="Times,serif" font-size="14.00">710</text>
</g>
<!-- 38eae437&#45;6edf&#45;4bdd&#45;96ee&#45;d8a98a384a34&#45;&gt;377316dd&#45;f702&#45;4325&#45;a92e&#45;0d3661167d8c -->
<g id="edge40" class="edge">
<title>38eae437&#45;6edf&#45;4bdd&#45;96ee&#45;d8a98a384a34&#45;&gt;377316dd&#45;f702&#45;4325&#45;a92e&#45;0d3661167d8c</title>
<path fill="none" stroke="black" stroke-width="1.08" d="M3548.06,-405.05C3531.91,-408.03 3515.1,-410.83 3499.25,-412.96 3394.99,-426.95 3366.4,-410.34 3263.25,-430.96 3221.49,-439.31 3213.98,-452.49 3172.25,-460.96 3032.75,-489.26 2869.27,-499.4 2760.08,-502.99"/>
<polygon fill="black" stroke="black" stroke-width="1.08" points="2759.9,-499.49 2750.02,-503.3 2760.12,-506.49 2759.9,-499.49"/>
<text text-anchor="middle" x="3400.75" y="-449.76" font-family="Times,serif" font-size="14.00">T04 Determine confirmation of receipt</text>
<text text-anchor="middle" x="3400.75" y="-434.76" font-family="Times,serif" font-size="14.00">60</text>
</g>
<!-- 38eae437&#45;6edf&#45;4bdd&#45;96ee&#45;d8a98a384a34&#45;&gt;43e2e4d3&#45;c6f5&#45;4a75&#45;98cb&#45;b397665b51f6 -->
<g id="edge41" class="edge">
<title>38eae437&#45;6edf&#45;4bdd&#45;96ee&#45;d8a98a384a34&#45;&gt;43e2e4d3&#45;c6f5&#45;4a75&#45;98cb&#45;b397665b51f6</title>
<path fill="none" stroke="black" stroke-width="1.11" d="M3547.51,-367.25C3530.89,-364.23 3513.57,-361.38 3497.25,-359.22 3390.76,-345.16 3361.69,-361.69 3256.25,-341.22 3213.2,-332.86 3205.12,-320.44 3162.25,-311.22 3128.13,-303.88 3034.06,-314.3 3006.25,-293.22 2985.68,-277.63 3004.39,-255.61 2984.25,-239.48 2921.55,-189.29 2707.06,-165.39 2567.45,-154.9"/>
<polygon fill="black" stroke="black" stroke-width="1.11" points="2567.34,-151.38 2557.11,-154.14 2566.82,-158.36 2567.34,-151.38"/>
<text text-anchor="middle" x="3143.75" y="-270.15" font-family="Times,serif" font-size="14.00">T04 Determine confirmation of receipt</text>
<text text-anchor="middle" x="3143.75" y="-255.15" font-family="Times,serif" font-size="14.00">85</text>
</g>
<!-- 38eae437&#45;6edf&#45;4bdd&#45;96ee&#45;d8a98a384a34&#45;&gt;b27140e8&#45;0a84&#45;4e8f&#45;a20c&#45;df30228ebcec -->
<g id="edge42" class="edge">
<title>38eae437&#45;6edf&#45;4bdd&#45;96ee&#45;d8a98a384a34&#45;&gt;b27140e8&#45;0a84&#45;4e8f&#45;a20c&#45;df30228ebcec</title>
<path fill="none" stroke="black" stroke-width="2.31" d="M3604.17,-359.91C3590.73,-345.2 3579.98,-326.56 3591.25,-311.22 3599.88,-299.46 3611.67,-290.77 3624.75,-284.36"/>
<polygon fill="black" stroke="black" stroke-width="2.31" points="3626.26,-287.52 3634,-280.28 3623.44,-281.11 3626.26,-287.52"/>
<text text-anchor="middle" x="3728.75" y="-330.02" font-family="Times,serif" font-size="14.00">T04 Determine confirmation of receipt</text>
<text text-anchor="middle" x="3728.75" y="-315.02" font-family="Times,serif" font-size="14.00">957</text>
</g>
<!-- 38eae437&#45;6edf&#45;4bdd&#45;96ee&#45;d8a98a384a34&#45;&gt;b27140e8&#45;0a84&#45;4e8f&#45;a20c&#45;df30228ebcec -->
<g id="edge43" class="edge">
<title>38eae437&#45;6edf&#45;4bdd&#45;96ee&#45;d8a98a384a34&#45;&gt;b27140e8&#45;0a84&#45;4e8f&#45;a20c&#45;df30228ebcec</title>
<path fill="none" stroke="black" stroke-width="1.02" d="M3746.35,-377.31C3797.65,-371.19 3850.38,-360.35 3866.25,-341.22 3886.2,-317.16 3859.72,-299.66 3825.07,-287.75"/>
<polygon fill="black" stroke="black" stroke-width="1.02" points="3825.71,-284.28 3815.12,-284.54 3823.56,-290.94 3825.71,-284.28"/>
<text text-anchor="middle" x="4040.75" y="-330.02" font-family="Times,serif" font-size="14.00">T14 Determine document X request unlicensed</text>
<text text-anchor="middle" x="4040.75" y="-315.02" font-family="Times,serif" font-size="14.00">18</text>
</g>
<!-- 38eae437&#45;6edf&#45;4bdd&#45;96ee&#45;d8a98a384a34&#45;&gt;b27140e8&#45;0a84&#45;4e8f&#45;a20c&#45;df30228ebcec -->
<g id="edge44" class="edge">
<title>38eae437&#45;6edf&#45;4bdd&#45;96ee&#45;d8a98a384a34&#45;&gt;b27140e8&#45;0a84&#45;4e8f&#45;a20c&#45;df30228ebcec</title>
<path fill="none" stroke="black" stroke-width="1.02" d="M3548.05,-367.22C3531.89,-364.23 3515.09,-361.4 3499.25,-359.22 3401.83,-345.8 3215.68,-382.68 3283.25,-311.22 3307.79,-285.26 3568.82,-297.8 3604.25,-293.22 3616.31,-291.66 3628.94,-289.61 3641.36,-287.34"/>
<polygon fill="black" stroke="black" stroke-width="1.02" points="3642.08,-290.76 3651.26,-285.48 3640.79,-283.88 3642.08,-290.76"/>
<text text-anchor="middle" x="3433.25" y="-330.02" font-family="Times,serif" font-size="14.00">T19 Determine report Y to stop indication</text>
<text text-anchor="middle" x="3433.25" y="-315.02" font-family="Times,serif" font-size="14.00">17</text>
</g>
<!-- 79d51183&#45;0934&#45;4164&#45;aed4&#45;268eeeea177b -->
<g id="node3" class="node">
<title>79d51183&#45;0934&#45;4164&#45;aed4&#45;268eeeea177b</title>
<ellipse fill="transparent" stroke="black" cx="1286.25" cy="-26.87" rx="94.09" ry="26.74"/>
<text text-anchor="middle" x="1286.25" y="-30.67" font-family="Times,serif" font-size="14.00">Group 15</text>
<text text-anchor="middle" x="1286.25" y="-15.67" font-family="Times,serif" font-size="14.00">(in=14; out=19)</text>
</g>
<!-- 79d51183&#45;0934&#45;4164&#45;aed4&#45;268eeeea177b&#45;&gt;43e2e4d3&#45;c6f5&#45;4a75&#45;98cb&#45;b397665b51f6 -->
<g id="edge37" class="edge">
<title>79d51183&#45;0934&#45;4164&#45;aed4&#45;268eeeea177b&#45;&gt;43e2e4d3&#45;c6f5&#45;4a75&#45;98cb&#45;b397665b51f6</title>
<path fill="none" stroke="black" stroke-width="1.02" d="M1210.15,-42.91C1165.24,-55 1121.9,-74.48 1148.25,-101.74 1188.24,-143.11 1992.22,-146.37 2312.36,-146.01"/>
<polygon fill="black" stroke="black" stroke-width="1.02" points="2312.62,-149.51 2322.62,-146 2312.61,-142.51 2312.62,-149.51"/>
<text text-anchor="middle" x="1271.25" y="-90.54" font-family="Times,serif" font-size="14.00">T07&#45;2 Draft intern advice aspect 2</text>
<text text-anchor="middle" x="1271.25" y="-75.54" font-family="Times,serif" font-size="14.00">19</text>
</g>
<!-- 28844a59&#45;f9c3&#45;4612&#45;8025&#45;9edec2990cd5 -->
<g id="node4" class="node">
<title>28844a59&#45;f9c3&#45;4612&#45;8025&#45;9edec2990cd5</title>
<ellipse fill="transparent" stroke="black" cx="1861.25" cy="-26.87" rx="94.09" ry="26.74"/>
<text text-anchor="middle" x="1861.25" y="-30.67" font-family="Times,serif" font-size="14.00">Group 13</text>
<text text-anchor="middle" x="1861.25" y="-15.67" font-family="Times,serif" font-size="14.00">(in=22; out=22)</text>
</g>
<!-- 28844a59&#45;f9c3&#45;4612&#45;8025&#45;9edec2990cd5&#45;&gt;43e2e4d3&#45;c6f5&#45;4a75&#45;98cb&#45;b397665b51f6 -->
<g id="edge36" class="edge">
<title>28844a59&#45;f9c3&#45;4612&#45;8025&#45;9edec2990cd5&#45;&gt;43e2e4d3&#45;c6f5&#45;4a75&#45;98cb&#45;b397665b51f6</title>
<path fill="none" stroke="black" stroke-width="1.03" d="M1784.9,-42.82C1740.27,-54.82 1697.36,-74.23 1723.25,-101.74 1743.14,-122.89 2112.66,-136.44 2313.99,-142.29"/>
<polygon fill="black" stroke="black" stroke-width="1.03" points="2313.95,-145.79 2324.04,-142.58 2314.15,-138.79 2313.95,-145.79"/>
<text text-anchor="middle" x="1846.25" y="-90.54" font-family="Times,serif" font-size="14.00">T07&#45;1 Draft intern advice aspect 1</text>
<text text-anchor="middle" x="1846.25" y="-75.54" font-family="Times,serif" font-size="14.00">22</text>
</g>
<!-- 43e2e4d3&#45;c6f5&#45;4a75&#45;98cb&#45;b397665b51f6&#45;&gt;377316dd&#45;f702&#45;4325&#45;a92e&#45;0d3661167d8c -->
<g id="edge14" class="edge">
<title>43e2e4d3&#45;c6f5&#45;4a75&#45;98cb&#45;b397665b51f6&#45;&gt;377316dd&#45;f702&#45;4325&#45;a92e&#45;0d3661167d8c</title>
<path fill="none" stroke="black" stroke-width="1.07" d="M2323.04,-149.3C2112.96,-152.96 1685.1,-163.66 1538.25,-191.48 1386.73,-220.18 1139.34,-213.15 1225.25,-341.22 1303.38,-457.71 1380.19,-431.15 1517.25,-460.96 1703.97,-501.57 2263.41,-505.69 2513.77,-505.41"/>
<polygon fill="black" stroke="black" stroke-width="1.07" points="2514,-508.91 2524,-505.39 2513.99,-501.91 2514,-508.91"/>
<text text-anchor="middle" x="1308.25" y="-330.02" font-family="Times,serif" font-size="14.00">Confirmation of receipt</text>
<text text-anchor="middle" x="1308.25" y="-315.02" font-family="Times,serif" font-size="14.00">51</text>
</g>
<!-- 43e2e4d3&#45;c6f5&#45;4a75&#45;98cb&#45;b397665b51f6&#45;&gt;377316dd&#45;f702&#45;4325&#45;a92e&#45;0d3661167d8c -->
<g id="edge15" class="edge">
<title>43e2e4d3&#45;c6f5&#45;4a75&#45;98cb&#45;b397665b51f6&#45;&gt;377316dd&#45;f702&#45;4325&#45;a92e&#45;0d3661167d8c</title>
<path fill="none" stroke="black" stroke-width="1.02" d="M2322.59,-147.18C1904.63,-146.06 524.64,-145.91 331.25,-191.48 -118.63,-297.49 -7.42,-205.9 78.25,-341.22 144.79,-446.33 210.14,-432.53 331.25,-460.96 438.03,-486.02 2051.65,-500.32 2514.19,-503.92"/>
<polygon fill="black" stroke="black" stroke-width="1.02" points="2514.21,-507.42 2524.24,-504 2514.27,-500.42 2514.21,-507.42"/>
<text text-anchor="middle" x="200.75" y="-330.02" font-family="Times,serif" font-size="14.00">T03 Adjust confirmation of receipt</text>
<text text-anchor="middle" x="200.75" y="-315.02" font-family="Times,serif" font-size="14.00">17</text>
</g>
<!-- 43e2e4d3&#45;c6f5&#45;4a75&#45;98cb&#45;b397665b51f6&#45;&gt;377316dd&#45;f702&#45;4325&#45;a92e&#45;0d3661167d8c -->
<g id="edge16" class="edge">
<title>43e2e4d3&#45;c6f5&#45;4a75&#45;98cb&#45;b397665b51f6&#45;&gt;377316dd&#45;f702&#45;4325&#45;a92e&#45;0d3661167d8c</title>
<path fill="none" stroke="black" stroke-width="1.09" d="M2322.65,-147.41C1991.79,-147.37 1068.89,-151.02 768.25,-191.48 570.18,-218.14 224.1,-181.51 344.25,-341.22 459.65,-494.63 569.5,-431.87 759.25,-460.96 931.39,-487.35 2123.76,-500.24 2513.96,-503.79"/>
<polygon fill="black" stroke="black" stroke-width="1.09" points="2514.12,-507.29 2524.15,-503.88 2514.18,-500.29 2514.12,-507.29"/>
<text text-anchor="middle" x="485.75" y="-330.02" font-family="Times,serif" font-size="14.00">T06 Determine necessity of stop advice</text>
<text text-anchor="middle" x="485.75" y="-315.02" font-family="Times,serif" font-size="14.00">68</text>
</g>
<!-- 43e2e4d3&#45;c6f5&#45;4a75&#45;98cb&#45;b397665b51f6&#45;&gt;377316dd&#45;f702&#45;4325&#45;a92e&#45;0d3661167d8c -->
<g id="edge17" class="edge">
<title>43e2e4d3&#45;c6f5&#45;4a75&#45;98cb&#45;b397665b51f6&#45;&gt;377316dd&#45;f702&#45;4325&#45;a92e&#45;0d3661167d8c</title>
<path fill="none" stroke="black" stroke-width="1.23" d="M2403.34,-172.1C2350.9,-208.29 2268.36,-278.54 2307.25,-341.22 2357.84,-422.77 2462.53,-464.94 2540.5,-485.87"/>
<polygon fill="black" stroke="black" stroke-width="1.23" points="2539.79,-489.3 2550.35,-488.44 2541.56,-482.52 2539.79,-489.3"/>
<text text-anchor="middle" x="2461.25" y="-330.02" font-family="Times,serif" font-size="14.00">T10 Determine necessity to stop indication</text>
<text text-anchor="middle" x="2461.25" y="-315.02" font-family="Times,serif" font-size="14.00">168</text>
</g>
<!-- 43e2e4d3&#45;c6f5&#45;4a75&#45;98cb&#45;b397665b51f6&#45;&gt;377316dd&#45;f702&#45;4325&#45;a92e&#45;0d3661167d8c -->
<g id="edge18" class="edge">
<title>43e2e4d3&#45;c6f5&#45;4a75&#45;98cb&#45;b397665b51f6&#45;&gt;377316dd&#45;f702&#45;4325&#45;a92e&#45;0d3661167d8c</title>
<path fill="none" stroke="black" stroke-width="1.01" d="M2481.11,-172.06C2522.09,-200.18 2584.86,-250.38 2615.25,-311.22 2640.36,-361.51 2642.14,-428.07 2640.3,-468.61"/>
<polygon fill="black" stroke="black" stroke-width="1.01" points="2636.79,-468.64 2639.73,-478.82 2643.78,-469.03 2636.79,-468.64"/>
<text text-anchor="middle" x="2782.25" y="-330.02" font-family="Times,serif" font-size="14.00">T11 Create document X request unlicensed</text>
<text text-anchor="middle" x="2782.25" y="-315.02" font-family="Times,serif" font-size="14.00">10</text>
</g>
<!-- 43e2e4d3&#45;c6f5&#45;4a75&#45;98cb&#45;b397665b51f6&#45;&gt;38eae437&#45;6edf&#45;4bdd&#45;96ee&#45;d8a98a384a34 -->
<g id="edge28" class="edge">
<title>43e2e4d3&#45;c6f5&#45;4a75&#45;98cb&#45;b397665b51f6&#45;&gt;38eae437&#45;6edf&#45;4bdd&#45;96ee&#45;d8a98a384a34</title>
<path fill="none" stroke="black" stroke-width="1.04" d="M2559.33,-152C2715.52,-158.55 2977.15,-172.21 3017.25,-191.48 3033.69,-199.38 3028.8,-213.59 3045.25,-221.48 3093.47,-244.62 3248.87,-200.27 3285.25,-239.48 3301.49,-256.99 3294.96,-271.4 3285.25,-293.22 3280.38,-304.14 3270.11,-300.3 3265.25,-311.22 3259.82,-323.4 3256.19,-331.43 3265.25,-341.22 3282.81,-360.2 3471.62,-355.8 3497.25,-359.22 3510.25,-360.96 3523.89,-363.13 3537.31,-365.47"/>
<polygon fill="black" stroke="black" stroke-width="1.04" points="3537.05,-368.98 3547.51,-367.29 3538.28,-362.09 3537.05,-368.98"/>
<text text-anchor="middle" x="3436.75" y="-270.15" font-family="Times,serif" font-size="14.00">T06 Determine necessity of stop advice</text>
<text text-anchor="middle" x="3436.75" y="-255.15" font-family="Times,serif" font-size="14.00">30</text>
</g>
<!-- 43e2e4d3&#45;c6f5&#45;4a75&#45;98cb&#45;b397665b51f6&#45;&gt;38eae437&#45;6edf&#45;4bdd&#45;96ee&#45;d8a98a384a34 -->
<g id="edge29" class="edge">
<title>43e2e4d3&#45;c6f5&#45;4a75&#45;98cb&#45;b397665b51f6&#45;&gt;38eae437&#45;6edf&#45;4bdd&#45;96ee&#45;d8a98a384a34</title>
<path fill="none" stroke="black" stroke-width="1.11" d="M2553.84,-156.33C2581.1,-162.87 2608.62,-173.72 2630.25,-191.48 2668.59,-222.98 2635.08,-265.5 2676.25,-293.22 2718.77,-321.85 3090.64,-289.88 3137.25,-311.22 3153.83,-318.81 3148.72,-333.5 3165.25,-341.22 3232.19,-372.49 3423.9,-350.3 3497.25,-359.22 3510.59,-360.84 3524.59,-362.99 3538.33,-365.36"/>
<polygon fill="black" stroke="black" stroke-width="1.11" points="3537.82,-368.82 3548.28,-367.12 3539.04,-361.93 3537.82,-368.82"/>
<text text-anchor="middle" x="2830.25" y="-270.15" font-family="Times,serif" font-size="14.00">T10 Determine necessity to stop indication</text>
<text text-anchor="middle" x="2830.25" y="-255.15" font-family="Times,serif" font-size="14.00">85</text>
</g>
<!-- 43e2e4d3&#45;c6f5&#45;4a75&#45;98cb&#45;b397665b51f6&#45;&gt;79d51183&#45;0934&#45;4164&#45;aed4&#45;268eeeea177b -->
<g id="edge25" class="edge">
<title>43e2e4d3&#45;c6f5&#45;4a75&#45;98cb&#45;b397665b51f6&#45;&gt;79d51183&#45;0934&#45;4164&#45;aed4&#45;268eeeea177b</title>
<path fill="none" stroke="black" stroke-width="1.02" d="M2322.62,-145.18C2072.21,-143.59 1509.34,-136.19 1429.25,-101.74 1411.63,-94.17 1414.38,-82.11 1398.25,-71.74 1385.83,-63.76 1371.73,-56.84 1357.82,-51.01"/>
<polygon fill="black" stroke="black" stroke-width="1.02" points="1358.83,-47.64 1348.25,-47.14 1356.21,-54.13 1358.83,-47.64"/>
<text text-anchor="middle" x="1570.75" y="-90.54" font-family="Times,serif" font-size="14.00">T06 Determine necessity of stop advice</text>
<text text-anchor="middle" x="1570.75" y="-75.54" font-family="Times,serif" font-size="14.00">14</text>
</g>
<!-- 43e2e4d3&#45;c6f5&#45;4a75&#45;98cb&#45;b397665b51f6&#45;&gt;28844a59&#45;f9c3&#45;4612&#45;8025&#45;9edec2990cd5 -->
<g id="edge24" class="edge">
<title>43e2e4d3&#45;c6f5&#45;4a75&#45;98cb&#45;b397665b51f6&#45;&gt;28844a59&#45;f9c3&#45;4612&#45;8025&#45;9edec2990cd5</title>
<path fill="none" stroke="black" stroke-width="1.03" d="M2323.02,-144.46C2210.26,-141.5 2050.48,-131.89 1996.25,-101.74 1981.56,-93.58 1986.67,-81.84 1973.25,-71.74 1961.97,-63.25 1948.84,-56.19 1935.62,-50.39"/>
<polygon fill="black" stroke="black" stroke-width="1.03" points="1936.58,-47 1926,-46.39 1933.89,-53.46 1936.58,-47"/>
<text text-anchor="middle" x="2137.75" y="-90.54" font-family="Times,serif" font-size="14.00">T06 Determine necessity of stop advice</text>
<text text-anchor="middle" x="2137.75" y="-75.54" font-family="Times,serif" font-size="14.00">22</text>
</g>
<!-- 43e2e4d3&#45;c6f5&#45;4a75&#45;98cb&#45;b397665b51f6&#45;&gt;43e2e4d3&#45;c6f5&#45;4a75&#45;98cb&#45;b397665b51f6 -->
<g id="edge19" class="edge">
<title>43e2e4d3&#45;c6f5&#45;4a75&#45;98cb&#45;b397665b51f6&#45;&gt;43e2e4d3&#45;c6f5&#45;4a75&#45;98cb&#45;b397665b51f6</title>
<path fill="none" stroke="black" stroke-width="1.08" d="M2561.53,-148.35C2572.7,-148 2579.75,-147.41 2579.75,-146.61 2579.75,-146.09 2576.85,-145.67 2571.84,-145.34"/>
<polygon fill="black" stroke="black" stroke-width="1.08" points="2571.68,-141.83 2561.53,-144.87 2571.36,-148.82 2571.68,-141.83"/>
<text text-anchor="middle" x="2662.75" y="-150.41" font-family="Times,serif" font-size="14.00">Confirmation of receipt</text>
<text text-anchor="middle" x="2662.75" y="-135.41" font-family="Times,serif" font-size="14.00">61</text>
</g>
<!-- 43e2e4d3&#45;c6f5&#45;4a75&#45;98cb&#45;b397665b51f6&#45;&gt;43e2e4d3&#45;c6f5&#45;4a75&#45;98cb&#45;b397665b51f6 -->
<g id="edge20" class="edge">
<title>43e2e4d3&#45;c6f5&#45;4a75&#45;98cb&#45;b397665b51f6&#45;&gt;43e2e4d3&#45;c6f5&#45;4a75&#45;98cb&#45;b397665b51f6</title>
<path fill="none" stroke="black" stroke-width="2.6" d="M2560.65,-150.68C2647.13,-151.6 2745.75,-150.24 2745.75,-146.61 2745.75,-143.12 2654.69,-141.73 2570.83,-142.44"/>
<polygon fill="black" stroke="black" stroke-width="2.6" points="2570.62,-138.94 2560.65,-142.54 2570.68,-145.94 2570.62,-138.94"/>
<text text-anchor="middle" x="2887.25" y="-150.41" font-family="Times,serif" font-size="14.00">T06 Determine necessity of stop advice</text>
<text text-anchor="middle" x="2887.25" y="-135.41" font-family="Times,serif" font-size="14.00">1171</text>
</g>
<!-- 43e2e4d3&#45;c6f5&#45;4a75&#45;98cb&#45;b397665b51f6&#45;&gt;43e2e4d3&#45;c6f5&#45;4a75&#45;98cb&#45;b397665b51f6 -->
<g id="edge21" class="edge">
<title>43e2e4d3&#45;c6f5&#45;4a75&#45;98cb&#45;b397665b51f6&#45;&gt;43e2e4d3&#45;c6f5&#45;4a75&#45;98cb&#45;b397665b51f6</title>
<path fill="none" stroke="black" stroke-width="1.03" d="M2559.98,-151.54C2733.31,-154.76 3028.75,-153.11 3028.75,-146.61 3028.75,-140.23 2744.45,-138.53 2570.01,-141.51"/>
<polygon fill="black" stroke="black" stroke-width="1.03" points="2569.92,-138.01 2559.98,-141.68 2570.04,-145.01 2569.92,-138.01"/>
<text text-anchor="middle" x="3151.75" y="-150.41" font-family="Times,serif" font-size="14.00">T07&#45;5 Draft intern advice aspect 5</text>
<text text-anchor="middle" x="3151.75" y="-135.41" font-family="Times,serif" font-size="14.00">24</text>
</g>
<!-- 43e2e4d3&#45;c6f5&#45;4a75&#45;98cb&#45;b397665b51f6&#45;&gt;43e2e4d3&#45;c6f5&#45;4a75&#45;98cb&#45;b397665b51f6 -->
<g id="edge22" class="edge">
<title>43e2e4d3&#45;c6f5&#45;4a75&#45;98cb&#45;b397665b51f6&#45;&gt;43e2e4d3&#45;c6f5&#45;4a75&#45;98cb&#45;b397665b51f6</title>
<path fill="none" stroke="black" stroke-width="1.02" d="M2559.45,-152.32C2791.41,-157.71 3274.75,-155.81 3274.75,-146.61 3274.75,-137.54 2805,-135.56 2569.45,-140.67"/>
<polygon fill="black" stroke="black" stroke-width="1.02" points="2569.37,-137.17 2559.45,-140.9 2569.53,-144.17 2569.37,-137.17"/>
<text text-anchor="middle" x="3411.25" y="-150.41" font-family="Times,serif" font-size="14.00">T08 Draft and send request for advice</text>
<text text-anchor="middle" x="3411.25" y="-135.41" font-family="Times,serif" font-size="14.00">17</text>
</g>
<!-- 43e2e4d3&#45;c6f5&#45;4a75&#45;98cb&#45;b397665b51f6&#45;&gt;43e2e4d3&#45;c6f5&#45;4a75&#45;98cb&#45;b397665b51f6 -->
<g id="edge23" class="edge">
<title>43e2e4d3&#45;c6f5&#45;4a75&#45;98cb&#45;b397665b51f6&#45;&gt;43e2e4d3&#45;c6f5&#45;4a75&#45;98cb&#45;b397665b51f6</title>
<path fill="none" stroke="black" stroke-width="1.08" d="M2558.5,-152.93C2845.43,-160.66 3547.75,-158.55 3547.75,-146.61 3547.75,-134.81 2861.79,-132.61 2568.75,-140.02"/>
<polygon fill="black" stroke="black" stroke-width="1.08" points="2568.4,-136.53 2558.5,-140.29 2568.58,-143.53 2568.4,-136.53"/>
<text text-anchor="middle" x="3701.75" y="-150.41" font-family="Times,serif" font-size="14.00">T10 Determine necessity to stop indication</text>
<text text-anchor="middle" x="3701.75" y="-135.41" font-family="Times,serif" font-size="14.00">56</text>
</g>
<!-- 43e2e4d3&#45;c6f5&#45;4a75&#45;98cb&#45;b397665b51f6&#45;&gt;b27140e8&#45;0a84&#45;4e8f&#45;a20c&#45;df30228ebcec -->
<g id="edge26" class="edge">
<title>43e2e4d3&#45;c6f5&#45;4a75&#45;98cb&#45;b397665b51f6&#45;&gt;b27140e8&#45;0a84&#45;4e8f&#45;a20c&#45;df30228ebcec</title>
<path fill="none" stroke="black" stroke-width="1.01" d="M2560.25,-151.07C2723,-156.63 3001.03,-169.24 3042.25,-191.48 3057.03,-199.46 3050.31,-213.8 3065.25,-221.48 3118.53,-248.89 3544.74,-232.48 3604.25,-239.48 3616.5,-240.92 3629.33,-242.93 3641.93,-245.21"/>
<polygon fill="black" stroke="black" stroke-width="1.01" points="3641.5,-248.68 3651.97,-247.08 3642.78,-241.8 3641.5,-248.68"/>
<text text-anchor="middle" x="3206.75" y="-210.28" font-family="Times,serif" font-size="14.00">T06 Determine necessity of stop advice</text>
<text text-anchor="middle" x="3206.75" y="-195.28" font-family="Times,serif" font-size="14.00">11</text>
</g>
<!-- 43e2e4d3&#45;c6f5&#45;4a75&#45;98cb&#45;b397665b51f6&#45;&gt;b27140e8&#45;0a84&#45;4e8f&#45;a20c&#45;df30228ebcec -->
<g id="edge27" class="edge">
<title>43e2e4d3&#45;c6f5&#45;4a75&#45;98cb&#45;b397665b51f6&#45;&gt;b27140e8&#45;0a84&#45;4e8f&#45;a20c&#45;df30228ebcec</title>
<path fill="none" stroke="black" stroke-width="1.13" d="M2561.8,-147.83C2792.05,-149.08 3280.37,-155.92 3348.25,-191.48 3363.13,-199.28 3356.48,-213.47 3371.25,-221.48 3416.9,-246.24 3552.82,-232.28 3604.25,-239.48 3616.2,-241.15 3628.73,-243.26 3641.06,-245.55"/>
<polygon fill="black" stroke="black" stroke-width="1.13" points="3640.41,-248.99 3650.89,-247.42 3641.71,-242.11 3640.41,-248.99"/>
<text text-anchor="middle" x="3525.25" y="-210.28" font-family="Times,serif" font-size="14.00">T10 Determine necessity to stop indication</text>
<text text-anchor="middle" x="3525.25" y="-195.28" font-family="Times,serif" font-size="14.00">94</text>
</g>
<!-- 43e2e4d3&#45;c6f5&#45;4a75&#45;98cb&#45;b397665b51f6&#45;&gt;1a48c036&#45;bc11&#45;4383&#45;98ec&#45;b9b5e4b4fe8d -->
<g id="edge30" class="edge">
<title>43e2e4d3&#45;c6f5&#45;4a75&#45;98cb&#45;b397665b51f6&#45;&gt;1a48c036&#45;bc11&#45;4383&#45;98ec&#45;b9b5e4b4fe8d</title>
<path fill="none" stroke="black" stroke-width="1.21" d="M2561.22,-143.65C2750.54,-139.73 3104.3,-128.85 3155.25,-101.74 3170.08,-93.85 3163.4,-79.6 3178.25,-71.74 3232.55,-42.98 3608.22,-32.86 3811.04,-29.47"/>
<polygon fill="black" stroke="black" stroke-width="1.21" points="3811.22,-32.97 3821.16,-29.31 3811.11,-25.97 3811.22,-32.97"/>
<text text-anchor="middle" x="3261.25" y="-90.54" font-family="Times,serif" font-size="14.00">Confirmation of receipt</text>
<text text-anchor="middle" x="3261.25" y="-75.54" font-family="Times,serif" font-size="14.00">156</text>
</g>
<!-- 43e2e4d3&#45;c6f5&#45;4a75&#45;98cb&#45;b397665b51f6&#45;&gt;1a48c036&#45;bc11&#45;4383&#45;98ec&#45;b9b5e4b4fe8d -->
<g id="edge31" class="edge">
<title>43e2e4d3&#45;c6f5&#45;4a75&#45;98cb&#45;b397665b51f6&#45;&gt;1a48c036&#45;bc11&#45;4383&#45;98ec&#45;b9b5e4b4fe8d</title>
<path fill="none" stroke="black" stroke-width="1.05" d="M2561.71,-145.36C2791.13,-144.06 3276.72,-137.12 3344.25,-101.74 3359.13,-93.94 3352.47,-79.74 3367.25,-71.74 3405.34,-51.1 3655.5,-38.27 3812.44,-32.16"/>
<polygon fill="black" stroke="black" stroke-width="1.05" points="3812.78,-35.65 3822.63,-31.77 3812.51,-28.65 3812.78,-35.65"/>
<text text-anchor="middle" x="3489.75" y="-90.54" font-family="Times,serif" font-size="14.00">T03 Adjust confirmation of receipt</text>
<text text-anchor="middle" x="3489.75" y="-75.54" font-family="Times,serif" font-size="14.00">34</text>
</g>
<!-- 43e2e4d3&#45;c6f5&#45;4a75&#45;98cb&#45;b397665b51f6&#45;&gt;1a48c036&#45;bc11&#45;4383&#45;98ec&#45;b9b5e4b4fe8d -->
<g id="edge32" class="edge">
<title>43e2e4d3&#45;c6f5&#45;4a75&#45;98cb&#45;b397665b51f6&#45;&gt;1a48c036&#45;bc11&#45;4383&#45;98ec&#45;b9b5e4b4fe8d</title>
<path fill="none" stroke="black" stroke-width="1.06" d="M2561.23,-143.87C2849.7,-139.28 3566.17,-125.56 3612.25,-101.74 3627.17,-94.03 3620.75,-80.23 3635.25,-71.74 3665.72,-53.9 3745.86,-42.79 3816.35,-36.22"/>
<polygon fill="black" stroke="black" stroke-width="1.06" points="3817.03,-39.67 3826.67,-35.28 3816.4,-32.7 3817.03,-39.67"/>
<text text-anchor="middle" x="3776.75" y="-90.54" font-family="Times,serif" font-size="14.00">T06 Determine necessity of stop advice</text>
<text text-anchor="middle" x="3776.75" y="-75.54" font-family="Times,serif" font-size="14.00">44</text>
</g>
<!-- 43e2e4d3&#45;c6f5&#45;4a75&#45;98cb&#45;b397665b51f6&#45;&gt;1a48c036&#45;bc11&#45;4383&#45;98ec&#45;b9b5e4b4fe8d -->
<g id="edge33" class="edge">
<title>43e2e4d3&#45;c6f5&#45;4a75&#45;98cb&#45;b397665b51f6&#45;&gt;1a48c036&#45;bc11&#45;4383&#45;98ec&#45;b9b5e4b4fe8d</title>
<path fill="none" stroke="black" stroke-width="1.07" d="M2561.7,-145.84C2903.57,-146.01 3864.84,-142.81 3918.25,-101.74 3929.86,-92.81 3935.56,-78.02 3938.29,-64.01"/>
<polygon fill="black" stroke="black" stroke-width="1.07" points="3941.76,-64.44 3939.79,-54.03 3934.84,-63.4 3941.76,-64.44"/>
<text text-anchor="middle" x="4089.25" y="-90.54" font-family="Times,serif" font-size="14.00">T10 Determine necessity to stop indication</text>
<text text-anchor="middle" x="4089.25" y="-75.54" font-family="Times,serif" font-size="14.00">51</text>
</g>
<!-- 43e2e4d3&#45;c6f5&#45;4a75&#45;98cb&#45;b397665b51f6&#45;&gt;1a48c036&#45;bc11&#45;4383&#45;98ec&#45;b9b5e4b4fe8d -->
<g id="edge34" class="edge">
<title>43e2e4d3&#45;c6f5&#45;4a75&#45;98cb&#45;b397665b51f6&#45;&gt;1a48c036&#45;bc11&#45;4383&#45;98ec&#45;b9b5e4b4fe8d</title>
<path fill="none" stroke="black" stroke-width="1.04" d="M2355.29,-128C2313.54,-115.84 2277.42,-97.24 2302.25,-71.74 2328.46,-44.81 3428.21,-32.44 3810.73,-28.95"/>
<polygon fill="black" stroke="black" stroke-width="1.04" points="3811.04,-32.45 3821.01,-28.86 3810.98,-25.45 3811.04,-32.45"/>
<text text-anchor="middle" x="2457.25" y="-90.54" font-family="Times,serif" font-size="14.00">T11 Create document X request unlicensed</text>
<text text-anchor="middle" x="2457.25" y="-75.54" font-family="Times,serif" font-size="14.00">29</text>
</g>
<!-- 43e2e4d3&#45;c6f5&#45;4a75&#45;98cb&#45;b397665b51f6&#45;&gt;1a48c036&#45;bc11&#45;4383&#45;98ec&#45;b9b5e4b4fe8d -->
<g id="edge35" class="edge">
<title>43e2e4d3&#45;c6f5&#45;4a75&#45;98cb&#45;b397665b51f6&#45;&gt;1a48c036&#45;bc11&#45;4383&#45;98ec&#45;b9b5e4b4fe8d</title>
<path fill="none" stroke="black" stroke-width="1.02" d="M2541.76,-131.6C2566.17,-125.11 2591.28,-115.62 2612.25,-101.74 2626.26,-92.47 2620.31,-79.43 2635.25,-71.74 2686.86,-45.19 3491.39,-33.04 3810.9,-29.24"/>
<polygon fill="black" stroke="black" stroke-width="1.02" points="3811.18,-32.74 3821.13,-29.12 3811.09,-25.74 3811.18,-32.74"/>
<text text-anchor="middle" x="2762.25" y="-90.54" font-family="Times,serif" font-size="14.00">T16 Report reasons to hold request</text>
<text text-anchor="middle" x="2762.25" y="-75.54" font-family="Times,serif" font-size="14.00">18</text>
</g>
<!-- b27140e8&#45;0a84&#45;4e8f&#45;a20c&#45;df30228ebcec&#45;&gt;377316dd&#45;f702&#45;4325&#45;a92e&#45;0d3661167d8c -->
<g id="edge38" class="edge">
<title>b27140e8&#45;0a84&#45;4e8f&#45;a20c&#45;df30228ebcec&#45;&gt;377316dd&#45;f702&#45;4325&#45;a92e&#45;0d3661167d8c</title>
<path fill="none" stroke="black" stroke-width="1.02" d="M3840.65,-273.6C3942.01,-280.19 4096.79,-292.28 4230.25,-311.22 4543.65,-355.69 4617.34,-255.22 4474.25,-412.96 4416.65,-476.45 3162.71,-498.07 2760.34,-503.39"/>
<polygon fill="black" stroke="black" stroke-width="1.02" points="2760.08,-499.89 2750.13,-503.52 2760.17,-506.89 2760.08,-499.89"/>
<text text-anchor="middle" x="4674.25" y="-389.89" font-family="Times,serif" font-size="14.00">T05 Print and send confirmation of receipt</text>
<text text-anchor="middle" x="4674.25" y="-374.89" font-family="Times,serif" font-size="14.00">12</text>
</g>
<!-- b27140e8&#45;0a84&#45;4e8f&#45;a20c&#45;df30228ebcec&#45;&gt;43e2e4d3&#45;c6f5&#45;4a75&#45;98cb&#45;b397665b51f6 -->
<g id="edge39" class="edge">
<title>b27140e8&#45;0a84&#45;4e8f&#45;a20c&#45;df30228ebcec&#45;&gt;43e2e4d3&#45;c6f5&#45;4a75&#45;98cb&#45;b397665b51f6</title>
<path fill="none" stroke="black" stroke-width="2.09" d="M3714.05,-239.79C3699.94,-219.02 3681.88,-192.91 3679.25,-191.48 3631.23,-165.47 2879.23,-153.1 2571.75,-149.11"/>
<polygon fill="black" stroke="black" stroke-width="2.09" points="2571.49,-145.61 2561.45,-148.98 2571.4,-152.61 2571.49,-145.61"/>
<text text-anchor="middle" x="3853.25" y="-210.28" font-family="Times,serif" font-size="14.00">T05 Print and send confirmation of receipt</text>
<text text-anchor="middle" x="3853.25" y="-195.28" font-family="Times,serif" font-size="14.00">800</text>
</g>
<!-- 1a48c036&#45;bc11&#45;4383&#45;98ec&#45;b9b5e4b4fe8d&#45;&gt;377316dd&#45;f702&#45;4325&#45;a92e&#45;0d3661167d8c -->
<g id="edge45" class="edge">
<title>1a48c036&#45;bc11&#45;4383&#45;98ec&#45;b9b5e4b4fe8d&#45;&gt;377316dd&#45;f702&#45;4325&#45;a92e&#45;0d3661167d8c</title>
<path fill="none" stroke="black" stroke-width="1.04" d="M4059.81,-27.7C4355.68,-28.85 5098.25,-42.05 5098.25,-145.61 5098.25,-387.09 5098.25,-387.09 5098.25,-387.09 5098.25,-505.41 3259.37,-507.15 2760.71,-505.45"/>
<polygon fill="black" stroke="black" stroke-width="1.04" points="2760.62,-501.95 2750.6,-505.41 2760.59,-508.95 2760.62,-501.95"/>
<text text-anchor="middle" x="5219.75" y="-270.15" font-family="Times,serif" font-size="14.00">T02 Check confirmation of receipt</text>
<text text-anchor="middle" x="5219.75" y="-255.15" font-family="Times,serif" font-size="14.00">27</text>
</g>
<!-- 1a48c036&#45;bc11&#45;4383&#45;98ec&#45;b9b5e4b4fe8d&#45;&gt;377316dd&#45;f702&#45;4325&#45;a92e&#45;0d3661167d8c -->
<g id="edge46" class="edge">
<title>1a48c036&#45;bc11&#45;4383&#45;98ec&#45;b9b5e4b4fe8d&#45;&gt;377316dd&#45;f702&#45;4325&#45;a92e&#45;0d3661167d8c</title>
<path fill="none" stroke="black" stroke-width="1.01" d="M4059.99,-26.99C4256.43,-26.86 4659.1,-32.08 4997.25,-71.74 5168.13,-91.78 5377.25,26.44 5377.25,-145.61 5377.25,-387.09 5377.25,-387.09 5377.25,-387.09 5377.25,-604.69 5110.05,-442.39 4893.25,-460.96 4473.88,-496.88 3168.96,-503.41 2760.66,-504.58"/>
<polygon fill="black" stroke="black" stroke-width="1.01" points="2760.58,-501.08 2750.59,-504.61 2760.6,-508.08 2760.58,-501.08"/>
<text text-anchor="middle" x="5529.75" y="-270.15" font-family="Times,serif" font-size="14.00">T12 Check document X request unlicensed</text>
<text text-anchor="middle" x="5529.75" y="-255.15" font-family="Times,serif" font-size="14.00">10</text>
</g>
<!-- 1a48c036&#45;bc11&#45;4383&#45;98ec&#45;b9b5e4b4fe8d&#45;&gt;38eae437&#45;6edf&#45;4bdd&#45;96ee&#45;d8a98a384a34 -->
<g id="edge48" class="edge">
<title>1a48c036&#45;bc11&#45;4383&#45;98ec&#45;b9b5e4b4fe8d&#45;&gt;38eae437&#45;6edf&#45;4bdd&#45;96ee&#45;d8a98a384a34</title>
<path fill="none" stroke="black" stroke-width="2.12" d="M4059.46,-29.31C4134.96,-33.04 4222.82,-43.57 4247.25,-71.74 4319.67,-155.25 4090.76,-99.63 4029.25,-191.48 3970.57,-279.08 4284.93,-263.91 4213.25,-341.22 4198.05,-357.61 3926.47,-372.31 3760.4,-379.82"/>
<polygon fill="black" stroke="black" stroke-width="2.12" points="3759.94,-376.34 3750.11,-380.28 3760.25,-383.33 3759.94,-376.34"/>
<text text-anchor="middle" x="4150.75" y="-210.28" font-family="Times,serif" font-size="14.00">T02 Check confirmation of receipt</text>
<text text-anchor="middle" x="4150.75" y="-195.28" font-family="Times,serif" font-size="14.00">819</text>
</g>
<!-- 1a48c036&#45;bc11&#45;4383&#45;98ec&#45;b9b5e4b4fe8d&#45;&gt;38eae437&#45;6edf&#45;4bdd&#45;96ee&#45;d8a98a384a34 -->
<g id="edge49" class="edge">
<title>1a48c036&#45;bc11&#45;4383&#45;98ec&#45;b9b5e4b4fe8d&#45;&gt;38eae437&#45;6edf&#45;4bdd&#45;96ee&#45;d8a98a384a34</title>
<path fill="none" stroke="black" stroke-width="1.03" d="M4059.87,-28.18C4141.91,-31.2 4240.73,-41.34 4268.25,-71.74 4308.79,-116.53 4279.95,-304.14 4232.25,-341.22 4213.88,-355.49 3930.08,-371.18 3759.81,-379.38"/>
<polygon fill="black" stroke="black" stroke-width="1.03" points="3759.59,-375.89 3749.77,-379.86 3759.92,-382.88 3759.59,-375.89"/>
<text text-anchor="middle" x="4437.75" y="-210.28" font-family="Times,serif" font-size="14.00">T12 Check document X request unlicensed</text>
<text text-anchor="middle" x="4437.75" y="-195.28" font-family="Times,serif" font-size="14.00">22</text>
</g>
<!-- 1a48c036&#45;bc11&#45;4383&#45;98ec&#45;b9b5e4b4fe8d&#45;&gt;38eae437&#45;6edf&#45;4bdd&#45;96ee&#45;d8a98a384a34 -->
<g id="edge50" class="edge">
<title>1a48c036&#45;bc11&#45;4383&#45;98ec&#45;b9b5e4b4fe8d&#45;&gt;38eae437&#45;6edf&#45;4bdd&#45;96ee&#45;d8a98a384a34</title>
<path fill="none" stroke="black" stroke-width="1.02" d="M4054.41,-35.1C4122.99,-41.21 4211.53,-52.22 4288.25,-71.74 4671.04,-169.16 4648.39,-144.86 4594.25,-221.48 4502.28,-351.63 4412.27,-308.72 4256.25,-341.22 4164.84,-360.26 3914.47,-373.54 3760.38,-380.19"/>
<polygon fill="black" stroke="black" stroke-width="1.02" points="3760.22,-376.69 3750.37,-380.62 3760.52,-383.69 3760.22,-376.69"/>
<text text-anchor="middle" x="4749.25" y="-210.28" font-family="Times,serif" font-size="14.00">T17 Check report Y to stop indication</text>
<text text-anchor="middle" x="4749.25" y="-195.28" font-family="Times,serif" font-size="14.00">16</text>
</g>
<!-- 1a48c036&#45;bc11&#45;4383&#45;98ec&#45;b9b5e4b4fe8d&#45;&gt;43e2e4d3&#45;c6f5&#45;4a75&#45;98cb&#45;b397665b51f6 -->
<g id="edge47" class="edge">
<title>1a48c036&#45;bc11&#45;4383&#45;98ec&#45;b9b5e4b4fe8d&#45;&gt;43e2e4d3&#45;c6f5&#45;4a75&#45;98cb&#45;b397665b51f6</title>
<path fill="none" stroke="black" stroke-width="1.2" d="M3821.25,-29.99C3558.15,-35.07 2947.15,-49.24 2908.25,-71.74 2894.58,-79.64 2902.68,-93.46 2889.25,-101.74 2837.77,-133.45 2684.64,-142.84 2571.9,-145.31"/>
<polygon fill="black" stroke="black" stroke-width="1.2" points="2571.73,-141.82 2561.8,-145.52 2571.87,-148.82 2571.73,-141.82"/>
<text text-anchor="middle" x="3029.75" y="-90.54" font-family="Times,serif" font-size="14.00">T02 Check confirmation of receipt</text>
<text text-anchor="middle" x="3029.75" y="-75.54" font-family="Times,serif" font-size="14.00">144</text>
</g>
</g>
</svg>
