<?xml version="1.0" encoding="UTF-8" standalone="no"?>
<!DOCTYPE svg PUBLIC "-//W3C//DTD SVG 1.1//EN"
 "http://www.w3.org/Graphics/SVG/1.1/DTD/svg11.dtd">
<!-- Generated by graphviz version 2.43.0 (0)
 -->
<!-- Title: ocdfg Pages: 1 -->
<svg width="2108pt" height="375pt"
 viewBox="0.00 0.00 2108.19 374.90" xmlns="http://www.w3.org/2000/svg" xmlns:xlink="http://www.w3.org/1999/xlink">
<g id="graph0" class="graph" transform="scale(1 1) rotate(0) translate(4 370.9)">
<title>ocdfg</title>
<polygon fill="white" stroke="transparent" points="-4,4 -4,-370.9 2104.19,-370.9 2104.19,4 -4,4"/>
<!-- e60e677c&#45;9c3f&#45;4f25&#45;93bd&#45;5b22bd7fa72d -->
<g id="node1" class="node">
<title>e60e677c&#45;9c3f&#45;4f25&#45;93bd&#45;5b22bd7fa72d</title>
<polygon fill="#9b9bff" stroke="black" points="301.19,-194.9 190.19,-194.9 190.19,-156.9 301.19,-156.9 301.19,-194.9"/>
<text text-anchor="middle" x="245.69" y="-179.7" font-family="Times,serif" font-size="14.00">Create Order</text>
<text text-anchor="middle" x="245.69" y="-164.7" font-family="Times,serif" font-size="14.00">E=3</text>
</g>
<!-- e347c3da&#45;f1ca&#45;49d3&#45;ab35&#45;b6fb41c18faf -->
<g id="node2" class="node">
<title>e347c3da&#45;f1ca&#45;49d3&#45;ab35&#45;b6fb41c18faf</title>
<polygon fill="#ffffff" stroke="black" points="528.69,-219.9 408.69,-219.9 408.69,-181.9 528.69,-181.9 528.69,-219.9"/>
<text text-anchor="middle" x="468.69" y="-204.7" font-family="Times,serif" font-size="14.00">Confirm Order</text>
<text text-anchor="middle" x="468.69" y="-189.7" font-family="Times,serif" font-size="14.00">E=1</text>
</g>
<!-- e60e677c&#45;9c3f&#45;4f25&#45;93bd&#45;5b22bd7fa72d&#45;&gt;e347c3da&#45;f1ca&#45;49d3&#45;ab35&#45;b6fb41c18faf -->
<g id="edge1" class="edge">
<title>e60e677c&#45;9c3f&#45;4f25&#45;93bd&#45;5b22bd7fa72d&#45;&gt;e347c3da&#45;f1ca&#45;49d3&#45;ab35&#45;b6fb41c18faf</title>
<path fill="none" stroke="#7bb866" d="M301.32,-182.08C330.73,-185.41 367.31,-189.54 398.67,-193.09"/>
<polygon fill="#7bb866" stroke="#7bb866" points="398.33,-196.57 408.66,-194.22 399.11,-189.62 398.33,-196.57"/>
<text text-anchor="middle" x="348.19" y="-192.5" font-family="Times,serif" font-size="8.00" fill="#7bb866">order EC=1</text>
</g>
<!-- daafacf6&#45;f60c&#45;43e8&#45;8cbb&#45;9dc41327b9c2 -->
<g id="node3" class="node">
<title>daafacf6&#45;f60c&#45;43e8&#45;8cbb&#45;9dc41327b9c2</title>
<polygon fill="#ffffff" stroke="black" points="538.69,-163.9 398.69,-163.9 398.69,-125.9 538.69,-125.9 538.69,-163.9"/>
<text text-anchor="middle" x="468.69" y="-148.7" font-family="Times,serif" font-size="14.00">Item out of Stock</text>
<text text-anchor="middle" x="468.69" y="-133.7" font-family="Times,serif" font-size="14.00">E=1</text>
</g>
<!-- e60e677c&#45;9c3f&#45;4f25&#45;93bd&#45;5b22bd7fa72d&#45;&gt;daafacf6&#45;f60c&#45;43e8&#45;8cbb&#45;9dc41327b9c2 -->
<g id="edge10" class="edge">
<title>e60e677c&#45;9c3f&#45;4f25&#45;93bd&#45;5b22bd7fa72d&#45;&gt;daafacf6&#45;f60c&#45;43e8&#45;8cbb&#45;9dc41327b9c2</title>
<path fill="none" stroke="#8dd4ca" d="M301.32,-168.24C327.62,-164.55 359.65,-160.05 388.55,-156"/>
<polygon fill="#8dd4ca" stroke="#8dd4ca" points="389.22,-159.44 398.63,-154.59 388.24,-152.51 389.22,-159.44"/>
<text text-anchor="middle" x="348.19" y="-167.5" font-family="Times,serif" font-size="8.00" fill="#8dd4ca">element EC=1</text>
</g>
<!-- 59cbefbf&#45;93bc&#45;41a4&#45;96f4&#45;036238646e70 -->
<g id="node4" class="node">
<title>59cbefbf&#45;93bc&#45;41a4&#45;96f4&#45;036238646e70</title>
<polygon fill="#9b9bff" stroke="black" points="1126.19,-99.9 997.19,-99.9 997.19,-61.9 1126.19,-61.9 1126.19,-99.9"/>
<text text-anchor="middle" x="1061.69" y="-84.7" font-family="Times,serif" font-size="14.00">Create Delivery</text>
<text text-anchor="middle" x="1061.69" y="-69.7" font-family="Times,serif" font-size="14.00">E=3</text>
</g>
<!-- e60e677c&#45;9c3f&#45;4f25&#45;93bd&#45;5b22bd7fa72d&#45;&gt;59cbefbf&#45;93bc&#45;41a4&#45;96f4&#45;036238646e70 -->
<g id="edge11" class="edge">
<title>e60e677c&#45;9c3f&#45;4f25&#45;93bd&#45;5b22bd7fa72d&#45;&gt;59cbefbf&#45;93bc&#45;41a4&#45;96f4&#45;036238646e70</title>
<path fill="none" stroke="#8dd4ca" stroke-width="2.6" d="M259.72,-156.81C282.7,-125.07 333.84,-62.59 395.19,-38.9 601.8,40.9 871.29,-22.03 994.28,-58.93"/>
<polygon fill="#8dd4ca" stroke="#8dd4ca" stroke-width="2.6" points="993.36,-62.31 1003.94,-61.86 995.39,-55.61 993.36,-62.31"/>
<text text-anchor="middle" x="615.69" y="-5.5" font-family="Times,serif" font-size="8.00" fill="#8dd4ca">element EC=4</text>
</g>
<!-- 8081df49&#45;a7ed&#45;4eba&#45;98c2&#45;33bddeea3fa4 -->
<g id="node11" class="node">
<title>8081df49&#45;a7ed&#45;4eba&#45;98c2&#45;33bddeea3fa4</title>
<polygon fill="#ffffff" stroke="black" points="967.19,-334.9 856.19,-334.9 856.19,-296.9 967.19,-296.9 967.19,-334.9"/>
<text text-anchor="middle" x="911.69" y="-319.7" font-family="Times,serif" font-size="14.00">Remove Item</text>
<text text-anchor="middle" x="911.69" y="-304.7" font-family="Times,serif" font-size="14.00">E=1</text>
</g>
<!-- e60e677c&#45;9c3f&#45;4f25&#45;93bd&#45;5b22bd7fa72d&#45;&gt;8081df49&#45;a7ed&#45;4eba&#45;98c2&#45;33bddeea3fa4 -->
<g id="edge13" class="edge">
<title>e60e677c&#45;9c3f&#45;4f25&#45;93bd&#45;5b22bd7fa72d&#45;&gt;8081df49&#45;a7ed&#45;4eba&#45;98c2&#45;33bddeea3fa4</title>
<path fill="none" stroke="#8dd4ca" d="M265.36,-195.18C279.13,-208.37 298.91,-225.33 319.19,-235.9 350.27,-252.1 361.3,-248.01 395.19,-256.9 468.28,-276.07 485.45,-286.8 560.19,-297.9 659.14,-312.59 775.33,-315.84 845.95,-316.28"/>
<polygon fill="#8dd4ca" stroke="#8dd4ca" points="846.01,-319.78 856.03,-316.33 846.05,-312.78 846.01,-319.78"/>
<text text-anchor="middle" x="468.69" y="-296.5" font-family="Times,serif" font-size="8.00" fill="#8dd4ca">element EC=1</text>
</g>
<!-- 360a23ba&#45;7752&#45;4841&#45;ae65&#45;0f8c131fd753 -->
<g id="node12" class="node">
<title>360a23ba&#45;7752&#45;4841&#45;ae65&#45;0f8c131fd753</title>
<polygon fill="#ffffff" stroke="black" points="671.19,-288.9 560.19,-288.9 560.19,-250.9 671.19,-250.9 671.19,-288.9"/>
<text text-anchor="middle" x="615.69" y="-273.7" font-family="Times,serif" font-size="14.00">Cancel Order</text>
<text text-anchor="middle" x="615.69" y="-258.7" font-family="Times,serif" font-size="14.00">E=1</text>
</g>
<!-- e60e677c&#45;9c3f&#45;4f25&#45;93bd&#45;5b22bd7fa72d&#45;&gt;360a23ba&#45;7752&#45;4841&#45;ae65&#45;0f8c131fd753 -->
<g id="edge4" class="edge">
<title>e60e677c&#45;9c3f&#45;4f25&#45;93bd&#45;5b22bd7fa72d&#45;&gt;360a23ba&#45;7752&#45;4841&#45;ae65&#45;0f8c131fd753</title>
<path fill="none" stroke="#7bb866" d="M297.33,-194.96C304.65,-197.65 312.11,-200.37 319.19,-202.9 352.81,-214.91 360.67,-219.82 395.19,-228.9 446.67,-242.44 506.07,-253.25 550.09,-260.36"/>
<polygon fill="#7bb866" stroke="#7bb866" points="549.66,-263.84 560.08,-261.96 550.76,-256.92 549.66,-263.84"/>
<text text-anchor="middle" x="348.19" y="-225.5" font-family="Times,serif" font-size="8.00" fill="#7bb866">order EC=1</text>
</g>
<!-- a1ca722f&#45;1a4f&#45;46a2&#45;a752&#45;2594a8bdfe59 -->
<g id="node13" class="node">
<title>a1ca722f&#45;1a4f&#45;46a2&#45;a752&#45;2594a8bdfe59</title>
<polygon fill="#ffffff" stroke="black" points="542.19,-85.9 395.19,-85.9 395.19,-47.9 542.19,-47.9 542.19,-85.9"/>
<text text-anchor="middle" x="468.69" y="-70.7" font-family="Times,serif" font-size="14.00">Add Item to Order</text>
<text text-anchor="middle" x="468.69" y="-55.7" font-family="Times,serif" font-size="14.00">E=1</text>
</g>
<!-- e60e677c&#45;9c3f&#45;4f25&#45;93bd&#45;5b22bd7fa72d&#45;&gt;a1ca722f&#45;1a4f&#45;46a2&#45;a752&#45;2594a8bdfe59 -->
<g id="edge5" class="edge">
<title>e60e677c&#45;9c3f&#45;4f25&#45;93bd&#45;5b22bd7fa72d&#45;&gt;a1ca722f&#45;1a4f&#45;46a2&#45;a752&#45;2594a8bdfe59</title>
<path fill="none" stroke="#7bb866" d="M285.44,-156.79C322.88,-138.32 379.68,-110.31 419.91,-90.47"/>
<polygon fill="#7bb866" stroke="#7bb866" points="421.57,-93.55 428.99,-85.99 418.47,-87.27 421.57,-93.55"/>
<text text-anchor="middle" x="348.19" y="-139.5" font-family="Times,serif" font-size="8.00" fill="#7bb866">order EC=1</text>
</g>
<!-- 489adcfd&#45;cfb1&#45;4a56&#45;ac6e&#45;67e435a0884c -->
<g id="node19" class="node">
<title>489adcfd&#45;cfb1&#45;4a56&#45;ac6e&#45;67e435a0884c</title>
<polygon fill="none" stroke="transparent" points="1401.69,-337.9 1327.69,-337.9 1327.69,-301.9 1401.69,-301.9 1401.69,-337.9"/>
<polyline fill="none" stroke="black" points="1327.69,-301.9 1401.69,-301.9 "/>
<text text-anchor="middle" x="1364.69" y="-316.2" font-family="Times,serif" font-size="14.00" fill="#8dd4ca">element</text>
</g>
<!-- e60e677c&#45;9c3f&#45;4f25&#45;93bd&#45;5b22bd7fa72d&#45;&gt;489adcfd&#45;cfb1&#45;4a56&#45;ac6e&#45;67e435a0884c -->
<g id="edge26" class="edge">
<title>e60e677c&#45;9c3f&#45;4f25&#45;93bd&#45;5b22bd7fa72d&#45;&gt;489adcfd&#45;cfb1&#45;4a56&#45;ac6e&#45;67e435a0884c</title>
<path fill="none" stroke="#8dd4ca" d="M257.58,-195.03C285.77,-241.76 366.05,-357.9 467.69,-357.9 467.69,-357.9 467.69,-357.9 1062.69,-357.9 1153.37,-357.9 1258.22,-340.71 1317.17,-329.46"/>
<polygon fill="#8dd4ca" stroke="#8dd4ca" points="1318.12,-332.84 1327.27,-327.5 1316.79,-325.96 1318.12,-332.84"/>
<text text-anchor="middle" x="763.69" y="-360.5" font-family="Times,serif" font-size="8.00" fill="#8dd4ca">element EC=1</text>
</g>
<!-- 48afbc97&#45;d90c&#45;4f86&#45;ba93&#45;b0b5bb389b6e -->
<g id="node9" class="node">
<title>48afbc97&#45;d90c&#45;4f86&#45;ba93&#45;b0b5bb389b6e</title>
<polygon fill="#cdcdff" stroke="black" points="816.19,-219.9 711.19,-219.9 711.19,-181.9 816.19,-181.9 816.19,-219.9"/>
<text text-anchor="middle" x="763.69" y="-204.7" font-family="Times,serif" font-size="14.00">Invoice Sent</text>
<text text-anchor="middle" x="763.69" y="-189.7" font-family="Times,serif" font-size="14.00">E=2</text>
</g>
<!-- e347c3da&#45;f1ca&#45;49d3&#45;ab35&#45;b6fb41c18faf&#45;&gt;48afbc97&#45;d90c&#45;4f86&#45;ba93&#45;b0b5bb389b6e -->
<g id="edge2" class="edge">
<title>e347c3da&#45;f1ca&#45;49d3&#45;ab35&#45;b6fb41c18faf&#45;&gt;48afbc97&#45;d90c&#45;4f86&#45;ba93&#45;b0b5bb389b6e</title>
<path fill="none" stroke="#7bb866" d="M528.98,-200.9C578.89,-200.9 650.02,-200.9 700.68,-200.9"/>
<polygon fill="#7bb866" stroke="#7bb866" points="700.84,-204.4 710.84,-200.9 700.84,-197.4 700.84,-204.4"/>
<text text-anchor="middle" x="615.69" y="-203.5" font-family="Times,serif" font-size="8.00" fill="#7bb866">order EC=1</text>
</g>
<!-- a36e9b0b&#45;0467&#45;45fb&#45;8dfe&#45;467f697c0b0f -->
<g id="node5" class="node">
<title>a36e9b0b&#45;0467&#45;45fb&#45;8dfe&#45;467f697c0b0f</title>
<polygon fill="#ffffff" stroke="black" points="838.19,-163.9 689.19,-163.9 689.19,-125.9 838.19,-125.9 838.19,-163.9"/>
<text text-anchor="middle" x="763.69" y="-148.7" font-family="Times,serif" font-size="14.00">Item back in Stock</text>
<text text-anchor="middle" x="763.69" y="-133.7" font-family="Times,serif" font-size="14.00">E=1</text>
</g>
<!-- daafacf6&#45;f60c&#45;43e8&#45;8cbb&#45;9dc41327b9c2&#45;&gt;a36e9b0b&#45;0467&#45;45fb&#45;8dfe&#45;467f697c0b0f -->
<g id="edge12" class="edge">
<title>daafacf6&#45;f60c&#45;43e8&#45;8cbb&#45;9dc41327b9c2&#45;&gt;a36e9b0b&#45;0467&#45;45fb&#45;8dfe&#45;467f697c0b0f</title>
<path fill="none" stroke="#8dd4ca" d="M538.76,-144.9C580.67,-144.9 634.44,-144.9 678.79,-144.9"/>
<polygon fill="#8dd4ca" stroke="#8dd4ca" points="678.97,-148.4 688.97,-144.9 678.97,-141.4 678.97,-148.4"/>
<text text-anchor="middle" x="615.69" y="-147.5" font-family="Times,serif" font-size="8.00" fill="#8dd4ca">element EC=1</text>
</g>
<!-- d82bb7c1&#45;4e0a&#45;42a9&#45;b598&#45;24df6b1f264f -->
<g id="node6" class="node">
<title>d82bb7c1&#45;4e0a&#45;42a9&#45;b598&#45;24df6b1f264f</title>
<polygon fill="#ffffff" stroke="black" points="1427.19,-62.9 1302.19,-62.9 1302.19,-24.9 1427.19,-24.9 1427.19,-62.9"/>
<text text-anchor="middle" x="1364.69" y="-47.7" font-family="Times,serif" font-size="14.00">Delivery Failed</text>
<text text-anchor="middle" x="1364.69" y="-32.7" font-family="Times,serif" font-size="14.00">E=1</text>
</g>
<!-- 59cbefbf&#45;93bc&#45;41a4&#45;96f4&#45;036238646e70&#45;&gt;d82bb7c1&#45;4e0a&#45;42a9&#45;b598&#45;24df6b1f264f -->
<g id="edge16" class="edge">
<title>59cbefbf&#45;93bc&#45;41a4&#45;96f4&#45;036238646e70&#45;&gt;d82bb7c1&#45;4e0a&#45;42a9&#45;b598&#45;24df6b1f264f</title>
<path fill="none" stroke="#813857" d="M1126.29,-71.86C1136.29,-70.49 1146.52,-69.13 1156.19,-67.9 1201.2,-62.17 1251.77,-56.31 1291.72,-51.81"/>
<polygon fill="#813857" stroke="#813857" points="1292.36,-55.26 1301.91,-50.67 1291.58,-48.31 1292.36,-55.26"/>
<text text-anchor="middle" x="1200.69" y="-70.5" font-family="Times,serif" font-size="8.00" fill="#813857">delivery EC=1</text>
</g>
<!-- ebaa3fd3&#45;6b8f&#45;4b8f&#45;808b&#45;39f2b6b51cf7 -->
<g id="node8" class="node">
<title>ebaa3fd3&#45;6b8f&#45;4b8f&#45;808b&#45;39f2b6b51cf7</title>
<polygon fill="#9b9bff" stroke="black" points="1932.19,-86.9 1775.19,-86.9 1775.19,-48.9 1932.19,-48.9 1932.19,-86.9"/>
<text text-anchor="middle" x="1853.69" y="-71.7" font-family="Times,serif" font-size="14.00">Delivery Successful</text>
<text text-anchor="middle" x="1853.69" y="-56.7" font-family="Times,serif" font-size="14.00">E=3</text>
</g>
<!-- 59cbefbf&#45;93bc&#45;41a4&#45;96f4&#45;036238646e70&#45;&gt;ebaa3fd3&#45;6b8f&#45;4b8f&#45;808b&#45;39f2b6b51cf7 -->
<g id="edge19" class="edge">
<title>59cbefbf&#45;93bc&#45;41a4&#45;96f4&#45;036238646e70&#45;&gt;ebaa3fd3&#45;6b8f&#45;4b8f&#45;808b&#45;39f2b6b51cf7</title>
<path fill="none" stroke="#813857" stroke-width="1.8" d="M1126.37,-80.34C1248.66,-79.2 1524.82,-76.22 1757.19,-70.9 1759.73,-70.84 1762.31,-70.78 1764.91,-70.71"/>
<polygon fill="#813857" stroke="#813857" stroke-width="1.8" points="1765.13,-74.21 1775.04,-70.45 1764.95,-67.21 1765.13,-74.21"/>
<text text-anchor="middle" x="1513.19" y="-79.5" font-family="Times,serif" font-size="8.00" fill="#813857">delivery EC=2</text>
</g>
<!-- 59cbefbf&#45;93bc&#45;41a4&#45;96f4&#45;036238646e70&#45;&gt;489adcfd&#45;cfb1&#45;4a56&#45;ac6e&#45;67e435a0884c -->
<g id="edge24" class="edge">
<title>59cbefbf&#45;93bc&#45;41a4&#45;96f4&#45;036238646e70&#45;&gt;489adcfd&#45;cfb1&#45;4a56&#45;ac6e&#45;67e435a0884c</title>
<path fill="none" stroke="#8dd4ca" stroke-width="2.07" d="M1083.62,-100.16C1100.02,-116.08 1122.6,-139.88 1138.19,-163.9 1149.03,-180.59 1142.78,-190.19 1156.19,-204.9 1201.01,-254.06 1271.87,-286.96 1318.07,-304.56"/>
<polygon fill="#8dd4ca" stroke="#8dd4ca" stroke-width="2.07" points="1316.94,-307.87 1327.54,-308.08 1319.39,-301.31 1316.94,-307.87"/>
<text text-anchor="middle" x="1200.69" y="-272.5" font-family="Times,serif" font-size="8.00" fill="#8dd4ca">element EC=3</text>
</g>
<!-- a36e9b0b&#45;0467&#45;45fb&#45;8dfe&#45;467f697c0b0f&#45;&gt;59cbefbf&#45;93bc&#45;41a4&#45;96f4&#45;036238646e70 -->
<g id="edge14" class="edge">
<title>a36e9b0b&#45;0467&#45;45fb&#45;8dfe&#45;467f697c0b0f&#45;&gt;59cbefbf&#45;93bc&#45;41a4&#45;96f4&#45;036238646e70</title>
<path fill="none" stroke="#8dd4ca" d="M816.02,-125.83C829,-121.48 843.01,-117.17 856.19,-113.9 899.06,-103.26 947.86,-95.23 987.03,-89.76"/>
<polygon fill="#8dd4ca" stroke="#8dd4ca" points="987.6,-93.22 997.04,-88.39 986.65,-86.28 987.6,-93.22"/>
<text text-anchor="middle" x="911.69" y="-116.5" font-family="Times,serif" font-size="8.00" fill="#8dd4ca">element EC=1</text>
</g>
<!-- 5b5762eb&#45;852d&#45;4be5&#45;be85&#45;31026d4e950e -->
<g id="node7" class="node">
<title>5b5762eb&#45;852d&#45;4be5&#45;be85&#45;31026d4e950e</title>
<polygon fill="#ffffff" stroke="black" points="1681.19,-62.9 1560.19,-62.9 1560.19,-24.9 1681.19,-24.9 1681.19,-62.9"/>
<text text-anchor="middle" x="1620.69" y="-47.7" font-family="Times,serif" font-size="14.00">Retry Delivery</text>
<text text-anchor="middle" x="1620.69" y="-32.7" font-family="Times,serif" font-size="14.00">E=1</text>
</g>
<!-- d82bb7c1&#45;4e0a&#45;42a9&#45;b598&#45;24df6b1f264f&#45;&gt;5b5762eb&#45;852d&#45;4be5&#45;be85&#45;31026d4e950e -->
<g id="edge17" class="edge">
<title>d82bb7c1&#45;4e0a&#45;42a9&#45;b598&#45;24df6b1f264f&#45;&gt;5b5762eb&#45;852d&#45;4be5&#45;be85&#45;31026d4e950e</title>
<path fill="none" stroke="#813857" d="M1427.5,-43.9C1464.44,-43.9 1511.46,-43.9 1549.75,-43.9"/>
<polygon fill="#813857" stroke="#813857" points="1549.8,-47.4 1559.8,-43.9 1549.8,-40.4 1549.8,-47.4"/>
<text text-anchor="middle" x="1513.19" y="-46.5" font-family="Times,serif" font-size="8.00" fill="#813857">delivery EC=1</text>
</g>
<!-- 5b5762eb&#45;852d&#45;4be5&#45;be85&#45;31026d4e950e&#45;&gt;ebaa3fd3&#45;6b8f&#45;4b8f&#45;808b&#45;39f2b6b51cf7 -->
<g id="edge18" class="edge">
<title>5b5762eb&#45;852d&#45;4be5&#45;be85&#45;31026d4e950e&#45;&gt;ebaa3fd3&#45;6b8f&#45;4b8f&#45;808b&#45;39f2b6b51cf7</title>
<path fill="none" stroke="#813857" d="M1681.48,-50.11C1706.84,-52.75 1736.91,-55.87 1764.72,-58.76"/>
<polygon fill="#813857" stroke="#813857" points="1764.54,-62.26 1774.85,-59.81 1765.27,-55.3 1764.54,-62.26"/>
<text text-anchor="middle" x="1728.19" y="-60.5" font-family="Times,serif" font-size="8.00" fill="#813857">delivery EC=1</text>
</g>
<!-- 171d96de&#45;a3f1&#45;4d23&#45;9211&#45;40f31c178494 -->
<g id="node21" class="node">
<title>171d96de&#45;a3f1&#45;4d23&#45;9211&#45;40f31c178494</title>
<polygon fill="none" stroke="transparent" points="2100.19,-85.9 2026.19,-85.9 2026.19,-49.9 2100.19,-49.9 2100.19,-85.9"/>
<polyline fill="none" stroke="black" points="2026.19,-49.9 2100.19,-49.9 "/>
<text text-anchor="middle" x="2063.19" y="-64.2" font-family="Times,serif" font-size="14.00" fill="#813857">delivery</text>
</g>
<!-- ebaa3fd3&#45;6b8f&#45;4b8f&#45;808b&#45;39f2b6b51cf7&#45;&gt;171d96de&#45;a3f1&#45;4d23&#45;9211&#45;40f31c178494 -->
<g id="edge30" class="edge">
<title>ebaa3fd3&#45;6b8f&#45;4b8f&#45;808b&#45;39f2b6b51cf7&#45;&gt;171d96de&#45;a3f1&#45;4d23&#45;9211&#45;40f31c178494</title>
<path fill="none" stroke="#813857" stroke-width="2.6" d="M1932.25,-67.9C1960.45,-67.9 1991.42,-67.9 2016.05,-67.9"/>
<polygon fill="#813857" stroke="#813857" stroke-width="2.6" points="2016.18,-71.4 2026.18,-67.9 2016.18,-64.4 2016.18,-71.4"/>
<text text-anchor="middle" x="1979.19" y="-70.5" font-family="Times,serif" font-size="8.00" fill="#813857">delivery EC=3</text>
</g>
<!-- b98fa4e6&#45;553c&#45;4e2c&#45;b117&#45;fb687c3bb992 -->
<g id="node10" class="node">
<title>b98fa4e6&#45;553c&#45;4e2c&#45;b117&#45;fb687c3bb992</title>
<polygon fill="#ffffff" stroke="black" points="1245.19,-164.9 1156.19,-164.9 1156.19,-126.9 1245.19,-126.9 1245.19,-164.9"/>
<text text-anchor="middle" x="1200.69" y="-149.7" font-family="Times,serif" font-size="14.00">Pay Order</text>
<text text-anchor="middle" x="1200.69" y="-134.7" font-family="Times,serif" font-size="14.00">E=1</text>
</g>
<!-- 48afbc97&#45;d90c&#45;4f86&#45;ba93&#45;b0b5bb389b6e&#45;&gt;b98fa4e6&#45;553c&#45;4e2c&#45;b117&#45;fb687c3bb992 -->
<g id="edge3" class="edge">
<title>48afbc97&#45;d90c&#45;4f86&#45;ba93&#45;b0b5bb389b6e&#45;&gt;b98fa4e6&#45;553c&#45;4e2c&#45;b117&#45;fb687c3bb992</title>
<path fill="none" stroke="#7bb866" d="M816.32,-188.82C829.29,-186 843.22,-183.17 856.19,-180.9 957.85,-163.12 1078.13,-153.43 1146.01,-148.98"/>
<polygon fill="#7bb866" stroke="#7bb866" points="1146.28,-152.47 1156.04,-148.34 1145.83,-145.49 1146.28,-152.47"/>
<text text-anchor="middle" x="911.69" y="-183.5" font-family="Times,serif" font-size="8.00" fill="#7bb866">order EC=1</text>
</g>
<!-- 73b30e5a&#45;5f32&#45;4a72&#45;bbca&#45;45d3a1cd4ff8 -->
<g id="node14" class="node">
<title>73b30e5a&#45;5f32&#45;4a72&#45;bbca&#45;45d3a1cd4ff8</title>
<polygon fill="#cdcdff" stroke="black" points="1138.19,-210.9 985.19,-210.9 985.19,-172.9 1138.19,-172.9 1138.19,-210.9"/>
<text text-anchor="middle" x="1061.69" y="-195.7" font-family="Times,serif" font-size="14.00">Payment Reminder</text>
<text text-anchor="middle" x="1061.69" y="-180.7" font-family="Times,serif" font-size="14.00">E=2</text>
</g>
<!-- 48afbc97&#45;d90c&#45;4f86&#45;ba93&#45;b0b5bb389b6e&#45;&gt;73b30e5a&#45;5f32&#45;4a72&#45;bbca&#45;45d3a1cd4ff8 -->
<g id="edge7" class="edge">
<title>48afbc97&#45;d90c&#45;4f86&#45;ba93&#45;b0b5bb389b6e&#45;&gt;73b30e5a&#45;5f32&#45;4a72&#45;bbca&#45;45d3a1cd4ff8</title>
<path fill="none" stroke="#7bb866" d="M816.25,-199.33C859.96,-198 923.56,-196.07 974.92,-194.51"/>
<polygon fill="#7bb866" stroke="#7bb866" points="975.13,-198 985.02,-194.2 974.92,-191.01 975.13,-198"/>
<text text-anchor="middle" x="911.69" y="-200.5" font-family="Times,serif" font-size="8.00" fill="#7bb866">order EC=1</text>
</g>
<!-- 03edba02&#45;d5e1&#45;4c78&#45;8ce5&#45;591faf19fa79 -->
<g id="node20" class="node">
<title>03edba02&#45;d5e1&#45;4c78&#45;8ce5&#45;591faf19fa79</title>
<polygon fill="none" stroke="transparent" points="1648.69,-209.9 1592.69,-209.9 1592.69,-173.9 1648.69,-173.9 1648.69,-209.9"/>
<polyline fill="none" stroke="black" points="1592.69,-173.9 1648.69,-173.9 "/>
<text text-anchor="middle" x="1620.69" y="-188.2" font-family="Times,serif" font-size="14.00" fill="#7bb866">order</text>
</g>
<!-- b98fa4e6&#45;553c&#45;4e2c&#45;b117&#45;fb687c3bb992&#45;&gt;03edba02&#45;d5e1&#45;4c78&#45;8ce5&#45;591faf19fa79 -->
<g id="edge27" class="edge">
<title>b98fa4e6&#45;553c&#45;4e2c&#45;b117&#45;fb687c3bb992&#45;&gt;03edba02&#45;d5e1&#45;4c78&#45;8ce5&#45;591faf19fa79</title>
<path fill="none" stroke="#7bb866" d="M1245.45,-144.69C1298.09,-143.86 1389.02,-144.4 1466.19,-154.9 1506.58,-160.4 1551.84,-171.99 1582.68,-180.74"/>
<polygon fill="#7bb866" stroke="#7bb866" points="1581.98,-184.18 1592.56,-183.59 1583.92,-177.46 1581.98,-184.18"/>
<text text-anchor="middle" x="1364.69" y="-157.5" font-family="Times,serif" font-size="8.00" fill="#7bb866">order EC=1</text>
</g>
<!-- 8081df49&#45;a7ed&#45;4eba&#45;98c2&#45;33bddeea3fa4&#45;&gt;489adcfd&#45;cfb1&#45;4a56&#45;ac6e&#45;67e435a0884c -->
<g id="edge25" class="edge">
<title>8081df49&#45;a7ed&#45;4eba&#45;98c2&#45;33bddeea3fa4&#45;&gt;489adcfd&#45;cfb1&#45;4a56&#45;ac6e&#45;67e435a0884c</title>
<path fill="none" stroke="#8dd4ca" d="M967.54,-316.39C1057.14,-317.18 1233.3,-318.74 1317.17,-319.49"/>
<polygon fill="#8dd4ca" stroke="#8dd4ca" points="1317.38,-322.99 1327.41,-319.58 1317.45,-315.99 1317.38,-322.99"/>
<text text-anchor="middle" x="1061.69" y="-320.5" font-family="Times,serif" font-size="8.00" fill="#8dd4ca">element EC=1</text>
</g>
<!-- 360a23ba&#45;7752&#45;4841&#45;ae65&#45;0f8c131fd753&#45;&gt;03edba02&#45;d5e1&#45;4c78&#45;8ce5&#45;591faf19fa79 -->
<g id="edge28" class="edge">
<title>360a23ba&#45;7752&#45;4841&#45;ae65&#45;0f8c131fd753&#45;&gt;03edba02&#45;d5e1&#45;4c78&#45;8ce5&#45;591faf19fa79</title>
<path fill="none" stroke="#7bb866" d="M671.42,-271.09C730.45,-272.27 827.23,-273.9 910.69,-273.9 910.69,-273.9 910.69,-273.9 1365.69,-273.9 1446.49,-273.9 1535.07,-235.85 1583.33,-211.59"/>
<polygon fill="#7bb866" stroke="#7bb866" points="1585.13,-214.61 1592.44,-206.94 1581.94,-208.37 1585.13,-214.61"/>
<text text-anchor="middle" x="1061.69" y="-276.5" font-family="Times,serif" font-size="8.00" fill="#7bb866">order EC=1</text>
</g>
<!-- a1ca722f&#45;1a4f&#45;46a2&#45;a752&#45;2594a8bdfe59&#45;&gt;59cbefbf&#45;93bc&#45;41a4&#45;96f4&#45;036238646e70 -->
<g id="edge15" class="edge">
<title>a1ca722f&#45;1a4f&#45;46a2&#45;a752&#45;2594a8bdfe59&#45;&gt;59cbefbf&#45;93bc&#45;41a4&#45;96f4&#45;036238646e70</title>
<path fill="none" stroke="#8dd4ca" d="M542.46,-60.23C616.83,-54.38 735.63,-47.7 838.19,-53.9 887.99,-56.91 943.72,-63.68 986.95,-69.68"/>
<polygon fill="#8dd4ca" stroke="#8dd4ca" points="986.71,-73.18 997.1,-71.11 987.68,-66.25 986.71,-73.18"/>
<text text-anchor="middle" x="763.69" y="-56.5" font-family="Times,serif" font-size="8.00" fill="#8dd4ca">element EC=1</text>
</g>
<!-- a1ca722f&#45;1a4f&#45;46a2&#45;a752&#45;2594a8bdfe59&#45;&gt;48afbc97&#45;d90c&#45;4f86&#45;ba93&#45;b0b5bb389b6e -->
<g id="edge6" class="edge">
<title>a1ca722f&#45;1a4f&#45;46a2&#45;a752&#45;2594a8bdfe59&#45;&gt;48afbc97&#45;d90c&#45;4f86&#45;ba93&#45;b0b5bb389b6e</title>
<path fill="none" stroke="#7bb866" d="M542.31,-75.36C584.32,-83.61 635.73,-99.87 671.19,-131.9 685.96,-145.24 674.77,-159.18 689.19,-172.9 692.99,-176.51 697.3,-179.67 701.89,-182.43"/>
<polygon fill="#7bb866" stroke="#7bb866" points="700.51,-185.66 710.98,-187.26 703.79,-179.48 700.51,-185.66"/>
<text text-anchor="middle" x="615.69" y="-134.5" font-family="Times,serif" font-size="8.00" fill="#7bb866">order EC=1</text>
</g>
<!-- 73b30e5a&#45;5f32&#45;4a72&#45;bbca&#45;45d3a1cd4ff8&#45;&gt;73b30e5a&#45;5f32&#45;4a72&#45;bbca&#45;45d3a1cd4ff8 -->
<g id="edge8" class="edge">
<title>73b30e5a&#45;5f32&#45;4a72&#45;bbca&#45;45d3a1cd4ff8&#45;&gt;73b30e5a&#45;5f32&#45;4a72&#45;bbca&#45;45d3a1cd4ff8</title>
<path fill="none" stroke="#7bb866" d="M1036.58,-210.94C1033.11,-220.43 1041.48,-228.9 1061.69,-228.9 1074.01,-228.9 1081.93,-225.75 1085.45,-221.15"/>
<polygon fill="#7bb866" stroke="#7bb866" points="1088.96,-221.31 1086.8,-210.94 1082.02,-220.39 1088.96,-221.31"/>
<text text-anchor="middle" x="1061.69" y="-231.5" font-family="Times,serif" font-size="8.00" fill="#7bb866">order EC=1</text>
</g>
<!-- e72a50cc&#45;7d41&#45;413a&#45;a6c1&#45;9124e68e7d1c -->
<g id="node15" class="node">
<title>e72a50cc&#45;7d41&#45;413a&#45;a6c1&#45;9124e68e7d1c</title>
<polygon fill="#ffffff" stroke="black" points="1466.19,-210.9 1263.19,-210.9 1263.19,-172.9 1466.19,-172.9 1466.19,-210.9"/>
<text text-anchor="middle" x="1364.69" y="-195.7" font-family="Times,serif" font-size="14.00">Send for Credit Collection</text>
<text text-anchor="middle" x="1364.69" y="-180.7" font-family="Times,serif" font-size="14.00">E=1</text>
</g>
<!-- 73b30e5a&#45;5f32&#45;4a72&#45;bbca&#45;45d3a1cd4ff8&#45;&gt;e72a50cc&#45;7d41&#45;413a&#45;a6c1&#45;9124e68e7d1c -->
<g id="edge9" class="edge">
<title>73b30e5a&#45;5f32&#45;4a72&#45;bbca&#45;45d3a1cd4ff8&#45;&gt;e72a50cc&#45;7d41&#45;413a&#45;a6c1&#45;9124e68e7d1c</title>
<path fill="none" stroke="#7bb866" d="M1138.26,-191.9C1172.95,-191.9 1214.77,-191.9 1252.92,-191.9"/>
<polygon fill="#7bb866" stroke="#7bb866" points="1253.05,-195.4 1263.05,-191.9 1253.05,-188.4 1253.05,-195.4"/>
<text text-anchor="middle" x="1200.69" y="-194.5" font-family="Times,serif" font-size="8.00" fill="#7bb866">order EC=1</text>
</g>
<!-- e72a50cc&#45;7d41&#45;413a&#45;a6c1&#45;9124e68e7d1c&#45;&gt;03edba02&#45;d5e1&#45;4c78&#45;8ce5&#45;591faf19fa79 -->
<g id="edge29" class="edge">
<title>e72a50cc&#45;7d41&#45;413a&#45;a6c1&#45;9124e68e7d1c&#45;&gt;03edba02&#45;d5e1&#45;4c78&#45;8ce5&#45;591faf19fa79</title>
<path fill="none" stroke="#7bb866" d="M1466.44,-191.9C1507.21,-191.9 1551.74,-191.9 1582.24,-191.9"/>
<polygon fill="#7bb866" stroke="#7bb866" points="1582.42,-195.4 1592.42,-191.9 1582.42,-188.4 1582.42,-195.4"/>
<text text-anchor="middle" x="1513.19" y="-194.5" font-family="Times,serif" font-size="8.00" fill="#7bb866">order EC=1</text>
</g>
<!-- 37a73d9d&#45;cc12&#45;4218&#45;ac71&#45;d19eb85fb567 -->
<g id="node16" class="node">
<title>37a73d9d&#45;cc12&#45;4218&#45;ac71&#45;d19eb85fb567</title>
<ellipse fill="#8dd4ca" stroke="black" cx="48.1" cy="-31.9" rx="48.19" ry="18"/>
<text text-anchor="middle" x="48.1" y="-28.2" font-family="Times,serif" font-size="14.00">element</text>
</g>
<!-- 37a73d9d&#45;cc12&#45;4218&#45;ac71&#45;d19eb85fb567&#45;&gt;e60e677c&#45;9c3f&#45;4f25&#45;93bd&#45;5b22bd7fa72d -->
<g id="edge20" class="edge">
<title>37a73d9d&#45;cc12&#45;4218&#45;ac71&#45;d19eb85fb567&#45;&gt;e60e677c&#45;9c3f&#45;4f25&#45;93bd&#45;5b22bd7fa72d</title>
<path fill="none" stroke="#8dd4ca" stroke-width="2.07" d="M70.78,-47.86C104.58,-72.74 170.12,-121 210.39,-150.64"/>
<polygon fill="#8dd4ca" stroke="#8dd4ca" stroke-width="2.07" points="208.44,-153.56 218.57,-156.67 212.59,-147.92 208.44,-153.56"/>
<text text-anchor="middle" x="143.19" y="-124.5" font-family="Times,serif" font-size="8.00" fill="#8dd4ca">element EC=3</text>
</g>
<!-- 37a73d9d&#45;cc12&#45;4218&#45;ac71&#45;d19eb85fb567&#45;&gt;a1ca722f&#45;1a4f&#45;46a2&#45;a752&#45;2594a8bdfe59 -->
<g id="edge21" class="edge">
<title>37a73d9d&#45;cc12&#45;4218&#45;ac71&#45;d19eb85fb567&#45;&gt;a1ca722f&#45;1a4f&#45;46a2&#45;a752&#45;2594a8bdfe59</title>
<path fill="none" stroke="#8dd4ca" d="M95.09,-35.74C164.75,-41.57 298.09,-52.72 384.91,-59.98"/>
<polygon fill="#8dd4ca" stroke="#8dd4ca" points="384.75,-63.48 395,-60.82 385.33,-56.5 384.75,-63.48"/>
<text text-anchor="middle" x="245.69" y="-55.5" font-family="Times,serif" font-size="8.00" fill="#8dd4ca">element EC=1</text>
</g>
<!-- a58f6788&#45;0db0&#45;42fd&#45;9c42&#45;a9e6278e91d3 -->
<g id="node17" class="node">
<title>a58f6788&#45;0db0&#45;42fd&#45;9c42&#45;a9e6278e91d3</title>
<ellipse fill="#7bb866" stroke="black" cx="48.1" cy="-175.9" rx="36.29" ry="18"/>
<text text-anchor="middle" x="48.1" y="-172.2" font-family="Times,serif" font-size="14.00">order</text>
</g>
<!-- a58f6788&#45;0db0&#45;42fd&#45;9c42&#45;a9e6278e91d3&#45;&gt;e60e677c&#45;9c3f&#45;4f25&#45;93bd&#45;5b22bd7fa72d -->
<g id="edge22" class="edge">
<title>a58f6788&#45;0db0&#45;42fd&#45;9c42&#45;a9e6278e91d3&#45;&gt;e60e677c&#45;9c3f&#45;4f25&#45;93bd&#45;5b22bd7fa72d</title>
<path fill="none" stroke="#7bb866" stroke-width="2.6" d="M84.52,-175.9C111.04,-175.9 148.07,-175.9 179.84,-175.9"/>
<polygon fill="#7bb866" stroke="#7bb866" stroke-width="2.6" points="179.95,-179.4 189.95,-175.9 179.95,-172.4 179.95,-179.4"/>
<text text-anchor="middle" x="143.19" y="-178.5" font-family="Times,serif" font-size="8.00" fill="#7bb866">order EC=3</text>
</g>
<!-- ad269d78&#45;ccce&#45;4fad&#45;9d14&#45;2774ca40de1f -->
<g id="node18" class="node">
<title>ad269d78&#45;ccce&#45;4fad&#45;9d14&#45;2774ca40de1f</title>
<ellipse fill="#813857" stroke="black" cx="763.69" cy="-89.9" rx="48.19" ry="18"/>
<text text-anchor="middle" x="763.69" y="-86.2" font-family="Times,serif" font-size="14.00">delivery</text>
</g>
<!-- ad269d78&#45;ccce&#45;4fad&#45;9d14&#45;2774ca40de1f&#45;&gt;59cbefbf&#45;93bc&#45;41a4&#45;96f4&#45;036238646e70 -->
<g id="edge23" class="edge">
<title>ad269d78&#45;ccce&#45;4fad&#45;9d14&#45;2774ca40de1f&#45;&gt;59cbefbf&#45;93bc&#45;41a4&#45;96f4&#45;036238646e70</title>
<path fill="none" stroke="#813857" stroke-width="2.6" d="M810.25,-85.17C824.9,-83.85 841.22,-82.59 856.19,-81.9 899.49,-79.9 948,-79.58 986.91,-79.8"/>
<polygon fill="#813857" stroke="#813857" stroke-width="2.6" points="987.07,-83.3 997.1,-79.86 987.12,-76.3 987.07,-83.3"/>
<text text-anchor="middle" x="911.69" y="-84.5" font-family="Times,serif" font-size="8.00" fill="#813857">delivery EC=3</text>
</g>
</g>
</svg>
