<?xml version="1.0" encoding="UTF-8" standalone="no"?>
<!DOCTYPE svg PUBLIC "-//W3C//DTD SVG 1.1//EN"
 "http://www.w3.org/Graphics/SVG/1.1/DTD/svg11.dtd">
<!-- Generated by graphviz version 2.43.0 (0)
 -->
<!-- Title: ocdfg Pages: 1 -->
<svg width="2108pt" height="452pt"
 viewBox="0.00 0.00 2108.19 451.64" xmlns="http://www.w3.org/2000/svg" xmlns:xlink="http://www.w3.org/1999/xlink">
<g id="graph0" class="graph" transform="scale(1 1) rotate(0) translate(4 447.64)">
<title>ocdfg</title>
<polygon fill="white" stroke="transparent" points="-4,4 -4,-447.64 2104.19,-447.64 2104.19,4 -4,4"/>
<!-- 32ffbcc6&#45;6d52&#45;4268&#45;bab1&#45;86186d211307 -->
<g id="node1" class="node">
<title>32ffbcc6&#45;6d52&#45;4268&#45;bab1&#45;86186d211307</title>
<polygon fill="#9b9bff" stroke="black" points="301.19,-214.64 190.19,-214.64 190.19,-176.64 301.19,-176.64 301.19,-214.64"/>
<text text-anchor="middle" x="245.69" y="-199.44" font-family="Times,serif" font-size="14.00">Create Order</text>
<text text-anchor="middle" x="245.69" y="-184.44" font-family="Times,serif" font-size="14.00">E=3</text>
</g>
<!-- 04b3a9a0&#45;02f8&#45;423c&#45;9068&#45;8eeb76b74bb5 -->
<g id="node2" class="node">
<title>04b3a9a0&#45;02f8&#45;423c&#45;9068&#45;8eeb76b74bb5</title>
<polygon fill="#ffffff" stroke="black" points="528.69,-393.64 408.69,-393.64 408.69,-355.64 528.69,-355.64 528.69,-393.64"/>
<text text-anchor="middle" x="468.69" y="-378.44" font-family="Times,serif" font-size="14.00">Confirm Order</text>
<text text-anchor="middle" x="468.69" y="-363.44" font-family="Times,serif" font-size="14.00">E=1</text>
</g>
<!-- 32ffbcc6&#45;6d52&#45;4268&#45;bab1&#45;86186d211307&#45;&gt;04b3a9a0&#45;02f8&#45;423c&#45;9068&#45;8eeb76b74bb5 -->
<g id="edge1" class="edge">
<title>32ffbcc6&#45;6d52&#45;4268&#45;bab1&#45;86186d211307&#45;&gt;04b3a9a0&#45;02f8&#45;423c&#45;9068&#45;8eeb76b74bb5</title>
<path fill="none" stroke="#32f8ce" d="M262.23,-215.07C287.45,-245.56 340.03,-305.06 395.19,-342.64 399.49,-345.57 404.09,-348.33 408.83,-350.9"/>
<polygon fill="#32f8ce" stroke="#32f8ce" points="407.54,-354.18 418.03,-355.64 410.74,-347.95 407.54,-354.18"/>
<text text-anchor="middle" x="348.19" y="-331.24" font-family="Times,serif" font-size="8.00" fill="#32f8ce">order EC=1</text>
</g>
<!-- 15452457&#45;fa97&#45;4e4f&#45;966f&#45;1dcbd05fb6c7 -->
<g id="node3" class="node">
<title>15452457&#45;fa97&#45;4e4f&#45;966f&#45;1dcbd05fb6c7</title>
<polygon fill="#ffffff" stroke="black" points="538.69,-152.64 398.69,-152.64 398.69,-114.64 538.69,-114.64 538.69,-152.64"/>
<text text-anchor="middle" x="468.69" y="-137.44" font-family="Times,serif" font-size="14.00">Item out of Stock</text>
<text text-anchor="middle" x="468.69" y="-122.44" font-family="Times,serif" font-size="14.00">E=1</text>
</g>
<!-- 32ffbcc6&#45;6d52&#45;4268&#45;bab1&#45;86186d211307&#45;&gt;15452457&#45;fa97&#45;4e4f&#45;966f&#45;1dcbd05fb6c7 -->
<g id="edge10" class="edge">
<title>32ffbcc6&#45;6d52&#45;4268&#45;bab1&#45;86186d211307&#45;&gt;15452457&#45;fa97&#45;4e4f&#45;966f&#45;1dcbd05fb6c7</title>
<path fill="none" stroke="#079d5f" d="M277.83,-176.5C290.29,-169.6 305.03,-162.36 319.19,-157.64 341.21,-150.31 365.83,-145.17 388.6,-141.6"/>
<polygon fill="#079d5f" stroke="#079d5f" points="389.19,-145.05 398.57,-140.11 388.16,-138.12 389.19,-145.05"/>
<text text-anchor="middle" x="348.19" y="-160.24" font-family="Times,serif" font-size="8.00" fill="#079d5f">element EC=1</text>
</g>
<!-- cf1f6745&#45;e89d&#45;4528&#45;9fd0&#45;1515d0cc9387 -->
<g id="node4" class="node">
<title>cf1f6745&#45;e89d&#45;4528&#45;9fd0&#45;1515d0cc9387</title>
<polygon fill="#9b9bff" stroke="black" points="1126.19,-198.64 997.19,-198.64 997.19,-160.64 1126.19,-160.64 1126.19,-198.64"/>
<text text-anchor="middle" x="1061.69" y="-183.44" font-family="Times,serif" font-size="14.00">Create Delivery</text>
<text text-anchor="middle" x="1061.69" y="-168.44" font-family="Times,serif" font-size="14.00">E=3</text>
</g>
<!-- 32ffbcc6&#45;6d52&#45;4268&#45;bab1&#45;86186d211307&#45;&gt;cf1f6745&#45;e89d&#45;4528&#45;9fd0&#45;1515d0cc9387 -->
<g id="edge11" class="edge">
<title>32ffbcc6&#45;6d52&#45;4268&#45;bab1&#45;86186d211307&#45;&gt;cf1f6745&#45;e89d&#45;4528&#45;9fd0&#45;1515d0cc9387</title>
<path fill="none" stroke="#079d5f" stroke-width="2.6" d="M301.36,-194.57C443.59,-191.77 825.27,-184.27 986.83,-181.09"/>
<polygon fill="#079d5f" stroke="#079d5f" stroke-width="2.6" points="987.22,-184.59 997.15,-180.89 987.08,-177.59 987.22,-184.59"/>
<text text-anchor="middle" x="615.69" y="-192.24" font-family="Times,serif" font-size="8.00" fill="#079d5f">element EC=4</text>
</g>
<!-- 8d6589ab&#45;a03c&#45;4003&#45;a8ca&#45;e92c385b887b -->
<g id="node11" class="node">
<title>8d6589ab&#45;a03c&#45;4003&#45;a8ca&#45;e92c385b887b</title>
<polygon fill="#ffffff" stroke="black" points="967.19,-62.64 856.19,-62.64 856.19,-24.64 967.19,-24.64 967.19,-62.64"/>
<text text-anchor="middle" x="911.69" y="-47.44" font-family="Times,serif" font-size="14.00">Remove Item</text>
<text text-anchor="middle" x="911.69" y="-32.44" font-family="Times,serif" font-size="14.00">E=1</text>
</g>
<!-- 32ffbcc6&#45;6d52&#45;4268&#45;bab1&#45;86186d211307&#45;&gt;8d6589ab&#45;a03c&#45;4003&#45;a8ca&#45;e92c385b887b -->
<g id="edge13" class="edge">
<title>32ffbcc6&#45;6d52&#45;4268&#45;bab1&#45;86186d211307&#45;&gt;8d6589ab&#45;a03c&#45;4003&#45;a8ca&#45;e92c385b887b</title>
<path fill="none" stroke="#079d5f" d="M252.04,-176.47C260.93,-148.49 281.61,-97.15 319.19,-72.64 482.98,34.21 729.91,-1.71 846.02,-27.23"/>
<polygon fill="#079d5f" stroke="#079d5f" points="845.31,-30.66 855.83,-29.43 846.84,-23.83 845.31,-30.66"/>
<text text-anchor="middle" x="468.69" y="-37.24" font-family="Times,serif" font-size="8.00" fill="#079d5f">element EC=1</text>
</g>
<!-- 145478ca&#45;841a&#45;49dc&#45;b4e2&#45;06a764cac23d -->
<g id="node12" class="node">
<title>145478ca&#45;841a&#45;49dc&#45;b4e2&#45;06a764cac23d</title>
<polygon fill="#ffffff" stroke="black" points="671.19,-269.64 560.19,-269.64 560.19,-231.64 671.19,-231.64 671.19,-269.64"/>
<text text-anchor="middle" x="615.69" y="-254.44" font-family="Times,serif" font-size="14.00">Cancel Order</text>
<text text-anchor="middle" x="615.69" y="-239.44" font-family="Times,serif" font-size="14.00">E=1</text>
</g>
<!-- 32ffbcc6&#45;6d52&#45;4268&#45;bab1&#45;86186d211307&#45;&gt;145478ca&#45;841a&#45;49dc&#45;b4e2&#45;06a764cac23d -->
<g id="edge4" class="edge">
<title>32ffbcc6&#45;6d52&#45;4268&#45;bab1&#45;86186d211307&#45;&gt;145478ca&#45;841a&#45;49dc&#45;b4e2&#45;06a764cac23d</title>
<path fill="none" stroke="#32f8ce" d="M301.39,-203.81C367.7,-213.73 479.33,-230.41 549.89,-240.96"/>
<polygon fill="#32f8ce" stroke="#32f8ce" points="549.59,-244.45 560,-242.47 550.62,-237.53 549.59,-244.45"/>
<text text-anchor="middle" x="348.19" y="-218.24" font-family="Times,serif" font-size="8.00" fill="#32f8ce">order EC=1</text>
</g>
<!-- f99d4e8c&#45;09c9&#45;4251&#45;8f9c&#45;ff7795d6cc8a -->
<g id="node13" class="node">
<title>f99d4e8c&#45;09c9&#45;4251&#45;8f9c&#45;ff7795d6cc8a</title>
<polygon fill="#ffffff" stroke="black" points="542.19,-333.64 395.19,-333.64 395.19,-295.64 542.19,-295.64 542.19,-333.64"/>
<text text-anchor="middle" x="468.69" y="-318.44" font-family="Times,serif" font-size="14.00">Add Item to Order</text>
<text text-anchor="middle" x="468.69" y="-303.44" font-family="Times,serif" font-size="14.00">E=1</text>
</g>
<!-- 32ffbcc6&#45;6d52&#45;4268&#45;bab1&#45;86186d211307&#45;&gt;f99d4e8c&#45;09c9&#45;4251&#45;8f9c&#45;ff7795d6cc8a -->
<g id="edge5" class="edge">
<title>32ffbcc6&#45;6d52&#45;4268&#45;bab1&#45;86186d211307&#45;&gt;f99d4e8c&#45;09c9&#45;4251&#45;8f9c&#45;ff7795d6cc8a</title>
<path fill="none" stroke="#32f8ce" d="M285.25,-214.76C296.17,-220.04 308.09,-225.67 319.19,-230.64 344.65,-242.04 352.56,-241.54 377.19,-254.64 396.47,-264.89 416.82,-278.15 433.34,-289.59"/>
<polygon fill="#32f8ce" stroke="#32f8ce" points="431.4,-292.51 441.6,-295.39 435.42,-286.78 431.4,-292.51"/>
<text text-anchor="middle" x="348.19" y="-257.24" font-family="Times,serif" font-size="8.00" fill="#32f8ce">order EC=1</text>
</g>
<!-- 84659fd9&#45;83a1&#45;407e&#45;ae65&#45;0d836ef08bc2 -->
<g id="node21" class="node">
<title>84659fd9&#45;83a1&#45;407e&#45;ae65&#45;0d836ef08bc2</title>
<polygon fill="none" stroke="transparent" points="1401.69,-104.64 1327.69,-104.64 1327.69,-68.64 1401.69,-68.64 1401.69,-104.64"/>
<polyline fill="none" stroke="black" points="1327.69,-68.64 1401.69,-68.64 "/>
<text text-anchor="middle" x="1364.69" y="-82.94" font-family="Times,serif" font-size="14.00" fill="#079d5f">element</text>
</g>
<!-- 32ffbcc6&#45;6d52&#45;4268&#45;bab1&#45;86186d211307&#45;&gt;84659fd9&#45;83a1&#45;407e&#45;ae65&#45;0d836ef08bc2 -->
<g id="edge30" class="edge">
<title>32ffbcc6&#45;6d52&#45;4268&#45;bab1&#45;86186d211307&#45;&gt;84659fd9&#45;83a1&#45;407e&#45;ae65&#45;0d836ef08bc2</title>
<path fill="none" stroke="#079d5f" d="M268.46,-176.4C306.21,-145.11 387.48,-86.64 467.69,-86.64 467.69,-86.64 467.69,-86.64 1062.69,-86.64 1152.91,-86.64 1258.33,-86.64 1317.42,-86.64"/>
<polygon fill="#079d5f" stroke="#079d5f" points="1317.55,-90.14 1327.55,-86.64 1317.55,-83.14 1317.55,-90.14"/>
<text text-anchor="middle" x="763.69" y="-89.24" font-family="Times,serif" font-size="8.00" fill="#079d5f">element EC=1</text>
</g>
<!-- b7a4dfa0&#45;4468&#45;423a&#45;ba07&#45;ed02983d443a -->
<g id="node9" class="node">
<title>b7a4dfa0&#45;4468&#45;423a&#45;ba07&#45;ed02983d443a</title>
<polygon fill="#cdcdff" stroke="black" points="816.19,-398.64 711.19,-398.64 711.19,-360.64 816.19,-360.64 816.19,-398.64"/>
<text text-anchor="middle" x="763.69" y="-383.44" font-family="Times,serif" font-size="14.00">Invoice Sent</text>
<text text-anchor="middle" x="763.69" y="-368.44" font-family="Times,serif" font-size="14.00">E=2</text>
</g>
<!-- 04b3a9a0&#45;02f8&#45;423c&#45;9068&#45;8eeb76b74bb5&#45;&gt;b7a4dfa0&#45;4468&#45;423a&#45;ba07&#45;ed02983d443a -->
<g id="edge2" class="edge">
<title>04b3a9a0&#45;02f8&#45;423c&#45;9068&#45;8eeb76b74bb5&#45;&gt;b7a4dfa0&#45;4468&#45;423a&#45;ba07&#45;ed02983d443a</title>
<path fill="none" stroke="#32f8ce" d="M528.98,-375.65C578.89,-376.5 650.02,-377.72 700.68,-378.58"/>
<polygon fill="#32f8ce" stroke="#32f8ce" points="700.78,-382.08 710.84,-378.76 700.9,-375.09 700.78,-382.08"/>
<text text-anchor="middle" x="615.69" y="-380.24" font-family="Times,serif" font-size="8.00" fill="#32f8ce">order EC=1</text>
</g>
<!-- 85e38c4a&#45;9929&#45;4ddf&#45;b842&#45;f555db375df7 -->
<g id="node5" class="node">
<title>85e38c4a&#45;9929&#45;4ddf&#45;b842&#45;f555db375df7</title>
<polygon fill="#ffffff" stroke="black" points="838.19,-151.64 689.19,-151.64 689.19,-113.64 838.19,-113.64 838.19,-151.64"/>
<text text-anchor="middle" x="763.69" y="-136.44" font-family="Times,serif" font-size="14.00">Item back in Stock</text>
<text text-anchor="middle" x="763.69" y="-121.44" font-family="Times,serif" font-size="14.00">E=1</text>
</g>
<!-- 15452457&#45;fa97&#45;4e4f&#45;966f&#45;1dcbd05fb6c7&#45;&gt;85e38c4a&#45;9929&#45;4ddf&#45;b842&#45;f555db375df7 -->
<g id="edge12" class="edge">
<title>15452457&#45;fa97&#45;4e4f&#45;966f&#45;1dcbd05fb6c7&#45;&gt;85e38c4a&#45;9929&#45;4ddf&#45;b842&#45;f555db375df7</title>
<path fill="none" stroke="#079d5f" d="M538.76,-133.4C580.67,-133.26 634.44,-133.08 678.79,-132.93"/>
<polygon fill="#079d5f" stroke="#079d5f" points="678.98,-136.43 688.97,-132.89 678.96,-129.43 678.98,-136.43"/>
<text text-anchor="middle" x="615.69" y="-136.24" font-family="Times,serif" font-size="8.00" fill="#079d5f">element EC=1</text>
</g>
<!-- 8b501ca7&#45;c03d&#45;401b&#45;8047&#45;5b21c3c821e2 -->
<g id="node6" class="node">
<title>8b501ca7&#45;c03d&#45;401b&#45;8047&#45;5b21c3c821e2</title>
<polygon fill="#ffffff" stroke="black" points="1427.19,-179.64 1302.19,-179.64 1302.19,-141.64 1427.19,-141.64 1427.19,-179.64"/>
<text text-anchor="middle" x="1364.69" y="-164.44" font-family="Times,serif" font-size="14.00">Delivery Failed</text>
<text text-anchor="middle" x="1364.69" y="-149.44" font-family="Times,serif" font-size="14.00">E=1</text>
</g>
<!-- cf1f6745&#45;e89d&#45;4528&#45;9fd0&#45;1515d0cc9387&#45;&gt;8b501ca7&#45;c03d&#45;401b&#45;8047&#45;5b21c3c821e2 -->
<g id="edge16" class="edge">
<title>cf1f6745&#45;e89d&#45;4528&#45;9fd0&#45;1515d0cc9387&#45;&gt;8b501ca7&#45;c03d&#45;401b&#45;8047&#45;5b21c3c821e2</title>
<path fill="none" stroke="#74b9c3" d="M1126.53,-175.61C1174.96,-172.55 1241.56,-168.35 1291.86,-165.17"/>
<polygon fill="#74b9c3" stroke="#74b9c3" points="1292.25,-168.66 1302.01,-164.53 1291.81,-161.67 1292.25,-168.66"/>
<text text-anchor="middle" x="1200.69" y="-176.24" font-family="Times,serif" font-size="8.00" fill="#74b9c3">delivery EC=1</text>
</g>
<!-- c949ccad&#45;0f95&#45;40dc&#45;8ea5&#45;cca3bed80e4e -->
<g id="node8" class="node">
<title>c949ccad&#45;0f95&#45;40dc&#45;8ea5&#45;cca3bed80e4e</title>
<polygon fill="#9b9bff" stroke="black" points="1932.19,-203.64 1775.19,-203.64 1775.19,-165.64 1932.19,-165.64 1932.19,-203.64"/>
<text text-anchor="middle" x="1853.69" y="-188.44" font-family="Times,serif" font-size="14.00">Delivery Successful</text>
<text text-anchor="middle" x="1853.69" y="-173.44" font-family="Times,serif" font-size="14.00">E=3</text>
</g>
<!-- cf1f6745&#45;e89d&#45;4528&#45;9fd0&#45;1515d0cc9387&#45;&gt;c949ccad&#45;0f95&#45;40dc&#45;8ea5&#45;cca3bed80e4e -->
<g id="edge19" class="edge">
<title>cf1f6745&#45;e89d&#45;4528&#45;9fd0&#45;1515d0cc9387&#45;&gt;c949ccad&#45;0f95&#45;40dc&#45;8ea5&#45;cca3bed80e4e</title>
<path fill="none" stroke="#74b9c3" stroke-width="1.8" d="M1126.29,-184.88C1136.29,-185.57 1146.52,-186.19 1156.19,-186.64 1203.7,-188.86 1215.63,-188.2 1263.19,-188.64 1448.96,-190.38 1495.42,-189.86 1681.19,-188.64 1714.97,-188.42 1723.42,-188.39 1757.19,-187.64 1759.73,-187.58 1762.31,-187.52 1764.91,-187.46"/>
<polygon fill="#74b9c3" stroke="#74b9c3" stroke-width="1.8" points="1765.13,-190.95 1775.04,-187.2 1764.95,-183.96 1765.13,-190.95"/>
<text text-anchor="middle" x="1513.19" y="-193.24" font-family="Times,serif" font-size="8.00" fill="#74b9c3">delivery EC=2</text>
</g>
<!-- cf1f6745&#45;e89d&#45;4528&#45;9fd0&#45;1515d0cc9387&#45;&gt;84659fd9&#45;83a1&#45;407e&#45;ae65&#45;0d836ef08bc2 -->
<g id="edge28" class="edge">
<title>cf1f6745&#45;e89d&#45;4528&#45;9fd0&#45;1515d0cc9387&#45;&gt;84659fd9&#45;83a1&#45;407e&#45;ae65&#45;0d836ef08bc2</title>
<path fill="none" stroke="#079d5f" stroke-width="2.07" d="M1124.33,-160.6C1181.85,-142.82 1266.36,-116.71 1318.05,-100.74"/>
<polygon fill="#079d5f" stroke="#079d5f" stroke-width="2.07" points="1319.1,-104.08 1327.62,-97.78 1317.03,-97.39 1319.1,-104.08"/>
<text text-anchor="middle" x="1200.69" y="-152.24" font-family="Times,serif" font-size="8.00" fill="#079d5f">element EC=3</text>
</g>
<!-- 85e38c4a&#45;9929&#45;4ddf&#45;b842&#45;f555db375df7&#45;&gt;cf1f6745&#45;e89d&#45;4528&#45;9fd0&#45;1515d0cc9387 -->
<g id="edge14" class="edge">
<title>85e38c4a&#45;9929&#45;4ddf&#45;b842&#45;f555db375df7&#45;&gt;cf1f6745&#45;e89d&#45;4528&#45;9fd0&#45;1515d0cc9387</title>
<path fill="none" stroke="#079d5f" d="M838.6,-139.19C877.11,-143.16 924.87,-148.96 967.19,-156.64 973.71,-157.82 980.45,-159.19 987.19,-160.66"/>
<polygon fill="#079d5f" stroke="#079d5f" points="986.52,-164.1 997.04,-162.87 988.05,-157.27 986.52,-164.1"/>
<text text-anchor="middle" x="911.69" y="-159.24" font-family="Times,serif" font-size="8.00" fill="#079d5f">element EC=1</text>
</g>
<!-- 0b0fb8e6&#45;8775&#45;4b09&#45;896c&#45;b95cda24c6a3 -->
<g id="node7" class="node">
<title>0b0fb8e6&#45;8775&#45;4b09&#45;896c&#45;b95cda24c6a3</title>
<polygon fill="#ffffff" stroke="black" points="1681.19,-179.64 1560.19,-179.64 1560.19,-141.64 1681.19,-141.64 1681.19,-179.64"/>
<text text-anchor="middle" x="1620.69" y="-164.44" font-family="Times,serif" font-size="14.00">Retry Delivery</text>
<text text-anchor="middle" x="1620.69" y="-149.44" font-family="Times,serif" font-size="14.00">E=1</text>
</g>
<!-- 8b501ca7&#45;c03d&#45;401b&#45;8047&#45;5b21c3c821e2&#45;&gt;0b0fb8e6&#45;8775&#45;4b09&#45;896c&#45;b95cda24c6a3 -->
<g id="edge17" class="edge">
<title>8b501ca7&#45;c03d&#45;401b&#45;8047&#45;5b21c3c821e2&#45;&gt;0b0fb8e6&#45;8775&#45;4b09&#45;896c&#45;b95cda24c6a3</title>
<path fill="none" stroke="#74b9c3" d="M1427.5,-160.64C1464.44,-160.64 1511.46,-160.64 1549.75,-160.64"/>
<polygon fill="#74b9c3" stroke="#74b9c3" points="1549.8,-164.14 1559.8,-160.64 1549.8,-157.14 1549.8,-164.14"/>
<text text-anchor="middle" x="1513.19" y="-163.24" font-family="Times,serif" font-size="8.00" fill="#74b9c3">delivery EC=1</text>
</g>
<!-- 0b0fb8e6&#45;8775&#45;4b09&#45;896c&#45;b95cda24c6a3&#45;&gt;c949ccad&#45;0f95&#45;40dc&#45;8ea5&#45;cca3bed80e4e -->
<g id="edge18" class="edge">
<title>0b0fb8e6&#45;8775&#45;4b09&#45;896c&#45;b95cda24c6a3&#45;&gt;c949ccad&#45;0f95&#45;40dc&#45;8ea5&#45;cca3bed80e4e</title>
<path fill="none" stroke="#74b9c3" d="M1681.48,-166.85C1706.84,-169.49 1736.91,-172.61 1764.72,-175.5"/>
<polygon fill="#74b9c3" stroke="#74b9c3" points="1764.54,-179 1774.85,-176.55 1765.27,-172.04 1764.54,-179"/>
<text text-anchor="middle" x="1728.19" y="-177.24" font-family="Times,serif" font-size="8.00" fill="#74b9c3">delivery EC=1</text>
</g>
<!-- df85df99&#45;c745&#45;4b2e&#45;8b43&#45;5574d8086a0b -->
<g id="node19" class="node">
<title>df85df99&#45;c745&#45;4b2e&#45;8b43&#45;5574d8086a0b</title>
<polygon fill="none" stroke="transparent" points="2100.19,-202.64 2026.19,-202.64 2026.19,-166.64 2100.19,-166.64 2100.19,-202.64"/>
<polyline fill="none" stroke="black" points="2026.19,-166.64 2100.19,-166.64 "/>
<text text-anchor="middle" x="2063.19" y="-180.94" font-family="Times,serif" font-size="14.00" fill="#74b9c3">delivery</text>
</g>
<!-- c949ccad&#45;0f95&#45;40dc&#45;8ea5&#45;cca3bed80e4e&#45;&gt;df85df99&#45;c745&#45;4b2e&#45;8b43&#45;5574d8086a0b -->
<g id="edge24" class="edge">
<title>c949ccad&#45;0f95&#45;40dc&#45;8ea5&#45;cca3bed80e4e&#45;&gt;df85df99&#45;c745&#45;4b2e&#45;8b43&#45;5574d8086a0b</title>
<path fill="none" stroke="#74b9c3" stroke-width="2.6" d="M1932.25,-184.64C1960.45,-184.64 1991.42,-184.64 2016.05,-184.64"/>
<polygon fill="#74b9c3" stroke="#74b9c3" stroke-width="2.6" points="2016.18,-188.14 2026.18,-184.64 2016.18,-181.14 2016.18,-188.14"/>
<text text-anchor="middle" x="1979.19" y="-187.24" font-family="Times,serif" font-size="8.00" fill="#74b9c3">delivery EC=3</text>
</g>
<!-- 4fdbb349&#45;8fca&#45;4376&#45;9946&#45;4751d9c4fee0 -->
<g id="node10" class="node">
<title>4fdbb349&#45;8fca&#45;4376&#45;9946&#45;4751d9c4fee0</title>
<polygon fill="#ffffff" stroke="black" points="1245.19,-369.64 1156.19,-369.64 1156.19,-331.64 1245.19,-331.64 1245.19,-369.64"/>
<text text-anchor="middle" x="1200.69" y="-354.44" font-family="Times,serif" font-size="14.00">Pay Order</text>
<text text-anchor="middle" x="1200.69" y="-339.44" font-family="Times,serif" font-size="14.00">E=1</text>
</g>
<!-- b7a4dfa0&#45;4468&#45;423a&#45;ba07&#45;ed02983d443a&#45;&gt;4fdbb349&#45;8fca&#45;4376&#45;9946&#45;4751d9c4fee0 -->
<g id="edge3" class="edge">
<title>b7a4dfa0&#45;4468&#45;423a&#45;ba07&#45;ed02983d443a&#45;&gt;4fdbb349&#45;8fca&#45;4376&#45;9946&#45;4751d9c4fee0</title>
<path fill="none" stroke="#32f8ce" d="M816.45,-374.88C829.42,-373.75 843.31,-372.6 856.19,-371.64 958.63,-364.03 1078.4,-357.17 1146.02,-353.49"/>
<polygon fill="#32f8ce" stroke="#32f8ce" points="1146.22,-356.98 1156.02,-352.94 1145.84,-349.99 1146.22,-356.98"/>
<text text-anchor="middle" x="911.69" y="-374.24" font-family="Times,serif" font-size="8.00" fill="#32f8ce">order EC=1</text>
</g>
<!-- fc0629ba&#45;80ee&#45;4b8d&#45;a5b8&#45;43fea7226d34 -->
<g id="node14" class="node">
<title>fc0629ba&#45;80ee&#45;4b8d&#45;a5b8&#45;43fea7226d34</title>
<polygon fill="#cdcdff" stroke="black" points="1138.19,-416.64 985.19,-416.64 985.19,-378.64 1138.19,-378.64 1138.19,-416.64"/>
<text text-anchor="middle" x="1061.69" y="-401.44" font-family="Times,serif" font-size="14.00">Payment Reminder</text>
<text text-anchor="middle" x="1061.69" y="-386.44" font-family="Times,serif" font-size="14.00">E=2</text>
</g>
<!-- b7a4dfa0&#45;4468&#45;423a&#45;ba07&#45;ed02983d443a&#45;&gt;fc0629ba&#45;80ee&#45;4b8d&#45;a5b8&#45;43fea7226d34 -->
<g id="edge7" class="edge">
<title>b7a4dfa0&#45;4468&#45;423a&#45;ba07&#45;ed02983d443a&#45;&gt;fc0629ba&#45;80ee&#45;4b8d&#45;a5b8&#45;43fea7226d34</title>
<path fill="none" stroke="#32f8ce" d="M816.25,-382.78C859.96,-385.43 923.56,-389.3 974.92,-392.42"/>
<polygon fill="#32f8ce" stroke="#32f8ce" points="974.83,-395.93 985.02,-393.04 975.25,-388.94 974.83,-395.93"/>
<text text-anchor="middle" x="911.69" y="-394.24" font-family="Times,serif" font-size="8.00" fill="#32f8ce">order EC=1</text>
</g>
<!-- 441c4ad0&#45;1b05&#45;481c&#45;83be&#45;190b2dc98209 -->
<g id="node20" class="node">
<title>441c4ad0&#45;1b05&#45;481c&#45;83be&#45;190b2dc98209</title>
<polygon fill="none" stroke="transparent" points="1648.69,-368.64 1592.69,-368.64 1592.69,-332.64 1648.69,-332.64 1648.69,-368.64"/>
<polyline fill="none" stroke="black" points="1592.69,-332.64 1648.69,-332.64 "/>
<text text-anchor="middle" x="1620.69" y="-346.94" font-family="Times,serif" font-size="14.00" fill="#32f8ce">order</text>
</g>
<!-- 4fdbb349&#45;8fca&#45;4376&#45;9946&#45;4751d9c4fee0&#45;&gt;441c4ad0&#45;1b05&#45;481c&#45;83be&#45;190b2dc98209 -->
<g id="edge25" class="edge">
<title>4fdbb349&#45;8fca&#45;4376&#45;9946&#45;4751d9c4fee0&#45;&gt;441c4ad0&#45;1b05&#45;481c&#45;83be&#45;190b2dc98209</title>
<path fill="none" stroke="#32f8ce" d="M1245.24,-350.64C1327.62,-350.64 1504.93,-350.64 1582.3,-350.64"/>
<polygon fill="#32f8ce" stroke="#32f8ce" points="1582.54,-354.14 1592.54,-350.64 1582.54,-347.14 1582.54,-354.14"/>
<text text-anchor="middle" x="1364.69" y="-353.24" font-family="Times,serif" font-size="8.00" fill="#32f8ce">order EC=1</text>
</g>
<!-- 8d6589ab&#45;a03c&#45;4003&#45;a8ca&#45;e92c385b887b&#45;&gt;84659fd9&#45;83a1&#45;407e&#45;ae65&#45;0d836ef08bc2 -->
<g id="edge29" class="edge">
<title>8d6589ab&#45;a03c&#45;4003&#45;a8ca&#45;e92c385b887b&#45;&gt;84659fd9&#45;83a1&#45;407e&#45;ae65&#45;0d836ef08bc2</title>
<path fill="none" stroke="#079d5f" d="M967.46,-47.9C1033.4,-53.15 1147.49,-62.61 1245.19,-72.64 1269.12,-75.1 1295.72,-78.2 1317.64,-80.87"/>
<polygon fill="#079d5f" stroke="#079d5f" points="1317.33,-84.36 1327.68,-82.1 1318.18,-77.41 1317.33,-84.36"/>
<text text-anchor="middle" x="1061.69" y="-65.24" font-family="Times,serif" font-size="8.00" fill="#079d5f">element EC=1</text>
</g>
<!-- 145478ca&#45;841a&#45;49dc&#45;b4e2&#45;06a764cac23d&#45;&gt;441c4ad0&#45;1b05&#45;481c&#45;83be&#45;190b2dc98209 -->
<g id="edge26" class="edge">
<title>145478ca&#45;841a&#45;49dc&#45;b4e2&#45;06a764cac23d&#45;&gt;441c4ad0&#45;1b05&#45;481c&#45;83be&#45;190b2dc98209</title>
<path fill="none" stroke="#32f8ce" d="M671.34,-256.88C730.31,-263.07 827.03,-271.64 910.69,-271.64 910.69,-271.64 910.69,-271.64 1365.69,-271.64 1446.22,-271.64 1534.89,-308.29 1583.25,-331.67"/>
<polygon fill="#32f8ce" stroke="#32f8ce" points="1581.85,-334.88 1592.37,-336.15 1584.94,-328.6 1581.85,-334.88"/>
<text text-anchor="middle" x="1061.69" y="-274.24" font-family="Times,serif" font-size="8.00" fill="#32f8ce">order EC=1</text>
</g>
<!-- f99d4e8c&#45;09c9&#45;4251&#45;8f9c&#45;ff7795d6cc8a&#45;&gt;cf1f6745&#45;e89d&#45;4528&#45;9fd0&#45;1515d0cc9387 -->
<g id="edge15" class="edge">
<title>f99d4e8c&#45;09c9&#45;4251&#45;8f9c&#45;ff7795d6cc8a&#45;&gt;cf1f6745&#45;e89d&#45;4528&#45;9fd0&#45;1515d0cc9387</title>
<path fill="none" stroke="#079d5f" d="M542.28,-308.48C640.74,-298.57 821.1,-274.87 967.19,-224.64 983.84,-218.92 1001.4,-211.01 1016.75,-203.41"/>
<polygon fill="#079d5f" stroke="#079d5f" points="1018.65,-206.38 1026,-198.75 1015.49,-200.13 1018.65,-206.38"/>
<text text-anchor="middle" x="763.69" y="-291.24" font-family="Times,serif" font-size="8.00" fill="#079d5f">element EC=1</text>
</g>
<!-- f99d4e8c&#45;09c9&#45;4251&#45;8f9c&#45;ff7795d6cc8a&#45;&gt;b7a4dfa0&#45;4468&#45;423a&#45;ba07&#45;ed02983d443a -->
<g id="edge6" class="edge">
<title>f99d4e8c&#45;09c9&#45;4251&#45;8f9c&#45;ff7795d6cc8a&#45;&gt;b7a4dfa0&#45;4468&#45;423a&#45;ba07&#45;ed02983d443a</title>
<path fill="none" stroke="#32f8ce" d="M542.49,-330.79C591.29,-341.61 654.82,-355.71 701.1,-365.98"/>
<polygon fill="#32f8ce" stroke="#32f8ce" points="700.47,-369.42 710.99,-368.17 701.99,-362.59 700.47,-369.42"/>
<text text-anchor="middle" x="615.69" y="-360.24" font-family="Times,serif" font-size="8.00" fill="#32f8ce">order EC=1</text>
</g>
<!-- fc0629ba&#45;80ee&#45;4b8d&#45;a5b8&#45;43fea7226d34&#45;&gt;fc0629ba&#45;80ee&#45;4b8d&#45;a5b8&#45;43fea7226d34 -->
<g id="edge8" class="edge">
<title>fc0629ba&#45;80ee&#45;4b8d&#45;a5b8&#45;43fea7226d34&#45;&gt;fc0629ba&#45;80ee&#45;4b8d&#45;a5b8&#45;43fea7226d34</title>
<path fill="none" stroke="#32f8ce" d="M1036.58,-416.68C1033.11,-426.17 1041.48,-434.64 1061.69,-434.64 1074.01,-434.64 1081.93,-431.5 1085.45,-426.89"/>
<polygon fill="#32f8ce" stroke="#32f8ce" points="1088.96,-427.05 1086.8,-416.68 1082.02,-426.13 1088.96,-427.05"/>
<text text-anchor="middle" x="1061.69" y="-437.24" font-family="Times,serif" font-size="8.00" fill="#32f8ce">order EC=1</text>
</g>
<!-- c1b6891a&#45;0fa1&#45;4719&#45;a427&#45;f3d10bb20340 -->
<g id="node15" class="node">
<title>c1b6891a&#45;0fa1&#45;4719&#45;a427&#45;f3d10bb20340</title>
<polygon fill="#ffffff" stroke="black" points="1466.19,-415.64 1263.19,-415.64 1263.19,-377.64 1466.19,-377.64 1466.19,-415.64"/>
<text text-anchor="middle" x="1364.69" y="-400.44" font-family="Times,serif" font-size="14.00">Send for Credit Collection</text>
<text text-anchor="middle" x="1364.69" y="-385.44" font-family="Times,serif" font-size="14.00">E=1</text>
</g>
<!-- fc0629ba&#45;80ee&#45;4b8d&#45;a5b8&#45;43fea7226d34&#45;&gt;c1b6891a&#45;0fa1&#45;4719&#45;a427&#45;f3d10bb20340 -->
<g id="edge9" class="edge">
<title>fc0629ba&#45;80ee&#45;4b8d&#45;a5b8&#45;43fea7226d34&#45;&gt;c1b6891a&#45;0fa1&#45;4719&#45;a427&#45;f3d10bb20340</title>
<path fill="none" stroke="#32f8ce" d="M1138.26,-397.39C1172.95,-397.27 1214.77,-397.13 1252.92,-397.01"/>
<polygon fill="#32f8ce" stroke="#32f8ce" points="1253.06,-400.51 1263.05,-396.97 1253.04,-393.51 1253.06,-400.51"/>
<text text-anchor="middle" x="1200.69" y="-399.24" font-family="Times,serif" font-size="8.00" fill="#32f8ce">order EC=1</text>
</g>
<!-- c1b6891a&#45;0fa1&#45;4719&#45;a427&#45;f3d10bb20340&#45;&gt;441c4ad0&#45;1b05&#45;481c&#45;83be&#45;190b2dc98209 -->
<g id="edge27" class="edge">
<title>c1b6891a&#45;0fa1&#45;4719&#45;a427&#45;f3d10bb20340&#45;&gt;441c4ad0&#45;1b05&#45;481c&#45;83be&#45;190b2dc98209</title>
<path fill="none" stroke="#32f8ce" d="M1466.44,-378.39C1507.21,-371.01 1551.74,-362.95 1582.24,-357.42"/>
<polygon fill="#32f8ce" stroke="#32f8ce" points="1583.2,-360.81 1592.42,-355.58 1581.95,-353.92 1583.2,-360.81"/>
<text text-anchor="middle" x="1513.19" y="-377.24" font-family="Times,serif" font-size="8.00" fill="#32f8ce">order EC=1</text>
</g>
<!-- c5dc43ca&#45;403a&#45;4d69&#45;bb26&#45;7436c77d7030 -->
<g id="node16" class="node">
<title>c5dc43ca&#45;403a&#45;4d69&#45;bb26&#45;7436c77d7030</title>
<ellipse fill="#74b9c3" stroke="black" cx="763.69" cy="-225.64" rx="48.19" ry="18"/>
<text text-anchor="middle" x="763.69" y="-221.94" font-family="Times,serif" font-size="14.00">delivery</text>
</g>
<!-- c5dc43ca&#45;403a&#45;4d69&#45;bb26&#45;7436c77d7030&#45;&gt;cf1f6745&#45;e89d&#45;4528&#45;9fd0&#45;1515d0cc9387 -->
<g id="edge20" class="edge">
<title>c5dc43ca&#45;403a&#45;4d69&#45;bb26&#45;7436c77d7030&#45;&gt;cf1f6745&#45;e89d&#45;4528&#45;9fd0&#45;1515d0cc9387</title>
<path fill="none" stroke="#74b9c3" stroke-width="2.6" d="M808.37,-218.85C855.4,-211.54 931.02,-199.79 987.23,-191.06"/>
<polygon fill="#74b9c3" stroke="#74b9c3" stroke-width="2.6" points="987.79,-194.51 997.14,-189.52 986.72,-187.59 987.79,-194.51"/>
<text text-anchor="middle" x="911.69" y="-214.24" font-family="Times,serif" font-size="8.00" fill="#74b9c3">delivery EC=3</text>
</g>
<!-- 1d809158&#45;0111&#45;49c7&#45;b6b3&#45;cdf8a0da4c53 -->
<g id="node17" class="node">
<title>1d809158&#45;0111&#45;49c7&#45;b6b3&#45;cdf8a0da4c53</title>
<ellipse fill="#32f8ce" stroke="black" cx="48.1" cy="-195.64" rx="36.29" ry="18"/>
<text text-anchor="middle" x="48.1" y="-191.94" font-family="Times,serif" font-size="14.00">order</text>
</g>
<!-- 1d809158&#45;0111&#45;49c7&#45;b6b3&#45;cdf8a0da4c53&#45;&gt;32ffbcc6&#45;6d52&#45;4268&#45;bab1&#45;86186d211307 -->
<g id="edge21" class="edge">
<title>1d809158&#45;0111&#45;49c7&#45;b6b3&#45;cdf8a0da4c53&#45;&gt;32ffbcc6&#45;6d52&#45;4268&#45;bab1&#45;86186d211307</title>
<path fill="none" stroke="#32f8ce" stroke-width="2.6" d="M84.52,-195.64C111.04,-195.64 148.07,-195.64 179.84,-195.64"/>
<polygon fill="#32f8ce" stroke="#32f8ce" stroke-width="2.6" points="179.95,-199.14 189.95,-195.64 179.95,-192.14 179.95,-199.14"/>
<text text-anchor="middle" x="143.19" y="-198.24" font-family="Times,serif" font-size="8.00" fill="#32f8ce">order EC=3</text>
</g>
<!-- 6c5bb4cf&#45;07f7&#45;40c7&#45;b46c&#45;2d0565b44eb0 -->
<g id="node18" class="node">
<title>6c5bb4cf&#45;07f7&#45;40c7&#45;b46c&#45;2d0565b44eb0</title>
<ellipse fill="#079d5f" stroke="black" cx="48.1" cy="-278.64" rx="48.19" ry="18"/>
<text text-anchor="middle" x="48.1" y="-274.94" font-family="Times,serif" font-size="14.00">element</text>
</g>
<!-- 6c5bb4cf&#45;07f7&#45;40c7&#45;b46c&#45;2d0565b44eb0&#45;&gt;32ffbcc6&#45;6d52&#45;4268&#45;bab1&#45;86186d211307 -->
<g id="edge22" class="edge">
<title>6c5bb4cf&#45;07f7&#45;40c7&#45;b46c&#45;2d0565b44eb0&#45;&gt;32ffbcc6&#45;6d52&#45;4268&#45;bab1&#45;86186d211307</title>
<path fill="none" stroke="#079d5f" stroke-width="2.07" d="M80.52,-265.3C110.16,-252.73 155.2,-233.61 190.61,-218.59"/>
<polygon fill="#079d5f" stroke="#079d5f" stroke-width="2.07" points="192.02,-221.79 199.86,-214.66 189.29,-215.35 192.02,-221.79"/>
<text text-anchor="middle" x="143.19" y="-252.24" font-family="Times,serif" font-size="8.00" fill="#079d5f">element EC=3</text>
</g>
<!-- 6c5bb4cf&#45;07f7&#45;40c7&#45;b46c&#45;2d0565b44eb0&#45;&gt;f99d4e8c&#45;09c9&#45;4251&#45;8f9c&#45;ff7795d6cc8a -->
<g id="edge23" class="edge">
<title>6c5bb4cf&#45;07f7&#45;40c7&#45;b46c&#45;2d0565b44eb0&#45;&gt;f99d4e8c&#45;09c9&#45;4251&#45;8f9c&#45;ff7795d6cc8a</title>
<path fill="none" stroke="#079d5f" d="M95.09,-282.6C164.75,-288.59 298.09,-300.05 384.91,-307.52"/>
<polygon fill="#079d5f" stroke="#079d5f" points="384.74,-311.02 395,-308.39 385.34,-304.04 384.74,-311.02"/>
<text text-anchor="middle" x="245.69" y="-302.24" font-family="Times,serif" font-size="8.00" fill="#079d5f">element EC=1</text>
</g>
</g>
</svg>
