<?xml version="1.0" encoding="UTF-8" standalone="no"?>
<!DOCTYPE svg PUBLIC "-//W3C//DTD SVG 1.1//EN"
 "http://www.w3.org/Graphics/SVG/1.1/DTD/svg11.dtd">
<!-- Generated by graphviz version 2.43.0 (0)
 -->
<!-- Title: ocdfg Pages: 1 -->
<svg width="2015pt" height="342pt"
 viewBox="0.00 0.00 2015.19 342.05" xmlns="http://www.w3.org/2000/svg" xmlns:xlink="http://www.w3.org/1999/xlink">
<g id="graph0" class="graph" transform="scale(1 1) rotate(0) translate(4 338.05)">
<title>ocdfg</title>
<polygon fill="white" stroke="transparent" points="-4,4 -4,-338.05 2011.19,-338.05 2011.19,4 -4,4"/>
<!-- fe78947e&#45;d27d&#45;438c&#45;a839&#45;d73c8f5b83d9 -->
<g id="node1" class="node">
<title>fe78947e&#45;d27d&#45;438c&#45;a839&#45;d73c8f5b83d9</title>
<polygon fill="none" stroke="black" points="244.19,-188.05 133.19,-188.05 133.19,-152.05 244.19,-152.05 244.19,-188.05"/>
<text text-anchor="middle" x="188.69" y="-166.35" font-family="Times,serif" font-size="14.00">Create Order</text>
</g>
<!-- e1de0598&#45;694f&#45;4f40&#45;9e06&#45;7f2be7842a47 -->
<g id="node2" class="node">
<title>e1de0598&#45;694f&#45;4f40&#45;9e06&#45;7f2be7842a47</title>
<polygon fill="none" stroke="black" points="478.69,-212.05 358.69,-212.05 358.69,-176.05 478.69,-176.05 478.69,-212.05"/>
<text text-anchor="middle" x="418.69" y="-190.35" font-family="Times,serif" font-size="14.00">Confirm Order</text>
</g>
<!-- fe78947e&#45;d27d&#45;438c&#45;a839&#45;d73c8f5b83d9&#45;&gt;e1de0598&#45;694f&#45;4f40&#45;9e06&#45;7f2be7842a47 -->
<g id="edge1" class="edge">
<title>fe78947e&#45;d27d&#45;438c&#45;a839&#45;d73c8f5b83d9&#45;&gt;e1de0598&#45;694f&#45;4f40&#45;9e06&#45;7f2be7842a47</title>
<path fill="none" stroke="#7bb866" d="M244.3,-175.8C275.46,-179.08 314.84,-183.22 348.19,-186.73"/>
<polygon fill="#7bb866" stroke="#7bb866" points="348.02,-190.23 358.33,-187.8 348.75,-183.27 348.02,-190.23"/>
<text text-anchor="middle" x="294.69" y="-186.65" font-family="Times,serif" font-size="8.00" fill="#7bb866">order EC=1D</text>
</g>
<!-- 7de96ecf&#45;8043&#45;43ea&#45;a6ea&#45;3d0d36ed3421 -->
<g id="node3" class="node">
<title>7de96ecf&#45;8043&#45;43ea&#45;a6ea&#45;3d0d36ed3421</title>
<polygon fill="none" stroke="black" points="488.69,-158.05 348.69,-158.05 348.69,-122.05 488.69,-122.05 488.69,-158.05"/>
<text text-anchor="middle" x="418.69" y="-136.35" font-family="Times,serif" font-size="14.00">Item out of Stock</text>
</g>
<!-- fe78947e&#45;d27d&#45;438c&#45;a839&#45;d73c8f5b83d9&#45;&gt;7de96ecf&#45;8043&#45;43ea&#45;a6ea&#45;3d0d36ed3421 -->
<g id="edge10" class="edge">
<title>fe78947e&#45;d27d&#45;438c&#45;a839&#45;d73c8f5b83d9&#45;&gt;7de96ecf&#45;8043&#45;43ea&#45;a6ea&#45;3d0d36ed3421</title>
<path fill="none" stroke="#8dd4ca" d="M244.3,-162.86C272.48,-159.15 307.36,-154.56 338.44,-150.47"/>
<polygon fill="#8dd4ca" stroke="#8dd4ca" points="338.93,-153.94 348.39,-149.17 338.01,-147 338.93,-153.94"/>
<text text-anchor="middle" x="294.69" y="-162.65" font-family="Times,serif" font-size="8.00" fill="#8dd4ca">element EC=2D</text>
</g>
<!-- 7b9931b3&#45;764b&#45;453f&#45;b146&#45;505ad178fa66 -->
<g id="node4" class="node">
<title>7b9931b3&#45;764b&#45;453f&#45;b146&#45;505ad178fa66</title>
<polygon fill="none" stroke="black" points="1076.19,-92.05 947.19,-92.05 947.19,-56.05 1076.19,-56.05 1076.19,-92.05"/>
<text text-anchor="middle" x="1011.69" y="-70.35" font-family="Times,serif" font-size="14.00">Create Delivery</text>
</g>
<!-- fe78947e&#45;d27d&#45;438c&#45;a839&#45;d73c8f5b83d9&#45;&gt;7b9931b3&#45;764b&#45;453f&#45;b146&#45;505ad178fa66 -->
<g id="edge11" class="edge">
<title>fe78947e&#45;d27d&#45;438c&#45;a839&#45;d73c8f5b83d9&#45;&gt;7b9931b3&#45;764b&#45;453f&#45;b146&#45;505ad178fa66</title>
<path fill="none" stroke="#8dd4ca" d="M203.02,-151.93C227.19,-120.83 281.68,-58.48 345.19,-36.05 552.63,37.23 818.96,-19.28 942.34,-53.22"/>
<polygon fill="#8dd4ca" stroke="#8dd4ca" points="941.47,-56.61 952.04,-55.93 943.35,-49.87 941.47,-56.61"/>
<text text-anchor="middle" x="565.69" y="-5.65" font-family="Times,serif" font-size="8.00" fill="#8dd4ca">element EC=3D</text>
</g>
<!-- ef07e9da&#45;4824&#45;4124&#45;b4ba&#45;b753679d779b -->
<g id="node11" class="node">
<title>ef07e9da&#45;4824&#45;4124&#45;b4ba&#45;b753679d779b</title>
<polygon fill="none" stroke="black" points="917.19,-314.05 806.19,-314.05 806.19,-278.05 917.19,-278.05 917.19,-314.05"/>
<text text-anchor="middle" x="861.69" y="-292.35" font-family="Times,serif" font-size="14.00">Remove Item</text>
</g>
<!-- fe78947e&#45;d27d&#45;438c&#45;a839&#45;d73c8f5b83d9&#45;&gt;ef07e9da&#45;4824&#45;4124&#45;b4ba&#45;b753679d779b -->
<g id="edge13" class="edge">
<title>fe78947e&#45;d27d&#45;438c&#45;a839&#45;d73c8f5b83d9&#45;&gt;ef07e9da&#45;4824&#45;4124&#45;b4ba&#45;b753679d779b</title>
<path fill="none" stroke="#8dd4ca" d="M207.09,-188.23C220.83,-201.52 241.13,-218.92 262.19,-229.05 296.21,-245.41 308.26,-239.24 345.19,-247.05 418.45,-262.54 435.88,-271.86 510.19,-281.05 609.43,-293.31 725.54,-296.02 796.06,-296.38"/>
<polygon fill="#8dd4ca" stroke="#8dd4ca" points="796.12,-299.88 806.13,-296.41 796.14,-292.88 796.12,-299.88"/>
<text text-anchor="middle" x="418.69" y="-280.65" font-family="Times,serif" font-size="8.00" fill="#8dd4ca">element EC=1D</text>
</g>
<!-- beba9656&#45;5db2&#45;4b28&#45;a3a4&#45;aa1c0869995e -->
<g id="node12" class="node">
<title>beba9656&#45;5db2&#45;4b28&#45;a3a4&#45;aa1c0869995e</title>
<polygon fill="none" stroke="black" points="621.19,-272.05 510.19,-272.05 510.19,-236.05 621.19,-236.05 621.19,-272.05"/>
<text text-anchor="middle" x="565.69" y="-250.35" font-family="Times,serif" font-size="14.00">Cancel Order</text>
</g>
<!-- fe78947e&#45;d27d&#45;438c&#45;a839&#45;d73c8f5b83d9&#45;&gt;beba9656&#45;5db2&#45;4b28&#45;a3a4&#45;aa1c0869995e -->
<g id="edge4" class="edge">
<title>fe78947e&#45;d27d&#45;438c&#45;a839&#45;d73c8f5b83d9&#45;&gt;beba9656&#45;5db2&#45;4b28&#45;a3a4&#45;aa1c0869995e</title>
<path fill="none" stroke="#7bb866" d="M236.7,-188.14C245.15,-191.22 253.9,-194.31 262.19,-197.05 298.65,-209.09 307.68,-212.84 345.19,-221.05 396.71,-232.32 455.87,-240.97 499.78,-246.58"/>
<polygon fill="#7bb866" stroke="#7bb866" points="499.39,-250.06 509.75,-247.83 500.27,-243.11 499.39,-250.06"/>
<text text-anchor="middle" x="294.69" y="-218.65" font-family="Times,serif" font-size="8.00" fill="#7bb866">order EC=2D</text>
</g>
<!-- 60fffb2f&#45;d39d&#45;4885&#45;aea1&#45;d86a00e472d6 -->
<g id="node13" class="node">
<title>60fffb2f&#45;d39d&#45;4885&#45;aea1&#45;d86a00e472d6</title>
<polygon fill="none" stroke="black" points="492.19,-81.05 345.19,-81.05 345.19,-45.05 492.19,-45.05 492.19,-81.05"/>
<text text-anchor="middle" x="418.69" y="-59.35" font-family="Times,serif" font-size="14.00">Add Item to Order</text>
</g>
<!-- fe78947e&#45;d27d&#45;438c&#45;a839&#45;d73c8f5b83d9&#45;&gt;60fffb2f&#45;d39d&#45;4885&#45;aea1&#45;d86a00e472d6 -->
<g id="edge5" class="edge">
<title>fe78947e&#45;d27d&#45;438c&#45;a839&#45;d73c8f5b83d9&#45;&gt;60fffb2f&#45;d39d&#45;4885&#45;aea1&#45;d86a00e472d6</title>
<path fill="none" stroke="#7bb866" d="M228.11,-152.02C267.16,-133.69 327.76,-105.25 369.89,-85.48"/>
<polygon fill="#7bb866" stroke="#7bb866" points="371.55,-88.57 379.11,-81.15 368.58,-82.23 371.55,-88.57"/>
<text text-anchor="middle" x="294.69" y="-137.65" font-family="Times,serif" font-size="8.00" fill="#7bb866">order EC=1D</text>
</g>
<!-- 86ceb285&#45;b6fc&#45;453a&#45;bc5f&#45;eae6bae8aed7 -->
<g id="node19" class="node">
<title>86ceb285&#45;b6fc&#45;453a&#45;bc5f&#45;eae6bae8aed7</title>
<polygon fill="none" stroke="transparent" points="1351.69,-322.05 1277.69,-322.05 1277.69,-286.05 1351.69,-286.05 1351.69,-322.05"/>
<polyline fill="none" stroke="black" points="1277.69,-286.05 1351.69,-286.05 "/>
<text text-anchor="middle" x="1314.69" y="-300.35" font-family="Times,serif" font-size="14.00" fill="#8dd4ca">element</text>
</g>
<!-- fe78947e&#45;d27d&#45;438c&#45;a839&#45;d73c8f5b83d9&#45;&gt;86ceb285&#45;b6fc&#45;453a&#45;bc5f&#45;eae6bae8aed7 -->
<g id="edge26" class="edge">
<title>fe78947e&#45;d27d&#45;438c&#45;a839&#45;d73c8f5b83d9&#45;&gt;86ceb285&#45;b6fc&#45;453a&#45;bc5f&#45;eae6bae8aed7</title>
<path fill="none" stroke="#8dd4ca" d="M202.23,-188.22C233.34,-230.92 318.71,-334.05 417.69,-334.05 417.69,-334.05 417.69,-334.05 1012.69,-334.05 1103.35,-334.05 1208.62,-320.4 1267.56,-311.52"/>
<polygon fill="#8dd4ca" stroke="#8dd4ca" points="1268.31,-314.95 1277.67,-309.97 1267.25,-308.03 1268.31,-314.95"/>
</g>
<!-- a071e0a2&#45;9e53&#45;4e2e&#45;bceb&#45;5892f57cd957 -->
<g id="node9" class="node">
<title>a071e0a2&#45;9e53&#45;4e2e&#45;bceb&#45;5892f57cd957</title>
<polygon fill="none" stroke="black" points="766.19,-212.05 661.19,-212.05 661.19,-176.05 766.19,-176.05 766.19,-212.05"/>
<text text-anchor="middle" x="713.69" y="-190.35" font-family="Times,serif" font-size="14.00">Invoice Sent</text>
</g>
<!-- e1de0598&#45;694f&#45;4f40&#45;9e06&#45;7f2be7842a47&#45;&gt;a071e0a2&#45;9e53&#45;4e2e&#45;bceb&#45;5892f57cd957 -->
<g id="edge2" class="edge">
<title>e1de0598&#45;694f&#45;4f40&#45;9e06&#45;7f2be7842a47&#45;&gt;a071e0a2&#45;9e53&#45;4e2e&#45;bceb&#45;5892f57cd957</title>
<path fill="none" stroke="#7bb866" d="M478.98,-194.05C528.89,-194.05 600.02,-194.05 650.68,-194.05"/>
<polygon fill="#7bb866" stroke="#7bb866" points="650.84,-197.55 660.84,-194.05 650.84,-190.55 650.84,-197.55"/>
<text text-anchor="middle" x="565.69" y="-196.65" font-family="Times,serif" font-size="8.00" fill="#7bb866">order EC=9D</text>
</g>
<!-- b4562570&#45;68a5&#45;410d&#45;9b4e&#45;3c8fd83b4d84 -->
<g id="node5" class="node">
<title>b4562570&#45;68a5&#45;410d&#45;9b4e&#45;3c8fd83b4d84</title>
<polygon fill="none" stroke="black" points="788.19,-158.05 639.19,-158.05 639.19,-122.05 788.19,-122.05 788.19,-158.05"/>
<text text-anchor="middle" x="713.69" y="-136.35" font-family="Times,serif" font-size="14.00">Item back in Stock</text>
</g>
<!-- 7de96ecf&#45;8043&#45;43ea&#45;a6ea&#45;3d0d36ed3421&#45;&gt;b4562570&#45;68a5&#45;410d&#45;9b4e&#45;3c8fd83b4d84 -->
<g id="edge12" class="edge">
<title>7de96ecf&#45;8043&#45;43ea&#45;a6ea&#45;3d0d36ed3421&#45;&gt;b4562570&#45;68a5&#45;410d&#45;9b4e&#45;3c8fd83b4d84</title>
<path fill="none" stroke="#8dd4ca" d="M488.76,-140.05C530.67,-140.05 584.44,-140.05 628.79,-140.05"/>
<polygon fill="#8dd4ca" stroke="#8dd4ca" points="628.97,-143.55 638.97,-140.05 628.97,-136.55 628.97,-143.55"/>
<text text-anchor="middle" x="565.69" y="-142.65" font-family="Times,serif" font-size="8.00" fill="#8dd4ca">element EC=2D</text>
</g>
<!-- d20c9f50&#45;3e0c&#45;49b7&#45;9e1a&#45;22300ec1eef2 -->
<g id="node6" class="node">
<title>d20c9f50&#45;3e0c&#45;49b7&#45;9e1a&#45;22300ec1eef2</title>
<polygon fill="none" stroke="black" points="1377.19,-60.05 1252.19,-60.05 1252.19,-24.05 1377.19,-24.05 1377.19,-60.05"/>
<text text-anchor="middle" x="1314.69" y="-38.35" font-family="Times,serif" font-size="14.00">Delivery Failed</text>
</g>
<!-- 7b9931b3&#45;764b&#45;453f&#45;b146&#45;505ad178fa66&#45;&gt;d20c9f50&#45;3e0c&#45;49b7&#45;9e1a&#45;22300ec1eef2 -->
<g id="edge16" class="edge">
<title>7b9931b3&#45;764b&#45;453f&#45;b146&#45;505ad178fa66&#45;&gt;d20c9f50&#45;3e0c&#45;49b7&#45;9e1a&#45;22300ec1eef2</title>
<path fill="none" stroke="#813857" d="M1076.53,-67.26C1124.96,-62.11 1191.56,-55.03 1241.86,-49.68"/>
<polygon fill="#813857" stroke="#813857" points="1242.43,-53.14 1252.01,-48.61 1241.69,-46.18 1242.43,-53.14"/>
<text text-anchor="middle" x="1150.69" y="-66.65" font-family="Times,serif" font-size="8.00" fill="#813857">delivery EC=4D</text>
</g>
<!-- 3c5b3ebb&#45;a7c7&#45;4ac2&#45;ae98&#45;8c406fdd618f -->
<g id="node8" class="node">
<title>3c5b3ebb&#45;a7c7&#45;4ac2&#45;ae98&#45;8c406fdd618f</title>
<polygon fill="none" stroke="black" points="1896.19,-83.05 1739.19,-83.05 1739.19,-47.05 1896.19,-47.05 1896.19,-83.05"/>
<text text-anchor="middle" x="1817.69" y="-61.35" font-family="Times,serif" font-size="14.00">Delivery Successful</text>
</g>
<!-- 7b9931b3&#45;764b&#45;453f&#45;b146&#45;505ad178fa66&#45;&gt;3c5b3ebb&#45;a7c7&#45;4ac2&#45;ae98&#45;8c406fdd618f -->
<g id="edge19" class="edge">
<title>7b9931b3&#45;764b&#45;453f&#45;b146&#45;505ad178fa66&#45;&gt;3c5b3ebb&#45;a7c7&#45;4ac2&#45;ae98&#45;8c406fdd618f</title>
<path fill="none" stroke="#813857" d="M1076.46,-74.2C1111.5,-74.24 1155.75,-74.23 1195.19,-74.05 1428.98,-72.94 1487.48,-75.05 1721.19,-69.05 1723.73,-68.98 1726.31,-68.91 1728.91,-68.83"/>
<polygon fill="#813857" stroke="#813857" points="1729.16,-72.33 1739.04,-68.51 1728.93,-65.33 1729.16,-72.33"/>
<text text-anchor="middle" x="1466.69" y="-76.65" font-family="Times,serif" font-size="8.00" fill="#813857">delivery EC=1D</text>
</g>
<!-- 7b9931b3&#45;764b&#45;453f&#45;b146&#45;505ad178fa66&#45;&gt;86ceb285&#45;b6fc&#45;453a&#45;bc5f&#45;eae6bae8aed7 -->
<g id="edge24" class="edge">
<title>7b9931b3&#45;764b&#45;453f&#45;b146&#45;505ad178fa66&#45;&gt;86ceb285&#45;b6fc&#45;453a&#45;bc5f&#45;eae6bae8aed7</title>
<path fill="none" stroke="#8dd4ca" stroke-width="2.07" d="M1032.22,-92.33C1048.66,-108.47 1072.03,-133.24 1088.19,-158.05 1098.83,-174.38 1092.75,-183.93 1106.19,-198.05 1151.14,-245.28 1221.74,-275.05 1267.87,-290.63"/>
<polygon fill="#8dd4ca" stroke="#8dd4ca" stroke-width="2.07" points="1267.02,-294.03 1277.61,-293.83 1269.21,-287.38 1267.02,-294.03"/>
</g>
<!-- b4562570&#45;68a5&#45;410d&#45;9b4e&#45;3c8fd83b4d84&#45;&gt;7b9931b3&#45;764b&#45;453f&#45;b146&#45;505ad178fa66 -->
<g id="edge14" class="edge">
<title>b4562570&#45;68a5&#45;410d&#45;9b4e&#45;3c8fd83b4d84&#45;&gt;7b9931b3&#45;764b&#45;453f&#45;b146&#45;505ad178fa66</title>
<path fill="none" stroke="#8dd4ca" d="M761.24,-122.04C775.51,-116.99 791.36,-111.85 806.19,-108.05 849.01,-97.09 897.81,-88.82 937,-83.18"/>
<polygon fill="#8dd4ca" stroke="#8dd4ca" points="937.59,-86.63 947,-81.77 936.61,-79.7 937.59,-86.63"/>
<text text-anchor="middle" x="861.69" y="-110.65" font-family="Times,serif" font-size="8.00" fill="#8dd4ca">element EC=1Y</text>
</g>
<!-- 049affce&#45;b743&#45;48b3&#45;af31&#45;bbd06189301e -->
<g id="node7" class="node">
<title>049affce&#45;b743&#45;48b3&#45;af31&#45;bbd06189301e</title>
<polygon fill="none" stroke="black" points="1638.19,-60.05 1517.19,-60.05 1517.19,-24.05 1638.19,-24.05 1638.19,-60.05"/>
<text text-anchor="middle" x="1577.69" y="-38.35" font-family="Times,serif" font-size="14.00">Retry Delivery</text>
</g>
<!-- d20c9f50&#45;3e0c&#45;49b7&#45;9e1a&#45;22300ec1eef2&#45;&gt;049affce&#45;b743&#45;48b3&#45;af31&#45;bbd06189301e -->
<g id="edge17" class="edge">
<title>d20c9f50&#45;3e0c&#45;49b7&#45;9e1a&#45;22300ec1eef2&#45;&gt;049affce&#45;b743&#45;48b3&#45;af31&#45;bbd06189301e</title>
<path fill="none" stroke="#813857" d="M1377.21,-42.05C1416.12,-42.05 1466.49,-42.05 1506.89,-42.05"/>
<polygon fill="#813857" stroke="#813857" points="1506.93,-45.55 1516.93,-42.05 1506.93,-38.55 1506.93,-45.55"/>
<text text-anchor="middle" x="1466.69" y="-44.65" font-family="Times,serif" font-size="8.00" fill="#813857">delivery EC=1D</text>
</g>
<!-- 049affce&#45;b743&#45;48b3&#45;af31&#45;bbd06189301e&#45;&gt;3c5b3ebb&#45;a7c7&#45;4ac2&#45;ae98&#45;8c406fdd618f -->
<g id="edge18" class="edge">
<title>049affce&#45;b743&#45;48b3&#45;af31&#45;bbd06189301e&#45;&gt;3c5b3ebb&#45;a7c7&#45;4ac2&#45;ae98&#45;8c406fdd618f</title>
<path fill="none" stroke="#813857" d="M1638.44,-47.82C1665.78,-50.46 1698.72,-53.65 1728.81,-56.55"/>
<polygon fill="#813857" stroke="#813857" points="1728.6,-60.05 1738.89,-57.53 1729.28,-53.08 1728.6,-60.05"/>
<text text-anchor="middle" x="1688.69" y="-58.65" font-family="Times,serif" font-size="8.00" fill="#813857">delivery EC=1D</text>
</g>
<!-- d099675f&#45;344e&#45;4612&#45;9a49&#45;112b2d10f288 -->
<g id="node21" class="node">
<title>d099675f&#45;344e&#45;4612&#45;9a49&#45;112b2d10f288</title>
<polygon fill="none" stroke="transparent" points="2007.19,-83.05 1933.19,-83.05 1933.19,-47.05 2007.19,-47.05 2007.19,-83.05"/>
<polyline fill="none" stroke="black" points="1933.19,-47.05 2007.19,-47.05 "/>
<text text-anchor="middle" x="1970.19" y="-61.35" font-family="Times,serif" font-size="14.00" fill="#813857">delivery</text>
</g>
<!-- 3c5b3ebb&#45;a7c7&#45;4ac2&#45;ae98&#45;8c406fdd618f&#45;&gt;d099675f&#45;344e&#45;4612&#45;9a49&#45;112b2d10f288 -->
<g id="edge30" class="edge">
<title>3c5b3ebb&#45;a7c7&#45;4ac2&#45;ae98&#45;8c406fdd618f&#45;&gt;d099675f&#45;344e&#45;4612&#45;9a49&#45;112b2d10f288</title>
<path fill="none" stroke="#813857" stroke-width="2.6" d="M1896.59,-65.05C1905.56,-65.05 1914.49,-65.05 1922.85,-65.05"/>
<polygon fill="#813857" stroke="#813857" stroke-width="2.6" points="1923.11,-68.55 1933.11,-65.05 1923.11,-61.55 1923.11,-68.55"/>
</g>
<!-- de249d83&#45;4c96&#45;45e0&#45;b7d1&#45;f536b967e6a3 -->
<g id="node10" class="node">
<title>de249d83&#45;4c96&#45;45e0&#45;b7d1&#45;f536b967e6a3</title>
<polygon fill="none" stroke="black" points="1195.19,-157.05 1106.19,-157.05 1106.19,-121.05 1195.19,-121.05 1195.19,-157.05"/>
<text text-anchor="middle" x="1150.69" y="-135.35" font-family="Times,serif" font-size="14.00">Pay Order</text>
</g>
<!-- a071e0a2&#45;9e53&#45;4e2e&#45;bceb&#45;5892f57cd957&#45;&gt;de249d83&#45;4c96&#45;45e0&#45;b7d1&#45;f536b967e6a3 -->
<g id="edge3" class="edge">
<title>a071e0a2&#45;9e53&#45;4e2e&#45;bceb&#45;5892f57cd957&#45;&gt;de249d83&#45;4c96&#45;45e0&#45;b7d1&#45;f536b967e6a3</title>
<path fill="none" stroke="#7bb866" d="M766.31,-181.9C779.28,-179.08 793.21,-176.27 806.19,-174.05 907.92,-156.66 1028.17,-146.83 1096.03,-142.26"/>
<polygon fill="#7bb866" stroke="#7bb866" points="1096.31,-145.74 1106.06,-141.59 1095.85,-138.76 1096.31,-145.74"/>
<text text-anchor="middle" x="861.69" y="-176.65" font-family="Times,serif" font-size="8.00" fill="#7bb866">order EC=1D</text>
</g>
<!-- 38546f6e&#45;90f7&#45;407d&#45;95a2&#45;cece4591237b -->
<g id="node14" class="node">
<title>38546f6e&#45;90f7&#45;407d&#45;95a2&#45;cece4591237b</title>
<polygon fill="none" stroke="black" points="1088.19,-203.05 935.19,-203.05 935.19,-167.05 1088.19,-167.05 1088.19,-203.05"/>
<text text-anchor="middle" x="1011.69" y="-181.35" font-family="Times,serif" font-size="14.00">Payment Reminder</text>
</g>
<!-- a071e0a2&#45;9e53&#45;4e2e&#45;bceb&#45;5892f57cd957&#45;&gt;38546f6e&#45;90f7&#45;407d&#45;95a2&#45;cece4591237b -->
<g id="edge7" class="edge">
<title>a071e0a2&#45;9e53&#45;4e2e&#45;bceb&#45;5892f57cd957&#45;&gt;38546f6e&#45;90f7&#45;407d&#45;95a2&#45;cece4591237b</title>
<path fill="none" stroke="#7bb866" d="M766.25,-192.48C809.96,-191.15 873.56,-189.22 924.92,-187.66"/>
<polygon fill="#7bb866" stroke="#7bb866" points="925.13,-191.15 935.02,-187.35 924.92,-184.15 925.13,-191.15"/>
<text text-anchor="middle" x="861.69" y="-193.65" font-family="Times,serif" font-size="8.00" fill="#7bb866">order EC=1D</text>
</g>
<!-- 90e7a5db&#45;a906&#45;4a4c&#45;8453&#45;efcf4050346b -->
<g id="node20" class="node">
<title>90e7a5db&#45;a906&#45;4a4c&#45;8453&#45;efcf4050346b</title>
<polygon fill="none" stroke="transparent" points="1605.69,-203.05 1549.69,-203.05 1549.69,-167.05 1605.69,-167.05 1605.69,-203.05"/>
<polyline fill="none" stroke="black" points="1549.69,-167.05 1605.69,-167.05 "/>
<text text-anchor="middle" x="1577.69" y="-181.35" font-family="Times,serif" font-size="14.00" fill="#7bb866">order</text>
</g>
<!-- de249d83&#45;4c96&#45;45e0&#45;b7d1&#45;f536b967e6a3&#45;&gt;90e7a5db&#45;a906&#45;4a4c&#45;8453&#45;efcf4050346b -->
<g id="edge27" class="edge">
<title>de249d83&#45;4c96&#45;45e0&#45;b7d1&#45;f536b967e6a3&#45;&gt;90e7a5db&#45;a906&#45;4a4c&#45;8453&#45;efcf4050346b</title>
<path fill="none" stroke="#7bb866" d="M1195.34,-140.91C1247.88,-143.45 1338.71,-148.77 1416.19,-158.05 1458.72,-163.14 1507.16,-171.67 1539.6,-177.78"/>
<polygon fill="#7bb866" stroke="#7bb866" points="1539.06,-181.24 1549.54,-179.67 1540.37,-174.36 1539.06,-181.24"/>
</g>
<!-- ef07e9da&#45;4824&#45;4124&#45;b4ba&#45;b753679d779b&#45;&gt;86ceb285&#45;b6fc&#45;453a&#45;bc5f&#45;eae6bae8aed7 -->
<g id="edge25" class="edge">
<title>ef07e9da&#45;4824&#45;4124&#45;b4ba&#45;b753679d779b&#45;&gt;86ceb285&#45;b6fc&#45;453a&#45;bc5f&#45;eae6bae8aed7</title>
<path fill="none" stroke="#8dd4ca" d="M917.54,-297.02C1007.14,-298.61 1183.3,-301.73 1267.17,-303.22"/>
<polygon fill="#8dd4ca" stroke="#8dd4ca" points="1267.35,-306.73 1277.41,-303.4 1267.48,-299.73 1267.35,-306.73"/>
</g>
<!-- beba9656&#45;5db2&#45;4b28&#45;a3a4&#45;aa1c0869995e&#45;&gt;90e7a5db&#45;a906&#45;4a4c&#45;8453&#45;efcf4050346b -->
<g id="edge28" class="edge">
<title>beba9656&#45;5db2&#45;4b28&#45;a3a4&#45;aa1c0869995e&#45;&gt;90e7a5db&#45;a906&#45;4a4c&#45;8453&#45;efcf4050346b</title>
<path fill="none" stroke="#7bb866" d="M621.42,-255.24C680.45,-256.42 777.23,-258.05 860.69,-258.05 860.69,-258.05 860.69,-258.05 1315.69,-258.05 1398.4,-258.05 1490.58,-223.63 1540.23,-202.06"/>
<polygon fill="#7bb866" stroke="#7bb866" points="1541.85,-205.17 1549.58,-197.93 1539.02,-198.77 1541.85,-205.17"/>
</g>
<!-- 60fffb2f&#45;d39d&#45;4885&#45;aea1&#45;d86a00e472d6&#45;&gt;7b9931b3&#45;764b&#45;453f&#45;b146&#45;505ad178fa66 -->
<g id="edge15" class="edge">
<title>60fffb2f&#45;d39d&#45;4885&#45;aea1&#45;d86a00e472d6&#45;&gt;7b9931b3&#45;764b&#45;453f&#45;b146&#45;505ad178fa66</title>
<path fill="none" stroke="#8dd4ca" d="M492.31,-57.67C535.05,-54.77 590.16,-51.5 639.19,-50.05 705.38,-48.09 722.06,-46.49 788.19,-50.05 837.94,-52.72 893.67,-58.74 936.91,-64.08"/>
<polygon fill="#8dd4ca" stroke="#8dd4ca" points="936.7,-67.58 947.06,-65.35 937.57,-60.63 936.7,-67.58"/>
<text text-anchor="middle" x="713.69" y="-52.65" font-family="Times,serif" font-size="8.00" fill="#8dd4ca">element EC=3D</text>
</g>
<!-- 60fffb2f&#45;d39d&#45;4885&#45;aea1&#45;d86a00e472d6&#45;&gt;a071e0a2&#45;9e53&#45;4e2e&#45;bceb&#45;5892f57cd957 -->
<g id="edge6" class="edge">
<title>60fffb2f&#45;d39d&#45;4885&#45;aea1&#45;d86a00e472d6&#45;&gt;a071e0a2&#45;9e53&#45;4e2e&#45;bceb&#45;5892f57cd957</title>
<path fill="none" stroke="#7bb866" d="M492.67,-71.32C534.55,-79.42 585.7,-95.43 621.19,-127.05 635.75,-140.02 624.93,-153.76 639.19,-167.05 643.01,-170.6 647.34,-173.7 651.93,-176.4"/>
<polygon fill="#7bb866" stroke="#7bb866" points="650.55,-179.62 661.04,-181.1 653.76,-173.4 650.55,-179.62"/>
<text text-anchor="middle" x="565.69" y="-129.65" font-family="Times,serif" font-size="8.00" fill="#7bb866">order EC=5D</text>
</g>
<!-- 38546f6e&#45;90f7&#45;407d&#45;95a2&#45;cece4591237b&#45;&gt;38546f6e&#45;90f7&#45;407d&#45;95a2&#45;cece4591237b -->
<g id="edge8" class="edge">
<title>38546f6e&#45;90f7&#45;407d&#45;95a2&#45;cece4591237b&#45;&gt;38546f6e&#45;90f7&#45;407d&#45;95a2&#45;cece4591237b</title>
<path fill="none" stroke="#7bb866" d="M986.73,-203.2C982.89,-212.59 991.21,-221.05 1011.69,-221.05 1024.17,-221.05 1032.14,-217.91 1035.59,-213.33"/>
<polygon fill="#7bb866" stroke="#7bb866" points="1039.09,-213.51 1036.66,-203.2 1032.13,-212.78 1039.09,-213.51"/>
<text text-anchor="middle" x="1011.69" y="-223.65" font-family="Times,serif" font-size="8.00" fill="#7bb866">order EC=0s</text>
</g>
<!-- e314b3f6&#45;75eb&#45;470c&#45;8714&#45;d8bb9405e455 -->
<g id="node15" class="node">
<title>e314b3f6&#45;75eb&#45;470c&#45;8714&#45;d8bb9405e455</title>
<polygon fill="none" stroke="black" points="1416.19,-203.05 1213.19,-203.05 1213.19,-167.05 1416.19,-167.05 1416.19,-203.05"/>
<text text-anchor="middle" x="1314.69" y="-181.35" font-family="Times,serif" font-size="14.00">Send for Credit Collection</text>
</g>
<!-- 38546f6e&#45;90f7&#45;407d&#45;95a2&#45;cece4591237b&#45;&gt;e314b3f6&#45;75eb&#45;470c&#45;8714&#45;d8bb9405e455 -->
<g id="edge9" class="edge">
<title>38546f6e&#45;90f7&#45;407d&#45;95a2&#45;cece4591237b&#45;&gt;e314b3f6&#45;75eb&#45;470c&#45;8714&#45;d8bb9405e455</title>
<path fill="none" stroke="#7bb866" d="M1088.26,-185.05C1122.95,-185.05 1164.77,-185.05 1202.92,-185.05"/>
<polygon fill="#7bb866" stroke="#7bb866" points="1203.05,-188.55 1213.05,-185.05 1203.05,-181.55 1203.05,-188.55"/>
<text text-anchor="middle" x="1150.69" y="-187.65" font-family="Times,serif" font-size="8.00" fill="#7bb866">order EC=1D</text>
</g>
<!-- e314b3f6&#45;75eb&#45;470c&#45;8714&#45;d8bb9405e455&#45;&gt;90e7a5db&#45;a906&#45;4a4c&#45;8453&#45;efcf4050346b -->
<g id="edge29" class="edge">
<title>e314b3f6&#45;75eb&#45;470c&#45;8714&#45;d8bb9405e455&#45;&gt;90e7a5db&#45;a906&#45;4a4c&#45;8453&#45;efcf4050346b</title>
<path fill="none" stroke="#7bb866" d="M1416.23,-185.05C1459.45,-185.05 1507.31,-185.05 1539.41,-185.05"/>
<polygon fill="#7bb866" stroke="#7bb866" points="1539.67,-188.55 1549.67,-185.05 1539.67,-181.55 1539.67,-188.55"/>
</g>
<!-- 0cf71588&#45;8e64&#45;4eaf&#45;8fe4&#45;72c0c327787e -->
<g id="node16" class="node">
<title>0cf71588&#45;8e64&#45;4eaf&#45;8fe4&#45;72c0c327787e</title>
<ellipse fill="#8dd4ca" stroke="black" cx="48.1" cy="-49.05" rx="48.19" ry="18"/>
<text text-anchor="middle" x="48.1" y="-45.35" font-family="Times,serif" font-size="14.00">element</text>
</g>
<!-- 0cf71588&#45;8e64&#45;4eaf&#45;8fe4&#45;72c0c327787e&#45;&gt;fe78947e&#45;d27d&#45;438c&#45;a839&#45;d73c8f5b83d9 -->
<g id="edge20" class="edge">
<title>0cf71588&#45;8e64&#45;4eaf&#45;8fe4&#45;72c0c327787e&#45;&gt;fe78947e&#45;d27d&#45;438c&#45;a839&#45;d73c8f5b83d9</title>
<path fill="none" stroke="#8dd4ca" stroke-width="2.07" d="M68.08,-65.62C91.56,-86.12 131.76,-121.22 159.01,-145.01"/>
<polygon fill="#8dd4ca" stroke="#8dd4ca" stroke-width="2.07" points="156.84,-147.76 166.68,-151.7 161.45,-142.49 156.84,-147.76"/>
</g>
<!-- 0cf71588&#45;8e64&#45;4eaf&#45;8fe4&#45;72c0c327787e&#45;&gt;60fffb2f&#45;d39d&#45;4885&#45;aea1&#45;d86a00e472d6 -->
<g id="edge21" class="edge">
<title>0cf71588&#45;8e64&#45;4eaf&#45;8fe4&#45;72c0c327787e&#45;&gt;60fffb2f&#45;d39d&#45;4885&#45;aea1&#45;d86a00e472d6</title>
<path fill="none" stroke="#8dd4ca" d="M96.15,-50.83C156.21,-53.12 261.12,-57.1 334.74,-59.9"/>
<polygon fill="#8dd4ca" stroke="#8dd4ca" points="334.78,-63.4 344.91,-60.28 335.05,-56.41 334.78,-63.4"/>
</g>
<!-- 60d92bf5&#45;297c&#45;45f0&#45;8fa8&#45;098eed05b07b -->
<g id="node17" class="node">
<title>60d92bf5&#45;297c&#45;45f0&#45;8fa8&#45;098eed05b07b</title>
<ellipse fill="#7bb866" stroke="black" cx="48.1" cy="-170.05" rx="36.29" ry="18"/>
<text text-anchor="middle" x="48.1" y="-166.35" font-family="Times,serif" font-size="14.00">order</text>
</g>
<!-- 60d92bf5&#45;297c&#45;45f0&#45;8fa8&#45;098eed05b07b&#45;&gt;fe78947e&#45;d27d&#45;438c&#45;a839&#45;d73c8f5b83d9 -->
<g id="edge22" class="edge">
<title>60d92bf5&#45;297c&#45;45f0&#45;8fa8&#45;098eed05b07b&#45;&gt;fe78947e&#45;d27d&#45;438c&#45;a839&#45;d73c8f5b83d9</title>
<path fill="none" stroke="#7bb866" stroke-width="2.6" d="M84.79,-170.05C96.37,-170.05 109.6,-170.05 122.64,-170.05"/>
<polygon fill="#7bb866" stroke="#7bb866" stroke-width="2.6" points="123.01,-173.55 133.01,-170.05 123.01,-166.55 123.01,-173.55"/>
</g>
<!-- b5c05243&#45;bf43&#45;4aeb&#45;ad0f&#45;3313dc750287 -->
<g id="node18" class="node">
<title>b5c05243&#45;bf43&#45;4aeb&#45;ad0f&#45;3313dc750287</title>
<ellipse fill="#813857" stroke="black" cx="713.69" cy="-86.05" rx="48.19" ry="18"/>
<text text-anchor="middle" x="713.69" y="-82.35" font-family="Times,serif" font-size="14.00">delivery</text>
</g>
<!-- b5c05243&#45;bf43&#45;4aeb&#45;ad0f&#45;3313dc750287&#45;&gt;7b9931b3&#45;764b&#45;453f&#45;b146&#45;505ad178fa66 -->
<g id="edge23" class="edge">
<title>b5c05243&#45;bf43&#45;4aeb&#45;ad0f&#45;3313dc750287&#45;&gt;7b9931b3&#45;764b&#45;453f&#45;b146&#45;505ad178fa66</title>
<path fill="none" stroke="#813857" stroke-width="2.6" d="M761.59,-84.15C808.71,-82.24 882,-79.26 936.91,-77.04"/>
<polygon fill="#813857" stroke="#813857" stroke-width="2.6" points="937.09,-80.53 946.94,-76.63 936.8,-73.54 937.09,-80.53"/>
</g>
</g>
</svg>
