<?xml version="1.0" encoding="UTF-8" standalone="no"?>
<!DOCTYPE svg PUBLIC "-//W3C//DTD SVG 1.1//EN"
 "http://www.w3.org/Graphics/SVG/1.1/DTD/svg11.dtd">
<!-- Generated by graphviz version 2.43.0 (0)
 -->
<!-- Title: ocdfg Pages: 1 -->
<svg width="2015pt" height="447pt"
 viewBox="0.00 0.00 2015.19 446.73" xmlns="http://www.w3.org/2000/svg" xmlns:xlink="http://www.w3.org/1999/xlink">
<g id="graph0" class="graph" transform="scale(1 1) rotate(0) translate(4 442.73)">
<title>ocdfg</title>
<polygon fill="white" stroke="transparent" points="-4,4 -4,-442.73 2011.19,-442.73 2011.19,4 -4,4"/>
<!-- bb39d3f5&#45;a13a&#45;4739&#45;9fe9&#45;f0cea94fd9ad -->
<g id="node1" class="node">
<title>bb39d3f5&#45;a13a&#45;4739&#45;9fe9&#45;f0cea94fd9ad</title>
<polygon fill="none" stroke="black" points="244.19,-209.73 133.19,-209.73 133.19,-173.73 244.19,-173.73 244.19,-209.73"/>
<text text-anchor="middle" x="188.69" y="-188.03" font-family="Times,serif" font-size="14.00">Create Order</text>
</g>
<!-- 9e28f8fb&#45;7288&#45;408b&#45;bc42&#45;a985ac93727f -->
<g id="node2" class="node">
<title>9e28f8fb&#45;7288&#45;408b&#45;bc42&#45;a985ac93727f</title>
<polygon fill="none" stroke="black" points="478.69,-390.73 358.69,-390.73 358.69,-354.73 478.69,-354.73 478.69,-390.73"/>
<text text-anchor="middle" x="418.69" y="-369.03" font-family="Times,serif" font-size="14.00">Confirm Order</text>
</g>
<!-- bb39d3f5&#45;a13a&#45;4739&#45;9fe9&#45;f0cea94fd9ad&#45;&gt;9e28f8fb&#45;7288&#45;408b&#45;bc42&#45;a985ac93727f -->
<g id="edge1" class="edge">
<title>bb39d3f5&#45;a13a&#45;4739&#45;9fe9&#45;f0cea94fd9ad&#45;&gt;9e28f8fb&#45;7288&#45;408b&#45;bc42&#45;a985ac93727f</title>
<path fill="none" stroke="#32f8ce" d="M205.4,-209.97C231.87,-239.86 288.08,-299.84 345.19,-338.73 351.12,-342.77 357.6,-346.56 364.17,-350.04"/>
<polygon fill="#32f8ce" stroke="#32f8ce" points="362.63,-353.18 373.14,-354.58 365.8,-346.94 362.63,-353.18"/>
<text text-anchor="middle" x="294.69" y="-327.33" font-family="Times,serif" font-size="8.00" fill="#32f8ce">order EC=1D</text>
</g>
<!-- 857a28ab&#45;4447&#45;488f&#45;b8c4&#45;6c58c4ccda5b -->
<g id="node3" class="node">
<title>857a28ab&#45;4447&#45;488f&#45;b8c4&#45;6c58c4ccda5b</title>
<polygon fill="none" stroke="black" points="488.69,-148.73 348.69,-148.73 348.69,-112.73 488.69,-112.73 488.69,-148.73"/>
<text text-anchor="middle" x="418.69" y="-127.03" font-family="Times,serif" font-size="14.00">Item out of Stock</text>
</g>
<!-- bb39d3f5&#45;a13a&#45;4739&#45;9fe9&#45;f0cea94fd9ad&#45;&gt;857a28ab&#45;4447&#45;488f&#45;b8c4&#45;6c58c4ccda5b -->
<g id="edge10" class="edge">
<title>bb39d3f5&#45;a13a&#45;4739&#45;9fe9&#45;f0cea94fd9ad&#45;&gt;857a28ab&#45;4447&#45;488f&#45;b8c4&#45;6c58c4ccda5b</title>
<path fill="none" stroke="#079d5f" d="M218.68,-173.67C231.57,-166.41 247.19,-158.62 262.19,-153.73 286.37,-145.86 313.54,-140.67 338.33,-137.26"/>
<polygon fill="#079d5f" stroke="#079d5f" points="338.96,-140.7 348.42,-135.94 338.06,-133.76 338.96,-140.7"/>
<text text-anchor="middle" x="294.69" y="-156.33" font-family="Times,serif" font-size="8.00" fill="#079d5f">element EC=2D</text>
</g>
<!-- 36d7236e&#45;fb4b&#45;453c&#45;9550&#45;6299436cec56 -->
<g id="node4" class="node">
<title>36d7236e&#45;fb4b&#45;453c&#45;9550&#45;6299436cec56</title>
<polygon fill="none" stroke="black" points="1076.19,-194.73 947.19,-194.73 947.19,-158.73 1076.19,-158.73 1076.19,-194.73"/>
<text text-anchor="middle" x="1011.69" y="-173.03" font-family="Times,serif" font-size="14.00">Create Delivery</text>
</g>
<!-- bb39d3f5&#45;a13a&#45;4739&#45;9fe9&#45;f0cea94fd9ad&#45;&gt;36d7236e&#45;fb4b&#45;453c&#45;9550&#45;6299436cec56 -->
<g id="edge11" class="edge">
<title>bb39d3f5&#45;a13a&#45;4739&#45;9fe9&#45;f0cea94fd9ad&#45;&gt;36d7236e&#45;fb4b&#45;453c&#45;9550&#45;6299436cec56</title>
<path fill="none" stroke="#079d5f" d="M244.2,-190.74C387.26,-188.12 773.69,-181.06 936.63,-178.09"/>
<polygon fill="#079d5f" stroke="#079d5f" points="937.1,-181.58 947.04,-177.9 936.97,-174.58 937.1,-181.58"/>
<text text-anchor="middle" x="565.69" y="-189.33" font-family="Times,serif" font-size="8.00" fill="#079d5f">element EC=3D</text>
</g>
<!-- 9579cde7&#45;65d7&#45;43ae&#45;988e&#45;a963f50e8f3d -->
<g id="node11" class="node">
<title>9579cde7&#45;65d7&#45;43ae&#45;988e&#45;a963f50e8f3d</title>
<polygon fill="none" stroke="black" points="917.19,-64.73 806.19,-64.73 806.19,-28.73 917.19,-28.73 917.19,-64.73"/>
<text text-anchor="middle" x="861.69" y="-43.03" font-family="Times,serif" font-size="14.00">Remove Item</text>
</g>
<!-- bb39d3f5&#45;a13a&#45;4739&#45;9fe9&#45;f0cea94fd9ad&#45;&gt;9579cde7&#45;65d7&#45;43ae&#45;988e&#45;a963f50e8f3d -->
<g id="edge13" class="edge">
<title>bb39d3f5&#45;a13a&#45;4739&#45;9fe9&#45;f0cea94fd9ad&#45;&gt;9579cde7&#45;65d7&#45;43ae&#45;988e&#45;a963f50e8f3d</title>
<path fill="none" stroke="#079d5f" d="M194.81,-173.72C203.62,-146.35 224.45,-94.9 262.19,-70.73 429.19,36.19 679.48,-2.86 796.32,-29.75"/>
<polygon fill="#079d5f" stroke="#079d5f" points="795.65,-33.18 806.19,-32.06 797.25,-26.37 795.65,-33.18"/>
<text text-anchor="middle" x="418.69" y="-33.33" font-family="Times,serif" font-size="8.00" fill="#079d5f">element EC=1D</text>
</g>
<!-- faf20083&#45;0ac2&#45;43b0&#45;86c4&#45;d04af5f6b1a7 -->
<g id="node12" class="node">
<title>faf20083&#45;0ac2&#45;43b0&#45;86c4&#45;d04af5f6b1a7</title>
<polygon fill="none" stroke="black" points="621.19,-261.73 510.19,-261.73 510.19,-225.73 621.19,-225.73 621.19,-261.73"/>
<text text-anchor="middle" x="565.69" y="-240.03" font-family="Times,serif" font-size="14.00">Cancel Order</text>
</g>
<!-- bb39d3f5&#45;a13a&#45;4739&#45;9fe9&#45;f0cea94fd9ad&#45;&gt;faf20083&#45;0ac2&#45;43b0&#45;86c4&#45;d04af5f6b1a7 -->
<g id="edge4" class="edge">
<title>bb39d3f5&#45;a13a&#45;4739&#45;9fe9&#45;f0cea94fd9ad&#45;&gt;faf20083&#45;0ac2&#45;43b0&#45;86c4&#45;d04af5f6b1a7</title>
<path fill="none" stroke="#32f8ce" d="M244.22,-199.29C311.98,-208.69 427.49,-224.71 499.76,-234.73"/>
<polygon fill="#32f8ce" stroke="#32f8ce" points="499.71,-238.26 510.1,-236.16 500.67,-231.32 499.71,-238.26"/>
<text text-anchor="middle" x="294.69" y="-213.33" font-family="Times,serif" font-size="8.00" fill="#32f8ce">order EC=2D</text>
</g>
<!-- 8a179deb&#45;4210&#45;4f30&#45;b529&#45;05d485a35b46 -->
<g id="node13" class="node">
<title>8a179deb&#45;4210&#45;4f30&#45;b529&#45;05d485a35b46</title>
<polygon fill="none" stroke="black" points="492.19,-329.73 345.19,-329.73 345.19,-293.73 492.19,-293.73 492.19,-329.73"/>
<text text-anchor="middle" x="418.69" y="-308.03" font-family="Times,serif" font-size="14.00">Add Item to Order</text>
</g>
<!-- bb39d3f5&#45;a13a&#45;4739&#45;9fe9&#45;f0cea94fd9ad&#45;&gt;8a179deb&#45;4210&#45;4f30&#45;b529&#45;05d485a35b46 -->
<g id="edge5" class="edge">
<title>bb39d3f5&#45;a13a&#45;4739&#45;9fe9&#45;f0cea94fd9ad&#45;&gt;8a179deb&#45;4210&#45;4f30&#45;b529&#45;05d485a35b46</title>
<path fill="none" stroke="#32f8ce" d="M225.52,-209.87C237.11,-215.51 250.1,-221.6 262.19,-226.73 290.53,-238.77 299.78,-236.69 327.19,-250.73 347.58,-261.18 368.9,-275.37 385.72,-287.43"/>
<polygon fill="#32f8ce" stroke="#32f8ce" points="383.94,-290.46 394.08,-293.51 388.06,-284.8 383.94,-290.46"/>
<text text-anchor="middle" x="294.69" y="-253.33" font-family="Times,serif" font-size="8.00" fill="#32f8ce">order EC=1D</text>
</g>
<!-- 6f143a54&#45;986e&#45;4ae3&#45;a84c&#45;b17ba899e41b -->
<g id="node21" class="node">
<title>6f143a54&#45;986e&#45;4ae3&#45;a84c&#45;b17ba899e41b</title>
<polygon fill="none" stroke="transparent" points="1351.69,-102.73 1277.69,-102.73 1277.69,-66.73 1351.69,-66.73 1351.69,-102.73"/>
<polyline fill="none" stroke="black" points="1277.69,-66.73 1351.69,-66.73 "/>
<text text-anchor="middle" x="1314.69" y="-81.03" font-family="Times,serif" font-size="14.00" fill="#079d5f">element</text>
</g>
<!-- bb39d3f5&#45;a13a&#45;4739&#45;9fe9&#45;f0cea94fd9ad&#45;&gt;6f143a54&#45;986e&#45;4ae3&#45;a84c&#45;b17ba899e41b -->
<g id="edge30" class="edge">
<title>bb39d3f5&#45;a13a&#45;4739&#45;9fe9&#45;f0cea94fd9ad&#45;&gt;6f143a54&#45;986e&#45;4ae3&#45;a84c&#45;b17ba899e41b</title>
<path fill="none" stroke="#079d5f" d="M209.82,-173.61C223.78,-161.71 243.21,-146.42 262.19,-135.73 325.57,-100.05 344.96,-84.73 417.69,-84.73 417.69,-84.73 417.69,-84.73 1012.69,-84.73 1102.91,-84.73 1208.33,-84.73 1267.42,-84.73"/>
<polygon fill="#079d5f" stroke="#079d5f" points="1267.55,-88.23 1277.55,-84.73 1267.55,-81.23 1267.55,-88.23"/>
</g>
<!-- e40291d8&#45;3aa0&#45;4a00&#45;8f1f&#45;9f3d279ceb50 -->
<g id="node9" class="node">
<title>e40291d8&#45;3aa0&#45;4a00&#45;8f1f&#45;9f3d279ceb50</title>
<polygon fill="none" stroke="black" points="766.19,-394.73 661.19,-394.73 661.19,-358.73 766.19,-358.73 766.19,-394.73"/>
<text text-anchor="middle" x="713.69" y="-373.03" font-family="Times,serif" font-size="14.00">Invoice Sent</text>
</g>
<!-- 9e28f8fb&#45;7288&#45;408b&#45;bc42&#45;a985ac93727f&#45;&gt;e40291d8&#45;3aa0&#45;4a00&#45;8f1f&#45;9f3d279ceb50 -->
<g id="edge2" class="edge">
<title>9e28f8fb&#45;7288&#45;408b&#45;bc42&#45;a985ac93727f&#45;&gt;e40291d8&#45;3aa0&#45;4a00&#45;8f1f&#45;9f3d279ceb50</title>
<path fill="none" stroke="#32f8ce" d="M478.98,-373.54C528.89,-374.22 600.02,-375.19 650.68,-375.89"/>
<polygon fill="#32f8ce" stroke="#32f8ce" points="650.79,-379.39 660.84,-376.03 650.89,-372.39 650.79,-379.39"/>
<text text-anchor="middle" x="565.69" y="-377.33" font-family="Times,serif" font-size="8.00" fill="#32f8ce">order EC=9D</text>
</g>
<!-- ae20caaf&#45;8fff&#45;48d5&#45;8d88&#45;7c4503e6f540 -->
<g id="node5" class="node">
<title>ae20caaf&#45;8fff&#45;48d5&#45;8d88&#45;7c4503e6f540</title>
<polygon fill="none" stroke="black" points="788.19,-148.73 639.19,-148.73 639.19,-112.73 788.19,-112.73 788.19,-148.73"/>
<text text-anchor="middle" x="713.69" y="-127.03" font-family="Times,serif" font-size="14.00">Item back in Stock</text>
</g>
<!-- 857a28ab&#45;4447&#45;488f&#45;b8c4&#45;6c58c4ccda5b&#45;&gt;ae20caaf&#45;8fff&#45;48d5&#45;8d88&#45;7c4503e6f540 -->
<g id="edge12" class="edge">
<title>857a28ab&#45;4447&#45;488f&#45;b8c4&#45;6c58c4ccda5b&#45;&gt;ae20caaf&#45;8fff&#45;48d5&#45;8d88&#45;7c4503e6f540</title>
<path fill="none" stroke="#079d5f" d="M488.76,-130.73C530.67,-130.73 584.44,-130.73 628.79,-130.73"/>
<polygon fill="#079d5f" stroke="#079d5f" points="628.97,-134.23 638.97,-130.73 628.97,-127.23 628.97,-134.23"/>
<text text-anchor="middle" x="565.69" y="-133.33" font-family="Times,serif" font-size="8.00" fill="#079d5f">element EC=2D</text>
</g>
<!-- ffa68612&#45;50b6&#45;48db&#45;a0ce&#45;12faf8a6c1a9 -->
<g id="node6" class="node">
<title>ffa68612&#45;50b6&#45;48db&#45;a0ce&#45;12faf8a6c1a9</title>
<polygon fill="none" stroke="black" points="1377.19,-167.73 1252.19,-167.73 1252.19,-131.73 1377.19,-131.73 1377.19,-167.73"/>
<text text-anchor="middle" x="1314.69" y="-146.03" font-family="Times,serif" font-size="14.00">Delivery Failed</text>
</g>
<!-- 36d7236e&#45;fb4b&#45;453c&#45;9550&#45;6299436cec56&#45;&gt;ffa68612&#45;50b6&#45;48db&#45;a0ce&#45;12faf8a6c1a9 -->
<g id="edge16" class="edge">
<title>36d7236e&#45;fb4b&#45;453c&#45;9550&#45;6299436cec56&#45;&gt;ffa68612&#45;50b6&#45;48db&#45;a0ce&#45;12faf8a6c1a9</title>
<path fill="none" stroke="#74b9c3" d="M1076.53,-171.01C1124.96,-166.66 1191.56,-160.69 1241.86,-156.18"/>
<polygon fill="#74b9c3" stroke="#74b9c3" points="1242.36,-159.65 1252.01,-155.27 1241.74,-152.67 1242.36,-159.65"/>
<text text-anchor="middle" x="1150.69" y="-171.33" font-family="Times,serif" font-size="8.00" fill="#74b9c3">delivery EC=4D</text>
</g>
<!-- 683614d2&#45;605c&#45;41ea&#45;92c5&#45;70dc770847f2 -->
<g id="node8" class="node">
<title>683614d2&#45;605c&#45;41ea&#45;92c5&#45;70dc770847f2</title>
<polygon fill="none" stroke="black" points="1896.19,-190.73 1739.19,-190.73 1739.19,-154.73 1896.19,-154.73 1896.19,-190.73"/>
<text text-anchor="middle" x="1817.69" y="-169.03" font-family="Times,serif" font-size="14.00">Delivery Successful</text>
</g>
<!-- 36d7236e&#45;fb4b&#45;453c&#45;9550&#45;6299436cec56&#45;&gt;683614d2&#45;605c&#45;41ea&#45;92c5&#45;70dc770847f2 -->
<g id="edge19" class="edge">
<title>36d7236e&#45;fb4b&#45;453c&#45;9550&#45;6299436cec56&#45;&gt;683614d2&#45;605c&#45;41ea&#45;92c5&#45;70dc770847f2</title>
<path fill="none" stroke="#74b9c3" d="M1076.3,-180.59C1086.3,-181.07 1096.52,-181.47 1106.19,-181.73 1145.73,-182.79 1155.64,-181.92 1195.19,-181.73 1428.98,-180.62 1487.48,-182.74 1721.19,-176.73 1723.73,-176.67 1726.31,-176.6 1728.91,-176.52"/>
<polygon fill="#74b9c3" stroke="#74b9c3" points="1729.16,-180.01 1739.04,-176.2 1728.93,-173.02 1729.16,-180.01"/>
<text text-anchor="middle" x="1466.69" y="-184.33" font-family="Times,serif" font-size="8.00" fill="#74b9c3">delivery EC=1D</text>
</g>
<!-- 36d7236e&#45;fb4b&#45;453c&#45;9550&#45;6299436cec56&#45;&gt;6f143a54&#45;986e&#45;4ae3&#45;a84c&#45;b17ba899e41b -->
<g id="edge28" class="edge">
<title>36d7236e&#45;fb4b&#45;453c&#45;9550&#45;6299436cec56&#45;&gt;6f143a54&#45;986e&#45;4ae3&#45;a84c&#45;b17ba899e41b</title>
<path fill="none" stroke="#079d5f" stroke-width="2.07" d="M1071.8,-158.67C1129.22,-141.12 1215.21,-114.83 1267.7,-98.79"/>
<polygon fill="#079d5f" stroke="#079d5f" stroke-width="2.07" points="1268.87,-102.09 1277.41,-95.82 1266.83,-95.4 1268.87,-102.09"/>
</g>
<!-- ae20caaf&#45;8fff&#45;48d5&#45;8d88&#45;7c4503e6f540&#45;&gt;36d7236e&#45;fb4b&#45;453c&#45;9550&#45;6299436cec56 -->
<g id="edge14" class="edge">
<title>ae20caaf&#45;8fff&#45;48d5&#45;8d88&#45;7c4503e6f540&#45;&gt;36d7236e&#45;fb4b&#45;453c&#45;9550&#45;6299436cec56</title>
<path fill="none" stroke="#079d5f" d="M788.6,-136.83C827.11,-140.59 874.87,-146.16 917.19,-153.73 923.71,-154.9 930.46,-156.26 937.2,-157.72"/>
<polygon fill="#079d5f" stroke="#079d5f" points="936.53,-161.15 947.05,-159.92 938.05,-154.32 936.53,-161.15"/>
<text text-anchor="middle" x="861.69" y="-156.33" font-family="Times,serif" font-size="8.00" fill="#079d5f">element EC=1Y</text>
</g>
<!-- 776434f1&#45;d073&#45;4f7e&#45;a627&#45;4ea1f7fd3ac7 -->
<g id="node7" class="node">
<title>776434f1&#45;d073&#45;4f7e&#45;a627&#45;4ea1f7fd3ac7</title>
<polygon fill="none" stroke="black" points="1638.19,-167.73 1517.19,-167.73 1517.19,-131.73 1638.19,-131.73 1638.19,-167.73"/>
<text text-anchor="middle" x="1577.69" y="-146.03" font-family="Times,serif" font-size="14.00">Retry Delivery</text>
</g>
<!-- ffa68612&#45;50b6&#45;48db&#45;a0ce&#45;12faf8a6c1a9&#45;&gt;776434f1&#45;d073&#45;4f7e&#45;a627&#45;4ea1f7fd3ac7 -->
<g id="edge17" class="edge">
<title>ffa68612&#45;50b6&#45;48db&#45;a0ce&#45;12faf8a6c1a9&#45;&gt;776434f1&#45;d073&#45;4f7e&#45;a627&#45;4ea1f7fd3ac7</title>
<path fill="none" stroke="#74b9c3" d="M1377.21,-149.73C1416.12,-149.73 1466.49,-149.73 1506.89,-149.73"/>
<polygon fill="#74b9c3" stroke="#74b9c3" points="1506.93,-153.23 1516.93,-149.73 1506.93,-146.23 1506.93,-153.23"/>
<text text-anchor="middle" x="1466.69" y="-152.33" font-family="Times,serif" font-size="8.00" fill="#74b9c3">delivery EC=1D</text>
</g>
<!-- 776434f1&#45;d073&#45;4f7e&#45;a627&#45;4ea1f7fd3ac7&#45;&gt;683614d2&#45;605c&#45;41ea&#45;92c5&#45;70dc770847f2 -->
<g id="edge18" class="edge">
<title>776434f1&#45;d073&#45;4f7e&#45;a627&#45;4ea1f7fd3ac7&#45;&gt;683614d2&#45;605c&#45;41ea&#45;92c5&#45;70dc770847f2</title>
<path fill="none" stroke="#74b9c3" d="M1638.44,-155.51C1665.78,-158.15 1698.72,-161.33 1728.81,-164.24"/>
<polygon fill="#74b9c3" stroke="#74b9c3" points="1728.6,-167.74 1738.89,-165.21 1729.28,-160.77 1728.6,-167.74"/>
<text text-anchor="middle" x="1688.69" y="-166.33" font-family="Times,serif" font-size="8.00" fill="#74b9c3">delivery EC=1D</text>
</g>
<!-- 26447c42&#45;8402&#45;457a&#45;b88a&#45;7a9039bd033a -->
<g id="node19" class="node">
<title>26447c42&#45;8402&#45;457a&#45;b88a&#45;7a9039bd033a</title>
<polygon fill="none" stroke="transparent" points="2007.19,-190.73 1933.19,-190.73 1933.19,-154.73 2007.19,-154.73 2007.19,-190.73"/>
<polyline fill="none" stroke="black" points="1933.19,-154.73 2007.19,-154.73 "/>
<text text-anchor="middle" x="1970.19" y="-169.03" font-family="Times,serif" font-size="14.00" fill="#74b9c3">delivery</text>
</g>
<!-- 683614d2&#45;605c&#45;41ea&#45;92c5&#45;70dc770847f2&#45;&gt;26447c42&#45;8402&#45;457a&#45;b88a&#45;7a9039bd033a -->
<g id="edge24" class="edge">
<title>683614d2&#45;605c&#45;41ea&#45;92c5&#45;70dc770847f2&#45;&gt;26447c42&#45;8402&#45;457a&#45;b88a&#45;7a9039bd033a</title>
<path fill="none" stroke="#74b9c3" stroke-width="2.6" d="M1896.59,-172.73C1905.56,-172.73 1914.49,-172.73 1922.85,-172.73"/>
<polygon fill="#74b9c3" stroke="#74b9c3" stroke-width="2.6" points="1923.11,-176.23 1933.11,-172.73 1923.11,-169.23 1923.11,-176.23"/>
</g>
<!-- 34182ae6&#45;ba7c&#45;48df&#45;bd34&#45;cd693965f549 -->
<g id="node10" class="node">
<title>34182ae6&#45;ba7c&#45;48df&#45;bd34&#45;cd693965f549</title>
<polygon fill="none" stroke="black" points="1195.19,-365.73 1106.19,-365.73 1106.19,-329.73 1195.19,-329.73 1195.19,-365.73"/>
<text text-anchor="middle" x="1150.69" y="-344.03" font-family="Times,serif" font-size="14.00">Pay Order</text>
</g>
<!-- e40291d8&#45;3aa0&#45;4a00&#45;8f1f&#45;9f3d279ceb50&#45;&gt;34182ae6&#45;ba7c&#45;48df&#45;bd34&#45;cd693965f549 -->
<g id="edge3" class="edge">
<title>e40291d8&#45;3aa0&#45;4a00&#45;8f1f&#45;9f3d279ceb50&#45;&gt;34182ae6&#45;ba7c&#45;48df&#45;bd34&#45;cd693965f549</title>
<path fill="none" stroke="#32f8ce" d="M766.45,-371.97C779.42,-370.84 793.31,-369.69 806.19,-368.73 908.63,-361.12 1028.4,-354.26 1096.02,-350.58"/>
<polygon fill="#32f8ce" stroke="#32f8ce" points="1096.22,-354.07 1106.02,-350.04 1095.84,-347.08 1096.22,-354.07"/>
<text text-anchor="middle" x="861.69" y="-371.33" font-family="Times,serif" font-size="8.00" fill="#32f8ce">order EC=1D</text>
</g>
<!-- 1ceff941&#45;0400&#45;4a66&#45;8f4f&#45;a15fe8e7a465 -->
<g id="node14" class="node">
<title>1ceff941&#45;0400&#45;4a66&#45;8f4f&#45;a15fe8e7a465</title>
<polygon fill="none" stroke="black" points="1088.19,-411.73 935.19,-411.73 935.19,-375.73 1088.19,-375.73 1088.19,-411.73"/>
<text text-anchor="middle" x="1011.69" y="-390.03" font-family="Times,serif" font-size="14.00">Payment Reminder</text>
</g>
<!-- e40291d8&#45;3aa0&#45;4a00&#45;8f1f&#45;9f3d279ceb50&#45;&gt;1ceff941&#45;0400&#45;4a66&#45;8f4f&#45;a15fe8e7a465 -->
<g id="edge7" class="edge">
<title>e40291d8&#45;3aa0&#45;4a00&#45;8f1f&#45;9f3d279ceb50&#45;&gt;1ceff941&#45;0400&#45;4a66&#45;8f4f&#45;a15fe8e7a465</title>
<path fill="none" stroke="#32f8ce" d="M766.25,-379.69C809.96,-382.2 873.56,-385.86 924.92,-388.81"/>
<polygon fill="#32f8ce" stroke="#32f8ce" points="924.84,-392.31 935.02,-389.39 925.24,-385.32 924.84,-392.31"/>
<text text-anchor="middle" x="861.69" y="-390.33" font-family="Times,serif" font-size="8.00" fill="#32f8ce">order EC=1D</text>
</g>
<!-- 58b2feeb&#45;93fa&#45;4034&#45;a107&#45;09e30b6bbb5a -->
<g id="node20" class="node">
<title>58b2feeb&#45;93fa&#45;4034&#45;a107&#45;09e30b6bbb5a</title>
<polygon fill="none" stroke="transparent" points="1605.69,-365.73 1549.69,-365.73 1549.69,-329.73 1605.69,-329.73 1605.69,-365.73"/>
<polyline fill="none" stroke="black" points="1549.69,-329.73 1605.69,-329.73 "/>
<text text-anchor="middle" x="1577.69" y="-344.03" font-family="Times,serif" font-size="14.00" fill="#32f8ce">order</text>
</g>
<!-- 34182ae6&#45;ba7c&#45;48df&#45;bd34&#45;cd693965f549&#45;&gt;58b2feeb&#45;93fa&#45;4034&#45;a107&#45;09e30b6bbb5a -->
<g id="edge25" class="edge">
<title>34182ae6&#45;ba7c&#45;48df&#45;bd34&#45;cd693965f549&#45;&gt;58b2feeb&#45;93fa&#45;4034&#45;a107&#45;09e30b6bbb5a</title>
<path fill="none" stroke="#32f8ce" d="M1195.57,-347.73C1279.33,-347.73 1460.63,-347.73 1539.16,-347.73"/>
<polygon fill="#32f8ce" stroke="#32f8ce" points="1539.54,-351.23 1549.54,-347.73 1539.54,-344.23 1539.54,-351.23"/>
</g>
<!-- 9579cde7&#45;65d7&#45;43ae&#45;988e&#45;a963f50e8f3d&#45;&gt;6f143a54&#45;986e&#45;4ae3&#45;a84c&#45;b17ba899e41b -->
<g id="edge29" class="edge">
<title>9579cde7&#45;65d7&#45;43ae&#45;988e&#45;a963f50e8f3d&#45;&gt;6f143a54&#45;986e&#45;4ae3&#45;a84c&#45;b17ba899e41b</title>
<path fill="none" stroke="#079d5f" d="M917.47,-49.92C983.43,-53.93 1097.53,-61.44 1195.19,-70.73 1219.05,-73 1245.54,-76.08 1267.42,-78.77"/>
<polygon fill="#079d5f" stroke="#079d5f" points="1267.08,-82.26 1277.43,-80.02 1267.94,-75.31 1267.08,-82.26"/>
</g>
<!-- faf20083&#45;0ac2&#45;43b0&#45;86c4&#45;d04af5f6b1a7&#45;&gt;58b2feeb&#45;93fa&#45;4034&#45;a107&#45;09e30b6bbb5a -->
<g id="edge26" class="edge">
<title>faf20083&#45;0ac2&#45;43b0&#45;86c4&#45;d04af5f6b1a7&#45;&gt;58b2feeb&#45;93fa&#45;4034&#45;a107&#45;09e30b6bbb5a</title>
<path fill="none" stroke="#32f8ce" d="M621.3,-251.17C680.24,-258.54 776.94,-268.73 860.69,-268.73 860.69,-268.73 860.69,-268.73 1315.69,-268.73 1398.86,-268.73 1490.79,-305.94 1540.3,-329.28"/>
<polygon fill="#32f8ce" stroke="#32f8ce" points="1538.79,-332.44 1549.32,-333.61 1541.82,-326.13 1538.79,-332.44"/>
</g>
<!-- 8a179deb&#45;4210&#45;4f30&#45;b529&#45;05d485a35b46&#45;&gt;36d7236e&#45;fb4b&#45;453c&#45;9550&#45;6299436cec56 -->
<g id="edge15" class="edge">
<title>8a179deb&#45;4210&#45;4f30&#45;b529&#45;05d485a35b46&#45;&gt;36d7236e&#45;fb4b&#45;453c&#45;9550&#45;6299436cec56</title>
<path fill="none" stroke="#079d5f" d="M492.47,-303.42C590.78,-290.85 770.55,-263.06 917.19,-213.73 930.64,-209.21 944.97,-203.83 958.27,-198.59"/>
<polygon fill="#079d5f" stroke="#079d5f" points="959.75,-201.77 967.75,-194.82 957.16,-195.27 959.75,-201.77"/>
<text text-anchor="middle" x="713.69" y="-282.33" font-family="Times,serif" font-size="8.00" fill="#079d5f">element EC=3D</text>
</g>
<!-- 8a179deb&#45;4210&#45;4f30&#45;b529&#45;05d485a35b46&#45;&gt;e40291d8&#45;3aa0&#45;4a00&#45;8f1f&#45;9f3d279ceb50 -->
<g id="edge6" class="edge">
<title>8a179deb&#45;4210&#45;4f30&#45;b529&#45;05d485a35b46&#45;&gt;e40291d8&#45;3aa0&#45;4a00&#45;8f1f&#45;9f3d279ceb50</title>
<path fill="none" stroke="#32f8ce" d="M492.49,-327.88C541.29,-338.71 604.82,-352.8 651.1,-363.07"/>
<polygon fill="#32f8ce" stroke="#32f8ce" points="650.47,-366.52 660.99,-365.26 651.99,-359.68 650.47,-366.52"/>
<text text-anchor="middle" x="565.69" y="-357.33" font-family="Times,serif" font-size="8.00" fill="#32f8ce">order EC=5D</text>
</g>
<!-- 1ceff941&#45;0400&#45;4a66&#45;8f4f&#45;a15fe8e7a465&#45;&gt;1ceff941&#45;0400&#45;4a66&#45;8f4f&#45;a15fe8e7a465 -->
<g id="edge8" class="edge">
<title>1ceff941&#45;0400&#45;4a66&#45;8f4f&#45;a15fe8e7a465&#45;&gt;1ceff941&#45;0400&#45;4a66&#45;8f4f&#45;a15fe8e7a465</title>
<path fill="none" stroke="#32f8ce" d="M986.73,-411.89C982.89,-421.27 991.21,-429.73 1011.69,-429.73 1024.17,-429.73 1032.14,-426.59 1035.59,-422.01"/>
<polygon fill="#32f8ce" stroke="#32f8ce" points="1039.09,-422.2 1036.66,-411.89 1032.13,-421.46 1039.09,-422.2"/>
<text text-anchor="middle" x="1011.69" y="-432.33" font-family="Times,serif" font-size="8.00" fill="#32f8ce">order EC=0s</text>
</g>
<!-- ea84453d&#45;5b4f&#45;4b8a&#45;ad73&#45;9b9b81b85157 -->
<g id="node15" class="node">
<title>ea84453d&#45;5b4f&#45;4b8a&#45;ad73&#45;9b9b81b85157</title>
<polygon fill="none" stroke="black" points="1416.19,-411.73 1213.19,-411.73 1213.19,-375.73 1416.19,-375.73 1416.19,-411.73"/>
<text text-anchor="middle" x="1314.69" y="-390.03" font-family="Times,serif" font-size="14.00">Send for Credit Collection</text>
</g>
<!-- 1ceff941&#45;0400&#45;4a66&#45;8f4f&#45;a15fe8e7a465&#45;&gt;ea84453d&#45;5b4f&#45;4b8a&#45;ad73&#45;9b9b81b85157 -->
<g id="edge9" class="edge">
<title>1ceff941&#45;0400&#45;4a66&#45;8f4f&#45;a15fe8e7a465&#45;&gt;ea84453d&#45;5b4f&#45;4b8a&#45;ad73&#45;9b9b81b85157</title>
<path fill="none" stroke="#32f8ce" d="M1088.26,-393.73C1122.95,-393.73 1164.77,-393.73 1202.92,-393.73"/>
<polygon fill="#32f8ce" stroke="#32f8ce" points="1203.05,-397.23 1213.05,-393.73 1203.05,-390.23 1203.05,-397.23"/>
<text text-anchor="middle" x="1150.69" y="-396.33" font-family="Times,serif" font-size="8.00" fill="#32f8ce">order EC=1D</text>
</g>
<!-- ea84453d&#45;5b4f&#45;4b8a&#45;ad73&#45;9b9b81b85157&#45;&gt;58b2feeb&#45;93fa&#45;4034&#45;a107&#45;09e30b6bbb5a -->
<g id="edge27" class="edge">
<title>ea84453d&#45;5b4f&#45;4b8a&#45;ad73&#45;9b9b81b85157&#45;&gt;58b2feeb&#45;93fa&#45;4034&#45;a107&#45;09e30b6bbb5a</title>
<path fill="none" stroke="#32f8ce" d="M1416.67,-376.24C1443.49,-371.56 1472.45,-366.48 1499.19,-361.73 1512.36,-359.39 1526.79,-356.8 1539.58,-354.48"/>
<polygon fill="#32f8ce" stroke="#32f8ce" points="1540.22,-357.92 1549.44,-352.7 1538.98,-351.04 1540.22,-357.92"/>
</g>
<!-- 707bb0e1&#45;9a10&#45;40aa&#45;aeae&#45;4177751dbbb0 -->
<g id="node16" class="node">
<title>707bb0e1&#45;9a10&#45;40aa&#45;aeae&#45;4177751dbbb0</title>
<ellipse fill="#74b9c3" stroke="black" cx="713.69" cy="-222.73" rx="48.19" ry="18"/>
<text text-anchor="middle" x="713.69" y="-219.03" font-family="Times,serif" font-size="14.00">delivery</text>
</g>
<!-- 707bb0e1&#45;9a10&#45;40aa&#45;aeae&#45;4177751dbbb0&#45;&gt;36d7236e&#45;fb4b&#45;453c&#45;9550&#45;6299436cec56 -->
<g id="edge20" class="edge">
<title>707bb0e1&#45;9a10&#45;40aa&#45;aeae&#45;4177751dbbb0&#45;&gt;36d7236e&#45;fb4b&#45;453c&#45;9550&#45;6299436cec56</title>
<path fill="none" stroke="#74b9c3" stroke-width="2.6" d="M758.37,-215.95C805.4,-208.64 881.02,-196.88 937.23,-188.15"/>
<polygon fill="#74b9c3" stroke="#74b9c3" stroke-width="2.6" points="937.79,-191.6 947.14,-186.61 936.72,-184.69 937.79,-191.6"/>
</g>
<!-- 12b9a263&#45;3863&#45;4acc&#45;9f5e&#45;c9aa4395c720 -->
<g id="node17" class="node">
<title>12b9a263&#45;3863&#45;4acc&#45;9f5e&#45;c9aa4395c720</title>
<ellipse fill="#32f8ce" stroke="black" cx="48.1" cy="-191.73" rx="36.29" ry="18"/>
<text text-anchor="middle" x="48.1" y="-188.03" font-family="Times,serif" font-size="14.00">order</text>
</g>
<!-- 12b9a263&#45;3863&#45;4acc&#45;9f5e&#45;c9aa4395c720&#45;&gt;bb39d3f5&#45;a13a&#45;4739&#45;9fe9&#45;f0cea94fd9ad -->
<g id="edge21" class="edge">
<title>12b9a263&#45;3863&#45;4acc&#45;9f5e&#45;c9aa4395c720&#45;&gt;bb39d3f5&#45;a13a&#45;4739&#45;9fe9&#45;f0cea94fd9ad</title>
<path fill="none" stroke="#32f8ce" stroke-width="2.6" d="M84.79,-191.73C96.37,-191.73 109.6,-191.73 122.64,-191.73"/>
<polygon fill="#32f8ce" stroke="#32f8ce" stroke-width="2.6" points="123.01,-195.23 133.01,-191.73 123.01,-188.23 123.01,-195.23"/>
</g>
<!-- 18946207&#45;8af0&#45;4892&#45;8938&#45;eaad66fbdd73 -->
<g id="node18" class="node">
<title>18946207&#45;8af0&#45;4892&#45;8938&#45;eaad66fbdd73</title>
<ellipse fill="#079d5f" stroke="black" cx="48.1" cy="-274.73" rx="48.19" ry="18"/>
<text text-anchor="middle" x="48.1" y="-271.03" font-family="Times,serif" font-size="14.00">element</text>
</g>
<!-- 18946207&#45;8af0&#45;4892&#45;8938&#45;eaad66fbdd73&#45;&gt;bb39d3f5&#45;a13a&#45;4739&#45;9fe9&#45;f0cea94fd9ad -->
<g id="edge22" class="edge">
<title>18946207&#45;8af0&#45;4892&#45;8938&#45;eaad66fbdd73&#45;&gt;bb39d3f5&#45;a13a&#45;4739&#45;9fe9&#45;f0cea94fd9ad</title>
<path fill="none" stroke="#079d5f" stroke-width="2.07" d="M74.52,-259.51C95.3,-247.06 125.04,-229.25 148.82,-215.01"/>
<polygon fill="#079d5f" stroke="#079d5f" stroke-width="2.07" points="150.83,-217.89 157.61,-209.75 147.23,-211.88 150.83,-217.89"/>
</g>
<!-- 18946207&#45;8af0&#45;4892&#45;8938&#45;eaad66fbdd73&#45;&gt;8a179deb&#45;4210&#45;4f30&#45;b529&#45;05d485a35b46 -->
<g id="edge23" class="edge">
<title>18946207&#45;8af0&#45;4892&#45;8938&#45;eaad66fbdd73&#45;&gt;8a179deb&#45;4210&#45;4f30&#45;b529&#45;05d485a35b46</title>
<path fill="none" stroke="#079d5f" d="M94.66,-279.31C154.45,-285.31 260.47,-295.95 334.69,-303.4"/>
<polygon fill="#079d5f" stroke="#079d5f" points="334.65,-306.91 344.95,-304.43 335.35,-299.95 334.65,-306.91"/>
</g>
</g>
</svg>
