<?xml version="1.0" encoding="UTF-8" standalone="no"?>
<!DOCTYPE svg PUBLIC "-//W3C//DTD SVG 1.1//EN"
 "http://www.w3.org/Graphics/SVG/1.1/DTD/svg11.dtd">
<!-- Generated by graphviz version 2.43.0 (0)
 -->
<!-- Title: ocdfg Pages: 1 -->
<svg width="2392pt" height="446pt"
 viewBox="0.00 0.00 2392.18 446.00" xmlns="http://www.w3.org/2000/svg" xmlns:xlink="http://www.w3.org/1999/xlink">
<g id="graph0" class="graph" transform="scale(1 1) rotate(0) translate(4 442)">
<title>ocdfg</title>
<polygon fill="white" stroke="transparent" points="-4,4 -4,-442 2388.18,-442 2388.18,4 -4,4"/>
<!-- 02c7fad9&#45;48e8&#45;474a&#45;b99f&#45;1e598cbbaba5 -->
<g id="node1" class="node">
<title>02c7fad9&#45;48e8&#45;474a&#45;b99f&#45;1e598cbbaba5</title>
<polygon fill="none" stroke="black" points="1006.99,-132 901.99,-132 901.99,-96 1006.99,-96 1006.99,-132"/>
<text text-anchor="middle" x="954.49" y="-110.3" font-family="Times,serif" font-size="14.00">Invoice Sent</text>
</g>
<!-- 6ac6fc58&#45;9776&#45;43d3&#45;858c&#45;eaa60b701291 -->
<g id="node36" class="node">
<title>6ac6fc58&#45;9776&#45;43d3&#45;858c&#45;eaa60b701291</title>
<ellipse fill="#7bb866" stroke="black" cx="1113.08" cy="-114" rx="18" ry="18"/>
<text text-anchor="middle" x="1113.08" y="-110.3" font-family="Times,serif" font-size="14.00"> </text>
</g>
<!-- 02c7fad9&#45;48e8&#45;474a&#45;b99f&#45;1e598cbbaba5&#45;&gt;6ac6fc58&#45;9776&#45;43d3&#45;858c&#45;eaa60b701291 -->
<g id="edge37" class="edge">
<title>02c7fad9&#45;48e8&#45;474a&#45;b99f&#45;1e598cbbaba5&#45;&gt;6ac6fc58&#45;9776&#45;43d3&#45;858c&#45;eaa60b701291</title>
<path fill="none" stroke="#7bb866" d="M1007.19,-114C1032.99,-114 1063.15,-114 1084.49,-114"/>
<polygon fill="#7bb866" stroke="#7bb866" points="1084.78,-117.5 1094.78,-114 1084.78,-110.5 1084.78,-117.5"/>
</g>
<!-- 4fa6d4ba&#45;18e7&#45;496a&#45;82ac&#45;12be993ae390 -->
<g id="node2" class="node">
<title>4fa6d4ba&#45;18e7&#45;496a&#45;82ac&#45;12be993ae390</title>
<polygon fill="none" stroke="black" points="683.49,-274 563.49,-274 563.49,-238 683.49,-238 683.49,-274"/>
<text text-anchor="middle" x="623.49" y="-252.3" font-family="Times,serif" font-size="14.00">Confirm Order</text>
</g>
<!-- eb0506a3&#45;caca&#45;4bcb&#45;a1f1&#45;1c1aef9aac6d -->
<g id="node34" class="node">
<title>eb0506a3&#45;caca&#45;4bcb&#45;a1f1&#45;1c1aef9aac6d</title>
<ellipse fill="#7bb866" stroke="black" cx="788.49" cy="-244" rx="18" ry="18"/>
<text text-anchor="middle" x="788.49" y="-240.3" font-family="Times,serif" font-size="14.00"> </text>
</g>
<!-- 4fa6d4ba&#45;18e7&#45;496a&#45;82ac&#45;12be993ae390&#45;&gt;eb0506a3&#45;caca&#45;4bcb&#45;a1f1&#45;1c1aef9aac6d -->
<g id="edge41" class="edge">
<title>4fa6d4ba&#45;18e7&#45;496a&#45;82ac&#45;12be993ae390&#45;&gt;eb0506a3&#45;caca&#45;4bcb&#45;a1f1&#45;1c1aef9aac6d</title>
<path fill="none" stroke="#7bb866" d="M683.79,-251.63C709.99,-249.7 739.51,-247.53 760.33,-246"/>
<polygon fill="#7bb866" stroke="#7bb866" points="760.64,-249.49 770.36,-245.26 760.13,-242.5 760.64,-249.49"/>
</g>
<!-- 3f6fa9ec&#45;8c42&#45;459d&#45;906a&#45;5a68817c2f4d -->
<g id="node3" class="node">
<title>3f6fa9ec&#45;8c42&#45;459d&#45;906a&#45;5a68817c2f4d</title>
<polygon fill="none" stroke="black" points="441.99,-370 330.99,-370 330.99,-334 441.99,-334 441.99,-370"/>
<text text-anchor="middle" x="386.49" y="-348.3" font-family="Times,serif" font-size="14.00">Remove Item</text>
</g>
<!-- 9c70db10&#45;647b&#45;4bd3&#45;b84f&#45;0b19944f05b5 -->
<g id="node22" class="node">
<title>9c70db10&#45;647b&#45;4bd3&#45;b84f&#45;0b19944f05b5</title>
<ellipse fill="#8dd4ca" stroke="black" cx="495.99" cy="-406" rx="18" ry="18"/>
<text text-anchor="middle" x="495.99" y="-402.3" font-family="Times,serif" font-size="14.00"> </text>
</g>
<!-- 3f6fa9ec&#45;8c42&#45;459d&#45;906a&#45;5a68817c2f4d&#45;&gt;9c70db10&#45;647b&#45;4bd3&#45;b84f&#45;0b19944f05b5 -->
<g id="edge14" class="edge">
<title>3f6fa9ec&#45;8c42&#45;459d&#45;906a&#45;5a68817c2f4d&#45;&gt;9c70db10&#45;647b&#45;4bd3&#45;b84f&#45;0b19944f05b5</title>
<path fill="none" stroke="#8dd4ca" d="M424.16,-370.1C430.12,-373.06 436.23,-376.11 441.99,-379 451.34,-383.7 461.59,-388.91 470.57,-393.49"/>
<polygon fill="#8dd4ca" stroke="#8dd4ca" points="469.2,-396.72 479.7,-398.16 472.39,-390.49 469.2,-396.72"/>
</g>
<!-- 4290d013&#45;0969&#45;4b9d&#45;b5b7&#45;9526a63c3f53 -->
<g id="node4" class="node">
<title>4290d013&#45;0969&#45;4b9d&#45;b5b7&#45;9526a63c3f53</title>
<polygon fill="none" stroke="black" points="1948.18,-366 1827.18,-366 1827.18,-330 1948.18,-330 1948.18,-366"/>
<text text-anchor="middle" x="1887.68" y="-344.3" font-family="Times,serif" font-size="14.00">Retry Delivery</text>
</g>
<!-- badef2b6&#45;71e6&#45;487c&#45;8c1b&#45;d770a4a367ac -->
<g id="node43" class="node">
<title>badef2b6&#45;71e6&#45;487c&#45;8c1b&#45;d770a4a367ac</title>
<ellipse fill="#813857" stroke="black" cx="2053.18" cy="-324" rx="18" ry="18"/>
<text text-anchor="middle" x="2053.18" y="-320.3" font-family="Times,serif" font-size="14.00"> </text>
</g>
<!-- 4290d013&#45;0969&#45;4b9d&#45;b5b7&#45;9526a63c3f53&#45;&gt;badef2b6&#45;71e6&#45;487c&#45;8c1b&#45;d770a4a367ac -->
<g id="edge47" class="edge">
<title>4290d013&#45;0969&#45;4b9d&#45;b5b7&#45;9526a63c3f53&#45;&gt;badef2b6&#45;71e6&#45;487c&#45;8c1b&#45;d770a4a367ac</title>
<path fill="none" stroke="#813857" d="M1948.63,-339.2C1974.86,-335.35 2004.32,-331.02 2025.09,-327.98"/>
<polygon fill="#813857" stroke="#813857" points="2025.72,-331.42 2035.1,-326.51 2024.7,-324.5 2025.72,-331.42"/>
</g>
<!-- 74280ad4&#45;2a2c&#45;47b6&#45;9bae&#45;4225617acc5c -->
<g id="node5" class="node">
<title>74280ad4&#45;2a2c&#45;47b6&#45;9bae&#45;4225617acc5c</title>
<polygon fill="none" stroke="black" points="1028.99,-408 879.99,-408 879.99,-372 1028.99,-372 1028.99,-408"/>
<text text-anchor="middle" x="954.49" y="-386.3" font-family="Times,serif" font-size="14.00">Item back in Stock</text>
</g>
<!-- 17bb3cc4&#45;c1fe&#45;4faa&#45;9953&#45;08b7c2d4a10a -->
<g id="node27" class="node">
<title>17bb3cc4&#45;c1fe&#45;4faa&#45;9953&#45;08b7c2d4a10a</title>
<ellipse fill="#8dd4ca" stroke="black" cx="1113.08" cy="-363" rx="18" ry="18"/>
<text text-anchor="middle" x="1113.08" y="-359.3" font-family="Times,serif" font-size="14.00"> </text>
</g>
<!-- 74280ad4&#45;2a2c&#45;47b6&#45;9bae&#45;4225617acc5c&#45;&gt;17bb3cc4&#45;c1fe&#45;4faa&#45;9953&#45;08b7c2d4a10a -->
<g id="edge22" class="edge">
<title>74280ad4&#45;2a2c&#45;47b6&#45;9bae&#45;4225617acc5c&#45;&gt;17bb3cc4&#45;c1fe&#45;4faa&#45;9953&#45;08b7c2d4a10a</title>
<path fill="none" stroke="#8dd4ca" d="M1029.2,-377.29C1049.18,-373.85 1069.56,-370.33 1085.11,-367.65"/>
<polygon fill="#8dd4ca" stroke="#8dd4ca" points="1085.78,-371.09 1095.04,-365.94 1084.59,-364.19 1085.78,-371.09"/>
</g>
<!-- a0809f33&#45;13e9&#45;4d99&#45;b097&#45;4d2535eb094e -->
<g id="node6" class="node">
<title>a0809f33&#45;13e9&#45;4d99&#45;b097&#45;4d2535eb094e</title>
<polygon fill="none" stroke="black" points="693.49,-408 553.49,-408 553.49,-372 693.49,-372 693.49,-408"/>
<text text-anchor="middle" x="623.49" y="-386.3" font-family="Times,serif" font-size="14.00">Item out of Stock</text>
</g>
<!-- 41aa4193&#45;1d6f&#45;4d17&#45;be70&#45;7a3fd8daf38d -->
<g id="node23" class="node">
<title>41aa4193&#45;1d6f&#45;4d17&#45;be70&#45;7a3fd8daf38d</title>
<ellipse fill="#8dd4ca" stroke="black" cx="788.49" cy="-390" rx="18" ry="18"/>
<text text-anchor="middle" x="788.49" y="-386.3" font-family="Times,serif" font-size="14.00"> </text>
</g>
<!-- a0809f33&#45;13e9&#45;4d99&#45;b097&#45;4d2535eb094e&#45;&gt;41aa4193&#45;1d6f&#45;4d17&#45;be70&#45;7a3fd8daf38d -->
<g id="edge15" class="edge">
<title>a0809f33&#45;13e9&#45;4d99&#45;b097&#45;4d2535eb094e&#45;&gt;41aa4193&#45;1d6f&#45;4d17&#45;be70&#45;7a3fd8daf38d</title>
<path fill="none" stroke="#8dd4ca" d="M693.61,-390C717,-390 741.79,-390 760.01,-390"/>
<polygon fill="#8dd4ca" stroke="#8dd4ca" points="760.18,-393.5 770.18,-390 760.18,-386.5 760.18,-393.5"/>
</g>
<!-- 10adbe9a&#45;0148&#45;4eb5&#45;a7e5&#45;204b31a283c9 -->
<g id="node7" class="node">
<title>10adbe9a&#45;0148&#45;4eb5&#45;a7e5&#45;204b31a283c9</title>
<polygon fill="none" stroke="black" points="1451.18,-132 1362.18,-132 1362.18,-96 1451.18,-96 1451.18,-132"/>
<text text-anchor="middle" x="1406.68" y="-110.3" font-family="Times,serif" font-size="14.00">Pay Order</text>
</g>
<!-- 53c1e6e7&#45;8db0&#45;43f6&#45;9cca&#45;7135f5cf1bef -->
<g id="node19" class="node">
<title>53c1e6e7&#45;8db0&#45;43f6&#45;9cca&#45;7135f5cf1bef</title>
<polygon fill="none" stroke="transparent" points="2081.18,-136 2025.18,-136 2025.18,-100 2081.18,-100 2081.18,-136"/>
<polyline fill="none" stroke="black" points="2025.18,-100 2081.18,-100 "/>
<text text-anchor="middle" x="2053.18" y="-114.3" font-family="Times,serif" font-size="14.00" fill="#7bb866">order</text>
</g>
<!-- 10adbe9a&#45;0148&#45;4eb5&#45;a7e5&#45;204b31a283c9&#45;&gt;53c1e6e7&#45;8db0&#45;43f6&#45;9cca&#45;7135f5cf1bef -->
<g id="edge26" class="edge">
<title>10adbe9a&#45;0148&#45;4eb5&#45;a7e5&#45;204b31a283c9&#45;&gt;53c1e6e7&#45;8db0&#45;43f6&#45;9cca&#45;7135f5cf1bef</title>
<path fill="none" stroke="#7bb866" d="M1451.22,-114.27C1570.79,-115.01 1902.77,-117.07 2014.74,-117.77"/>
<polygon fill="#7bb866" stroke="#7bb866" points="2014.86,-121.27 2024.88,-117.83 2014.9,-114.27 2014.86,-121.27"/>
</g>
<!-- bbd64a27&#45;335c&#45;411c&#45;ba00&#45;c9725bd4dd7a -->
<g id="node8" class="node">
<title>bbd64a27&#45;335c&#45;411c&#45;ba00&#45;c9725bd4dd7a</title>
<polygon fill="none" stroke="black" points="1326.18,-341 1197.18,-341 1197.18,-305 1326.18,-305 1326.18,-341"/>
<text text-anchor="middle" x="1261.68" y="-319.3" font-family="Times,serif" font-size="14.00">Create Delivery</text>
</g>
<!-- 5b09bb2c&#45;bc6f&#45;4a2b&#45;9027&#45;f406a511373a -->
<g id="node26" class="node">
<title>5b09bb2c&#45;bc6f&#45;4a2b&#45;9027&#45;f406a511373a</title>
<ellipse fill="#8dd4ca" stroke="black" cx="1406.68" cy="-377" rx="18" ry="18"/>
<text text-anchor="middle" x="1406.68" y="-373.3" font-family="Times,serif" font-size="14.00"> </text>
</g>
<!-- bbd64a27&#45;335c&#45;411c&#45;ba00&#45;c9725bd4dd7a&#45;&gt;5b09bb2c&#45;bc6f&#45;4a2b&#45;9027&#45;f406a511373a -->
<g id="edge18" class="edge">
<title>bbd64a27&#45;335c&#45;411c&#45;ba00&#45;c9725bd4dd7a&#45;&gt;5b09bb2c&#45;bc6f&#45;4a2b&#45;9027&#45;f406a511373a</title>
<path fill="none" stroke="#8dd4ca" stroke-width="4" d="M1310.69,-341.13C1333.8,-349.86 1360.59,-359.98 1379.82,-367.24"/>
<polygon fill="#8dd4ca" stroke="#8dd4ca" stroke-width="4" points="1378.79,-370.59 1389.39,-370.85 1381.27,-364.04 1378.79,-370.59"/>
</g>
<!-- a56b027e&#45;76a8&#45;457c&#45;a36f&#45;09cf5373eda5 -->
<g id="node41" class="node">
<title>a56b027e&#45;76a8&#45;457c&#45;a36f&#45;09cf5373eda5</title>
<ellipse fill="#813857" stroke="black" cx="1406.68" cy="-323" rx="18" ry="18"/>
<text text-anchor="middle" x="1406.68" y="-319.3" font-family="Times,serif" font-size="14.00"> </text>
</g>
<!-- bbd64a27&#45;335c&#45;411c&#45;ba00&#45;c9725bd4dd7a&#45;&gt;a56b027e&#45;76a8&#45;457c&#45;a36f&#45;09cf5373eda5 -->
<g id="edge51" class="edge">
<title>bbd64a27&#45;335c&#45;411c&#45;ba00&#45;c9725bd4dd7a&#45;&gt;a56b027e&#45;76a8&#45;457c&#45;a36f&#45;09cf5373eda5</title>
<path fill="none" stroke="#813857" d="M1326.23,-323C1344.42,-323 1363.3,-323 1378.09,-323"/>
<polygon fill="#813857" stroke="#813857" points="1378.53,-326.5 1388.53,-323 1378.53,-319.5 1378.53,-326.5"/>
</g>
<!-- d96b55e8&#45;9a3e&#45;428a&#45;98a5&#45;b6a03f09edeb -->
<g id="node9" class="node">
<title>d96b55e8&#45;9a3e&#45;428a&#45;98a5&#45;b6a03f09edeb</title>
<polygon fill="none" stroke="black" points="1640.18,-82 1487.18,-82 1487.18,-46 1640.18,-46 1640.18,-82"/>
<text text-anchor="middle" x="1563.68" y="-60.3" font-family="Times,serif" font-size="14.00">Payment Reminder</text>
</g>
<!-- 7542ee37&#45;f8e4&#45;4951&#45;abcf&#45;de25a3f69acd -->
<g id="node38" class="node">
<title>7542ee37&#45;f8e4&#45;4951&#45;abcf&#45;de25a3f69acd</title>
<ellipse fill="#7bb866" stroke="black" cx="1713.18" cy="-64" rx="18" ry="18"/>
<text text-anchor="middle" x="1713.18" y="-60.3" font-family="Times,serif" font-size="14.00"> </text>
</g>
<!-- d96b55e8&#45;9a3e&#45;428a&#45;98a5&#45;b6a03f09edeb&#45;&gt;7542ee37&#45;f8e4&#45;4951&#45;abcf&#45;de25a3f69acd -->
<g id="edge40" class="edge">
<title>d96b55e8&#45;9a3e&#45;428a&#45;98a5&#45;b6a03f09edeb&#45;&gt;7542ee37&#45;f8e4&#45;4951&#45;abcf&#45;de25a3f69acd</title>
<path fill="none" stroke="#7bb866" d="M1640.59,-64C1656.42,-64 1672.12,-64 1684.76,-64"/>
<polygon fill="#7bb866" stroke="#7bb866" points="1685.02,-67.5 1695.02,-64 1685.02,-60.5 1685.02,-67.5"/>
</g>
<!-- f211de41&#45;08b3&#45;49a1&#45;8c8b&#45;98ca174b60a0 -->
<g id="node10" class="node">
<title>f211de41&#45;08b3&#45;49a1&#45;8c8b&#45;98ca174b60a0</title>
<polygon fill="none" stroke="black" points="1989.18,-90 1786.18,-90 1786.18,-54 1989.18,-54 1989.18,-90"/>
<text text-anchor="middle" x="1887.68" y="-68.3" font-family="Times,serif" font-size="14.00">Send for Credit Collection</text>
</g>
<!-- f211de41&#45;08b3&#45;49a1&#45;8c8b&#45;98ca174b60a0&#45;&gt;53c1e6e7&#45;8db0&#45;43f6&#45;9cca&#45;7135f5cf1bef -->
<g id="edge33" class="edge">
<title>f211de41&#45;08b3&#45;49a1&#45;8c8b&#45;98ca174b60a0&#45;&gt;53c1e6e7&#45;8db0&#45;43f6&#45;9cca&#45;7135f5cf1bef</title>
<path fill="none" stroke="#7bb866" d="M1952.83,-90.05C1973.96,-95.99 1996.75,-102.4 2015.16,-107.58"/>
<polygon fill="#7bb866" stroke="#7bb866" points="2014.32,-110.99 2024.9,-110.32 2016.22,-104.25 2014.32,-110.99"/>
</g>
<!-- be0c9eea&#45;9268&#45;4034&#45;bd00&#45;73a319795034 -->
<g id="node11" class="node">
<title>be0c9eea&#45;9268&#45;4034&#45;bd00&#45;73a319795034</title>
<polygon fill="none" stroke="black" points="843.99,-316 732.99,-316 732.99,-280 843.99,-280 843.99,-316"/>
<text text-anchor="middle" x="788.49" y="-294.3" font-family="Times,serif" font-size="14.00">Cancel Order</text>
</g>
<!-- be0c9eea&#45;9268&#45;4034&#45;bd00&#45;73a319795034&#45;&gt;53c1e6e7&#45;8db0&#45;43f6&#45;9cca&#45;7135f5cf1bef -->
<g id="edge39" class="edge">
<title>be0c9eea&#45;9268&#45;4034&#45;bd00&#45;73a319795034&#45;&gt;53c1e6e7&#45;8db0&#45;43f6&#45;9cca&#45;7135f5cf1bef</title>
<path fill="none" stroke="#7bb866" d="M827.02,-279.96C905.44,-242.55 1081.93,-160 1112.08,-160 1112.08,-160 1112.08,-160 1714.18,-160 1837.08,-160 1867.74,-149.89 1989.18,-131 1997.57,-129.69 2006.54,-128.02 2015,-126.3"/>
<polygon fill="#7bb866" stroke="#7bb866" points="2015.92,-129.69 2024.99,-124.22 2014.49,-122.83 2015.92,-129.69"/>
</g>
<!-- 49d2cbfc&#45;3c2b&#45;4174&#45;b5bc&#45;d97314a6767f -->
<g id="node12" class="node">
<title>49d2cbfc&#45;3c2b&#45;4174&#45;b5bc&#45;d97314a6767f</title>
<polygon fill="none" stroke="black" points="1626.18,-364 1501.18,-364 1501.18,-328 1626.18,-328 1626.18,-364"/>
<text text-anchor="middle" x="1563.68" y="-342.3" font-family="Times,serif" font-size="14.00">Delivery Failed</text>
</g>
<!-- 22a7f64b&#45;4a12&#45;4983&#45;a652&#45;2c794f6688ae -->
<g id="node42" class="node">
<title>22a7f64b&#45;4a12&#45;4983&#45;a652&#45;2c794f6688ae</title>
<ellipse fill="#813857" stroke="black" cx="1713.18" cy="-350" rx="18" ry="18"/>
<text text-anchor="middle" x="1713.18" y="-346.3" font-family="Times,serif" font-size="14.00"> </text>
</g>
<!-- 49d2cbfc&#45;3c2b&#45;4174&#45;b5bc&#45;d97314a6767f&#45;&gt;22a7f64b&#45;4a12&#45;4983&#45;a652&#45;2c794f6688ae -->
<g id="edge46" class="edge">
<title>49d2cbfc&#45;3c2b&#45;4174&#45;b5bc&#45;d97314a6767f&#45;&gt;22a7f64b&#45;4a12&#45;4983&#45;a652&#45;2c794f6688ae</title>
<path fill="none" stroke="#813857" d="M1626.38,-347.67C1646.84,-348.23 1668.57,-348.82 1685.05,-349.26"/>
<polygon fill="#813857" stroke="#813857" points="1684.96,-352.76 1695.05,-349.54 1685.15,-345.77 1684.96,-352.76"/>
</g>
<!-- b0fa34f4&#45;86e1&#45;4784&#45;9456&#45;8530fbc418f9 -->
<g id="node13" class="node">
<title>b0fa34f4&#45;86e1&#45;4784&#45;9456&#45;8530fbc418f9</title>
<polygon fill="none" stroke="black" points="441.99,-310 330.99,-310 330.99,-274 441.99,-274 441.99,-310"/>
<text text-anchor="middle" x="386.49" y="-288.3" font-family="Times,serif" font-size="14.00">Create Order</text>
</g>
<!-- b6a305ad&#45;d928&#45;4376&#45;9d3d&#45;0bf0f299aa70 -->
<g id="node28" class="node">
<title>b6a305ad&#45;d928&#45;4376&#45;9d3d&#45;0bf0f299aa70</title>
<ellipse fill="#8dd4ca" stroke="black" cx="495.99" cy="-344" rx="18" ry="18"/>
<text text-anchor="middle" x="495.99" y="-340.3" font-family="Times,serif" font-size="14.00"> </text>
</g>
<!-- b0fa34f4&#45;86e1&#45;4784&#45;9456&#45;8530fbc418f9&#45;&gt;b6a305ad&#45;d928&#45;4376&#45;9d3d&#45;0bf0f299aa70 -->
<g id="edge21" class="edge">
<title>b0fa34f4&#45;86e1&#45;4784&#45;9456&#45;8530fbc418f9&#45;&gt;b6a305ad&#45;d928&#45;4376&#45;9d3d&#45;0bf0f299aa70</title>
<path fill="none" stroke="#8dd4ca" stroke-width="4" d="M424.78,-310.04C439.81,-317.31 456.74,-325.5 470.21,-332.01"/>
<polygon fill="#8dd4ca" stroke="#8dd4ca" stroke-width="4" points="468.8,-335.22 479.33,-336.43 471.85,-328.92 468.8,-335.22"/>
</g>
<!-- da521aee&#45;2fd0&#45;4c41&#45;aca6&#45;6ef2ea82c7b3 -->
<g id="node35" class="node">
<title>da521aee&#45;2fd0&#45;4c41&#45;aca6&#45;6ef2ea82c7b3</title>
<ellipse fill="#7bb866" stroke="black" cx="495.99" cy="-281" rx="18" ry="18"/>
<text text-anchor="middle" x="495.99" y="-277.3" font-family="Times,serif" font-size="14.00"> </text>
</g>
<!-- b0fa34f4&#45;86e1&#45;4784&#45;9456&#45;8530fbc418f9&#45;&gt;da521aee&#45;2fd0&#45;4c41&#45;aca6&#45;6ef2ea82c7b3 -->
<g id="edge29" class="edge">
<title>b0fa34f4&#45;86e1&#45;4784&#45;9456&#45;8530fbc418f9&#45;&gt;da521aee&#45;2fd0&#45;4c41&#45;aca6&#45;6ef2ea82c7b3</title>
<path fill="none" stroke="#7bb866" d="M442.18,-286.4C451.02,-285.5 459.83,-284.6 467.65,-283.8"/>
<polygon fill="#7bb866" stroke="#7bb866" points="468.01,-287.28 477.61,-282.78 467.3,-280.31 468.01,-287.28"/>
</g>
<!-- 2901e731&#45;74a1&#45;4afe&#45;9360&#45;904a9cb8b8e3 -->
<g id="node14" class="node">
<title>2901e731&#45;74a1&#45;4afe&#45;9360&#45;904a9cb8b8e3</title>
<polygon fill="none" stroke="black" points="696.99,-220 549.99,-220 549.99,-184 696.99,-184 696.99,-220"/>
<text text-anchor="middle" x="623.49" y="-198.3" font-family="Times,serif" font-size="14.00">Add Item to Order</text>
</g>
<!-- 2901e731&#45;74a1&#45;4afe&#45;9360&#45;904a9cb8b8e3&#45;&gt;17bb3cc4&#45;c1fe&#45;4faa&#45;9953&#45;08b7c2d4a10a -->
<g id="edge16" class="edge">
<title>2901e731&#45;74a1&#45;4afe&#45;9360&#45;904a9cb8b8e3&#45;&gt;17bb3cc4&#45;c1fe&#45;4faa&#45;9953&#45;08b7c2d4a10a</title>
<path fill="none" stroke="#8dd4ca" d="M697.08,-199.88C740.42,-200.35 796.15,-204.03 843.99,-217 932.61,-241.04 950.82,-260.81 1028.99,-309 1046.01,-319.5 1048.28,-325.01 1064.99,-336 1072.29,-340.81 1080.49,-345.68 1087.97,-349.94"/>
<polygon fill="#8dd4ca" stroke="#8dd4ca" points="1086.51,-353.13 1096.95,-354.95 1089.93,-347.02 1086.51,-353.13"/>
</g>
<!-- 2901e731&#45;74a1&#45;4afe&#45;9360&#45;904a9cb8b8e3&#45;&gt;eb0506a3&#45;caca&#45;4bcb&#45;a1f1&#45;1c1aef9aac6d -->
<g id="edge42" class="edge">
<title>2901e731&#45;74a1&#45;4afe&#45;9360&#45;904a9cb8b8e3&#45;&gt;eb0506a3&#45;caca&#45;4bcb&#45;a1f1&#45;1c1aef9aac6d</title>
<path fill="none" stroke="#7bb866" d="M694.56,-220.06C718.07,-226.11 742.88,-232.51 760.95,-237.16"/>
<polygon fill="#7bb866" stroke="#7bb866" points="760.18,-240.58 770.74,-239.69 761.93,-233.8 760.18,-240.58"/>
</g>
<!-- 510ca6e8&#45;5bd3&#45;409f&#45;b5b0&#45;446d6a62e1c4 -->
<g id="node15" class="node">
<title>510ca6e8&#45;5bd3&#45;409f&#45;b5b0&#45;446d6a62e1c4</title>
<polygon fill="none" stroke="black" points="2274.18,-342 2117.18,-342 2117.18,-306 2274.18,-306 2274.18,-342"/>
<text text-anchor="middle" x="2195.68" y="-320.3" font-family="Times,serif" font-size="14.00">Delivery Successful</text>
</g>
<!-- f64ed92a&#45;d391&#45;4237&#45;beb0&#45;eb7cc9b73a8a -->
<g id="node21" class="node">
<title>f64ed92a&#45;d391&#45;4237&#45;beb0&#45;eb7cc9b73a8a</title>
<polygon fill="none" stroke="transparent" points="2384.18,-342 2310.18,-342 2310.18,-306 2384.18,-306 2384.18,-342"/>
<polyline fill="none" stroke="black" points="2310.18,-306 2384.18,-306 "/>
<text text-anchor="middle" x="2347.18" y="-320.3" font-family="Times,serif" font-size="14.00" fill="#813857">delivery</text>
</g>
<!-- 510ca6e8&#45;5bd3&#45;409f&#45;b5b0&#45;446d6a62e1c4&#45;&gt;f64ed92a&#45;d391&#45;4237&#45;beb0&#45;eb7cc9b73a8a -->
<g id="edge54" class="edge">
<title>510ca6e8&#45;5bd3&#45;409f&#45;b5b0&#45;446d6a62e1c4&#45;&gt;f64ed92a&#45;d391&#45;4237&#45;beb0&#45;eb7cc9b73a8a</title>
<path fill="none" stroke="#813857" d="M2274.49,-324C2283.08,-324 2291.61,-324 2299.63,-324"/>
<polygon fill="#813857" stroke="#813857" points="2299.84,-327.5 2309.84,-324 2299.84,-320.5 2299.84,-327.5"/>
</g>
<!-- a5411c16&#45;c81e&#45;44f9&#45;aafb&#45;fef935808831 -->
<g id="node16" class="node">
<title>a5411c16&#45;c81e&#45;44f9&#45;aafb&#45;fef935808831</title>
<ellipse fill="#8dd4ca" stroke="black" cx="48.1" cy="-295" rx="48.19" ry="18"/>
<text text-anchor="middle" x="48.1" y="-291.3" font-family="Times,serif" font-size="14.00">element</text>
</g>
<!-- 67a36134&#45;a988&#45;4db9&#45;bd4a&#45;99e4f980bb1d -->
<g id="node32" class="node">
<title>67a36134&#45;a988&#45;4db9&#45;bd4a&#45;99e4f980bb1d</title>
<polygon fill="#8dd4ca" stroke="black" points="186.19,-313 132.19,-313 132.19,-277 186.19,-277 186.19,-313"/>
<text text-anchor="middle" x="159.19" y="-291.3" font-family="Times,serif" font-size="14.00"> </text>
</g>
<!-- a5411c16&#45;c81e&#45;44f9&#45;aafb&#45;fef935808831&#45;&gt;67a36134&#45;a988&#45;4db9&#45;bd4a&#45;99e4f980bb1d -->
<g id="edge8" class="edge">
<title>a5411c16&#45;c81e&#45;44f9&#45;aafb&#45;fef935808831&#45;&gt;67a36134&#45;a988&#45;4db9&#45;bd4a&#45;99e4f980bb1d</title>
<path fill="none" stroke="#8dd4ca" d="M96.31,-295C104.8,-295 113.53,-295 121.66,-295"/>
<polygon fill="#8dd4ca" stroke="#8dd4ca" points="121.93,-298.5 131.93,-295 121.93,-291.5 121.93,-298.5"/>
</g>
<!-- 95ef1458&#45;3fc5&#45;4649&#45;a18e&#45;387c543ae157 -->
<g id="node17" class="node">
<title>95ef1458&#45;3fc5&#45;4649&#45;a18e&#45;387c543ae157</title>
<polygon fill="none" stroke="transparent" points="1750.18,-438 1676.18,-438 1676.18,-402 1750.18,-402 1750.18,-438"/>
<polyline fill="none" stroke="black" points="1676.18,-402 1750.18,-402 "/>
<text text-anchor="middle" x="1713.18" y="-416.3" font-family="Times,serif" font-size="14.00" fill="#8dd4ca">element</text>
</g>
<!-- d045cbea&#45;851d&#45;421e&#45;a523&#45;4c67ac92984e -->
<g id="node18" class="node">
<title>d045cbea&#45;851d&#45;421e&#45;a523&#45;4c67ac92984e</title>
<ellipse fill="#7bb866" stroke="black" cx="258.59" cy="-295" rx="36.29" ry="18"/>
<text text-anchor="middle" x="258.59" y="-291.3" font-family="Times,serif" font-size="14.00">order</text>
</g>
<!-- d045cbea&#45;851d&#45;421e&#45;a523&#45;4c67ac92984e&#45;&gt;b0fa34f4&#45;86e1&#45;4784&#45;9456&#45;8530fbc418f9 -->
<g id="edge28" class="edge">
<title>d045cbea&#45;851d&#45;421e&#45;a523&#45;4c67ac92984e&#45;&gt;b0fa34f4&#45;86e1&#45;4784&#45;9456&#45;8530fbc418f9</title>
<path fill="none" stroke="#7bb866" d="M294.99,-294.16C302.94,-293.97 311.61,-293.76 320.34,-293.55"/>
<polygon fill="#7bb866" stroke="#7bb866" points="320.67,-297.05 330.58,-293.31 320.5,-290.05 320.67,-297.05"/>
</g>
<!-- 063cd602&#45;4cac&#45;4141&#45;b96a&#45;2c851ef2fde6 -->
<g id="node20" class="node">
<title>063cd602&#45;4cac&#45;4141&#45;b96a&#45;2c851ef2fde6</title>
<ellipse fill="#813857" stroke="black" cx="1113.08" cy="-309" rx="48.19" ry="18"/>
<text text-anchor="middle" x="1113.08" y="-305.3" font-family="Times,serif" font-size="14.00">delivery</text>
</g>
<!-- 063cd602&#45;4cac&#45;4141&#45;b96a&#45;2c851ef2fde6&#45;&gt;bbd64a27&#45;335c&#45;411c&#45;ba00&#45;c9725bd4dd7a -->
<g id="edge45" class="edge">
<title>063cd602&#45;4cac&#45;4141&#45;b96a&#45;2c851ef2fde6&#45;&gt;bbd64a27&#45;335c&#45;411c&#45;ba00&#45;c9725bd4dd7a</title>
<path fill="none" stroke="#813857" d="M1160.06,-313.39C1168.7,-314.22 1177.92,-315.1 1187.15,-315.98"/>
<polygon fill="#813857" stroke="#813857" points="1186.85,-319.46 1197.13,-316.93 1187.51,-312.5 1186.85,-319.46"/>
</g>
<!-- d7e3cb32&#45;3993&#45;4fca&#45;8c24&#45;2b33e9cd1a95 -->
<g id="node29" class="node">
<title>d7e3cb32&#45;3993&#45;4fca&#45;8c24&#45;2b33e9cd1a95</title>
<polygon fill="#8dd4ca" stroke="black" points="1590.68,-438 1536.68,-438 1536.68,-402 1590.68,-402 1590.68,-438"/>
<text text-anchor="middle" x="1563.68" y="-416.3" font-family="Times,serif" font-size="14.00"> </text>
</g>
<!-- 9c70db10&#45;647b&#45;4bd3&#45;b84f&#45;0b19944f05b5&#45;&gt;d7e3cb32&#45;3993&#45;4fca&#45;8c24&#45;2b33e9cd1a95 -->
<g id="edge4" class="edge">
<title>9c70db10&#45;647b&#45;4bd3&#45;b84f&#45;0b19944f05b5&#45;&gt;d7e3cb32&#45;3993&#45;4fca&#45;8c24&#45;2b33e9cd1a95</title>
<path fill="none" stroke="#8dd4ca" d="M513.6,-410C524,-412.37 537.71,-415.24 549.99,-417 654.81,-432.01 681.59,-436 787.49,-436 787.49,-436 787.49,-436 1262.68,-436 1357.98,-436 1470.07,-427.85 1526.43,-423.18"/>
<polygon fill="#8dd4ca" stroke="#8dd4ca" points="1526.95,-426.65 1536.62,-422.33 1526.36,-419.68 1526.95,-426.65"/>
</g>
<!-- 41aa4193&#45;1d6f&#45;4d17&#45;be70&#45;7a3fd8daf38d&#45;&gt;74280ad4&#45;2a2c&#45;47b6&#45;9bae&#45;4225617acc5c -->
<g id="edge10" class="edge">
<title>41aa4193&#45;1d6f&#45;4d17&#45;be70&#45;7a3fd8daf38d&#45;&gt;74280ad4&#45;2a2c&#45;47b6&#45;9bae&#45;4225617acc5c</title>
<path fill="none" stroke="#8dd4ca" d="M806.73,-390C822.05,-390 845.67,-390 869.51,-390"/>
<polygon fill="#8dd4ca" stroke="#8dd4ca" points="869.71,-393.5 879.71,-390 869.71,-386.5 869.71,-393.5"/>
</g>
<!-- 4e4b669f&#45;7eb8&#45;4af6&#45;93f1&#45;64c288b6de2b -->
<g id="node24" class="node">
<title>4e4b669f&#45;7eb8&#45;4af6&#45;93f1&#45;64c288b6de2b</title>
<ellipse fill="#8dd4ca" stroke="black" cx="258.59" cy="-352" rx="18" ry="18"/>
<text text-anchor="middle" x="258.59" y="-348.3" font-family="Times,serif" font-size="14.00"> </text>
</g>
<!-- 4e4b669f&#45;7eb8&#45;4af6&#45;93f1&#45;64c288b6de2b&#45;&gt;3f6fa9ec&#45;8c42&#45;459d&#45;906a&#45;5a68817c2f4d -->
<g id="edge7" class="edge">
<title>4e4b669f&#45;7eb8&#45;4af6&#45;93f1&#45;64c288b6de2b&#45;&gt;3f6fa9ec&#45;8c42&#45;459d&#45;906a&#45;5a68817c2f4d</title>
<path fill="none" stroke="#8dd4ca" d="M276.83,-352C288.43,-352 304.52,-352 320.77,-352"/>
<polygon fill="#8dd4ca" stroke="#8dd4ca" points="320.87,-355.5 330.87,-352 320.87,-348.5 320.87,-355.5"/>
</g>
<!-- 154b52b5&#45;d276&#45;493c&#45;bb39&#45;1980907b9fd5 -->
<g id="node33" class="node">
<title>154b52b5&#45;d276&#45;493c&#45;bb39&#45;1980907b9fd5</title>
<polygon fill="#8dd4ca" stroke="black" points="413.49,-424 359.49,-424 359.49,-388 413.49,-388 413.49,-424"/>
<text text-anchor="middle" x="386.49" y="-402.3" font-family="Times,serif" font-size="14.00"> </text>
</g>
<!-- 4e4b669f&#45;7eb8&#45;4af6&#45;93f1&#45;64c288b6de2b&#45;&gt;154b52b5&#45;d276&#45;493c&#45;bb39&#45;1980907b9fd5 -->
<g id="edge6" class="edge">
<title>4e4b669f&#45;7eb8&#45;4af6&#45;93f1&#45;64c288b6de2b&#45;&gt;154b52b5&#45;d276&#45;493c&#45;bb39&#45;1980907b9fd5</title>
<path fill="none" stroke="#8dd4ca" d="M275.53,-358.84C294.11,-366.81 325.37,-380.22 349.82,-390.7"/>
<polygon fill="#8dd4ca" stroke="#8dd4ca" points="348.58,-393.98 359.15,-394.71 351.34,-387.55 348.58,-393.98"/>
</g>
<!-- 9febcd0b&#45;c38c&#45;4466&#45;93be&#45;7d00d41b56cb -->
<g id="node25" class="node">
<title>9febcd0b&#45;c38c&#45;4466&#45;93be&#45;7d00d41b56cb</title>
<ellipse fill="#8dd4ca" stroke="black" cx="258.59" cy="-241" rx="18" ry="18"/>
<text text-anchor="middle" x="258.59" y="-237.3" font-family="Times,serif" font-size="14.00"> </text>
</g>
<!-- 9febcd0b&#45;c38c&#45;4466&#45;93be&#45;7d00d41b56cb&#45;&gt;b0fa34f4&#45;86e1&#45;4784&#45;9456&#45;8530fbc418f9 -->
<g id="edge20" class="edge">
<title>9febcd0b&#45;c38c&#45;4466&#45;93be&#45;7d00d41b56cb&#45;&gt;b0fa34f4&#45;86e1&#45;4784&#45;9456&#45;8530fbc418f9</title>
<path fill="none" stroke="#8dd4ca" stroke-width="4" d="M275.53,-247.46C289.7,-253.2 311.24,-261.93 331.52,-270.14"/>
<polygon fill="#8dd4ca" stroke="#8dd4ca" stroke-width="4" points="330.44,-273.48 341.02,-273.99 333.07,-266.99 330.44,-273.48"/>
</g>
<!-- 9febcd0b&#45;c38c&#45;4466&#45;93be&#45;7d00d41b56cb&#45;&gt;2901e731&#45;74a1&#45;4afe&#45;9360&#45;904a9cb8b8e3 -->
<g id="edge11" class="edge">
<title>9febcd0b&#45;c38c&#45;4466&#45;93be&#45;7d00d41b56cb&#45;&gt;2901e731&#45;74a1&#45;4afe&#45;9360&#45;904a9cb8b8e3</title>
<path fill="none" stroke="#8dd4ca" d="M276.6,-239.17C322.77,-234.21 452.74,-220.24 539.54,-210.91"/>
<polygon fill="#8dd4ca" stroke="#8dd4ca" points="540.07,-214.38 549.64,-209.83 539.32,-207.42 540.07,-214.38"/>
</g>
<!-- 5b09bb2c&#45;bc6f&#45;4a2b&#45;9027&#45;f406a511373a&#45;&gt;d7e3cb32&#45;3993&#45;4fca&#45;8c24&#45;2b33e9cd1a95 -->
<g id="edge2" class="edge">
<title>5b09bb2c&#45;bc6f&#45;4a2b&#45;9027&#45;f406a511373a&#45;&gt;d7e3cb32&#45;3993&#45;4fca&#45;8c24&#45;2b33e9cd1a95</title>
<path fill="none" stroke="#8dd4ca" d="M1424.26,-381.6C1448.51,-388.33 1494.23,-401.01 1526.47,-409.96"/>
<polygon fill="#8dd4ca" stroke="#8dd4ca" points="1525.85,-413.42 1536.43,-412.72 1527.73,-406.67 1525.85,-413.42"/>
</g>
<!-- 17bb3cc4&#45;c1fe&#45;4faa&#45;9953&#45;08b7c2d4a10a&#45;&gt;bbd64a27&#45;335c&#45;411c&#45;ba00&#45;c9725bd4dd7a -->
<g id="edge5" class="edge">
<title>17bb3cc4&#45;c1fe&#45;4faa&#45;9953&#45;08b7c2d4a10a&#45;&gt;bbd64a27&#45;335c&#45;411c&#45;ba00&#45;c9725bd4dd7a</title>
<path fill="none" stroke="#8dd4ca" stroke-width="4" d="M1130.61,-358.49C1144.7,-354.64 1166.01,-348.83 1187.32,-343.02"/>
<polygon fill="#8dd4ca" stroke="#8dd4ca" stroke-width="4" points="1188.36,-346.36 1197.08,-340.35 1186.51,-339.61 1188.36,-346.36"/>
</g>
<!-- 6a02025c&#45;d185&#45;4067&#45;bddd&#45;a0191b811913 -->
<g id="node31" class="node">
<title>6a02025c&#45;d185&#45;4067&#45;bddd&#45;a0191b811913</title>
<polygon fill="#8dd4ca" stroke="black" points="1288.68,-395 1234.68,-395 1234.68,-359 1288.68,-359 1288.68,-395"/>
<text text-anchor="middle" x="1261.68" y="-373.3" font-family="Times,serif" font-size="14.00"> </text>
</g>
<!-- 17bb3cc4&#45;c1fe&#45;4faa&#45;9953&#45;08b7c2d4a10a&#45;&gt;6a02025c&#45;d185&#45;4067&#45;bddd&#45;a0191b811913 -->
<g id="edge17" class="edge">
<title>17bb3cc4&#45;c1fe&#45;4faa&#45;9953&#45;08b7c2d4a10a&#45;&gt;6a02025c&#45;d185&#45;4067&#45;bddd&#45;a0191b811913</title>
<path fill="none" stroke="#8dd4ca" d="M1131.18,-364.63C1153.95,-366.81 1194.8,-370.71 1224.54,-373.55"/>
<polygon fill="#8dd4ca" stroke="#8dd4ca" points="1224.27,-377.04 1234.55,-374.51 1224.93,-370.07 1224.27,-377.04"/>
</g>
<!-- b6a305ad&#45;d928&#45;4376&#45;9d3d&#45;0bf0f299aa70&#45;&gt;a0809f33&#45;13e9&#45;4d99&#45;b097&#45;4d2535eb094e -->
<g id="edge3" class="edge">
<title>b6a305ad&#45;d928&#45;4376&#45;9d3d&#45;0bf0f299aa70&#45;&gt;a0809f33&#45;13e9&#45;4d99&#45;b097&#45;4d2535eb094e</title>
<path fill="none" stroke="#8dd4ca" d="M513.14,-349.92C526.1,-354.67 545.15,-361.65 563.73,-368.46"/>
<polygon fill="#8dd4ca" stroke="#8dd4ca" points="562.77,-371.84 573.37,-372 565.18,-365.27 562.77,-371.84"/>
</g>
<!-- d7cc7c6c&#45;c772&#45;40d9&#45;817a&#45;b136b73c50db -->
<g id="node30" class="node">
<title>d7cc7c6c&#45;c772&#45;40d9&#45;817a&#45;b136b73c50db</title>
<polygon fill="#8dd4ca" stroke="black" points="981.49,-354 927.49,-354 927.49,-318 981.49,-318 981.49,-354"/>
<text text-anchor="middle" x="954.49" y="-332.3" font-family="Times,serif" font-size="14.00"> </text>
</g>
<!-- b6a305ad&#45;d928&#45;4376&#45;9d3d&#45;0bf0f299aa70&#45;&gt;d7cc7c6c&#45;c772&#45;40d9&#45;817a&#45;b136b73c50db -->
<g id="edge23" class="edge">
<title>b6a305ad&#45;d928&#45;4376&#45;9d3d&#45;0bf0f299aa70&#45;&gt;d7cc7c6c&#45;c772&#45;40d9&#45;817a&#45;b136b73c50db</title>
<path fill="none" stroke="#8dd4ca" d="M514.05,-343.7C580.75,-342.53 824.78,-338.26 917.45,-336.63"/>
<polygon fill="#8dd4ca" stroke="#8dd4ca" points="917.54,-340.13 927.48,-336.46 917.42,-333.13 917.54,-340.13"/>
</g>
<!-- d7e3cb32&#45;3993&#45;4fca&#45;8c24&#45;2b33e9cd1a95&#45;&gt;95ef1458&#45;3fc5&#45;4649&#45;a18e&#45;387c543ae157 -->
<g id="edge13" class="edge">
<title>d7e3cb32&#45;3993&#45;4fca&#45;8c24&#45;2b33e9cd1a95&#45;&gt;95ef1458&#45;3fc5&#45;4649&#45;a18e&#45;387c543ae157</title>
<path fill="none" stroke="#8dd4ca" d="M1590.71,-420C1611.48,-420 1641.09,-420 1665.88,-420"/>
<polygon fill="#8dd4ca" stroke="#8dd4ca" points="1666.17,-423.5 1676.17,-420 1666.17,-416.5 1666.17,-423.5"/>
</g>
<!-- d7cc7c6c&#45;c772&#45;40d9&#45;817a&#45;b136b73c50db&#45;&gt;17bb3cc4&#45;c1fe&#45;4faa&#45;9953&#45;08b7c2d4a10a -->
<g id="edge24" class="edge">
<title>d7cc7c6c&#45;c772&#45;40d9&#45;817a&#45;b136b73c50db&#45;&gt;17bb3cc4&#45;c1fe&#45;4faa&#45;9953&#45;08b7c2d4a10a</title>
<path fill="none" stroke="#8dd4ca" d="M981.7,-340.52C1010.26,-345.44 1055.76,-353.29 1084.75,-358.29"/>
<polygon fill="#8dd4ca" stroke="#8dd4ca" points="1084.54,-361.8 1094.99,-360.05 1085.73,-354.9 1084.54,-361.8"/>
</g>
<!-- 6a02025c&#45;d185&#45;4067&#45;bddd&#45;a0191b811913&#45;&gt;5b09bb2c&#45;bc6f&#45;4a2b&#45;9027&#45;f406a511373a -->
<g id="edge12" class="edge">
<title>6a02025c&#45;d185&#45;4067&#45;bddd&#45;a0191b811913&#45;&gt;5b09bb2c&#45;bc6f&#45;4a2b&#45;9027&#45;f406a511373a</title>
<path fill="none" stroke="#8dd4ca" d="M1288.9,-377C1314.3,-377 1352.65,-377 1378.4,-377"/>
<polygon fill="#8dd4ca" stroke="#8dd4ca" points="1378.59,-380.5 1388.59,-377 1378.59,-373.5 1378.59,-380.5"/>
</g>
<!-- 67a36134&#45;a988&#45;4db9&#45;bd4a&#45;99e4f980bb1d&#45;&gt;4e4b669f&#45;7eb8&#45;4af6&#45;93f1&#45;64c288b6de2b -->
<g id="edge1" class="edge">
<title>67a36134&#45;a988&#45;4db9&#45;bd4a&#45;99e4f980bb1d&#45;&gt;4e4b669f&#45;7eb8&#45;4af6&#45;93f1&#45;64c288b6de2b</title>
<path fill="none" stroke="#8dd4ca" d="M186.29,-310.27C201.08,-318.93 219.45,-329.68 233.83,-338.1"/>
<polygon fill="#8dd4ca" stroke="#8dd4ca" points="232.24,-341.22 242.64,-343.25 235.77,-335.18 232.24,-341.22"/>
</g>
<!-- 67a36134&#45;a988&#45;4db9&#45;bd4a&#45;99e4f980bb1d&#45;&gt;9febcd0b&#45;c38c&#45;4466&#45;93be&#45;7d00d41b56cb -->
<g id="edge19" class="edge">
<title>67a36134&#45;a988&#45;4db9&#45;bd4a&#45;99e4f980bb1d&#45;&gt;9febcd0b&#45;c38c&#45;4466&#45;93be&#45;7d00d41b56cb</title>
<path fill="none" stroke="#8dd4ca" d="M186.29,-280.53C200.99,-272.38 219.22,-262.27 233.56,-254.32"/>
<polygon fill="#8dd4ca" stroke="#8dd4ca" points="235.31,-257.36 242.35,-249.45 231.91,-251.23 235.31,-257.36"/>
</g>
<!-- 154b52b5&#45;d276&#45;493c&#45;bb39&#45;1980907b9fd5&#45;&gt;9c70db10&#45;647b&#45;4bd3&#45;b84f&#45;0b19944f05b5 -->
<g id="edge9" class="edge">
<title>154b52b5&#45;d276&#45;493c&#45;bb39&#45;1980907b9fd5&#45;&gt;9c70db10&#45;647b&#45;4bd3&#45;b84f&#45;0b19944f05b5</title>
<path fill="none" stroke="#8dd4ca" d="M413.51,-406C429.92,-406 451.08,-406 467.73,-406"/>
<polygon fill="#8dd4ca" stroke="#8dd4ca" points="467.92,-409.5 477.92,-406 467.92,-402.5 467.92,-409.5"/>
</g>
<!-- eb0506a3&#45;caca&#45;4bcb&#45;a1f1&#45;1c1aef9aac6d&#45;&gt;02c7fad9&#45;48e8&#45;474a&#45;b99f&#45;1e598cbbaba5 -->
<g id="edge30" class="edge">
<title>eb0506a3&#45;caca&#45;4bcb&#45;a1f1&#45;1c1aef9aac6d&#45;&gt;02c7fad9&#45;48e8&#45;474a&#45;b99f&#45;1e598cbbaba5</title>
<path fill="none" stroke="#7bb866" d="M799.69,-229.6C815.07,-208.79 846.01,-170.15 879.99,-146 884.71,-142.64 889.84,-139.53 895.12,-136.67"/>
<polygon fill="#7bb866" stroke="#7bb866" points="896.78,-139.76 904.11,-132.11 893.61,-133.52 896.78,-139.76"/>
</g>
<!-- da521aee&#45;2fd0&#45;4c41&#45;aca6&#45;6ef2ea82c7b3&#45;&gt;4fa6d4ba&#45;18e7&#45;496a&#45;82ac&#45;12be993ae390 -->
<g id="edge36" class="edge">
<title>da521aee&#45;2fd0&#45;4c41&#45;aca6&#45;6ef2ea82c7b3&#45;&gt;4fa6d4ba&#45;18e7&#45;496a&#45;82ac&#45;12be993ae390</title>
<path fill="none" stroke="#7bb866" d="M513.91,-277.63C524.35,-275.55 538.5,-272.73 553.14,-269.81"/>
<polygon fill="#7bb866" stroke="#7bb866" points="554.19,-273.17 563.32,-267.79 552.83,-266.31 554.19,-273.17"/>
</g>
<!-- da521aee&#45;2fd0&#45;4c41&#45;aca6&#45;6ef2ea82c7b3&#45;&gt;be0c9eea&#45;9268&#45;4034&#45;bd00&#45;73a319795034 -->
<g id="edge34" class="edge">
<title>da521aee&#45;2fd0&#45;4c41&#45;aca6&#45;6ef2ea82c7b3&#45;&gt;be0c9eea&#45;9268&#45;4034&#45;bd00&#45;73a319795034</title>
<path fill="none" stroke="#7bb866" d="M514.29,-282.01C554.37,-284.36 655.3,-290.26 722.61,-294.2"/>
<polygon fill="#7bb866" stroke="#7bb866" points="722.51,-297.7 732.7,-294.79 722.92,-290.72 722.51,-297.7"/>
</g>
<!-- da521aee&#45;2fd0&#45;4c41&#45;aca6&#45;6ef2ea82c7b3&#45;&gt;2901e731&#45;74a1&#45;4afe&#45;9360&#45;904a9cb8b8e3 -->
<g id="edge35" class="edge">
<title>da521aee&#45;2fd0&#45;4c41&#45;aca6&#45;6ef2ea82c7b3&#45;&gt;2901e731&#45;74a1&#45;4afe&#45;9360&#45;904a9cb8b8e3</title>
<path fill="none" stroke="#7bb866" d="M507.93,-267.43C517.86,-255.87 533.45,-239.51 549.99,-229 552.43,-227.45 554.98,-225.96 557.59,-224.55"/>
<polygon fill="#7bb866" stroke="#7bb866" points="559.31,-227.6 566.69,-220.01 556.18,-221.34 559.31,-227.6"/>
</g>
<!-- 6ac6fc58&#45;9776&#45;43d3&#45;858c&#45;eaa60b701291&#45;&gt;10adbe9a&#45;0148&#45;4eb5&#45;a7e5&#45;204b31a283c9 -->
<g id="edge25" class="edge">
<title>6ac6fc58&#45;9776&#45;43d3&#45;858c&#45;eaa60b701291&#45;&gt;10adbe9a&#45;0148&#45;4eb5&#45;a7e5&#45;204b31a283c9</title>
<path fill="none" stroke="#7bb866" d="M1131.45,-114C1173.93,-114 1284.49,-114 1351.54,-114"/>
<polygon fill="#7bb866" stroke="#7bb866" points="1351.91,-117.5 1361.91,-114 1351.91,-110.5 1351.91,-117.5"/>
</g>
<!-- 78aebcb8&#45;05aa&#45;4ef4&#45;bfab&#45;0f824e61b0a1 -->
<g id="node39" class="node">
<title>78aebcb8&#45;05aa&#45;4ef4&#45;bfab&#45;0f824e61b0a1</title>
<polygon fill="#7bb866" stroke="black" points="1288.68,-82 1234.68,-82 1234.68,-46 1288.68,-46 1288.68,-82"/>
<text text-anchor="middle" x="1261.68" y="-60.3" font-family="Times,serif" font-size="14.00"> </text>
</g>
<!-- 6ac6fc58&#45;9776&#45;43d3&#45;858c&#45;eaa60b701291&#45;&gt;78aebcb8&#45;05aa&#45;4ef4&#45;bfab&#45;0f824e61b0a1 -->
<g id="edge31" class="edge">
<title>6ac6fc58&#45;9776&#45;43d3&#45;858c&#45;eaa60b701291&#45;&gt;78aebcb8&#45;05aa&#45;4ef4&#45;bfab&#45;0f824e61b0a1</title>
<path fill="none" stroke="#7bb866" d="M1130.33,-108.46C1152.97,-100.74 1194.6,-86.54 1224.74,-76.26"/>
<polygon fill="#7bb866" stroke="#7bb866" points="1226.14,-79.48 1234.48,-72.94 1223.88,-72.85 1226.14,-79.48"/>
</g>
<!-- d7204f54&#45;c93c&#45;4170&#45;97ee&#45;e3ee419255eb -->
<g id="node37" class="node">
<title>d7204f54&#45;c93c&#45;4170&#45;97ee&#45;e3ee419255eb</title>
<ellipse fill="#7bb866" stroke="black" cx="1406.68" cy="-60" rx="18" ry="18"/>
<text text-anchor="middle" x="1406.68" y="-56.3" font-family="Times,serif" font-size="14.00"> </text>
</g>
<!-- d7204f54&#45;c93c&#45;4170&#45;97ee&#45;e3ee419255eb&#45;&gt;d96b55e8&#45;9a3e&#45;428a&#45;98a5&#45;b6a03f09edeb -->
<g id="edge32" class="edge">
<title>d7204f54&#45;c93c&#45;4170&#45;97ee&#45;e3ee419255eb&#45;&gt;d96b55e8&#45;9a3e&#45;428a&#45;98a5&#45;b6a03f09edeb</title>
<path fill="none" stroke="#7bb866" d="M1424.86,-60.44C1437.94,-60.78 1457.02,-61.27 1476.84,-61.78"/>
<polygon fill="#7bb866" stroke="#7bb866" points="1476.83,-65.29 1486.92,-62.04 1477.01,-58.29 1476.83,-65.29"/>
</g>
<!-- 7542ee37&#45;f8e4&#45;4951&#45;abcf&#45;de25a3f69acd&#45;&gt;f211de41&#45;08b3&#45;49a1&#45;8c8b&#45;98ca174b60a0 -->
<g id="edge44" class="edge">
<title>7542ee37&#45;f8e4&#45;4951&#45;abcf&#45;de25a3f69acd&#45;&gt;f211de41&#45;08b3&#45;49a1&#45;8c8b&#45;98ca174b60a0</title>
<path fill="none" stroke="#7bb866" d="M1731.35,-64.8C1742.6,-65.32 1758.39,-66.05 1775.62,-66.85"/>
<polygon fill="#7bb866" stroke="#7bb866" points="1775.75,-70.36 1785.9,-67.33 1776.08,-63.37 1775.75,-70.36"/>
</g>
<!-- 32a1cc48&#45;3dd6&#45;4304&#45;a772&#45;489ae72416a2 -->
<g id="node40" class="node">
<title>32a1cc48&#45;3dd6&#45;4304&#45;a772&#45;489ae72416a2</title>
<polygon fill="#7bb866" stroke="black" points="1914.68,-36 1860.68,-36 1860.68,0 1914.68,0 1914.68,-36"/>
<text text-anchor="middle" x="1887.68" y="-14.3" font-family="Times,serif" font-size="14.00"> </text>
</g>
<!-- 7542ee37&#45;f8e4&#45;4951&#45;abcf&#45;de25a3f69acd&#45;&gt;32a1cc48&#45;3dd6&#45;4304&#45;a772&#45;489ae72416a2 -->
<g id="edge38" class="edge">
<title>7542ee37&#45;f8e4&#45;4951&#45;abcf&#45;de25a3f69acd&#45;&gt;32a1cc48&#45;3dd6&#45;4304&#45;a772&#45;489ae72416a2</title>
<path fill="none" stroke="#7bb866" d="M1730.72,-59.59C1758.16,-52.27 1813.72,-37.46 1850.57,-27.63"/>
<polygon fill="#7bb866" stroke="#7bb866" points="1851.66,-30.96 1860.42,-25 1849.86,-24.2 1851.66,-30.96"/>
</g>
<!-- 78aebcb8&#45;05aa&#45;4ef4&#45;bfab&#45;0f824e61b0a1&#45;&gt;d7204f54&#45;c93c&#45;4170&#45;97ee&#45;e3ee419255eb -->
<g id="edge43" class="edge">
<title>78aebcb8&#45;05aa&#45;4ef4&#45;bfab&#45;0f824e61b0a1&#45;&gt;d7204f54&#45;c93c&#45;4170&#45;97ee&#45;e3ee419255eb</title>
<path fill="none" stroke="#7bb866" d="M1288.9,-63.27C1314.3,-62.56 1352.65,-61.48 1378.4,-60.76"/>
<polygon fill="#7bb866" stroke="#7bb866" points="1378.69,-64.26 1388.59,-60.48 1378.49,-57.26 1378.69,-64.26"/>
</g>
<!-- 32a1cc48&#45;3dd6&#45;4304&#45;a772&#45;489ae72416a2&#45;&gt;d7204f54&#45;c93c&#45;4170&#45;97ee&#45;e3ee419255eb -->
<g id="edge27" class="edge">
<title>32a1cc48&#45;3dd6&#45;4304&#45;a772&#45;489ae72416a2&#45;&gt;d7204f54&#45;c93c&#45;4170&#45;97ee&#45;e3ee419255eb</title>
<path fill="none" stroke="#7bb866" d="M1860.28,-17.14C1795.96,-15.49 1626.23,-13.91 1487.18,-37 1468.98,-40.02 1449.04,-45.8 1433.68,-50.8"/>
<polygon fill="#7bb866" stroke="#7bb866" points="1432.23,-47.6 1423.86,-54.1 1434.46,-54.24 1432.23,-47.6"/>
</g>
<!-- a56b027e&#45;76a8&#45;457c&#45;a36f&#45;09cf5373eda5&#45;&gt;49d2cbfc&#45;3c2b&#45;4174&#45;b5bc&#45;d97314a6767f -->
<g id="edge48" class="edge">
<title>a56b027e&#45;76a8&#45;457c&#45;a36f&#45;09cf5373eda5&#45;&gt;49d2cbfc&#45;3c2b&#45;4174&#45;b5bc&#45;d97314a6767f</title>
<path fill="none" stroke="#813857" d="M1424.56,-325.51C1440.7,-327.9 1466.15,-331.68 1490.84,-335.34"/>
<polygon fill="#813857" stroke="#813857" points="1490.57,-338.84 1500.98,-336.84 1491.6,-331.91 1490.57,-338.84"/>
</g>
<!-- c3692269&#45;e6e5&#45;4dcb&#45;8a88&#45;53c29f30141b -->
<g id="node44" class="node">
<title>c3692269&#45;e6e5&#45;4dcb&#45;8a88&#45;53c29f30141b</title>
<polygon fill="#813857" stroke="black" points="1740.18,-314 1686.18,-314 1686.18,-278 1740.18,-278 1740.18,-314"/>
<text text-anchor="middle" x="1713.18" y="-292.3" font-family="Times,serif" font-size="14.00"> </text>
</g>
<!-- a56b027e&#45;76a8&#45;457c&#45;a36f&#45;09cf5373eda5&#45;&gt;c3692269&#45;e6e5&#45;4dcb&#45;8a88&#45;53c29f30141b -->
<g id="edge49" class="edge">
<title>a56b027e&#45;76a8&#45;457c&#45;a36f&#45;09cf5373eda5&#45;&gt;c3692269&#45;e6e5&#45;4dcb&#45;8a88&#45;53c29f30141b</title>
<path fill="none" stroke="#813857" d="M1424.92,-321.47C1473.07,-317.2 1609.72,-305.08 1675.68,-299.24"/>
<polygon fill="#813857" stroke="#813857" points="1676.36,-302.69 1686.01,-298.32 1675.74,-295.72 1676.36,-302.69"/>
</g>
<!-- 22a7f64b&#45;4a12&#45;4983&#45;a652&#45;2c794f6688ae&#45;&gt;4290d013&#45;0969&#45;4b9d&#45;b5b7&#45;9526a63c3f53 -->
<g id="edge52" class="edge">
<title>22a7f64b&#45;4a12&#45;4983&#45;a652&#45;2c794f6688ae&#45;&gt;4290d013&#45;0969&#45;4b9d&#45;b5b7&#45;9526a63c3f53</title>
<path fill="none" stroke="#813857" d="M1731.35,-349.8C1751.34,-349.57 1785.62,-349.17 1816.91,-348.81"/>
<polygon fill="#813857" stroke="#813857" points="1816.98,-352.31 1826.93,-348.69 1816.89,-345.31 1816.98,-352.31"/>
</g>
<!-- badef2b6&#45;71e6&#45;487c&#45;8c1b&#45;d770a4a367ac&#45;&gt;510ca6e8&#45;5bd3&#45;409f&#45;b5b0&#45;446d6a62e1c4 -->
<g id="edge53" class="edge">
<title>badef2b6&#45;71e6&#45;487c&#45;8c1b&#45;d770a4a367ac&#45;&gt;510ca6e8&#45;5bd3&#45;409f&#45;b5b0&#45;446d6a62e1c4</title>
<path fill="none" stroke="#813857" d="M2071.4,-324C2080.81,-324 2093.24,-324 2106.59,-324"/>
<polygon fill="#813857" stroke="#813857" points="2106.94,-327.5 2116.94,-324 2106.94,-320.5 2106.94,-327.5"/>
</g>
<!-- c3692269&#45;e6e5&#45;4dcb&#45;8a88&#45;53c29f30141b&#45;&gt;badef2b6&#45;71e6&#45;487c&#45;8c1b&#45;d770a4a367ac -->
<g id="edge50" class="edge">
<title>c3692269&#45;e6e5&#45;4dcb&#45;8a88&#45;53c29f30141b&#45;&gt;badef2b6&#45;71e6&#45;487c&#45;8c1b&#45;d770a4a367ac</title>
<path fill="none" stroke="#813857" d="M1740.42,-298.17C1803.17,-303.37 1961.43,-316.48 2025.06,-321.75"/>
<polygon fill="#813857" stroke="#813857" points="2024.86,-325.25 2035.12,-322.59 2025.44,-318.27 2024.86,-325.25"/>
</g>
</g>
</svg>
