<?xml version="1.0" encoding="UTF-8" standalone="no"?>
<!DOCTYPE svg PUBLIC "-//W3C//DTD SVG 1.1//EN"
 "http://www.w3.org/Graphics/SVG/1.1/DTD/svg11.dtd">
<!-- Generated by graphviz version 2.43.0 (0)
 -->
<!-- Title: ocdfg Pages: 1 -->
<svg width="2339pt" height="411pt"
 viewBox="0.00 0.00 2339.18 410.87" xmlns="http://www.w3.org/2000/svg" xmlns:xlink="http://www.w3.org/1999/xlink">
<g id="graph0" class="graph" transform="scale(1 1) rotate(0) translate(4 406.87)">
<title>ocdfg</title>
<polygon fill="white" stroke="transparent" points="-4,4 -4,-406.87 2335.18,-406.87 2335.18,4 -4,4"/>
<!-- 47782a57&#45;3a17&#45;4648&#45;a4ec&#45;1f3465722a89 -->
<g id="node1" class="node">
<title>47782a57&#45;3a17&#45;4648&#45;a4ec&#45;1f3465722a89</title>
<polygon fill="none" stroke="black" points="1028.99,-38 879.99,-38 879.99,-2 1028.99,-2 1028.99,-38"/>
<text text-anchor="middle" x="954.49" y="-16.3" font-family="Times,serif" font-size="14.00">Item back in Stock</text>
</g>
<!-- 7765c949&#45;13e1&#45;434a&#45;b299&#45;30d699a2b32f -->
<g id="node35" class="node">
<title>7765c949&#45;13e1&#45;434a&#45;b299&#45;30d699a2b32f</title>
<ellipse fill="#079d5f" stroke="black" cx="1113.08" cy="-26" rx="18" ry="18"/>
<text text-anchor="middle" x="1113.08" y="-22.3" font-family="Times,serif" font-size="14.00"> </text>
</g>
<!-- 47782a57&#45;3a17&#45;4648&#45;a4ec&#45;1f3465722a89&#45;&gt;7765c949&#45;13e1&#45;434a&#45;b299&#45;30d699a2b32f -->
<g id="edge33" class="edge">
<title>47782a57&#45;3a17&#45;4648&#45;a4ec&#45;1f3465722a89&#45;&gt;7765c949&#45;13e1&#45;434a&#45;b299&#45;30d699a2b32f</title>
<path fill="none" stroke="#079d5f" d="M1029.2,-22.82C1048.99,-23.58 1069.17,-24.36 1084.66,-24.95"/>
<polygon fill="#079d5f" stroke="#079d5f" points="1084.91,-28.46 1095.04,-25.35 1085.18,-21.47 1084.91,-28.46"/>
</g>
<!-- a76c7486&#45;4bde&#45;4830&#45;97f1&#45;5861dfc670df -->
<g id="node2" class="node">
<title>a76c7486&#45;4bde&#45;4830&#45;97f1&#45;5861dfc670df</title>
<polygon fill="none" stroke="black" points="696.99,-286 549.99,-286 549.99,-250 696.99,-250 696.99,-286"/>
<text text-anchor="middle" x="623.49" y="-264.3" font-family="Times,serif" font-size="14.00">Add Item to Order</text>
</g>
<!-- 26b17ae0&#45;46c8&#45;4ac8&#45;bc12&#45;15ad3f5ea8ad -->
<g id="node29" class="node">
<title>26b17ae0&#45;46c8&#45;4ac8&#45;bc12&#45;15ad3f5ea8ad</title>
<ellipse fill="#32f8ce" stroke="black" cx="788.49" cy="-287" rx="18" ry="18"/>
<text text-anchor="middle" x="788.49" y="-283.3" font-family="Times,serif" font-size="14.00"> </text>
</g>
<!-- a76c7486&#45;4bde&#45;4830&#45;97f1&#45;5861dfc670df&#45;&gt;26b17ae0&#45;46c8&#45;4ac8&#45;bc12&#45;15ad3f5ea8ad -->
<g id="edge16" class="edge">
<title>a76c7486&#45;4bde&#45;4830&#45;97f1&#45;5861dfc670df&#45;&gt;26b17ae0&#45;46c8&#45;4ac8&#45;bc12&#45;15ad3f5ea8ad</title>
<path fill="none" stroke="#32f8ce" d="M697.4,-276.5C719.65,-279.09 742.77,-281.79 760.01,-283.8"/>
<polygon fill="#32f8ce" stroke="#32f8ce" points="760.09,-287.33 770.43,-285.01 760.9,-280.38 760.09,-287.33"/>
</g>
<!-- 52dd22d4&#45;15af&#45;4dbd&#45;9be3&#45;9cfdf7e73264 -->
<g id="node33" class="node">
<title>52dd22d4&#45;15af&#45;4dbd&#45;9be3&#45;9cfdf7e73264</title>
<ellipse fill="#079d5f" stroke="black" cx="788.49" cy="-218" rx="18" ry="18"/>
<text text-anchor="middle" x="788.49" y="-214.3" font-family="Times,serif" font-size="14.00"> </text>
</g>
<!-- a76c7486&#45;4bde&#45;4830&#45;97f1&#45;5861dfc670df&#45;&gt;52dd22d4&#45;15af&#45;4dbd&#45;9be3&#45;9cfdf7e73264 -->
<g id="edge45" class="edge">
<title>a76c7486&#45;4bde&#45;4830&#45;97f1&#45;5861dfc670df&#45;&gt;52dd22d4&#45;15af&#45;4dbd&#45;9be3&#45;9cfdf7e73264</title>
<path fill="none" stroke="#079d5f" d="M683.33,-249.95C710.01,-241.76 740.21,-232.5 761.19,-226.07"/>
<polygon fill="#079d5f" stroke="#079d5f" points="762.44,-229.34 770.98,-223.06 760.39,-222.65 762.44,-229.34"/>
</g>
<!-- 597d93ea&#45;22e8&#45;475d&#45;97bd&#45;66b27bbc243e -->
<g id="node3" class="node">
<title>597d93ea&#45;22e8&#45;475d&#45;97bd&#45;66b27bbc243e</title>
<polygon fill="none" stroke="black" points="441.99,-190 330.99,-190 330.99,-154 441.99,-154 441.99,-190"/>
<text text-anchor="middle" x="386.49" y="-168.3" font-family="Times,serif" font-size="14.00">Create Order</text>
</g>
<!-- 45ca223c&#45;163c&#45;4e82&#45;aaf0&#45;d0c03a88d50f -->
<g id="node26" class="node">
<title>45ca223c&#45;163c&#45;4e82&#45;aaf0&#45;d0c03a88d50f</title>
<ellipse fill="#32f8ce" stroke="black" cx="495.99" cy="-297" rx="18" ry="18"/>
<text text-anchor="middle" x="495.99" y="-293.3" font-family="Times,serif" font-size="14.00"> </text>
</g>
<!-- 597d93ea&#45;22e8&#45;475d&#45;97bd&#45;66b27bbc243e&#45;&gt;45ca223c&#45;163c&#45;4e82&#45;aaf0&#45;d0c03a88d50f -->
<g id="edge26" class="edge">
<title>597d93ea&#45;22e8&#45;475d&#45;97bd&#45;66b27bbc243e&#45;&gt;45ca223c&#45;163c&#45;4e82&#45;aaf0&#45;d0c03a88d50f</title>
<path fill="none" stroke="#32f8ce" d="M403.12,-190.18C422.7,-212.95 456.2,-251.9 476.88,-275.95"/>
<polygon fill="#32f8ce" stroke="#32f8ce" points="474.44,-278.48 483.62,-283.78 479.75,-273.92 474.44,-278.48"/>
</g>
<!-- 36d6f433&#45;b5ad&#45;4ba9&#45;af0f&#45;b8ec72e84297 -->
<g id="node38" class="node">
<title>36d6f433&#45;b5ad&#45;4ba9&#45;af0f&#45;b8ec72e84297</title>
<ellipse fill="#079d5f" stroke="black" cx="495.99" cy="-118" rx="18" ry="18"/>
<text text-anchor="middle" x="495.99" y="-114.3" font-family="Times,serif" font-size="14.00"> </text>
</g>
<!-- 597d93ea&#45;22e8&#45;475d&#45;97bd&#45;66b27bbc243e&#45;&gt;36d6f433&#45;b5ad&#45;4ba9&#45;af0f&#45;b8ec72e84297 -->
<g id="edge32" class="edge">
<title>597d93ea&#45;22e8&#45;475d&#45;97bd&#45;66b27bbc243e&#45;&gt;36d6f433&#45;b5ad&#45;4ba9&#45;af0f&#45;b8ec72e84297</title>
<path fill="none" stroke="#079d5f" stroke-width="4" d="M424.16,-153.9C430.12,-150.94 436.23,-147.89 441.99,-145 451.34,-140.3 461.59,-135.09 470.57,-130.51"/>
<polygon fill="#079d5f" stroke="#079d5f" stroke-width="4" points="472.39,-133.51 479.7,-125.84 469.2,-127.28 472.39,-133.51"/>
</g>
<!-- 4d8dc6f4&#45;56ef&#45;4a73&#45;a9f0&#45;f7d3b279d001 -->
<g id="node4" class="node">
<title>4d8dc6f4&#45;56ef&#45;4a73&#45;a9f0&#45;f7d3b279d001</title>
<polygon fill="none" stroke="black" points="1006.99,-305 901.99,-305 901.99,-269 1006.99,-269 1006.99,-305"/>
<text text-anchor="middle" x="954.49" y="-283.3" font-family="Times,serif" font-size="14.00">Invoice Sent</text>
</g>
<!-- 1c15fd1d&#45;eb4b&#45;4eb0&#45;afe3&#45;e871284fdd2c -->
<g id="node30" class="node">
<title>1c15fd1d&#45;eb4b&#45;4eb0&#45;afe3&#45;e871284fdd2c</title>
<ellipse fill="#32f8ce" stroke="black" cx="1113.08" cy="-287" rx="18" ry="18"/>
<text text-anchor="middle" x="1113.08" y="-283.3" font-family="Times,serif" font-size="14.00"> </text>
</g>
<!-- 4d8dc6f4&#45;56ef&#45;4a73&#45;a9f0&#45;f7d3b279d001&#45;&gt;1c15fd1d&#45;eb4b&#45;4eb0&#45;afe3&#45;e871284fdd2c -->
<g id="edge13" class="edge">
<title>4d8dc6f4&#45;56ef&#45;4a73&#45;a9f0&#45;f7d3b279d001&#45;&gt;1c15fd1d&#45;eb4b&#45;4eb0&#45;afe3&#45;e871284fdd2c</title>
<path fill="none" stroke="#32f8ce" d="M1007.19,-287C1032.99,-287 1063.15,-287 1084.49,-287"/>
<polygon fill="#32f8ce" stroke="#32f8ce" points="1084.78,-290.5 1094.78,-287 1084.78,-283.5 1084.78,-290.5"/>
</g>
<!-- b249f711&#45;6744&#45;4c04&#45;b9c8&#45;b5606d801198 -->
<g id="node5" class="node">
<title>b249f711&#45;6744&#45;4c04&#45;b9c8&#45;b5606d801198</title>
<polygon fill="none" stroke="black" points="1936.18,-308 1733.18,-308 1733.18,-272 1936.18,-272 1936.18,-308"/>
<text text-anchor="middle" x="1834.68" y="-286.3" font-family="Times,serif" font-size="14.00">Send for Credit Collection</text>
</g>
<!-- df734594&#45;1cfa&#45;48fc&#45;9382&#45;1045f82b096b -->
<g id="node19" class="node">
<title>df734594&#45;1cfa&#45;48fc&#45;9382&#45;1045f82b096b</title>
<polygon fill="none" stroke="transparent" points="2028.18,-308 1972.18,-308 1972.18,-272 2028.18,-272 2028.18,-308"/>
<polyline fill="none" stroke="black" points="1972.18,-272 2028.18,-272 "/>
<text text-anchor="middle" x="2000.18" y="-286.3" font-family="Times,serif" font-size="14.00" fill="#32f8ce">order</text>
</g>
<!-- b249f711&#45;6744&#45;4c04&#45;b9c8&#45;b5606d801198&#45;&gt;df734594&#45;1cfa&#45;48fc&#45;9382&#45;1045f82b096b -->
<g id="edge21" class="edge">
<title>b249f711&#45;6744&#45;4c04&#45;b9c8&#45;b5606d801198&#45;&gt;df734594&#45;1cfa&#45;48fc&#45;9382&#45;1045f82b096b</title>
<path fill="none" stroke="#32f8ce" d="M1936.43,-290C1945.38,-290 1954,-290 1961.84,-290"/>
<polygon fill="#32f8ce" stroke="#32f8ce" points="1962.01,-293.5 1972.01,-290 1962.01,-286.5 1962.01,-293.5"/>
</g>
<!-- 51004d9c&#45;008d&#45;434e&#45;8a50&#45;9cd0365ce90a -->
<g id="node6" class="node">
<title>51004d9c&#45;008d&#45;434e&#45;8a50&#45;9cd0365ce90a</title>
<polygon fill="none" stroke="black" points="843.99,-182 732.99,-182 732.99,-146 843.99,-146 843.99,-182"/>
<text text-anchor="middle" x="788.49" y="-160.3" font-family="Times,serif" font-size="14.00">Remove Item</text>
</g>
<!-- e8fd3de4&#45;9104&#45;4063&#45;8563&#45;8222cee7dfca -->
<g id="node34" class="node">
<title>e8fd3de4&#45;9104&#45;4063&#45;8563&#45;8222cee7dfca</title>
<ellipse fill="#079d5f" stroke="black" cx="1380.18" cy="-145" rx="18" ry="18"/>
<text text-anchor="middle" x="1380.18" y="-141.3" font-family="Times,serif" font-size="14.00"> </text>
</g>
<!-- 51004d9c&#45;008d&#45;434e&#45;8a50&#45;9cd0365ce90a&#45;&gt;e8fd3de4&#45;9104&#45;4063&#45;8563&#45;8222cee7dfca -->
<g id="edge37" class="edge">
<title>51004d9c&#45;008d&#45;434e&#45;8a50&#45;9cd0365ce90a&#45;&gt;e8fd3de4&#45;9104&#45;4063&#45;8563&#45;8222cee7dfca</title>
<path fill="none" stroke="#079d5f" d="M844.01,-163.8C941.05,-163.17 1150.1,-160.59 1326.18,-150 1334.52,-149.5 1343.57,-148.73 1351.8,-147.94"/>
<polygon fill="#079d5f" stroke="#079d5f" points="1352.41,-151.4 1362.01,-146.92 1351.71,-144.43 1352.41,-151.4"/>
</g>
<!-- 0ce6a7c0&#45;af8d&#45;4680&#45;8168&#45;ad146de3975b -->
<g id="node7" class="node">
<title>0ce6a7c0&#45;af8d&#45;4680&#45;8168&#45;ad146de3975b</title>
<polygon fill="none" stroke="black" points="2221.18,-105 2064.18,-105 2064.18,-69 2221.18,-69 2221.18,-105"/>
<text text-anchor="middle" x="2142.68" y="-83.3" font-family="Times,serif" font-size="14.00">Delivery Successful</text>
</g>
<!-- 198d0e89&#45;21f7&#45;403d&#45;889f&#45;6906b63371c1 -->
<g id="node17" class="node">
<title>198d0e89&#45;21f7&#45;403d&#45;889f&#45;6906b63371c1</title>
<polygon fill="none" stroke="transparent" points="2331.18,-105 2257.18,-105 2257.18,-69 2331.18,-69 2331.18,-105"/>
<polyline fill="none" stroke="black" points="2257.18,-69 2331.18,-69 "/>
<text text-anchor="middle" x="2294.18" y="-83.3" font-family="Times,serif" font-size="14.00" fill="#74b9c3">delivery</text>
</g>
<!-- 0ce6a7c0&#45;af8d&#45;4680&#45;8168&#45;ad146de3975b&#45;&gt;198d0e89&#45;21f7&#45;403d&#45;889f&#45;6906b63371c1 -->
<g id="edge7" class="edge">
<title>0ce6a7c0&#45;af8d&#45;4680&#45;8168&#45;ad146de3975b&#45;&gt;198d0e89&#45;21f7&#45;403d&#45;889f&#45;6906b63371c1</title>
<path fill="none" stroke="#74b9c3" d="M2221.49,-87C2230.08,-87 2238.61,-87 2246.63,-87"/>
<polygon fill="#74b9c3" stroke="#74b9c3" points="2246.84,-90.5 2256.84,-87 2246.84,-83.5 2246.84,-90.5"/>
</g>
<!-- 35d63b56&#45;a448&#45;40ca&#45;b83d&#45;b887611b487e -->
<g id="node8" class="node">
<title>35d63b56&#45;a448&#45;40ca&#45;b83d&#45;b887611b487e</title>
<polygon fill="none" stroke="black" points="1895.18,-130 1774.18,-130 1774.18,-94 1895.18,-94 1895.18,-130"/>
<text text-anchor="middle" x="1834.68" y="-108.3" font-family="Times,serif" font-size="14.00">Retry Delivery</text>
</g>
<!-- 142b3091&#45;3324&#45;4b74&#45;b79b&#45;8670578e1849 -->
<g id="node22" class="node">
<title>142b3091&#45;3324&#45;4b74&#45;b79b&#45;8670578e1849</title>
<ellipse fill="#74b9c3" stroke="black" cx="2000.18" cy="-87" rx="18" ry="18"/>
<text text-anchor="middle" x="2000.18" y="-83.3" font-family="Times,serif" font-size="14.00"> </text>
</g>
<!-- 35d63b56&#45;a448&#45;40ca&#45;b83d&#45;b887611b487e&#45;&gt;142b3091&#45;3324&#45;4b74&#45;b79b&#45;8670578e1849 -->
<g id="edge10" class="edge">
<title>35d63b56&#45;a448&#45;40ca&#45;b83d&#45;b887611b487e&#45;&gt;142b3091&#45;3324&#45;4b74&#45;b79b&#45;8670578e1849</title>
<path fill="none" stroke="#74b9c3" d="M1895.63,-102.83C1921.86,-98.82 1951.32,-94.32 1972.09,-91.14"/>
<polygon fill="#74b9c3" stroke="#74b9c3" points="1972.74,-94.58 1982.1,-89.61 1971.69,-87.66 1972.74,-94.58"/>
</g>
<!-- be6b735f&#45;0da1&#45;4695&#45;a722&#45;e6e2fb593939 -->
<g id="node9" class="node">
<title>be6b735f&#45;0da1&#45;4695&#45;a722&#45;e6e2fb593939</title>
<polygon fill="none" stroke="black" points="1009.99,-399 898.99,-399 898.99,-363 1009.99,-363 1009.99,-399"/>
<text text-anchor="middle" x="954.49" y="-377.3" font-family="Times,serif" font-size="14.00">Cancel Order</text>
</g>
<!-- be6b735f&#45;0da1&#45;4695&#45;a722&#45;e6e2fb593939&#45;&gt;df734594&#45;1cfa&#45;48fc&#45;9382&#45;1045f82b096b -->
<g id="edge22" class="edge">
<title>be6b735f&#45;0da1&#45;4695&#45;a722&#45;e6e2fb593939&#45;&gt;df734594&#45;1cfa&#45;48fc&#45;9382&#45;1045f82b096b</title>
<path fill="none" stroke="#32f8ce" d="M1010.05,-383.58C1071.1,-386.24 1172.95,-390 1260.68,-390 1260.68,-390 1260.68,-390 1661.18,-390 1783.69,-390 1828.04,-428.59 1936.18,-371 1958.37,-359.18 1975.24,-335.77 1985.92,-317.14"/>
<polygon fill="#32f8ce" stroke="#32f8ce" points="1989.08,-318.65 1990.79,-308.19 1982.93,-315.3 1989.08,-318.65"/>
</g>
<!-- 698a4091&#45;9112&#45;4e30&#45;a6ac&#45;a11341d909a0 -->
<g id="node10" class="node">
<title>698a4091&#45;9112&#45;4e30&#45;a6ac&#45;a11341d909a0</title>
<polygon fill="none" stroke="black" points="1306.18,-266 1217.18,-266 1217.18,-230 1306.18,-230 1306.18,-266"/>
<text text-anchor="middle" x="1261.68" y="-244.3" font-family="Times,serif" font-size="14.00">Pay Order</text>
</g>
<!-- 698a4091&#45;9112&#45;4e30&#45;a6ac&#45;a11341d909a0&#45;&gt;df734594&#45;1cfa&#45;48fc&#45;9382&#45;1045f82b096b -->
<g id="edge20" class="edge">
<title>698a4091&#45;9112&#45;4e30&#45;a6ac&#45;a11341d909a0&#45;&gt;df734594&#45;1cfa&#45;48fc&#45;9382&#45;1045f82b096b</title>
<path fill="none" stroke="#32f8ce" d="M1306.4,-246.86C1355.76,-245.68 1438.48,-244 1509.68,-244 1509.68,-244 1509.68,-244 1661.18,-244 1783.69,-244 1817.09,-234.24 1936.18,-263 1945,-265.13 1954.16,-268.39 1962.67,-271.91"/>
<polygon fill="#32f8ce" stroke="#32f8ce" points="1961.39,-275.17 1971.95,-275.96 1964.19,-268.76 1961.39,-275.17"/>
</g>
<!-- a3a8c0ec&#45;be3c&#45;4780&#45;9032&#45;681a778f8e77 -->
<g id="node11" class="node">
<title>a3a8c0ec&#45;be3c&#45;4780&#45;9032&#45;681a778f8e77</title>
<polygon fill="none" stroke="black" points="1587.18,-316 1434.18,-316 1434.18,-280 1587.18,-280 1587.18,-316"/>
<text text-anchor="middle" x="1510.68" y="-294.3" font-family="Times,serif" font-size="14.00">Payment Reminder</text>
</g>
<!-- 706dd6ee&#45;6909&#45;44b8&#45;b8f4&#45;8376c40a29c7 -->
<g id="node28" class="node">
<title>706dd6ee&#45;6909&#45;44b8&#45;b8f4&#45;8376c40a29c7</title>
<ellipse fill="#32f8ce" stroke="black" cx="1660.18" cy="-298" rx="18" ry="18"/>
<text text-anchor="middle" x="1660.18" y="-294.3" font-family="Times,serif" font-size="14.00"> </text>
</g>
<!-- a3a8c0ec&#45;be3c&#45;4780&#45;9032&#45;681a778f8e77&#45;&gt;706dd6ee&#45;6909&#45;44b8&#45;b8f4&#45;8376c40a29c7 -->
<g id="edge29" class="edge">
<title>a3a8c0ec&#45;be3c&#45;4780&#45;9032&#45;681a778f8e77&#45;&gt;706dd6ee&#45;6909&#45;44b8&#45;b8f4&#45;8376c40a29c7</title>
<path fill="none" stroke="#32f8ce" d="M1587.59,-298C1603.42,-298 1619.12,-298 1631.76,-298"/>
<polygon fill="#32f8ce" stroke="#32f8ce" points="1632.02,-301.5 1642.02,-298 1632.02,-294.5 1632.02,-301.5"/>
</g>
<!-- 62725166&#45;fc39&#45;4eac&#45;a544&#45;e9fdf26fffab -->
<g id="node12" class="node">
<title>62725166&#45;fc39&#45;4eac&#45;a544&#45;e9fdf26fffab</title>
<polygon fill="none" stroke="black" points="693.49,-40 553.49,-40 553.49,-4 693.49,-4 693.49,-40"/>
<text text-anchor="middle" x="623.49" y="-18.3" font-family="Times,serif" font-size="14.00">Item out of Stock</text>
</g>
<!-- 6f980868&#45;107e&#45;424f&#45;b2da&#45;b6d7423958c9 -->
<g id="node39" class="node">
<title>6f980868&#45;107e&#45;424f&#45;b2da&#45;b6d7423958c9</title>
<ellipse fill="#079d5f" stroke="black" cx="788.49" cy="-18" rx="18" ry="18"/>
<text text-anchor="middle" x="788.49" y="-14.3" font-family="Times,serif" font-size="14.00"> </text>
</g>
<!-- 62725166&#45;fc39&#45;4eac&#45;a544&#45;e9fdf26fffab&#45;&gt;6f980868&#45;107e&#45;424f&#45;b2da&#45;b6d7423958c9 -->
<g id="edge54" class="edge">
<title>62725166&#45;fc39&#45;4eac&#45;a544&#45;e9fdf26fffab&#45;&gt;6f980868&#45;107e&#45;424f&#45;b2da&#45;b6d7423958c9</title>
<path fill="none" stroke="#079d5f" d="M693.61,-20.3C717,-19.73 741.79,-19.12 760.01,-18.67"/>
<polygon fill="#079d5f" stroke="#079d5f" points="760.27,-22.17 770.18,-18.42 760.1,-15.17 760.27,-22.17"/>
</g>
<!-- c7e64be1&#45;2018&#45;4454&#45;8024&#45;c545cb5b5dd4 -->
<g id="node13" class="node">
<title>c7e64be1&#45;2018&#45;4454&#45;8024&#45;c545cb5b5dd4</title>
<polygon fill="none" stroke="black" points="1573.18,-130 1448.18,-130 1448.18,-94 1573.18,-94 1573.18,-130"/>
<text text-anchor="middle" x="1510.68" y="-108.3" font-family="Times,serif" font-size="14.00">Delivery Failed</text>
</g>
<!-- ea30c631&#45;046e&#45;48c0&#45;9367&#45;54638ff2accd -->
<g id="node24" class="node">
<title>ea30c631&#45;046e&#45;48c0&#45;9367&#45;54638ff2accd</title>
<ellipse fill="#74b9c3" stroke="black" cx="1660.18" cy="-114" rx="18" ry="18"/>
<text text-anchor="middle" x="1660.18" y="-110.3" font-family="Times,serif" font-size="14.00"> </text>
</g>
<!-- c7e64be1&#45;2018&#45;4454&#45;8024&#45;c545cb5b5dd4&#45;&gt;ea30c631&#45;046e&#45;48c0&#45;9367&#45;54638ff2accd -->
<g id="edge4" class="edge">
<title>c7e64be1&#45;2018&#45;4454&#45;8024&#45;c545cb5b5dd4&#45;&gt;ea30c631&#45;046e&#45;48c0&#45;9367&#45;54638ff2accd</title>
<path fill="none" stroke="#74b9c3" d="M1573.38,-112.84C1593.84,-113.11 1615.57,-113.41 1632.05,-113.63"/>
<polygon fill="#74b9c3" stroke="#74b9c3" points="1632,-117.13 1642.05,-113.77 1632.1,-110.13 1632,-117.13"/>
</g>
<!-- d6246397&#45;6007&#45;4643&#45;8038&#45;5117b916301a -->
<g id="node14" class="node">
<title>d6246397&#45;6007&#45;4643&#45;8038&#45;5117b916301a</title>
<polygon fill="none" stroke="black" points="683.49,-340 563.49,-340 563.49,-304 683.49,-304 683.49,-340"/>
<text text-anchor="middle" x="623.49" y="-318.3" font-family="Times,serif" font-size="14.00">Confirm Order</text>
</g>
<!-- d6246397&#45;6007&#45;4643&#45;8038&#45;5117b916301a&#45;&gt;26b17ae0&#45;46c8&#45;4ac8&#45;bc12&#45;15ad3f5ea8ad -->
<g id="edge18" class="edge">
<title>d6246397&#45;6007&#45;4643&#45;8038&#45;5117b916301a&#45;&gt;26b17ae0&#45;46c8&#45;4ac8&#45;bc12&#45;15ad3f5ea8ad</title>
<path fill="none" stroke="#32f8ce" d="M683.79,-309.27C710.15,-303.61 739.85,-297.23 760.69,-292.75"/>
<polygon fill="#32f8ce" stroke="#32f8ce" points="761.68,-296.12 770.72,-290.6 760.21,-289.28 761.68,-296.12"/>
</g>
<!-- 4c1837ca&#45;d9d0&#45;498e&#45;a6e8&#45;7c917c24abe0 -->
<g id="node15" class="node">
<title>4c1837ca&#45;d9d0&#45;498e&#45;a6e8&#45;7c917c24abe0</title>
<polygon fill="none" stroke="black" points="1326.18,-98 1197.18,-98 1197.18,-62 1326.18,-62 1326.18,-98"/>
<text text-anchor="middle" x="1261.68" y="-76.3" font-family="Times,serif" font-size="14.00">Create Delivery</text>
</g>
<!-- bf0ce3ec&#45;c1fe&#45;428f&#45;ace7&#45;c1bf4acf7d8e -->
<g id="node23" class="node">
<title>bf0ce3ec&#45;c1fe&#45;428f&#45;ace7&#45;c1bf4acf7d8e</title>
<ellipse fill="#74b9c3" stroke="black" cx="1380.18" cy="-80" rx="18" ry="18"/>
<text text-anchor="middle" x="1380.18" y="-76.3" font-family="Times,serif" font-size="14.00"> </text>
</g>
<!-- 4c1837ca&#45;d9d0&#45;498e&#45;a6e8&#45;7c917c24abe0&#45;&gt;bf0ce3ec&#45;c1fe&#45;428f&#45;ace7&#45;c1bf4acf7d8e -->
<g id="edge3" class="edge">
<title>4c1837ca&#45;d9d0&#45;498e&#45;a6e8&#45;7c917c24abe0&#45;&gt;bf0ce3ec&#45;c1fe&#45;428f&#45;ace7&#45;c1bf4acf7d8e</title>
<path fill="none" stroke="#74b9c3" d="M1326.38,-80C1335.33,-80 1344.12,-80 1351.87,-80"/>
<polygon fill="#74b9c3" stroke="#74b9c3" points="1352.05,-83.5 1362.05,-80 1352.05,-76.5 1352.05,-83.5"/>
</g>
<!-- 4c1837ca&#45;d9d0&#45;498e&#45;a6e8&#45;7c917c24abe0&#45;&gt;e8fd3de4&#45;9104&#45;4063&#45;8563&#45;8222cee7dfca -->
<g id="edge48" class="edge">
<title>4c1837ca&#45;d9d0&#45;498e&#45;a6e8&#45;7c917c24abe0&#45;&gt;e8fd3de4&#45;9104&#45;4063&#45;8563&#45;8222cee7dfca</title>
<path fill="none" stroke="#079d5f" stroke-width="4" d="M1299.91,-98.06C1308.61,-102.47 1317.78,-107.28 1326.18,-112 1336.1,-117.57 1346.8,-124.13 1355.97,-129.92"/>
<polygon fill="#079d5f" stroke="#079d5f" stroke-width="4" points="1354.23,-132.96 1364.54,-135.39 1358,-127.06 1354.23,-132.96"/>
</g>
<!-- 65307181&#45;dbcf&#45;4af8&#45;837b&#45;23b545021e42 -->
<g id="node16" class="node">
<title>65307181&#45;dbcf&#45;4af8&#45;837b&#45;23b545021e42</title>
<ellipse fill="#74b9c3" stroke="black" cx="1113.08" cy="-80" rx="48.19" ry="18"/>
<text text-anchor="middle" x="1113.08" y="-76.3" font-family="Times,serif" font-size="14.00">delivery</text>
</g>
<!-- 65307181&#45;dbcf&#45;4af8&#45;837b&#45;23b545021e42&#45;&gt;4c1837ca&#45;d9d0&#45;498e&#45;a6e8&#45;7c917c24abe0 -->
<g id="edge8" class="edge">
<title>65307181&#45;dbcf&#45;4af8&#45;837b&#45;23b545021e42&#45;&gt;4c1837ca&#45;d9d0&#45;498e&#45;a6e8&#45;7c917c24abe0</title>
<path fill="none" stroke="#74b9c3" d="M1161.27,-80C1169.45,-80 1178.13,-80 1186.83,-80"/>
<polygon fill="#74b9c3" stroke="#74b9c3" points="1187,-83.5 1197,-80 1187,-76.5 1187,-83.5"/>
</g>
<!-- 7dc5c146&#45;8a00&#45;43a8&#45;a176&#45;2b061d464c3f -->
<g id="node18" class="node">
<title>7dc5c146&#45;8a00&#45;43a8&#45;a176&#45;2b061d464c3f</title>
<ellipse fill="#32f8ce" stroke="black" cx="258.59" cy="-172" rx="36.29" ry="18"/>
<text text-anchor="middle" x="258.59" y="-168.3" font-family="Times,serif" font-size="14.00">order</text>
</g>
<!-- 7dc5c146&#45;8a00&#45;43a8&#45;a176&#45;2b061d464c3f&#45;&gt;597d93ea&#45;22e8&#45;475d&#45;97bd&#45;66b27bbc243e -->
<g id="edge15" class="edge">
<title>7dc5c146&#45;8a00&#45;43a8&#45;a176&#45;2b061d464c3f&#45;&gt;597d93ea&#45;22e8&#45;475d&#45;97bd&#45;66b27bbc243e</title>
<path fill="none" stroke="#32f8ce" d="M294.99,-172C302.94,-172 311.61,-172 320.34,-172"/>
<polygon fill="#32f8ce" stroke="#32f8ce" points="320.58,-175.5 330.58,-172 320.58,-168.5 320.58,-175.5"/>
</g>
<!-- 5187604d&#45;8f72&#45;4bd0&#45;bad0&#45;ac21cd75c5d8 -->
<g id="node20" class="node">
<title>5187604d&#45;8f72&#45;4bd0&#45;bad0&#45;ac21cd75c5d8</title>
<ellipse fill="#079d5f" stroke="black" cx="48.1" cy="-168" rx="48.19" ry="18"/>
<text text-anchor="middle" x="48.1" y="-164.3" font-family="Times,serif" font-size="14.00">element</text>
</g>
<!-- 0b4a9cd2&#45;9479&#45;4a57&#45;a4f2&#45;fa77fe7ef1f9 -->
<g id="node41" class="node">
<title>0b4a9cd2&#45;9479&#45;4a57&#45;a4f2&#45;fa77fe7ef1f9</title>
<polygon fill="#079d5f" stroke="black" points="186.19,-186 132.19,-186 132.19,-150 186.19,-150 186.19,-186"/>
<text text-anchor="middle" x="159.19" y="-164.3" font-family="Times,serif" font-size="14.00"> </text>
</g>
<!-- 5187604d&#45;8f72&#45;4bd0&#45;bad0&#45;ac21cd75c5d8&#45;&gt;0b4a9cd2&#45;9479&#45;4a57&#45;a4f2&#45;fa77fe7ef1f9 -->
<g id="edge38" class="edge">
<title>5187604d&#45;8f72&#45;4bd0&#45;bad0&#45;ac21cd75c5d8&#45;&gt;0b4a9cd2&#45;9479&#45;4a57&#45;a4f2&#45;fa77fe7ef1f9</title>
<path fill="none" stroke="#079d5f" d="M96.31,-168C104.8,-168 113.53,-168 121.66,-168"/>
<polygon fill="#079d5f" stroke="#079d5f" points="121.93,-171.5 131.93,-168 121.93,-164.5 121.93,-171.5"/>
</g>
<!-- 22aa02f4&#45;761e&#45;442f&#45;8c9e&#45;31eeffebc3c0 -->
<g id="node21" class="node">
<title>22aa02f4&#45;761e&#45;442f&#45;8c9e&#45;31eeffebc3c0</title>
<polygon fill="none" stroke="transparent" points="1697.18,-199 1623.18,-199 1623.18,-163 1697.18,-163 1697.18,-199"/>
<polyline fill="none" stroke="black" points="1623.18,-163 1697.18,-163 "/>
<text text-anchor="middle" x="1660.18" y="-177.3" font-family="Times,serif" font-size="14.00" fill="#079d5f">element</text>
</g>
<!-- 142b3091&#45;3324&#45;4b74&#45;b79b&#45;8670578e1849&#45;&gt;0ce6a7c0&#45;af8d&#45;4680&#45;8168&#45;ad146de3975b -->
<g id="edge6" class="edge">
<title>142b3091&#45;3324&#45;4b74&#45;b79b&#45;8670578e1849&#45;&gt;0ce6a7c0&#45;af8d&#45;4680&#45;8168&#45;ad146de3975b</title>
<path fill="none" stroke="#74b9c3" d="M2018.4,-87C2027.81,-87 2040.24,-87 2053.59,-87"/>
<polygon fill="#74b9c3" stroke="#74b9c3" points="2053.94,-90.5 2063.94,-87 2053.94,-83.5 2053.94,-90.5"/>
</g>
<!-- bf0ce3ec&#45;c1fe&#45;428f&#45;ace7&#45;c1bf4acf7d8e&#45;&gt;c7e64be1&#45;2018&#45;4454&#45;8024&#45;c545cb5b5dd4 -->
<g id="edge9" class="edge">
<title>bf0ce3ec&#45;c1fe&#45;428f&#45;ace7&#45;c1bf4acf7d8e&#45;&gt;c7e64be1&#45;2018&#45;4454&#45;8024&#45;c545cb5b5dd4</title>
<path fill="none" stroke="#74b9c3" d="M1397.71,-84.12C1408.33,-86.76 1422.94,-90.4 1438.1,-94.17"/>
<polygon fill="#74b9c3" stroke="#74b9c3" points="1437.55,-97.65 1448.1,-96.67 1439.24,-90.85 1437.55,-97.65"/>
</g>
<!-- ae54bdcf&#45;0b2a&#45;485d&#45;bbd1&#45;b22e33417c87 -->
<g id="node25" class="node">
<title>ae54bdcf&#45;0b2a&#45;485d&#45;bbd1&#45;b22e33417c87</title>
<polygon fill="#74b9c3" stroke="black" points="1687.18,-78 1633.18,-78 1633.18,-42 1687.18,-42 1687.18,-78"/>
<text text-anchor="middle" x="1660.18" y="-56.3" font-family="Times,serif" font-size="14.00"> </text>
</g>
<!-- bf0ce3ec&#45;c1fe&#45;428f&#45;ace7&#45;c1bf4acf7d8e&#45;&gt;ae54bdcf&#45;0b2a&#45;485d&#45;bbd1&#45;b22e33417c87 -->
<g id="edge1" class="edge">
<title>bf0ce3ec&#45;c1fe&#45;428f&#45;ace7&#45;c1bf4acf7d8e&#45;&gt;ae54bdcf&#45;0b2a&#45;485d&#45;bbd1&#45;b22e33417c87</title>
<path fill="none" stroke="#74b9c3" d="M1398.15,-78.78C1442.41,-75.59 1562.12,-66.98 1622.83,-62.61"/>
<polygon fill="#74b9c3" stroke="#74b9c3" points="1623.37,-66.08 1633.1,-61.88 1622.87,-59.1 1623.37,-66.08"/>
</g>
<!-- ea30c631&#45;046e&#45;48c0&#45;9367&#45;54638ff2accd&#45;&gt;35d63b56&#45;a448&#45;40ca&#45;b83d&#45;b887611b487e -->
<g id="edge5" class="edge">
<title>ea30c631&#45;046e&#45;48c0&#45;9367&#45;54638ff2accd&#45;&gt;35d63b56&#45;a448&#45;40ca&#45;b83d&#45;b887611b487e</title>
<path fill="none" stroke="#74b9c3" d="M1678.35,-113.8C1698.34,-113.57 1732.62,-113.17 1763.91,-112.81"/>
<polygon fill="#74b9c3" stroke="#74b9c3" points="1763.98,-116.31 1773.93,-112.69 1763.89,-109.31 1763.98,-116.31"/>
</g>
<!-- ae54bdcf&#45;0b2a&#45;485d&#45;bbd1&#45;b22e33417c87&#45;&gt;142b3091&#45;3324&#45;4b74&#45;b79b&#45;8670578e1849 -->
<g id="edge2" class="edge">
<title>ae54bdcf&#45;0b2a&#45;485d&#45;bbd1&#45;b22e33417c87&#45;&gt;142b3091&#45;3324&#45;4b74&#45;b79b&#45;8670578e1849</title>
<path fill="none" stroke="#74b9c3" d="M1687.42,-62.1C1750.17,-67.11 1908.43,-79.75 1972.06,-84.83"/>
<polygon fill="#74b9c3" stroke="#74b9c3" points="1971.87,-88.33 1982.12,-85.64 1972.43,-81.35 1971.87,-88.33"/>
</g>
<!-- 45ca223c&#45;163c&#45;4e82&#45;aaf0&#45;d0c03a88d50f&#45;&gt;a76c7486&#45;4bde&#45;4830&#45;97f1&#45;5861dfc670df -->
<g id="edge25" class="edge">
<title>45ca223c&#45;163c&#45;4e82&#45;aaf0&#45;d0c03a88d50f&#45;&gt;a76c7486&#45;4bde&#45;4830&#45;97f1&#45;5861dfc670df</title>
<path fill="none" stroke="#32f8ce" d="M513.65,-293.15C520.9,-291.47 529.98,-289.38 539.79,-287.11"/>
<polygon fill="#32f8ce" stroke="#32f8ce" points="540.84,-290.46 549.8,-284.8 539.26,-283.64 540.84,-290.46"/>
</g>
<!-- 45ca223c&#45;163c&#45;4e82&#45;aaf0&#45;d0c03a88d50f&#45;&gt;be6b735f&#45;0da1&#45;4695&#45;a722&#45;e6e2fb593939 -->
<g id="edge30" class="edge">
<title>45ca223c&#45;163c&#45;4e82&#45;aaf0&#45;d0c03a88d50f&#45;&gt;be6b735f&#45;0da1&#45;4695&#45;a722&#45;e6e2fb593939</title>
<path fill="none" stroke="#32f8ce" d="M507.29,-311.75C516.81,-324.07 532.15,-340.88 549.99,-349 660.64,-399.41 806.05,-396.3 888.68,-388.98"/>
<polygon fill="#32f8ce" stroke="#32f8ce" points="889.05,-392.46 898.68,-388.05 888.4,-385.49 889.05,-392.46"/>
</g>
<!-- 45ca223c&#45;163c&#45;4e82&#45;aaf0&#45;d0c03a88d50f&#45;&gt;d6246397&#45;6007&#45;4643&#45;8038&#45;5117b916301a -->
<g id="edge17" class="edge">
<title>45ca223c&#45;163c&#45;4e82&#45;aaf0&#45;d0c03a88d50f&#45;&gt;d6246397&#45;6007&#45;4643&#45;8038&#45;5117b916301a</title>
<path fill="none" stroke="#32f8ce" d="M513.91,-300.37C524.35,-302.45 538.5,-305.27 553.14,-308.19"/>
<polygon fill="#32f8ce" stroke="#32f8ce" points="552.83,-311.69 563.32,-310.21 554.19,-304.83 552.83,-311.69"/>
</g>
<!-- 37158919&#45;45a4&#45;4051&#45;9da2&#45;8b3a16dd0945 -->
<g id="node27" class="node">
<title>37158919&#45;45a4&#45;4051&#45;9da2&#45;8b3a16dd0945</title>
<ellipse fill="#32f8ce" stroke="black" cx="1380.18" cy="-302" rx="18" ry="18"/>
<text text-anchor="middle" x="1380.18" y="-298.3" font-family="Times,serif" font-size="14.00"> </text>
</g>
<!-- 37158919&#45;45a4&#45;4051&#45;9da2&#45;8b3a16dd0945&#45;&gt;a3a8c0ec&#45;be3c&#45;4780&#45;9032&#45;681a778f8e77 -->
<g id="edge14" class="edge">
<title>37158919&#45;45a4&#45;4051&#45;9da2&#45;8b3a16dd0945&#45;&gt;a3a8c0ec&#45;be3c&#45;4780&#45;9032&#45;681a778f8e77</title>
<path fill="none" stroke="#32f8ce" d="M1398.24,-301.47C1405.38,-301.25 1414.26,-300.97 1423.87,-300.67"/>
<polygon fill="#32f8ce" stroke="#32f8ce" points="1424.22,-304.16 1434.1,-300.35 1424,-297.17 1424.22,-304.16"/>
</g>
<!-- 706dd6ee&#45;6909&#45;44b8&#45;b8f4&#45;8376c40a29c7&#45;&gt;b249f711&#45;6744&#45;4c04&#45;b9c8&#45;b5606d801198 -->
<g id="edge12" class="edge">
<title>706dd6ee&#45;6909&#45;44b8&#45;b8f4&#45;8376c40a29c7&#45;&gt;b249f711&#45;6744&#45;4c04&#45;b9c8&#45;b5606d801198</title>
<path fill="none" stroke="#32f8ce" d="M1678.35,-297.2C1689.6,-296.68 1705.39,-295.95 1722.62,-295.15"/>
<polygon fill="#32f8ce" stroke="#32f8ce" points="1723.08,-298.63 1732.9,-294.67 1722.75,-291.64 1723.08,-298.63"/>
</g>
<!-- 23470cc9&#45;1062&#45;4a04&#45;bd93&#45;bd5963a31dfc -->
<g id="node32" class="node">
<title>23470cc9&#45;1062&#45;4a04&#45;bd93&#45;bd5963a31dfc</title>
<polygon fill="#32f8ce" stroke="black" points="1861.68,-362 1807.68,-362 1807.68,-326 1861.68,-326 1861.68,-362"/>
<text text-anchor="middle" x="1834.68" y="-340.3" font-family="Times,serif" font-size="14.00"> </text>
</g>
<!-- 706dd6ee&#45;6909&#45;44b8&#45;b8f4&#45;8376c40a29c7&#45;&gt;23470cc9&#45;1062&#45;4a04&#45;bd93&#45;bd5963a31dfc -->
<g id="edge24" class="edge">
<title>706dd6ee&#45;6909&#45;44b8&#45;b8f4&#45;8376c40a29c7&#45;&gt;23470cc9&#45;1062&#45;4a04&#45;bd93&#45;bd5963a31dfc</title>
<path fill="none" stroke="#32f8ce" d="M1677.72,-302.41C1705.16,-309.73 1760.72,-324.54 1797.57,-334.37"/>
<polygon fill="#32f8ce" stroke="#32f8ce" points="1796.86,-337.8 1807.42,-337 1798.66,-331.04 1796.86,-337.8"/>
</g>
<!-- 26b17ae0&#45;46c8&#45;4ac8&#45;bc12&#45;15ad3f5ea8ad&#45;&gt;4d8dc6f4&#45;56ef&#45;4a73&#45;a9f0&#45;f7d3b279d001 -->
<g id="edge19" class="edge">
<title>26b17ae0&#45;46c8&#45;4ac8&#45;bc12&#45;15ad3f5ea8ad&#45;&gt;4d8dc6f4&#45;56ef&#45;4a73&#45;a9f0&#45;f7d3b279d001</title>
<path fill="none" stroke="#32f8ce" d="M806.73,-287C826.82,-287 861.17,-287 891.58,-287"/>
<polygon fill="#32f8ce" stroke="#32f8ce" points="891.72,-290.5 901.72,-287 891.72,-283.5 891.72,-290.5"/>
</g>
<!-- 1c15fd1d&#45;eb4b&#45;4eb0&#45;afe3&#45;e871284fdd2c&#45;&gt;698a4091&#45;9112&#45;4e30&#45;a6ac&#45;a11341d909a0 -->
<g id="edge27" class="edge">
<title>1c15fd1d&#45;eb4b&#45;4eb0&#45;afe3&#45;e871284fdd2c&#45;&gt;698a4091&#45;9112&#45;4e30&#45;a6ac&#45;a11341d909a0</title>
<path fill="none" stroke="#32f8ce" d="M1130.61,-282.6C1149.15,-277.67 1180.18,-269.42 1207.28,-262.21"/>
<polygon fill="#32f8ce" stroke="#32f8ce" points="1208.29,-265.56 1217.05,-259.61 1206.49,-258.79 1208.29,-265.56"/>
</g>
<!-- 4fcf71ef&#45;dc13&#45;45fb&#45;a6bb&#45;ceef26ecebd7 -->
<g id="node31" class="node">
<title>4fcf71ef&#45;dc13&#45;45fb&#45;a6bb&#45;ceef26ecebd7</title>
<polygon fill="#32f8ce" stroke="black" points="1288.68,-320 1234.68,-320 1234.68,-284 1288.68,-284 1288.68,-320"/>
<text text-anchor="middle" x="1261.68" y="-298.3" font-family="Times,serif" font-size="14.00"> </text>
</g>
<!-- 1c15fd1d&#45;eb4b&#45;4eb0&#45;afe3&#45;e871284fdd2c&#45;&gt;4fcf71ef&#45;dc13&#45;45fb&#45;a6bb&#45;ceef26ecebd7 -->
<g id="edge11" class="edge">
<title>1c15fd1d&#45;eb4b&#45;4eb0&#45;afe3&#45;e871284fdd2c&#45;&gt;4fcf71ef&#45;dc13&#45;45fb&#45;a6bb&#45;ceef26ecebd7</title>
<path fill="none" stroke="#32f8ce" d="M1131.18,-288.75C1153.95,-291.08 1194.8,-295.26 1224.54,-298.3"/>
<polygon fill="#32f8ce" stroke="#32f8ce" points="1224.25,-301.79 1234.55,-299.33 1224.96,-294.83 1224.25,-301.79"/>
</g>
<!-- 4fcf71ef&#45;dc13&#45;45fb&#45;a6bb&#45;ceef26ecebd7&#45;&gt;37158919&#45;45a4&#45;4051&#45;9da2&#45;8b3a16dd0945 -->
<g id="edge28" class="edge">
<title>4fcf71ef&#45;dc13&#45;45fb&#45;a6bb&#45;ceef26ecebd7&#45;&gt;37158919&#45;45a4&#45;4051&#45;9da2&#45;8b3a16dd0945</title>
<path fill="none" stroke="#32f8ce" d="M1288.82,-302C1307.64,-302 1332.96,-302 1352.01,-302"/>
<polygon fill="#32f8ce" stroke="#32f8ce" points="1352.13,-305.5 1362.13,-302 1352.13,-298.5 1352.13,-305.5"/>
</g>
<!-- 23470cc9&#45;1062&#45;4a04&#45;bd93&#45;bd5963a31dfc&#45;&gt;37158919&#45;45a4&#45;4051&#45;9da2&#45;8b3a16dd0945 -->
<g id="edge23" class="edge">
<title>23470cc9&#45;1062&#45;4a04&#45;bd93&#45;bd5963a31dfc&#45;&gt;37158919&#45;45a4&#45;4051&#45;9da2&#45;8b3a16dd0945</title>
<path fill="none" stroke="#32f8ce" d="M1807.53,-345.97C1743.07,-350.13 1571.81,-357 1434.18,-325 1424.52,-322.76 1414.43,-318.82 1405.66,-314.83"/>
<polygon fill="#32f8ce" stroke="#32f8ce" points="1406.97,-311.57 1396.44,-310.39 1403.93,-317.88 1406.97,-311.57"/>
</g>
<!-- 11ea64e9&#45;2676&#45;4ed0&#45;8d70&#45;f3609a9c6b13 -->
<g id="node40" class="node">
<title>11ea64e9&#45;2676&#45;4ed0&#45;8d70&#45;f3609a9c6b13</title>
<polygon fill="#079d5f" stroke="black" points="1537.68,-199 1483.68,-199 1483.68,-163 1537.68,-163 1537.68,-199"/>
<text text-anchor="middle" x="1510.68" y="-177.3" font-family="Times,serif" font-size="14.00"> </text>
</g>
<!-- 52dd22d4&#45;15af&#45;4dbd&#45;9be3&#45;9cfdf7e73264&#45;&gt;11ea64e9&#45;2676&#45;4ed0&#45;8d70&#45;f3609a9c6b13 -->
<g id="edge43" class="edge">
<title>52dd22d4&#45;15af&#45;4dbd&#45;9be3&#45;9cfdf7e73264&#45;&gt;11ea64e9&#45;2676&#45;4ed0&#45;8d70&#45;f3609a9c6b13</title>
<path fill="none" stroke="#079d5f" d="M806.61,-216.55C854.71,-212.61 995.16,-202 1112.08,-202 1112.08,-202 1112.08,-202 1262.68,-202 1337.85,-202 1425.44,-192.22 1473.5,-186.01"/>
<polygon fill="#079d5f" stroke="#079d5f" points="1473.96,-189.48 1483.42,-184.71 1473.05,-182.54 1473.96,-189.48"/>
</g>
<!-- e8fd3de4&#45;9104&#45;4063&#45;8563&#45;8222cee7dfca&#45;&gt;11ea64e9&#45;2676&#45;4ed0&#45;8d70&#45;f3609a9c6b13 -->
<g id="edge50" class="edge">
<title>e8fd3de4&#45;9104&#45;4063&#45;8563&#45;8222cee7dfca&#45;&gt;11ea64e9&#45;2676&#45;4ed0&#45;8d70&#45;f3609a9c6b13</title>
<path fill="none" stroke="#079d5f" d="M1397.71,-149.63C1416.78,-154.97 1448.68,-163.91 1473.57,-170.88"/>
<polygon fill="#079d5f" stroke="#079d5f" points="1472.83,-174.31 1483.4,-173.64 1474.72,-167.57 1472.83,-174.31"/>
</g>
<!-- 7765c949&#45;13e1&#45;434a&#45;b299&#45;30d699a2b32f&#45;&gt;4c1837ca&#45;d9d0&#45;498e&#45;a6e8&#45;7c917c24abe0 -->
<g id="edge42" class="edge">
<title>7765c949&#45;13e1&#45;434a&#45;b299&#45;30d699a2b32f&#45;&gt;4c1837ca&#45;d9d0&#45;498e&#45;a6e8&#45;7c917c24abe0</title>
<path fill="none" stroke="#079d5f" stroke-width="4" d="M1130.33,-31.99C1147.72,-38.39 1176.34,-48.93 1202.33,-58.51"/>
<polygon fill="#079d5f" stroke="#079d5f" stroke-width="4" points="1201.17,-61.81 1211.76,-61.98 1203.59,-55.24 1201.17,-61.81"/>
</g>
<!-- 809c213a&#45;2ed6&#45;4f1e&#45;9fee&#45;5c798bc1ce3a -->
<g id="node36" class="node">
<title>809c213a&#45;2ed6&#45;4f1e&#45;9fee&#45;5c798bc1ce3a</title>
<ellipse fill="#079d5f" stroke="black" cx="495.99" cy="-218" rx="18" ry="18"/>
<text text-anchor="middle" x="495.99" y="-214.3" font-family="Times,serif" font-size="14.00"> </text>
</g>
<!-- 809c213a&#45;2ed6&#45;4f1e&#45;9fee&#45;5c798bc1ce3a&#45;&gt;a76c7486&#45;4bde&#45;4830&#45;97f1&#45;5861dfc670df -->
<g id="edge35" class="edge">
<title>809c213a&#45;2ed6&#45;4f1e&#45;9fee&#45;5c798bc1ce3a&#45;&gt;a76c7486&#45;4bde&#45;4830&#45;97f1&#45;5861dfc670df</title>
<path fill="none" stroke="#079d5f" d="M512.66,-225.06C523.16,-229.73 537.33,-235.9 549.99,-241 554.35,-242.76 558.88,-244.54 563.44,-246.31"/>
<polygon fill="#079d5f" stroke="#079d5f" points="562.23,-249.59 572.82,-249.9 564.74,-243.06 562.23,-249.59"/>
</g>
<!-- 50e98291&#45;89fe&#45;4f1d&#45;b75f&#45;dd8265c10446 -->
<g id="node42" class="node">
<title>50e98291&#45;89fe&#45;4f1d&#45;b75f&#45;dd8265c10446</title>
<polygon fill="#079d5f" stroke="black" points="650.49,-232 596.49,-232 596.49,-196 650.49,-196 650.49,-232"/>
<text text-anchor="middle" x="623.49" y="-210.3" font-family="Times,serif" font-size="14.00"> </text>
</g>
<!-- 809c213a&#45;2ed6&#45;4f1e&#45;9fee&#45;5c798bc1ce3a&#45;&gt;50e98291&#45;89fe&#45;4f1d&#45;b75f&#45;dd8265c10446 -->
<g id="edge44" class="edge">
<title>809c213a&#45;2ed6&#45;4f1e&#45;9fee&#45;5c798bc1ce3a&#45;&gt;50e98291&#45;89fe&#45;4f1d&#45;b75f&#45;dd8265c10446</title>
<path fill="none" stroke="#079d5f" d="M514.17,-217.45C532.65,-216.86 562.57,-215.91 586.28,-215.15"/>
<polygon fill="#079d5f" stroke="#079d5f" points="586.46,-218.65 596.35,-214.83 586.24,-211.65 586.46,-218.65"/>
</g>
<!-- da0620ab&#45;fbd1&#45;436c&#45;9608&#45;450e1992b888 -->
<g id="node37" class="node">
<title>da0620ab&#45;fbd1&#45;436c&#45;9608&#45;450e1992b888</title>
<ellipse fill="#079d5f" stroke="black" cx="258.59" cy="-118" rx="18" ry="18"/>
<text text-anchor="middle" x="258.59" y="-114.3" font-family="Times,serif" font-size="14.00"> </text>
</g>
<!-- da0620ab&#45;fbd1&#45;436c&#45;9608&#45;450e1992b888&#45;&gt;597d93ea&#45;22e8&#45;475d&#45;97bd&#45;66b27bbc243e -->
<g id="edge39" class="edge">
<title>da0620ab&#45;fbd1&#45;436c&#45;9608&#45;450e1992b888&#45;&gt;597d93ea&#45;22e8&#45;475d&#45;97bd&#45;66b27bbc243e</title>
<path fill="none" stroke="#079d5f" stroke-width="4" d="M275.53,-124.84C290.35,-131.19 313.23,-141.01 334.29,-150.04"/>
<polygon fill="#079d5f" stroke="#079d5f" stroke-width="4" points="332.92,-153.26 343.49,-153.99 335.67,-146.83 332.92,-153.26"/>
</g>
<!-- ccbab9bc&#45;26bd&#45;4d94&#45;9e14&#45;a2ad7de7790e -->
<g id="node43" class="node">
<title>ccbab9bc&#45;26bd&#45;4d94&#45;9e14&#45;a2ad7de7790e</title>
<polygon fill="#079d5f" stroke="black" points="413.49,-136 359.49,-136 359.49,-100 413.49,-100 413.49,-136"/>
<text text-anchor="middle" x="386.49" y="-114.3" font-family="Times,serif" font-size="14.00"> </text>
</g>
<!-- da0620ab&#45;fbd1&#45;436c&#45;9608&#45;450e1992b888&#45;&gt;ccbab9bc&#45;26bd&#45;4d94&#45;9e14&#45;a2ad7de7790e -->
<g id="edge36" class="edge">
<title>da0620ab&#45;fbd1&#45;436c&#45;9608&#45;450e1992b888&#45;&gt;ccbab9bc&#45;26bd&#45;4d94&#45;9e14&#45;a2ad7de7790e</title>
<path fill="none" stroke="#079d5f" d="M276.83,-118C295.37,-118 325.38,-118 349.17,-118"/>
<polygon fill="#079d5f" stroke="#079d5f" points="349.26,-121.5 359.26,-118 349.26,-114.5 349.26,-121.5"/>
</g>
<!-- 36d6f433&#45;b5ad&#45;4ba9&#45;af0f&#45;b8ec72e84297&#45;&gt;51004d9c&#45;008d&#45;434e&#45;8a50&#45;9cd0365ce90a -->
<g id="edge34" class="edge">
<title>36d6f433&#45;b5ad&#45;4ba9&#45;af0f&#45;b8ec72e84297&#45;&gt;51004d9c&#45;008d&#45;434e&#45;8a50&#45;9cd0365ce90a</title>
<path fill="none" stroke="#079d5f" d="M513.57,-122.95C523.96,-125.91 537.66,-129.55 549.99,-132 607.96,-143.52 674.74,-152.11 722.69,-157.47"/>
<polygon fill="#079d5f" stroke="#079d5f" points="722.61,-160.98 732.93,-158.6 723.37,-154.03 722.61,-160.98"/>
</g>
<!-- 36d6f433&#45;b5ad&#45;4ba9&#45;af0f&#45;b8ec72e84297&#45;&gt;62725166&#45;fc39&#45;4eac&#45;a544&#45;e9fdf26fffab -->
<g id="edge41" class="edge">
<title>36d6f433&#45;b5ad&#45;4ba9&#45;af0f&#45;b8ec72e84297&#45;&gt;62725166&#45;fc39&#45;4eac&#45;a544&#45;e9fdf26fffab</title>
<path fill="none" stroke="#079d5f" d="M508.15,-103.95C518.23,-91.86 533.89,-74.45 549.99,-62 557.92,-55.86 566.91,-50.1 575.79,-44.97"/>
<polygon fill="#079d5f" stroke="#079d5f" points="577.57,-47.98 584.6,-40.05 574.16,-41.87 577.57,-47.98"/>
</g>
<!-- 4eae2e26&#45;925b&#45;4d7d&#45;8fbb&#45;89946db8dfa7 -->
<g id="node44" class="node">
<title>4eae2e26&#45;925b&#45;4d7d&#45;8fbb&#45;89946db8dfa7</title>
<polygon fill="#079d5f" stroke="black" points="981.49,-136 927.49,-136 927.49,-100 981.49,-100 981.49,-136"/>
<text text-anchor="middle" x="954.49" y="-114.3" font-family="Times,serif" font-size="14.00"> </text>
</g>
<!-- 36d6f433&#45;b5ad&#45;4ba9&#45;af0f&#45;b8ec72e84297&#45;&gt;4eae2e26&#45;925b&#45;4d7d&#45;8fbb&#45;89946db8dfa7 -->
<g id="edge46" class="edge">
<title>36d6f433&#45;b5ad&#45;4ba9&#45;af0f&#45;b8ec72e84297&#45;&gt;4eae2e26&#45;925b&#45;4d7d&#45;8fbb&#45;89946db8dfa7</title>
<path fill="none" stroke="#079d5f" d="M514.05,-118C580.75,-118 824.78,-118 917.45,-118"/>
<polygon fill="#079d5f" stroke="#079d5f" points="917.48,-121.5 927.48,-118 917.48,-114.5 917.48,-121.5"/>
</g>
<!-- 1294ef8f&#45;dc8b&#45;459c&#45;9518&#45;17a2d9f25570 -->
<g id="node45" class="node">
<title>1294ef8f&#45;dc8b&#45;459c&#45;9518&#45;17a2d9f25570</title>
<polygon fill="#079d5f" stroke="black" points="815.49,-90 761.49,-90 761.49,-54 815.49,-54 815.49,-90"/>
<text text-anchor="middle" x="788.49" y="-68.3" font-family="Times,serif" font-size="14.00"> </text>
</g>
<!-- 36d6f433&#45;b5ad&#45;4ba9&#45;af0f&#45;b8ec72e84297&#45;&gt;1294ef8f&#45;dc8b&#45;459c&#45;9518&#45;17a2d9f25570 -->
<g id="edge52" class="edge">
<title>36d6f433&#45;b5ad&#45;4ba9&#45;af0f&#45;b8ec72e84297&#45;&gt;1294ef8f&#45;dc8b&#45;459c&#45;9518&#45;17a2d9f25570</title>
<path fill="none" stroke="#079d5f" d="M513.57,-113.05C523.96,-110.09 537.66,-106.45 549.99,-104 620.74,-89.94 704.6,-80.25 751.35,-75.46"/>
<polygon fill="#079d5f" stroke="#079d5f" points="751.71,-78.94 761.3,-74.45 751,-71.97 751.71,-78.94"/>
</g>
<!-- 6f980868&#45;107e&#45;424f&#45;b2da&#45;b6d7423958c9&#45;&gt;47782a57&#45;3a17&#45;4648&#45;a4ec&#45;1f3465722a89 -->
<g id="edge55" class="edge">
<title>6f980868&#45;107e&#45;424f&#45;b2da&#45;b6d7423958c9&#45;&gt;47782a57&#45;3a17&#45;4648&#45;a4ec&#45;1f3465722a89</title>
<path fill="none" stroke="#079d5f" d="M806.73,-18.21C822.05,-18.4 845.67,-18.69 869.51,-18.98"/>
<polygon fill="#079d5f" stroke="#079d5f" points="869.67,-22.48 879.71,-19.1 869.76,-15.48 869.67,-22.48"/>
</g>
<!-- 11ea64e9&#45;2676&#45;4ed0&#45;8d70&#45;f3609a9c6b13&#45;&gt;22aa02f4&#45;761e&#45;442f&#45;8c9e&#45;31eeffebc3c0 -->
<g id="edge31" class="edge">
<title>11ea64e9&#45;2676&#45;4ed0&#45;8d70&#45;f3609a9c6b13&#45;&gt;22aa02f4&#45;761e&#45;442f&#45;8c9e&#45;31eeffebc3c0</title>
<path fill="none" stroke="#079d5f" d="M1537.71,-181C1558.48,-181 1588.09,-181 1612.88,-181"/>
<polygon fill="#079d5f" stroke="#079d5f" points="1613.17,-184.5 1623.17,-181 1613.17,-177.5 1613.17,-184.5"/>
</g>
<!-- 0b4a9cd2&#45;9479&#45;4a57&#45;a4f2&#45;fa77fe7ef1f9&#45;&gt;809c213a&#45;2ed6&#45;4f1e&#45;9fee&#45;5c798bc1ce3a -->
<g id="edge53" class="edge">
<title>0b4a9cd2&#45;9479&#45;4a57&#45;a4f2&#45;fa77fe7ef1f9&#45;&gt;809c213a&#45;2ed6&#45;4f1e&#45;9fee&#45;5c798bc1ce3a</title>
<path fill="none" stroke="#079d5f" d="M186.43,-184C197.14,-189.75 209.89,-195.64 222.19,-199 309.48,-222.84 417.99,-221.71 467.75,-219.58"/>
<polygon fill="#079d5f" stroke="#079d5f" points="468.18,-223.07 478,-219.09 467.84,-216.07 468.18,-223.07"/>
</g>
<!-- 0b4a9cd2&#45;9479&#45;4a57&#45;a4f2&#45;fa77fe7ef1f9&#45;&gt;da0620ab&#45;fbd1&#45;436c&#45;9608&#45;450e1992b888 -->
<g id="edge56" class="edge">
<title>0b4a9cd2&#45;9479&#45;4a57&#45;a4f2&#45;fa77fe7ef1f9&#45;&gt;da0620ab&#45;fbd1&#45;436c&#45;9608&#45;450e1992b888</title>
<path fill="none" stroke="#079d5f" d="M186.29,-154.6C200.85,-147.13 218.87,-137.88 233.15,-130.54"/>
<polygon fill="#079d5f" stroke="#079d5f" points="235.06,-133.5 242.35,-125.82 231.86,-127.27 235.06,-133.5"/>
</g>
<!-- 50e98291&#45;89fe&#45;4f1d&#45;b75f&#45;dd8265c10446&#45;&gt;52dd22d4&#45;15af&#45;4dbd&#45;9be3&#45;9cfdf7e73264 -->
<g id="edge49" class="edge">
<title>50e98291&#45;89fe&#45;4f1d&#45;b75f&#45;dd8265c10446&#45;&gt;52dd22d4&#45;15af&#45;4dbd&#45;9be3&#45;9cfdf7e73264</title>
<path fill="none" stroke="#079d5f" d="M650.67,-214.64C680.65,-215.38 729.53,-216.58 760.03,-217.33"/>
<polygon fill="#079d5f" stroke="#079d5f" points="760.28,-220.83 770.36,-217.58 760.45,-213.84 760.28,-220.83"/>
</g>
<!-- ccbab9bc&#45;26bd&#45;4d94&#45;9e14&#45;a2ad7de7790e&#45;&gt;36d6f433&#45;b5ad&#45;4ba9&#45;af0f&#45;b8ec72e84297 -->
<g id="edge51" class="edge">
<title>ccbab9bc&#45;26bd&#45;4d94&#45;9e14&#45;a2ad7de7790e&#45;&gt;36d6f433&#45;b5ad&#45;4ba9&#45;af0f&#45;b8ec72e84297</title>
<path fill="none" stroke="#079d5f" d="M413.51,-118C429.92,-118 451.08,-118 467.73,-118"/>
<polygon fill="#079d5f" stroke="#079d5f" points="467.92,-121.5 477.92,-118 467.92,-114.5 467.92,-121.5"/>
</g>
<!-- 4eae2e26&#45;925b&#45;4d7d&#45;8fbb&#45;89946db8dfa7&#45;&gt;e8fd3de4&#45;9104&#45;4063&#45;8563&#45;8222cee7dfca -->
<g id="edge40" class="edge">
<title>4eae2e26&#45;925b&#45;4d7d&#45;8fbb&#45;89946db8dfa7&#45;&gt;e8fd3de4&#45;9104&#45;4063&#45;8563&#45;8222cee7dfca</title>
<path fill="none" stroke="#079d5f" d="M981.67,-119.67C1057.16,-124.48 1274.75,-138.35 1351.76,-143.25"/>
<polygon fill="#079d5f" stroke="#079d5f" points="1351.87,-146.77 1362.07,-143.91 1352.31,-139.78 1351.87,-146.77"/>
</g>
<!-- 1294ef8f&#45;dc8b&#45;459c&#45;9518&#45;17a2d9f25570&#45;&gt;7765c949&#45;13e1&#45;434a&#45;b299&#45;30d699a2b32f -->
<g id="edge47" class="edge">
<title>1294ef8f&#45;dc8b&#45;459c&#45;9518&#45;17a2d9f25570&#45;&gt;7765c949&#45;13e1&#45;434a&#45;b299&#45;30d699a2b32f</title>
<path fill="none" stroke="#079d5f" d="M815.53,-70.51C859.7,-67.71 952.01,-60.67 1028.99,-47 1048.21,-43.58 1069.57,-38.15 1085.81,-33.67"/>
<polygon fill="#079d5f" stroke="#079d5f" points="1087,-36.97 1095.68,-30.89 1085.1,-30.23 1087,-36.97"/>
</g>
</g>
</svg>
